<?xml version="1.0" encoding="utf-8" standalone="no"?>
<!DOCTYPE svg PUBLIC "-//W3C//DTD SVG 1.1//EN"
  "http://www.w3.org/Graphics/SVG/1.1/DTD/svg11.dtd">
<svg xmlns:xlink="http://www.w3.org/1999/xlink" width="720pt" height="360pt" viewBox="0 0 720 360" xmlns="http://www.w3.org/2000/svg" version="1.1">
 <metadata>
  <rdf:RDF xmlns:dc="http://purl.org/dc/elements/1.1/" xmlns:cc="http://creativecommons.org/ns#" xmlns:rdf="http://www.w3.org/1999/02/22-rdf-syntax-ns#">
   <cc:Work>
    <dc:type rdf:resource="http://purl.org/dc/dcmitype/StillImage"/>
    <dc:date>2022-10-31T17:12:04.524270</dc:date>
    <dc:format>image/svg+xml</dc:format>
    <dc:creator>
     <cc:Agent>
      <dc:title>Matplotlib v3.6.0, https://matplotlib.org/</dc:title>
     </cc:Agent>
    </dc:creator>
   </cc:Work>
  </rdf:RDF>
 </metadata>
 <defs>
  <style type="text/css">*{stroke-linejoin: round; stroke-linecap: butt}</style>
 </defs>
 <g id="figure_1">
  <g id="patch_1">
   <path d="M 0 360 
L 720 360 
L 720 0 
L 0 0 
z
" style="fill: #ffffff"/>
  </g>
  <g id="axes_1">
   <g id="patch_2">
    <path d="M 47.82125 317.93875 
L 364.27 317.93875 
L 364.27 10.8 
L 47.82125 10.8 
z
" style="fill: #ffffff"/>
   </g>
   <g id="PolyCollection_1">
    <defs>
     <path id="mc0f45b0ea5" d="M 62.205284 -171.884079 
L 62.205284 -171.884079 
L 79.127677 -199.112235 
L 96.05007 -219.224063 
L 112.972463 -65.834264 
L 129.894856 -251.291018 
L 146.817249 -174.526558 
L 163.739642 -108.425164 
L 180.662035 -223.067627 
L 197.584428 -166.00468 
L 214.506822 -142.588301 
L 231.429215 -140.713185 
L 248.351608 -171.934711 
L 265.274001 -135.305414 
L 282.196394 -168.158821 
L 299.118787 -221.73218 
L 316.04118 -135.790229 
L 332.963573 -130.119567 
L 349.885966 -110.15885 
L 349.885966 -110.15885 
L 349.885966 -110.15885 
L 332.963573 -130.119567 
L 316.04118 -135.790229 
L 299.118787 -221.73218 
L 282.196394 -168.158821 
L 265.274001 -135.305414 
L 248.351608 -171.934711 
L 231.429215 -140.713185 
L 214.506822 -142.588301 
L 197.584428 -166.00468 
L 180.662035 -223.067627 
L 163.739642 -108.425164 
L 146.817249 -174.526558 
L 129.894856 -251.291018 
L 112.972463 -65.834264 
L 96.05007 -219.224063 
L 79.127677 -199.112235 
L 62.205284 -171.884079 
z
" style="stroke: #1f77b4; stroke-opacity: 0.2"/>
    </defs>
    <g clip-path="url(#pd15d4ae3b7)">
     <use xlink:href="#mc0f45b0ea5" x="0" y="360" style="fill: #1f77b4; fill-opacity: 0.2; stroke: #1f77b4; stroke-opacity: 0.2"/>
    </g>
   </g>
   <g id="PolyCollection_2">
    <defs>
     <path id="m62a72e17de" d="M 62.205284 -208.576485 
L 62.205284 -208.576485 
L 79.127677 -150.056637 
L 96.05007 -174.26307 
L 112.972463 -269.804134 
L 129.894856 -239.734522 
L 146.817249 -207.574853 
L 163.739642 -285.388321 
L 180.662035 -221.078021 
L 197.584428 -190.394117 
L 214.506822 -335.239148 
L 231.429215 -165.900898 
L 248.351608 -196.315561 
L 265.274001 -311.10461 
L 282.196394 -192.058259 
L 299.118787 -247.397054 
L 316.04118 -163.837012 
L 332.963573 -164.786071 
L 349.885966 -212.437485 
L 349.885966 -212.437485 
L 349.885966 -212.437485 
L 332.963573 -164.786071 
L 316.04118 -163.837012 
L 299.118787 -247.397054 
L 282.196394 -192.058259 
L 265.274001 -311.10461 
L 248.351608 -196.315561 
L 231.429215 -165.900898 
L 214.506822 -335.239148 
L 197.584428 -190.394117 
L 180.662035 -221.078021 
L 163.739642 -285.388321 
L 146.817249 -207.574853 
L 129.894856 -239.734522 
L 112.972463 -269.804134 
L 96.05007 -174.26307 
L 79.127677 -150.056637 
L 62.205284 -208.576485 
z
" style="stroke: #ff7f0e; stroke-opacity: 0.2"/>
    </defs>
    <g clip-path="url(#pd15d4ae3b7)">
     <use xlink:href="#m62a72e17de" x="0" y="360" style="fill: #ff7f0e; fill-opacity: 0.2; stroke: #ff7f0e; stroke-opacity: 0.2"/>
    </g>
   </g>
   <g id="PolyCollection_3">
    <defs>
     <path id="m12bc95a4f6" d="M 62.205284 -119.348272 
L 62.205284 -99.999139 
L 79.127677 -125.726456 
L 96.05007 -148.505515 
L 112.972463 -267.608202 
L 129.894856 -272.344299 
L 146.817249 -174.709337 
L 163.739642 -111.504745 
L 180.662035 -154.63842 
L 197.584428 -77.318685 
L 214.506822 -125.784562 
L 231.429215 -159.326352 
L 248.351608 -167.810254 
L 265.274001 -173.088416 
L 282.196394 -200.010863 
L 299.118787 -154.319069 
L 316.04118 -75.351479 
L 332.963573 -72.070937 
L 349.885966 -78.994266 
L 349.885966 -91.156543 
L 349.885966 -91.156543 
L 332.963573 -82.346582 
L 316.04118 -86.660565 
L 299.118787 -168.478773 
L 282.196394 -214.457514 
L 265.274001 -192.016501 
L 248.351608 -190.778871 
L 231.429215 -174.676252 
L 214.506822 -141.89325 
L 197.584428 -88.689775 
L 180.662035 -175.739638 
L 163.739642 -127.116565 
L 146.817249 -189.355385 
L 129.894856 -292.436148 
L 112.972463 -284.321058 
L 96.05007 -163.48013 
L 79.127677 -140.80784 
L 62.205284 -119.348272 
z
" style="stroke: #2ca02c; stroke-opacity: 0.2"/>
    </defs>
    <g clip-path="url(#pd15d4ae3b7)">
     <use xlink:href="#m12bc95a4f6" x="0" y="360" style="fill: #2ca02c; fill-opacity: 0.2; stroke: #2ca02c; stroke-opacity: 0.2"/>
    </g>
   </g>
   <g id="PolyCollection_4">
    <defs>
     <path id="m03c4725f21" d="M 62.205284 -178.536866 
L 62.205284 -178.536866 
L 79.127677 -134.66867 
L 96.05007 -228.423698 
L 112.972463 -319.799766 
L 129.894856 -149.262089 
L 146.817249 -193.450812 
L 163.739642 -295.242104 
L 180.662035 -205.492773 
L 197.584428 -225.75318 
L 214.506822 -271.300241 
L 231.429215 -158.977261 
L 248.351608 -302.551856 
L 265.274001 -332.457948 
L 282.196394 -167.229398 
L 299.118787 -254.961141 
L 316.04118 -191.670634 
L 332.963573 -168.14408 
L 349.885966 -140.942792 
L 349.885966 -140.942792 
L 349.885966 -140.942792 
L 332.963573 -168.14408 
L 316.04118 -191.670634 
L 299.118787 -254.961141 
L 282.196394 -167.229398 
L 265.274001 -332.457948 
L 248.351608 -302.551856 
L 231.429215 -158.977261 
L 214.506822 -271.300241 
L 197.584428 -225.75318 
L 180.662035 -205.492773 
L 163.739642 -295.242104 
L 146.817249 -193.450812 
L 129.894856 -149.262089 
L 112.972463 -319.799766 
L 96.05007 -228.423698 
L 79.127677 -134.66867 
L 62.205284 -178.536866 
z
" style="stroke: #d62728; stroke-opacity: 0.2"/>
    </defs>
    <g clip-path="url(#pd15d4ae3b7)">
     <use xlink:href="#m03c4725f21" x="0" y="360" style="fill: #d62728; fill-opacity: 0.2; stroke: #d62728; stroke-opacity: 0.2"/>
    </g>
   </g>
   <g id="PolyCollection_5">
    <defs>
     <path id="mf4a2fe4141" d="M 62.205284 -153.845755 
L 62.205284 -140.239297 
L 79.127677 -124.394671 
L 96.05007 -161.983778 
L 112.972463 -252.158944 
L 129.894856 -183.748442 
L 146.817249 -116.869518 
L 163.739642 -206.828877 
L 180.662035 -149.165649 
L 197.584428 -108.540562 
L 214.506822 -155.819515 
L 231.429215 -146.998573 
L 248.351608 -125.718671 
L 265.274001 -155.673425 
L 282.196394 -78.412733 
L 299.118787 -165.031374 
L 316.04118 -151.266763 
L 332.963573 -130.13801 
L 349.885966 -115.630422 
L 349.885966 -132.76616 
L 349.885966 -132.76616 
L 332.963573 -145.140588 
L 316.04118 -165.74467 
L 299.118787 -181.460694 
L 282.196394 -90.341906 
L 265.274001 -169.662522 
L 248.351608 -140.459736 
L 231.429215 -164.96955 
L 214.506822 -173.129023 
L 197.584428 -124.439438 
L 180.662035 -162.758613 
L 163.739642 -217.884715 
L 146.817249 -130.365801 
L 129.894856 -199.82092 
L 112.972463 -265.719829 
L 96.05007 -175.157117 
L 79.127677 -136.85635 
L 62.205284 -153.845755 
z
" style="stroke: #9467bd; stroke-opacity: 0.2"/>
    </defs>
    <g clip-path="url(#pd15d4ae3b7)">
     <use xlink:href="#mf4a2fe4141" x="0" y="360" style="fill: #9467bd; fill-opacity: 0.2; stroke: #9467bd; stroke-opacity: 0.2"/>
    </g>
   </g>
   <g id="matplotlib.axis_1">
    <g id="xtick_1">
     <g id="line2d_1">
      <defs>
       <path id="mc819dafd91" d="M 0 0 
L 0 3.5 
" style="stroke: #000000; stroke-width: 0.8"/>
      </defs>
      <g>
       <use xlink:href="#mc819dafd91" x="53.744088" y="317.93875" style="stroke: #000000; stroke-width: 0.8"/>
      </g>
     </g>
     <g id="text_1">
      <!-- 2.5 -->
      <g transform="translate(45.792525 332.537188) scale(0.1 -0.1)">
       <defs>
        <path id="DejaVuSans-32" d="M 1228 531 
L 3431 531 
L 3431 0 
L 469 0 
L 469 531 
Q 828 903 1448 1529 
Q 2069 2156 2228 2338 
Q 2531 2678 2651 2914 
Q 2772 3150 2772 3378 
Q 2772 3750 2511 3984 
Q 2250 4219 1831 4219 
Q 1534 4219 1204 4116 
Q 875 4013 500 3803 
L 500 4441 
Q 881 4594 1212 4672 
Q 1544 4750 1819 4750 
Q 2544 4750 2975 4387 
Q 3406 4025 3406 3419 
Q 3406 3131 3298 2873 
Q 3191 2616 2906 2266 
Q 2828 2175 2409 1742 
Q 1991 1309 1228 531 
z
" transform="scale(0.015625)"/>
        <path id="DejaVuSans-2e" d="M 684 794 
L 1344 794 
L 1344 0 
L 684 0 
L 684 794 
z
" transform="scale(0.015625)"/>
        <path id="DejaVuSans-35" d="M 691 4666 
L 3169 4666 
L 3169 4134 
L 1269 4134 
L 1269 2991 
Q 1406 3038 1543 3061 
Q 1681 3084 1819 3084 
Q 2600 3084 3056 2656 
Q 3513 2228 3513 1497 
Q 3513 744 3044 326 
Q 2575 -91 1722 -91 
Q 1428 -91 1123 -41 
Q 819 9 494 109 
L 494 744 
Q 775 591 1075 516 
Q 1375 441 1709 441 
Q 2250 441 2565 725 
Q 2881 1009 2881 1497 
Q 2881 1984 2565 2268 
Q 2250 2553 1709 2553 
Q 1456 2553 1204 2497 
Q 953 2441 691 2322 
L 691 4666 
z
" transform="scale(0.015625)"/>
       </defs>
       <use xlink:href="#DejaVuSans-32"/>
       <use xlink:href="#DejaVuSans-2e" x="63.623047"/>
       <use xlink:href="#DejaVuSans-35" x="95.410156"/>
      </g>
     </g>
    </g>
    <g id="xtick_2">
     <g id="line2d_2">
      <g>
       <use xlink:href="#mc819dafd91" x="96.05007" y="317.93875" style="stroke: #000000; stroke-width: 0.8"/>
      </g>
     </g>
     <g id="text_2">
      <!-- 5.0 -->
      <g transform="translate(88.098508 332.537188) scale(0.1 -0.1)">
       <defs>
        <path id="DejaVuSans-30" d="M 2034 4250 
Q 1547 4250 1301 3770 
Q 1056 3291 1056 2328 
Q 1056 1369 1301 889 
Q 1547 409 2034 409 
Q 2525 409 2770 889 
Q 3016 1369 3016 2328 
Q 3016 3291 2770 3770 
Q 2525 4250 2034 4250 
z
M 2034 4750 
Q 2819 4750 3233 4129 
Q 3647 3509 3647 2328 
Q 3647 1150 3233 529 
Q 2819 -91 2034 -91 
Q 1250 -91 836 529 
Q 422 1150 422 2328 
Q 422 3509 836 4129 
Q 1250 4750 2034 4750 
z
" transform="scale(0.015625)"/>
       </defs>
       <use xlink:href="#DejaVuSans-35"/>
       <use xlink:href="#DejaVuSans-2e" x="63.623047"/>
       <use xlink:href="#DejaVuSans-30" x="95.410156"/>
      </g>
     </g>
    </g>
    <g id="xtick_3">
     <g id="line2d_3">
      <g>
       <use xlink:href="#mc819dafd91" x="138.356053" y="317.93875" style="stroke: #000000; stroke-width: 0.8"/>
      </g>
     </g>
     <g id="text_3">
      <!-- 7.5 -->
      <g transform="translate(130.40449 332.537188) scale(0.1 -0.1)">
       <defs>
        <path id="DejaVuSans-37" d="M 525 4666 
L 3525 4666 
L 3525 4397 
L 1831 0 
L 1172 0 
L 2766 4134 
L 525 4134 
L 525 4666 
z
" transform="scale(0.015625)"/>
       </defs>
       <use xlink:href="#DejaVuSans-37"/>
       <use xlink:href="#DejaVuSans-2e" x="63.623047"/>
       <use xlink:href="#DejaVuSans-35" x="95.410156"/>
      </g>
     </g>
    </g>
    <g id="xtick_4">
     <g id="line2d_4">
      <g>
       <use xlink:href="#mc819dafd91" x="180.662035" y="317.93875" style="stroke: #000000; stroke-width: 0.8"/>
      </g>
     </g>
     <g id="text_4">
      <!-- 10.0 -->
      <g transform="translate(169.529223 332.537188) scale(0.1 -0.1)">
       <defs>
        <path id="DejaVuSans-31" d="M 794 531 
L 1825 531 
L 1825 4091 
L 703 3866 
L 703 4441 
L 1819 4666 
L 2450 4666 
L 2450 531 
L 3481 531 
L 3481 0 
L 794 0 
L 794 531 
z
" transform="scale(0.015625)"/>
       </defs>
       <use xlink:href="#DejaVuSans-31"/>
       <use xlink:href="#DejaVuSans-30" x="63.623047"/>
       <use xlink:href="#DejaVuSans-2e" x="127.246094"/>
       <use xlink:href="#DejaVuSans-30" x="159.033203"/>
      </g>
     </g>
    </g>
    <g id="xtick_5">
     <g id="line2d_5">
      <g>
       <use xlink:href="#mc819dafd91" x="222.968018" y="317.93875" style="stroke: #000000; stroke-width: 0.8"/>
      </g>
     </g>
     <g id="text_5">
      <!-- 12.5 -->
      <g transform="translate(211.835206 332.537188) scale(0.1 -0.1)">
       <use xlink:href="#DejaVuSans-31"/>
       <use xlink:href="#DejaVuSans-32" x="63.623047"/>
       <use xlink:href="#DejaVuSans-2e" x="127.246094"/>
       <use xlink:href="#DejaVuSans-35" x="159.033203"/>
      </g>
     </g>
    </g>
    <g id="xtick_6">
     <g id="line2d_6">
      <g>
       <use xlink:href="#mc819dafd91" x="265.274001" y="317.93875" style="stroke: #000000; stroke-width: 0.8"/>
      </g>
     </g>
     <g id="text_6">
      <!-- 15.0 -->
      <g transform="translate(254.141188 332.537188) scale(0.1 -0.1)">
       <use xlink:href="#DejaVuSans-31"/>
       <use xlink:href="#DejaVuSans-35" x="63.623047"/>
       <use xlink:href="#DejaVuSans-2e" x="127.246094"/>
       <use xlink:href="#DejaVuSans-30" x="159.033203"/>
      </g>
     </g>
    </g>
    <g id="xtick_7">
     <g id="line2d_7">
      <g>
       <use xlink:href="#mc819dafd91" x="307.579983" y="317.93875" style="stroke: #000000; stroke-width: 0.8"/>
      </g>
     </g>
     <g id="text_7">
      <!-- 17.5 -->
      <g transform="translate(296.447171 332.537188) scale(0.1 -0.1)">
       <use xlink:href="#DejaVuSans-31"/>
       <use xlink:href="#DejaVuSans-37" x="63.623047"/>
       <use xlink:href="#DejaVuSans-2e" x="127.246094"/>
       <use xlink:href="#DejaVuSans-35" x="159.033203"/>
      </g>
     </g>
    </g>
    <g id="xtick_8">
     <g id="line2d_8">
      <g>
       <use xlink:href="#mc819dafd91" x="349.885966" y="317.93875" style="stroke: #000000; stroke-width: 0.8"/>
      </g>
     </g>
     <g id="text_8">
      <!-- 20.0 -->
      <g transform="translate(338.753153 332.537188) scale(0.1 -0.1)">
       <use xlink:href="#DejaVuSans-32"/>
       <use xlink:href="#DejaVuSans-30" x="63.623047"/>
       <use xlink:href="#DejaVuSans-2e" x="127.246094"/>
       <use xlink:href="#DejaVuSans-30" x="159.033203"/>
      </g>
     </g>
    </g>
    <g id="text_9">
     <!-- num_features -->
     <g transform="translate(171.683906 346.215312) scale(0.1 -0.1)">
      <defs>
       <path id="DejaVuSans-6e" d="M 3513 2113 
L 3513 0 
L 2938 0 
L 2938 2094 
Q 2938 2591 2744 2837 
Q 2550 3084 2163 3084 
Q 1697 3084 1428 2787 
Q 1159 2491 1159 1978 
L 1159 0 
L 581 0 
L 581 3500 
L 1159 3500 
L 1159 2956 
Q 1366 3272 1645 3428 
Q 1925 3584 2291 3584 
Q 2894 3584 3203 3211 
Q 3513 2838 3513 2113 
z
" transform="scale(0.015625)"/>
       <path id="DejaVuSans-75" d="M 544 1381 
L 544 3500 
L 1119 3500 
L 1119 1403 
Q 1119 906 1312 657 
Q 1506 409 1894 409 
Q 2359 409 2629 706 
Q 2900 1003 2900 1516 
L 2900 3500 
L 3475 3500 
L 3475 0 
L 2900 0 
L 2900 538 
Q 2691 219 2414 64 
Q 2138 -91 1772 -91 
Q 1169 -91 856 284 
Q 544 659 544 1381 
z
M 1991 3584 
L 1991 3584 
z
" transform="scale(0.015625)"/>
       <path id="DejaVuSans-6d" d="M 3328 2828 
Q 3544 3216 3844 3400 
Q 4144 3584 4550 3584 
Q 5097 3584 5394 3201 
Q 5691 2819 5691 2113 
L 5691 0 
L 5113 0 
L 5113 2094 
Q 5113 2597 4934 2840 
Q 4756 3084 4391 3084 
Q 3944 3084 3684 2787 
Q 3425 2491 3425 1978 
L 3425 0 
L 2847 0 
L 2847 2094 
Q 2847 2600 2669 2842 
Q 2491 3084 2119 3084 
Q 1678 3084 1418 2786 
Q 1159 2488 1159 1978 
L 1159 0 
L 581 0 
L 581 3500 
L 1159 3500 
L 1159 2956 
Q 1356 3278 1631 3431 
Q 1906 3584 2284 3584 
Q 2666 3584 2933 3390 
Q 3200 3197 3328 2828 
z
" transform="scale(0.015625)"/>
       <path id="DejaVuSans-5f" d="M 3263 -1063 
L 3263 -1509 
L -63 -1509 
L -63 -1063 
L 3263 -1063 
z
" transform="scale(0.015625)"/>
       <path id="DejaVuSans-66" d="M 2375 4863 
L 2375 4384 
L 1825 4384 
Q 1516 4384 1395 4259 
Q 1275 4134 1275 3809 
L 1275 3500 
L 2222 3500 
L 2222 3053 
L 1275 3053 
L 1275 0 
L 697 0 
L 697 3053 
L 147 3053 
L 147 3500 
L 697 3500 
L 697 3744 
Q 697 4328 969 4595 
Q 1241 4863 1831 4863 
L 2375 4863 
z
" transform="scale(0.015625)"/>
       <path id="DejaVuSans-65" d="M 3597 1894 
L 3597 1613 
L 953 1613 
Q 991 1019 1311 708 
Q 1631 397 2203 397 
Q 2534 397 2845 478 
Q 3156 559 3463 722 
L 3463 178 
Q 3153 47 2828 -22 
Q 2503 -91 2169 -91 
Q 1331 -91 842 396 
Q 353 884 353 1716 
Q 353 2575 817 3079 
Q 1281 3584 2069 3584 
Q 2775 3584 3186 3129 
Q 3597 2675 3597 1894 
z
M 3022 2063 
Q 3016 2534 2758 2815 
Q 2500 3097 2075 3097 
Q 1594 3097 1305 2825 
Q 1016 2553 972 2059 
L 3022 2063 
z
" transform="scale(0.015625)"/>
       <path id="DejaVuSans-61" d="M 2194 1759 
Q 1497 1759 1228 1600 
Q 959 1441 959 1056 
Q 959 750 1161 570 
Q 1363 391 1709 391 
Q 2188 391 2477 730 
Q 2766 1069 2766 1631 
L 2766 1759 
L 2194 1759 
z
M 3341 1997 
L 3341 0 
L 2766 0 
L 2766 531 
Q 2569 213 2275 61 
Q 1981 -91 1556 -91 
Q 1019 -91 701 211 
Q 384 513 384 1019 
Q 384 1609 779 1909 
Q 1175 2209 1959 2209 
L 2766 2209 
L 2766 2266 
Q 2766 2663 2505 2880 
Q 2244 3097 1772 3097 
Q 1472 3097 1187 3025 
Q 903 2953 641 2809 
L 641 3341 
Q 956 3463 1253 3523 
Q 1550 3584 1831 3584 
Q 2591 3584 2966 3190 
Q 3341 2797 3341 1997 
z
" transform="scale(0.015625)"/>
       <path id="DejaVuSans-74" d="M 1172 4494 
L 1172 3500 
L 2356 3500 
L 2356 3053 
L 1172 3053 
L 1172 1153 
Q 1172 725 1289 603 
Q 1406 481 1766 481 
L 2356 481 
L 2356 0 
L 1766 0 
Q 1100 0 847 248 
Q 594 497 594 1153 
L 594 3053 
L 172 3053 
L 172 3500 
L 594 3500 
L 594 4494 
L 1172 4494 
z
" transform="scale(0.015625)"/>
       <path id="DejaVuSans-72" d="M 2631 2963 
Q 2534 3019 2420 3045 
Q 2306 3072 2169 3072 
Q 1681 3072 1420 2755 
Q 1159 2438 1159 1844 
L 1159 0 
L 581 0 
L 581 3500 
L 1159 3500 
L 1159 2956 
Q 1341 3275 1631 3429 
Q 1922 3584 2338 3584 
Q 2397 3584 2469 3576 
Q 2541 3569 2628 3553 
L 2631 2963 
z
" transform="scale(0.015625)"/>
       <path id="DejaVuSans-73" d="M 2834 3397 
L 2834 2853 
Q 2591 2978 2328 3040 
Q 2066 3103 1784 3103 
Q 1356 3103 1142 2972 
Q 928 2841 928 2578 
Q 928 2378 1081 2264 
Q 1234 2150 1697 2047 
L 1894 2003 
Q 2506 1872 2764 1633 
Q 3022 1394 3022 966 
Q 3022 478 2636 193 
Q 2250 -91 1575 -91 
Q 1294 -91 989 -36 
Q 684 19 347 128 
L 347 722 
Q 666 556 975 473 
Q 1284 391 1588 391 
Q 1994 391 2212 530 
Q 2431 669 2431 922 
Q 2431 1156 2273 1281 
Q 2116 1406 1581 1522 
L 1381 1569 
Q 847 1681 609 1914 
Q 372 2147 372 2553 
Q 372 3047 722 3315 
Q 1072 3584 1716 3584 
Q 2034 3584 2315 3537 
Q 2597 3491 2834 3397 
z
" transform="scale(0.015625)"/>
      </defs>
      <use xlink:href="#DejaVuSans-6e"/>
      <use xlink:href="#DejaVuSans-75" x="63.378906"/>
      <use xlink:href="#DejaVuSans-6d" x="126.757812"/>
      <use xlink:href="#DejaVuSans-5f" x="224.169922"/>
      <use xlink:href="#DejaVuSans-66" x="274.169922"/>
      <use xlink:href="#DejaVuSans-65" x="309.375"/>
      <use xlink:href="#DejaVuSans-61" x="370.898438"/>
      <use xlink:href="#DejaVuSans-74" x="432.177734"/>
      <use xlink:href="#DejaVuSans-75" x="471.386719"/>
      <use xlink:href="#DejaVuSans-72" x="534.765625"/>
      <use xlink:href="#DejaVuSans-65" x="573.628906"/>
      <use xlink:href="#DejaVuSans-73" x="635.152344"/>
     </g>
    </g>
   </g>
   <g id="matplotlib.axis_2">
    <g id="ytick_1">
     <g id="line2d_9">
      <defs>
       <path id="me2848cc62f" d="M 0 0 
L -3.5 0 
" style="stroke: #000000; stroke-width: 0.8"/>
      </defs>
      <g>
       <use xlink:href="#me2848cc62f" x="47.82125" y="309.444318" style="stroke: #000000; stroke-width: 0.8"/>
      </g>
     </g>
     <g id="text_10">
      <!-- 0.0 -->
      <g transform="translate(24.918125 313.243537) scale(0.1 -0.1)">
       <use xlink:href="#DejaVuSans-30"/>
       <use xlink:href="#DejaVuSans-2e" x="63.623047"/>
       <use xlink:href="#DejaVuSans-30" x="95.410156"/>
      </g>
     </g>
    </g>
    <g id="ytick_2">
     <g id="line2d_10">
      <g>
       <use xlink:href="#me2848cc62f" x="47.82125" y="247.406388" style="stroke: #000000; stroke-width: 0.8"/>
      </g>
     </g>
     <g id="text_11">
      <!-- 0.2 -->
      <g transform="translate(24.918125 251.205607) scale(0.1 -0.1)">
       <use xlink:href="#DejaVuSans-30"/>
       <use xlink:href="#DejaVuSans-2e" x="63.623047"/>
       <use xlink:href="#DejaVuSans-32" x="95.410156"/>
      </g>
     </g>
    </g>
    <g id="ytick_3">
     <g id="line2d_11">
      <g>
       <use xlink:href="#me2848cc62f" x="47.82125" y="185.368458" style="stroke: #000000; stroke-width: 0.8"/>
      </g>
     </g>
     <g id="text_12">
      <!-- 0.4 -->
      <g transform="translate(24.918125 189.167677) scale(0.1 -0.1)">
       <defs>
        <path id="DejaVuSans-34" d="M 2419 4116 
L 825 1625 
L 2419 1625 
L 2419 4116 
z
M 2253 4666 
L 3047 4666 
L 3047 1625 
L 3713 1625 
L 3713 1100 
L 3047 1100 
L 3047 0 
L 2419 0 
L 2419 1100 
L 313 1100 
L 313 1709 
L 2253 4666 
z
" transform="scale(0.015625)"/>
       </defs>
       <use xlink:href="#DejaVuSans-30"/>
       <use xlink:href="#DejaVuSans-2e" x="63.623047"/>
       <use xlink:href="#DejaVuSans-34" x="95.410156"/>
      </g>
     </g>
    </g>
    <g id="ytick_4">
     <g id="line2d_12">
      <g>
       <use xlink:href="#me2848cc62f" x="47.82125" y="123.330528" style="stroke: #000000; stroke-width: 0.8"/>
      </g>
     </g>
     <g id="text_13">
      <!-- 0.6 -->
      <g transform="translate(24.918125 127.129747) scale(0.1 -0.1)">
       <defs>
        <path id="DejaVuSans-36" d="M 2113 2584 
Q 1688 2584 1439 2293 
Q 1191 2003 1191 1497 
Q 1191 994 1439 701 
Q 1688 409 2113 409 
Q 2538 409 2786 701 
Q 3034 994 3034 1497 
Q 3034 2003 2786 2293 
Q 2538 2584 2113 2584 
z
M 3366 4563 
L 3366 3988 
Q 3128 4100 2886 4159 
Q 2644 4219 2406 4219 
Q 1781 4219 1451 3797 
Q 1122 3375 1075 2522 
Q 1259 2794 1537 2939 
Q 1816 3084 2150 3084 
Q 2853 3084 3261 2657 
Q 3669 2231 3669 1497 
Q 3669 778 3244 343 
Q 2819 -91 2113 -91 
Q 1303 -91 875 529 
Q 447 1150 447 2328 
Q 447 3434 972 4092 
Q 1497 4750 2381 4750 
Q 2619 4750 2861 4703 
Q 3103 4656 3366 4563 
z
" transform="scale(0.015625)"/>
       </defs>
       <use xlink:href="#DejaVuSans-30"/>
       <use xlink:href="#DejaVuSans-2e" x="63.623047"/>
       <use xlink:href="#DejaVuSans-36" x="95.410156"/>
      </g>
     </g>
    </g>
    <g id="ytick_5">
     <g id="line2d_13">
      <g>
       <use xlink:href="#me2848cc62f" x="47.82125" y="61.292598" style="stroke: #000000; stroke-width: 0.8"/>
      </g>
     </g>
     <g id="text_14">
      <!-- 0.8 -->
      <g transform="translate(24.918125 65.091817) scale(0.1 -0.1)">
       <defs>
        <path id="DejaVuSans-38" d="M 2034 2216 
Q 1584 2216 1326 1975 
Q 1069 1734 1069 1313 
Q 1069 891 1326 650 
Q 1584 409 2034 409 
Q 2484 409 2743 651 
Q 3003 894 3003 1313 
Q 3003 1734 2745 1975 
Q 2488 2216 2034 2216 
z
M 1403 2484 
Q 997 2584 770 2862 
Q 544 3141 544 3541 
Q 544 4100 942 4425 
Q 1341 4750 2034 4750 
Q 2731 4750 3128 4425 
Q 3525 4100 3525 3541 
Q 3525 3141 3298 2862 
Q 3072 2584 2669 2484 
Q 3125 2378 3379 2068 
Q 3634 1759 3634 1313 
Q 3634 634 3220 271 
Q 2806 -91 2034 -91 
Q 1263 -91 848 271 
Q 434 634 434 1313 
Q 434 1759 690 2068 
Q 947 2378 1403 2484 
z
M 1172 3481 
Q 1172 3119 1398 2916 
Q 1625 2713 2034 2713 
Q 2441 2713 2670 2916 
Q 2900 3119 2900 3481 
Q 2900 3844 2670 4047 
Q 2441 4250 2034 4250 
Q 1625 4250 1398 4047 
Q 1172 3844 1172 3481 
z
" transform="scale(0.015625)"/>
       </defs>
       <use xlink:href="#DejaVuSans-30"/>
       <use xlink:href="#DejaVuSans-2e" x="63.623047"/>
       <use xlink:href="#DejaVuSans-38" x="95.410156"/>
      </g>
     </g>
    </g>
    <g id="text_15">
     <!-- disparate_impact -->
     <g transform="translate(18.560313 207.638906) rotate(-90) scale(0.1 -0.1)">
      <defs>
       <path id="DejaVuSans-64" d="M 2906 2969 
L 2906 4863 
L 3481 4863 
L 3481 0 
L 2906 0 
L 2906 525 
Q 2725 213 2448 61 
Q 2172 -91 1784 -91 
Q 1150 -91 751 415 
Q 353 922 353 1747 
Q 353 2572 751 3078 
Q 1150 3584 1784 3584 
Q 2172 3584 2448 3432 
Q 2725 3281 2906 2969 
z
M 947 1747 
Q 947 1113 1208 752 
Q 1469 391 1925 391 
Q 2381 391 2643 752 
Q 2906 1113 2906 1747 
Q 2906 2381 2643 2742 
Q 2381 3103 1925 3103 
Q 1469 3103 1208 2742 
Q 947 2381 947 1747 
z
" transform="scale(0.015625)"/>
       <path id="DejaVuSans-69" d="M 603 3500 
L 1178 3500 
L 1178 0 
L 603 0 
L 603 3500 
z
M 603 4863 
L 1178 4863 
L 1178 4134 
L 603 4134 
L 603 4863 
z
" transform="scale(0.015625)"/>
       <path id="DejaVuSans-70" d="M 1159 525 
L 1159 -1331 
L 581 -1331 
L 581 3500 
L 1159 3500 
L 1159 2969 
Q 1341 3281 1617 3432 
Q 1894 3584 2278 3584 
Q 2916 3584 3314 3078 
Q 3713 2572 3713 1747 
Q 3713 922 3314 415 
Q 2916 -91 2278 -91 
Q 1894 -91 1617 61 
Q 1341 213 1159 525 
z
M 3116 1747 
Q 3116 2381 2855 2742 
Q 2594 3103 2138 3103 
Q 1681 3103 1420 2742 
Q 1159 2381 1159 1747 
Q 1159 1113 1420 752 
Q 1681 391 2138 391 
Q 2594 391 2855 752 
Q 3116 1113 3116 1747 
z
" transform="scale(0.015625)"/>
       <path id="DejaVuSans-63" d="M 3122 3366 
L 3122 2828 
Q 2878 2963 2633 3030 
Q 2388 3097 2138 3097 
Q 1578 3097 1268 2742 
Q 959 2388 959 1747 
Q 959 1106 1268 751 
Q 1578 397 2138 397 
Q 2388 397 2633 464 
Q 2878 531 3122 666 
L 3122 134 
Q 2881 22 2623 -34 
Q 2366 -91 2075 -91 
Q 1284 -91 818 406 
Q 353 903 353 1747 
Q 353 2603 823 3093 
Q 1294 3584 2113 3584 
Q 2378 3584 2631 3529 
Q 2884 3475 3122 3366 
z
" transform="scale(0.015625)"/>
      </defs>
      <use xlink:href="#DejaVuSans-64"/>
      <use xlink:href="#DejaVuSans-69" x="63.476562"/>
      <use xlink:href="#DejaVuSans-73" x="91.259766"/>
      <use xlink:href="#DejaVuSans-70" x="143.359375"/>
      <use xlink:href="#DejaVuSans-61" x="206.835938"/>
      <use xlink:href="#DejaVuSans-72" x="268.115234"/>
      <use xlink:href="#DejaVuSans-61" x="309.228516"/>
      <use xlink:href="#DejaVuSans-74" x="370.507812"/>
      <use xlink:href="#DejaVuSans-65" x="409.716797"/>
      <use xlink:href="#DejaVuSans-5f" x="471.240234"/>
      <use xlink:href="#DejaVuSans-69" x="521.240234"/>
      <use xlink:href="#DejaVuSans-6d" x="549.023438"/>
      <use xlink:href="#DejaVuSans-70" x="646.435547"/>
      <use xlink:href="#DejaVuSans-61" x="709.912109"/>
      <use xlink:href="#DejaVuSans-63" x="771.191406"/>
      <use xlink:href="#DejaVuSans-74" x="826.171875"/>
     </g>
    </g>
   </g>
   <g id="line2d_14">
    <path d="M 62.205284 188.115921 
L 79.127677 160.887765 
L 96.05007 140.775937 
L 112.972463 294.165736 
L 129.894856 108.708982 
L 146.817249 185.473442 
L 163.739642 251.574836 
L 180.662035 136.932373 
L 197.584428 193.99532 
L 214.506822 217.411699 
L 231.429215 219.286815 
L 248.351608 188.065289 
L 265.274001 224.694586 
L 282.196394 191.841179 
L 299.118787 138.26782 
L 316.04118 224.209771 
L 332.963573 229.880433 
L 349.885966 249.84115 
" clip-path="url(#pd15d4ae3b7)" style="fill: none; stroke: #1f77b4; stroke-width: 1.5; stroke-linecap: square"/>
   </g>
   <g id="line2d_15">
    <path d="M 62.205284 151.423515 
L 79.127677 209.943363 
L 96.05007 185.73693 
L 112.972463 90.195866 
L 129.894856 120.265478 
L 146.817249 152.425147 
L 163.739642 74.611679 
L 180.662035 138.921979 
L 197.584428 169.605883 
L 214.506822 24.760852 
L 231.429215 194.099102 
L 248.351608 163.684439 
L 265.274001 48.89539 
L 282.196394 167.941741 
L 299.118787 112.602946 
L 316.04118 196.162988 
L 332.963573 195.213929 
L 349.885966 147.562515 
" clip-path="url(#pd15d4ae3b7)" style="fill: none; stroke-dasharray: 6,2.25; stroke-dashoffset: 0; stroke: #ff7f0e; stroke-width: 1.5"/>
   </g>
   <g id="line2d_16">
    <path d="M 62.205284 250.013366 
L 79.127677 226.919587 
L 96.05007 204.342917 
L 112.972463 83.67353 
L 129.894856 78.052585 
L 146.817249 178.04684 
L 163.739642 240.734472 
L 180.662035 195.529163 
L 197.584428 276.971935 
L 214.506822 226.374441 
L 231.429215 192.509651 
L 248.351608 180.736398 
L 265.274001 177.323302 
L 282.196394 153.106846 
L 299.118787 198.319863 
L 316.04118 279.441323 
L 332.963573 282.841456 
L 349.885966 275.012338 
" clip-path="url(#pd15d4ae3b7)" style="fill: none; stroke-dasharray: 1.5,1.5; stroke-dashoffset: 0; stroke: #2ca02c; stroke-width: 1.5"/>
   </g>
   <g id="line2d_17">
    <path d="M 62.205284 181.463134 
L 79.127677 225.33133 
L 96.05007 131.576302 
L 112.972463 40.200234 
L 129.894856 210.737911 
L 146.817249 166.549188 
L 163.739642 64.757896 
L 180.662035 154.507227 
L 197.584428 134.24682 
L 214.506822 88.699759 
L 231.429215 201.022739 
L 248.351608 57.448144 
L 265.274001 27.542052 
L 282.196394 192.770602 
L 299.118787 105.038859 
L 316.04118 168.329366 
L 332.963573 191.85592 
L 349.885966 219.057208 
" clip-path="url(#pd15d4ae3b7)" style="fill: none; stroke-dasharray: 4.5,1.875,2.25,1.875; stroke-dashoffset: 0; stroke: #d62728; stroke-width: 1.5"/>
   </g>
   <g id="line2d_18">
    <path d="M 62.205284 213.09227 
L 79.127677 229.560623 
L 96.05007 191.074673 
L 112.972463 101.170957 
L 129.894856 168.198233 
L 146.817249 236.346554 
L 163.739642 147.517844 
L 180.662035 203.772148 
L 197.584428 243.948913 
L 214.506822 195.524139 
L 231.429215 204.463331 
L 248.351608 226.988255 
L 265.274001 197.269948 
L 282.196394 275.83276 
L 299.118787 186.078922 
L 316.04118 201.835925 
L 332.963573 222.517185 
L 349.885966 235.846217 
" clip-path="url(#pd15d4ae3b7)" style="fill: none; stroke-dasharray: 7.5,1.5,1.5,1.5; stroke-dashoffset: 0; stroke: #9467bd; stroke-width: 1.5"/>
   </g>
   <g id="line2d_19"/>
   <g id="line2d_20"/>
   <g id="line2d_21"/>
   <g id="line2d_22"/>
   <g id="line2d_23"/>
   <g id="patch_3">
    <path d="M 47.82125 317.93875 
L 47.82125 10.8 
" style="fill: none; stroke: #000000; stroke-width: 0.8; stroke-linejoin: miter; stroke-linecap: square"/>
   </g>
   <g id="patch_4">
    <path d="M 364.27 317.93875 
L 364.27 10.8 
" style="fill: none; stroke: #000000; stroke-width: 0.8; stroke-linejoin: miter; stroke-linecap: square"/>
   </g>
   <g id="patch_5">
    <path d="M 47.82125 317.93875 
L 364.27 317.93875 
" style="fill: none; stroke: #000000; stroke-width: 0.8; stroke-linejoin: miter; stroke-linecap: square"/>
   </g>
   <g id="patch_6">
    <path d="M 47.82125 10.8 
L 364.27 10.8 
" style="fill: none; stroke: #000000; stroke-width: 0.8; stroke-linejoin: miter; stroke-linecap: square"/>
   </g>
   <g id="legend_1">
    <g id="patch_7">
     <path d="M 213.51375 106.86875 
L 357.27 106.86875 
Q 359.27 106.86875 359.27 104.86875 
L 359.27 17.8 
Q 359.27 15.8 357.27 15.8 
L 213.51375 15.8 
Q 211.51375 15.8 211.51375 17.8 
L 211.51375 104.86875 
Q 211.51375 106.86875 213.51375 106.86875 
z
" style="fill: #ffffff; opacity: 0.8; stroke: #cccccc; stroke-linejoin: miter"/>
    </g>
    <g id="text_16">
     <!-- model -->
     <g transform="translate(269.822344 27.398438) scale(0.1 -0.1)">
      <defs>
       <path id="DejaVuSans-6f" d="M 1959 3097 
Q 1497 3097 1228 2736 
Q 959 2375 959 1747 
Q 959 1119 1226 758 
Q 1494 397 1959 397 
Q 2419 397 2687 759 
Q 2956 1122 2956 1747 
Q 2956 2369 2687 2733 
Q 2419 3097 1959 3097 
z
M 1959 3584 
Q 2709 3584 3137 3096 
Q 3566 2609 3566 1747 
Q 3566 888 3137 398 
Q 2709 -91 1959 -91 
Q 1206 -91 779 398 
Q 353 888 353 1747 
Q 353 2609 779 3096 
Q 1206 3584 1959 3584 
z
" transform="scale(0.015625)"/>
       <path id="DejaVuSans-6c" d="M 603 4863 
L 1178 4863 
L 1178 0 
L 603 0 
L 603 4863 
z
" transform="scale(0.015625)"/>
      </defs>
      <use xlink:href="#DejaVuSans-6d"/>
      <use xlink:href="#DejaVuSans-6f" x="97.412109"/>
      <use xlink:href="#DejaVuSans-64" x="158.59375"/>
      <use xlink:href="#DejaVuSans-65" x="222.070312"/>
      <use xlink:href="#DejaVuSans-6c" x="283.59375"/>
     </g>
    </g>
    <g id="line2d_24">
     <path d="M 215.51375 38.576563 
L 225.51375 38.576563 
L 235.51375 38.576563 
" style="fill: none; stroke: #1f77b4; stroke-width: 1.5; stroke-linecap: square"/>
    </g>
    <g id="text_17">
     <!-- None -->
     <g transform="translate(243.51375 42.076563) scale(0.1 -0.1)">
      <defs>
       <path id="DejaVuSans-4e" d="M 628 4666 
L 1478 4666 
L 3547 763 
L 3547 4666 
L 4159 4666 
L 4159 0 
L 3309 0 
L 1241 3903 
L 1241 0 
L 628 0 
L 628 4666 
z
" transform="scale(0.015625)"/>
      </defs>
      <use xlink:href="#DejaVuSans-4e"/>
      <use xlink:href="#DejaVuSans-6f" x="74.804688"/>
      <use xlink:href="#DejaVuSans-6e" x="135.986328"/>
      <use xlink:href="#DejaVuSans-65" x="199.365234"/>
     </g>
    </g>
    <g id="line2d_25">
     <path d="M 215.51375 53.254688 
L 225.51375 53.254688 
L 235.51375 53.254688 
" style="fill: none; stroke-dasharray: 6,2.25; stroke-dashoffset: 0; stroke: #ff7f0e; stroke-width: 1.5"/>
    </g>
    <g id="text_18">
     <!-- logisticregression -->
     <g transform="translate(243.51375 56.754688) scale(0.1 -0.1)">
      <defs>
       <path id="DejaVuSans-67" d="M 2906 1791 
Q 2906 2416 2648 2759 
Q 2391 3103 1925 3103 
Q 1463 3103 1205 2759 
Q 947 2416 947 1791 
Q 947 1169 1205 825 
Q 1463 481 1925 481 
Q 2391 481 2648 825 
Q 2906 1169 2906 1791 
z
M 3481 434 
Q 3481 -459 3084 -895 
Q 2688 -1331 1869 -1331 
Q 1566 -1331 1297 -1286 
Q 1028 -1241 775 -1147 
L 775 -588 
Q 1028 -725 1275 -790 
Q 1522 -856 1778 -856 
Q 2344 -856 2625 -561 
Q 2906 -266 2906 331 
L 2906 616 
Q 2728 306 2450 153 
Q 2172 0 1784 0 
Q 1141 0 747 490 
Q 353 981 353 1791 
Q 353 2603 747 3093 
Q 1141 3584 1784 3584 
Q 2172 3584 2450 3431 
Q 2728 3278 2906 2969 
L 2906 3500 
L 3481 3500 
L 3481 434 
z
" transform="scale(0.015625)"/>
      </defs>
      <use xlink:href="#DejaVuSans-6c"/>
      <use xlink:href="#DejaVuSans-6f" x="27.783203"/>
      <use xlink:href="#DejaVuSans-67" x="88.964844"/>
      <use xlink:href="#DejaVuSans-69" x="152.441406"/>
      <use xlink:href="#DejaVuSans-73" x="180.224609"/>
      <use xlink:href="#DejaVuSans-74" x="232.324219"/>
      <use xlink:href="#DejaVuSans-69" x="271.533203"/>
      <use xlink:href="#DejaVuSans-63" x="299.316406"/>
      <use xlink:href="#DejaVuSans-72" x="354.296875"/>
      <use xlink:href="#DejaVuSans-65" x="393.160156"/>
      <use xlink:href="#DejaVuSans-67" x="454.683594"/>
      <use xlink:href="#DejaVuSans-72" x="518.160156"/>
      <use xlink:href="#DejaVuSans-65" x="557.023438"/>
      <use xlink:href="#DejaVuSans-73" x="618.546875"/>
      <use xlink:href="#DejaVuSans-73" x="670.646484"/>
      <use xlink:href="#DejaVuSans-69" x="722.746094"/>
      <use xlink:href="#DejaVuSans-6f" x="750.529297"/>
      <use xlink:href="#DejaVuSans-6e" x="811.710938"/>
     </g>
    </g>
    <g id="line2d_26">
     <path d="M 215.51375 67.932813 
L 225.51375 67.932813 
L 235.51375 67.932813 
" style="fill: none; stroke-dasharray: 1.5,1.5; stroke-dashoffset: 0; stroke: #2ca02c; stroke-width: 1.5"/>
    </g>
    <g id="text_19">
     <!-- decisiontreeclassifier -->
     <g transform="translate(243.51375 71.432813) scale(0.1 -0.1)">
      <use xlink:href="#DejaVuSans-64"/>
      <use xlink:href="#DejaVuSans-65" x="63.476562"/>
      <use xlink:href="#DejaVuSans-63" x="125"/>
      <use xlink:href="#DejaVuSans-69" x="179.980469"/>
      <use xlink:href="#DejaVuSans-73" x="207.763672"/>
      <use xlink:href="#DejaVuSans-69" x="259.863281"/>
      <use xlink:href="#DejaVuSans-6f" x="287.646484"/>
      <use xlink:href="#DejaVuSans-6e" x="348.828125"/>
      <use xlink:href="#DejaVuSans-74" x="412.207031"/>
      <use xlink:href="#DejaVuSans-72" x="451.416016"/>
      <use xlink:href="#DejaVuSans-65" x="490.279297"/>
      <use xlink:href="#DejaVuSans-65" x="551.802734"/>
      <use xlink:href="#DejaVuSans-63" x="613.326172"/>
      <use xlink:href="#DejaVuSans-6c" x="668.306641"/>
      <use xlink:href="#DejaVuSans-61" x="696.089844"/>
      <use xlink:href="#DejaVuSans-73" x="757.369141"/>
      <use xlink:href="#DejaVuSans-73" x="809.46875"/>
      <use xlink:href="#DejaVuSans-69" x="861.568359"/>
      <use xlink:href="#DejaVuSans-66" x="889.351562"/>
      <use xlink:href="#DejaVuSans-69" x="924.556641"/>
      <use xlink:href="#DejaVuSans-65" x="952.339844"/>
      <use xlink:href="#DejaVuSans-72" x="1013.863281"/>
     </g>
    </g>
    <g id="line2d_27">
     <path d="M 215.51375 82.610938 
L 225.51375 82.610938 
L 235.51375 82.610938 
" style="fill: none; stroke-dasharray: 4.5,1.875,2.25,1.875; stroke-dashoffset: 0; stroke: #d62728; stroke-width: 1.5"/>
    </g>
    <g id="text_20">
     <!-- adaboostclassifier -->
     <g transform="translate(243.51375 86.110938) scale(0.1 -0.1)">
      <defs>
       <path id="DejaVuSans-62" d="M 3116 1747 
Q 3116 2381 2855 2742 
Q 2594 3103 2138 3103 
Q 1681 3103 1420 2742 
Q 1159 2381 1159 1747 
Q 1159 1113 1420 752 
Q 1681 391 2138 391 
Q 2594 391 2855 752 
Q 3116 1113 3116 1747 
z
M 1159 2969 
Q 1341 3281 1617 3432 
Q 1894 3584 2278 3584 
Q 2916 3584 3314 3078 
Q 3713 2572 3713 1747 
Q 3713 922 3314 415 
Q 2916 -91 2278 -91 
Q 1894 -91 1617 61 
Q 1341 213 1159 525 
L 1159 0 
L 581 0 
L 581 4863 
L 1159 4863 
L 1159 2969 
z
" transform="scale(0.015625)"/>
      </defs>
      <use xlink:href="#DejaVuSans-61"/>
      <use xlink:href="#DejaVuSans-64" x="61.279297"/>
      <use xlink:href="#DejaVuSans-61" x="124.755859"/>
      <use xlink:href="#DejaVuSans-62" x="186.035156"/>
      <use xlink:href="#DejaVuSans-6f" x="249.511719"/>
      <use xlink:href="#DejaVuSans-6f" x="310.693359"/>
      <use xlink:href="#DejaVuSans-73" x="371.875"/>
      <use xlink:href="#DejaVuSans-74" x="423.974609"/>
      <use xlink:href="#DejaVuSans-63" x="463.183594"/>
      <use xlink:href="#DejaVuSans-6c" x="518.164062"/>
      <use xlink:href="#DejaVuSans-61" x="545.947266"/>
      <use xlink:href="#DejaVuSans-73" x="607.226562"/>
      <use xlink:href="#DejaVuSans-73" x="659.326172"/>
      <use xlink:href="#DejaVuSans-69" x="711.425781"/>
      <use xlink:href="#DejaVuSans-66" x="739.208984"/>
      <use xlink:href="#DejaVuSans-69" x="774.414062"/>
      <use xlink:href="#DejaVuSans-65" x="802.197266"/>
      <use xlink:href="#DejaVuSans-72" x="863.720703"/>
     </g>
    </g>
    <g id="line2d_28">
     <path d="M 215.51375 97.289062 
L 225.51375 97.289062 
L 235.51375 97.289062 
" style="fill: none; stroke-dasharray: 7.5,1.5,1.5,1.5; stroke-dashoffset: 0; stroke: #9467bd; stroke-width: 1.5"/>
    </g>
    <g id="text_21">
     <!-- randomforestclassifier -->
     <g transform="translate(243.51375 100.789062) scale(0.1 -0.1)">
      <use xlink:href="#DejaVuSans-72"/>
      <use xlink:href="#DejaVuSans-61" x="41.113281"/>
      <use xlink:href="#DejaVuSans-6e" x="102.392578"/>
      <use xlink:href="#DejaVuSans-64" x="165.771484"/>
      <use xlink:href="#DejaVuSans-6f" x="229.248047"/>
      <use xlink:href="#DejaVuSans-6d" x="290.429688"/>
      <use xlink:href="#DejaVuSans-66" x="387.841797"/>
      <use xlink:href="#DejaVuSans-6f" x="423.046875"/>
      <use xlink:href="#DejaVuSans-72" x="484.228516"/>
      <use xlink:href="#DejaVuSans-65" x="523.091797"/>
      <use xlink:href="#DejaVuSans-73" x="584.615234"/>
      <use xlink:href="#DejaVuSans-74" x="636.714844"/>
      <use xlink:href="#DejaVuSans-63" x="675.923828"/>
      <use xlink:href="#DejaVuSans-6c" x="730.904297"/>
      <use xlink:href="#DejaVuSans-61" x="758.6875"/>
      <use xlink:href="#DejaVuSans-73" x="819.966797"/>
      <use xlink:href="#DejaVuSans-73" x="872.066406"/>
      <use xlink:href="#DejaVuSans-69" x="924.166016"/>
      <use xlink:href="#DejaVuSans-66" x="951.949219"/>
      <use xlink:href="#DejaVuSans-69" x="987.154297"/>
      <use xlink:href="#DejaVuSans-65" x="1014.9375"/>
      <use xlink:href="#DejaVuSans-72" x="1076.460938"/>
     </g>
    </g>
   </g>
  </g>
  <g id="axes_2">
   <g id="patch_8">
    <path d="M 392.75125 317.93875 
L 709.2 317.93875 
L 709.2 10.8 
L 392.75125 10.8 
z
" style="fill: #ffffff"/>
   </g>
   <g id="PolyCollection_6">
    <defs>
     <path id="mf712a5c429" d="M 407.135284 -93.553103 
L 407.135284 -93.553103 
L 424.057677 -105.025659 
L 440.98007 -107.526172 
L 457.902463 -56.022102 
L 474.824856 -121.899301 
L 491.747249 -96.618708 
L 508.669642 -71.338908 
L 525.592035 -110.388301 
L 542.514428 -89.637388 
L 559.436822 -83.125595 
L 576.359215 -83.294491 
L 593.281608 -94.087334 
L 610.204001 -80.863645 
L 627.126394 -90.756991 
L 644.048787 -110.278552 
L 660.97118 -78.504463 
L 677.893573 -76.853616 
L 694.815966 -71.350161 
L 694.815966 -71.350161 
L 694.815966 -71.350161 
L 677.893573 -76.853616 
L 660.97118 -78.504463 
L 644.048787 -110.278552 
L 627.126394 -90.756991 
L 610.204001 -80.863645 
L 593.281608 -94.087334 
L 576.359215 -83.294491 
L 559.436822 -83.125595 
L 542.514428 -89.637388 
L 525.592035 -110.388301 
L 508.669642 -71.338908 
L 491.747249 -96.618708 
L 474.824856 -121.899301 
L 457.902463 -56.022102 
L 440.98007 -107.526172 
L 424.057677 -105.025659 
L 407.135284 -93.553103 
z
" style="stroke: #1f77b4; stroke-opacity: 0.2"/>
    </defs>
    <g clip-path="url(#p3ac15b712c)">
     <use xlink:href="#mf712a5c429" x="0" y="360" style="fill: #1f77b4; fill-opacity: 0.2; stroke: #1f77b4; stroke-opacity: 0.2"/>
    </g>
   </g>
   <g id="PolyCollection_7">
    <defs>
     <path id="m6a4613e50b" d="M 407.135284 -110.785862 
L 407.135284 -110.785862 
L 424.057677 -89.299261 
L 440.98007 -97.531886 
L 457.902463 -133.443252 
L 474.824856 -126.552146 
L 491.747249 -115.167118 
L 508.669642 -149.917841 
L 525.592035 -115.99196 
L 542.514428 -104.147583 
L 559.436822 -160.673008 
L 576.359215 -92.950326 
L 593.281608 -107.580015 
L 610.204001 -153.65096 
L 627.126394 -102.805963 
L 644.048787 -129.807433 
L 660.97118 -94.325843 
L 677.893573 -93.514224 
L 694.815966 -112.235307 
L 694.815966 -112.235307 
L 694.815966 -112.235307 
L 677.893573 -93.514224 
L 660.97118 -94.325843 
L 644.048787 -129.807433 
L 627.126394 -102.805963 
L 610.204001 -153.65096 
L 593.281608 -107.580015 
L 576.359215 -92.950326 
L 559.436822 -160.673008 
L 542.514428 -104.147583 
L 525.592035 -115.99196 
L 508.669642 -149.917841 
L 491.747249 -115.167118 
L 474.824856 -126.552146 
L 457.902463 -133.443252 
L 440.98007 -97.531886 
L 424.057677 -89.299261 
L 407.135284 -110.785862 
z
" style="stroke: #ff7f0e; stroke-opacity: 0.2"/>
    </defs>
    <g clip-path="url(#p3ac15b712c)">
     <use xlink:href="#m6a4613e50b" x="0" y="360" style="fill: #ff7f0e; fill-opacity: 0.2; stroke: #ff7f0e; stroke-opacity: 0.2"/>
    </g>
   </g>
   <g id="PolyCollection_8">
    <defs>
     <path id="mea3eae6313" d="M 407.135284 -74.742365 
L 407.135284 -68.119326 
L 424.057677 -75.905732 
L 440.98007 -82.011232 
L 457.902463 -127.286771 
L 474.824856 -130.025495 
L 491.747249 -95.968419 
L 508.669642 -70.786685 
L 525.592035 -88.856722 
L 542.514428 -59.1476 
L 559.436822 -76.363461 
L 576.359215 -87.395539 
L 593.281608 -93.833884 
L 610.204001 -93.273069 
L 627.126394 -97.916451 
L 644.048787 -86.204412 
L 660.97118 -58.949725 
L 677.893573 -57.861469 
L 694.815966 -60.882124 
L 694.815966 -65.443249 
L 694.815966 -65.443249 
L 677.893573 -61.428051 
L 660.97118 -62.717339 
L 644.048787 -91.674487 
L 627.126394 -103.126974 
L 610.204001 -99.963536 
L 593.281608 -101.673132 
L 576.359215 -92.915361 
L 559.436822 -82.164007 
L 542.514428 -62.936438 
L 525.592035 -96.758966 
L 508.669642 -75.771664 
L 491.747249 -101.568909 
L 474.824856 -137.504167 
L 457.902463 -133.017822 
L 440.98007 -86.805968 
L 424.057677 -80.932666 
L 407.135284 -74.742365 
z
" style="stroke: #2ca02c; stroke-opacity: 0.2"/>
    </defs>
    <g clip-path="url(#p3ac15b712c)">
     <use xlink:href="#mea3eae6313" x="0" y="360" style="fill: #2ca02c; fill-opacity: 0.2; stroke: #2ca02c; stroke-opacity: 0.2"/>
    </g>
   </g>
   <g id="PolyCollection_9">
    <defs>
     <path id="m7b52f06f71" d="M 407.135284 -98.79051 
L 407.135284 -98.79051 
L 424.057677 -83.334075 
L 440.98007 -118.89582 
L 457.902463 -148.980958 
L 474.824856 -89.329388 
L 491.747249 -105.653358 
L 508.669642 -152.882507 
L 525.592035 -110.026774 
L 542.514428 -114.756452 
L 559.436822 -132.755939 
L 576.359215 -89.894271 
L 593.281608 -151.963837 
L 610.204001 -159.314873 
L 627.126394 -91.613553 
L 644.048787 -134.281322 
L 660.97118 -106.035058 
L 677.893573 -95.057456 
L 694.815966 -84.850577 
L 694.815966 -84.850577 
L 694.815966 -84.850577 
L 677.893573 -95.057456 
L 660.97118 -106.035058 
L 644.048787 -134.281322 
L 627.126394 -91.613553 
L 610.204001 -159.314873 
L 593.281608 -151.963837 
L 576.359215 -89.894271 
L 559.436822 -132.755939 
L 542.514428 -114.756452 
L 525.592035 -110.026774 
L 508.669642 -152.882507 
L 491.747249 -105.653358 
L 474.824856 -89.329388 
L 457.902463 -148.980958 
L 440.98007 -118.89582 
L 424.057677 -83.334075 
L 407.135284 -98.79051 
z
" style="stroke: #d62728; stroke-opacity: 0.2"/>
    </defs>
    <g clip-path="url(#p3ac15b712c)">
     <use xlink:href="#m7b52f06f71" x="0" y="360" style="fill: #d62728; fill-opacity: 0.2; stroke: #d62728; stroke-opacity: 0.2"/>
    </g>
   </g>
   <g id="PolyCollection_10">
    <defs>
     <path id="m692824565a" d="M 407.135284 -91.489269 
L 407.135284 -86.397919 
L 424.057677 -80.544025 
L 440.98007 -96.408904 
L 457.902463 -131.990566 
L 474.824856 -103.845488 
L 491.747249 -78.976227 
L 508.669642 -118.785714 
L 525.592035 -90.79583 
L 542.514428 -73.836298 
L 559.436822 -93.454135 
L 576.359215 -89.104378 
L 593.281608 -81.923717 
L 610.204001 -94.093071 
L 627.126394 -62.003604 
L 644.048787 -99.357327 
L 660.97118 -92.750849 
L 677.893573 -82.217734 
L 694.815966 -76.265176 
L 694.815966 -82.484549 
L 694.815966 -82.484549 
L 677.893573 -88.169413 
L 660.97118 -98.864052 
L 644.048787 -106.038867 
L 627.126394 -67.00744 
L 610.204001 -99.700104 
L 593.281608 -87.711687 
L 576.359215 -96.526253 
L 559.436822 -100.374466 
L 542.514428 -80.174516 
L 525.592035 -96.482851 
L 508.669642 -123.894506 
L 491.747249 -84.553549 
L 474.824856 -110.795287 
L 457.902463 -137.655634 
L 440.98007 -101.907916 
L 424.057677 -85.761424 
L 407.135284 -91.489269 
z
" style="stroke: #9467bd; stroke-opacity: 0.2"/>
    </defs>
    <g clip-path="url(#p3ac15b712c)">
     <use xlink:href="#m692824565a" x="0" y="360" style="fill: #9467bd; fill-opacity: 0.2; stroke: #9467bd; stroke-opacity: 0.2"/>
    </g>
   </g>
   <g id="matplotlib.axis_3">
    <g id="xtick_9">
     <g id="line2d_29">
      <g>
       <use xlink:href="#mc819dafd91" x="398.674088" y="317.93875" style="stroke: #000000; stroke-width: 0.8"/>
      </g>
     </g>
     <g id="text_22">
      <!-- 2.5 -->
      <g transform="translate(390.722525 332.537188) scale(0.1 -0.1)">
       <use xlink:href="#DejaVuSans-32"/>
       <use xlink:href="#DejaVuSans-2e" x="63.623047"/>
       <use xlink:href="#DejaVuSans-35" x="95.410156"/>
      </g>
     </g>
    </g>
    <g id="xtick_10">
     <g id="line2d_30">
      <g>
       <use xlink:href="#mc819dafd91" x="440.98007" y="317.93875" style="stroke: #000000; stroke-width: 0.8"/>
      </g>
     </g>
     <g id="text_23">
      <!-- 5.0 -->
      <g transform="translate(433.028508 332.537188) scale(0.1 -0.1)">
       <use xlink:href="#DejaVuSans-35"/>
       <use xlink:href="#DejaVuSans-2e" x="63.623047"/>
       <use xlink:href="#DejaVuSans-30" x="95.410156"/>
      </g>
     </g>
    </g>
    <g id="xtick_11">
     <g id="line2d_31">
      <g>
       <use xlink:href="#mc819dafd91" x="483.286053" y="317.93875" style="stroke: #000000; stroke-width: 0.8"/>
      </g>
     </g>
     <g id="text_24">
      <!-- 7.5 -->
      <g transform="translate(475.33449 332.537188) scale(0.1 -0.1)">
       <use xlink:href="#DejaVuSans-37"/>
       <use xlink:href="#DejaVuSans-2e" x="63.623047"/>
       <use xlink:href="#DejaVuSans-35" x="95.410156"/>
      </g>
     </g>
    </g>
    <g id="xtick_12">
     <g id="line2d_32">
      <g>
       <use xlink:href="#mc819dafd91" x="525.592035" y="317.93875" style="stroke: #000000; stroke-width: 0.8"/>
      </g>
     </g>
     <g id="text_25">
      <!-- 10.0 -->
      <g transform="translate(514.459223 332.537188) scale(0.1 -0.1)">
       <use xlink:href="#DejaVuSans-31"/>
       <use xlink:href="#DejaVuSans-30" x="63.623047"/>
       <use xlink:href="#DejaVuSans-2e" x="127.246094"/>
       <use xlink:href="#DejaVuSans-30" x="159.033203"/>
      </g>
     </g>
    </g>
    <g id="xtick_13">
     <g id="line2d_33">
      <g>
       <use xlink:href="#mc819dafd91" x="567.898018" y="317.93875" style="stroke: #000000; stroke-width: 0.8"/>
      </g>
     </g>
     <g id="text_26">
      <!-- 12.5 -->
      <g transform="translate(556.765206 332.537188) scale(0.1 -0.1)">
       <use xlink:href="#DejaVuSans-31"/>
       <use xlink:href="#DejaVuSans-32" x="63.623047"/>
       <use xlink:href="#DejaVuSans-2e" x="127.246094"/>
       <use xlink:href="#DejaVuSans-35" x="159.033203"/>
      </g>
     </g>
    </g>
    <g id="xtick_14">
     <g id="line2d_34">
      <g>
       <use xlink:href="#mc819dafd91" x="610.204001" y="317.93875" style="stroke: #000000; stroke-width: 0.8"/>
      </g>
     </g>
     <g id="text_27">
      <!-- 15.0 -->
      <g transform="translate(599.071188 332.537188) scale(0.1 -0.1)">
       <use xlink:href="#DejaVuSans-31"/>
       <use xlink:href="#DejaVuSans-35" x="63.623047"/>
       <use xlink:href="#DejaVuSans-2e" x="127.246094"/>
       <use xlink:href="#DejaVuSans-30" x="159.033203"/>
      </g>
     </g>
    </g>
    <g id="xtick_15">
     <g id="line2d_35">
      <g>
       <use xlink:href="#mc819dafd91" x="652.509983" y="317.93875" style="stroke: #000000; stroke-width: 0.8"/>
      </g>
     </g>
     <g id="text_28">
      <!-- 17.5 -->
      <g transform="translate(641.377171 332.537188) scale(0.1 -0.1)">
       <use xlink:href="#DejaVuSans-31"/>
       <use xlink:href="#DejaVuSans-37" x="63.623047"/>
       <use xlink:href="#DejaVuSans-2e" x="127.246094"/>
       <use xlink:href="#DejaVuSans-35" x="159.033203"/>
      </g>
     </g>
    </g>
    <g id="xtick_16">
     <g id="line2d_36">
      <g>
       <use xlink:href="#mc819dafd91" x="694.815966" y="317.93875" style="stroke: #000000; stroke-width: 0.8"/>
      </g>
     </g>
     <g id="text_29">
      <!-- 20.0 -->
      <g transform="translate(683.683153 332.537188) scale(0.1 -0.1)">
       <use xlink:href="#DejaVuSans-32"/>
       <use xlink:href="#DejaVuSans-30" x="63.623047"/>
       <use xlink:href="#DejaVuSans-2e" x="127.246094"/>
       <use xlink:href="#DejaVuSans-30" x="159.033203"/>
      </g>
     </g>
    </g>
    <g id="text_30">
     <!-- num_features -->
     <g transform="translate(516.613906 346.215312) scale(0.1 -0.1)">
      <use xlink:href="#DejaVuSans-6e"/>
      <use xlink:href="#DejaVuSans-75" x="63.378906"/>
      <use xlink:href="#DejaVuSans-6d" x="126.757812"/>
      <use xlink:href="#DejaVuSans-5f" x="224.169922"/>
      <use xlink:href="#DejaVuSans-66" x="274.169922"/>
      <use xlink:href="#DejaVuSans-65" x="309.375"/>
      <use xlink:href="#DejaVuSans-61" x="370.898438"/>
      <use xlink:href="#DejaVuSans-74" x="432.177734"/>
      <use xlink:href="#DejaVuSans-75" x="471.386719"/>
      <use xlink:href="#DejaVuSans-72" x="534.765625"/>
      <use xlink:href="#DejaVuSans-65" x="573.628906"/>
      <use xlink:href="#DejaVuSans-73" x="635.152344"/>
     </g>
    </g>
   </g>
   <g id="matplotlib.axis_4">
    <g id="ytick_6">
     <g id="line2d_37">
      <g>
       <use xlink:href="#me2848cc62f" x="392.75125" y="309.444318" style="stroke: #000000; stroke-width: 0.8"/>
      </g>
     </g>
    </g>
    <g id="ytick_7">
     <g id="line2d_38">
      <g>
       <use xlink:href="#me2848cc62f" x="392.75125" y="247.406388" style="stroke: #000000; stroke-width: 0.8"/>
      </g>
     </g>
    </g>
    <g id="ytick_8">
     <g id="line2d_39">
      <g>
       <use xlink:href="#me2848cc62f" x="392.75125" y="185.368458" style="stroke: #000000; stroke-width: 0.8"/>
      </g>
     </g>
    </g>
    <g id="ytick_9">
     <g id="line2d_40">
      <g>
       <use xlink:href="#me2848cc62f" x="392.75125" y="123.330528" style="stroke: #000000; stroke-width: 0.8"/>
      </g>
     </g>
    </g>
    <g id="ytick_10">
     <g id="line2d_41">
      <g>
       <use xlink:href="#me2848cc62f" x="392.75125" y="61.292598" style="stroke: #000000; stroke-width: 0.8"/>
      </g>
     </g>
    </g>
    <g id="text_31">
     <!-- statistical_parity_difference -->
     <g transform="translate(382.893437 233.280312) rotate(-90) scale(0.1 -0.1)">
      <defs>
       <path id="DejaVuSans-79" d="M 2059 -325 
Q 1816 -950 1584 -1140 
Q 1353 -1331 966 -1331 
L 506 -1331 
L 506 -850 
L 844 -850 
Q 1081 -850 1212 -737 
Q 1344 -625 1503 -206 
L 1606 56 
L 191 3500 
L 800 3500 
L 1894 763 
L 2988 3500 
L 3597 3500 
L 2059 -325 
z
" transform="scale(0.015625)"/>
      </defs>
      <use xlink:href="#DejaVuSans-73"/>
      <use xlink:href="#DejaVuSans-74" x="52.099609"/>
      <use xlink:href="#DejaVuSans-61" x="91.308594"/>
      <use xlink:href="#DejaVuSans-74" x="152.587891"/>
      <use xlink:href="#DejaVuSans-69" x="191.796875"/>
      <use xlink:href="#DejaVuSans-73" x="219.580078"/>
      <use xlink:href="#DejaVuSans-74" x="271.679688"/>
      <use xlink:href="#DejaVuSans-69" x="310.888672"/>
      <use xlink:href="#DejaVuSans-63" x="338.671875"/>
      <use xlink:href="#DejaVuSans-61" x="393.652344"/>
      <use xlink:href="#DejaVuSans-6c" x="454.931641"/>
      <use xlink:href="#DejaVuSans-5f" x="482.714844"/>
      <use xlink:href="#DejaVuSans-70" x="532.714844"/>
      <use xlink:href="#DejaVuSans-61" x="596.191406"/>
      <use xlink:href="#DejaVuSans-72" x="657.470703"/>
      <use xlink:href="#DejaVuSans-69" x="698.583984"/>
      <use xlink:href="#DejaVuSans-74" x="726.367188"/>
      <use xlink:href="#DejaVuSans-79" x="765.576172"/>
      <use xlink:href="#DejaVuSans-5f" x="824.755859"/>
      <use xlink:href="#DejaVuSans-64" x="874.755859"/>
      <use xlink:href="#DejaVuSans-69" x="938.232422"/>
      <use xlink:href="#DejaVuSans-66" x="966.015625"/>
      <use xlink:href="#DejaVuSans-66" x="1001.220703"/>
      <use xlink:href="#DejaVuSans-65" x="1036.425781"/>
      <use xlink:href="#DejaVuSans-72" x="1097.949219"/>
      <use xlink:href="#DejaVuSans-65" x="1136.8125"/>
      <use xlink:href="#DejaVuSans-6e" x="1198.335938"/>
      <use xlink:href="#DejaVuSans-63" x="1261.714844"/>
      <use xlink:href="#DejaVuSans-65" x="1316.695312"/>
     </g>
    </g>
   </g>
   <g id="line2d_42">
    <path d="M 407.135284 266.446897 
L 424.057677 254.974341 
L 440.98007 252.473828 
L 457.902463 303.977898 
L 474.824856 238.100699 
L 491.747249 263.381292 
L 508.669642 288.661092 
L 525.592035 249.611699 
L 542.514428 270.362612 
L 559.436822 276.874405 
L 576.359215 276.705509 
L 593.281608 265.912666 
L 610.204001 279.136355 
L 627.126394 269.243009 
L 644.048787 249.721448 
L 660.97118 281.495537 
L 677.893573 283.146384 
L 694.815966 288.649839 
" clip-path="url(#p3ac15b712c)" style="fill: none; stroke: #1f77b4; stroke-width: 1.5; stroke-linecap: square"/>
   </g>
   <g id="line2d_43">
    <path d="M 407.135284 249.214138 
L 424.057677 270.700739 
L 440.98007 262.468114 
L 457.902463 226.556748 
L 474.824856 233.447854 
L 491.747249 244.832882 
L 508.669642 210.082159 
L 525.592035 244.00804 
L 542.514428 255.852417 
L 559.436822 199.326992 
L 576.359215 267.049674 
L 593.281608 252.419985 
L 610.204001 206.34904 
L 627.126394 257.194037 
L 644.048787 230.192567 
L 660.97118 265.674157 
L 677.893573 266.485776 
L 694.815966 247.764693 
" clip-path="url(#p3ac15b712c)" style="fill: none; stroke-dasharray: 6,2.25; stroke-dashoffset: 0; stroke: #ff7f0e; stroke-width: 1.5"/>
   </g>
   <g id="line2d_44">
    <path d="M 407.135284 288.668707 
L 424.057677 281.491097 
L 440.98007 275.655071 
L 457.902463 229.692215 
L 474.824856 226.313492 
L 491.747249 261.145901 
L 508.669642 286.637173 
L 525.592035 267.56992 
L 542.514428 298.961386 
L 559.436822 280.782794 
L 576.359215 269.717545 
L 593.281608 262.231295 
L 610.204001 263.259321 
L 627.126394 259.499901 
L 644.048787 271.017161 
L 660.97118 299.264968 
L 677.893573 300.463337 
L 694.815966 296.778241 
" clip-path="url(#p3ac15b712c)" style="fill: none; stroke-dasharray: 1.5,1.5; stroke-dashoffset: 0; stroke: #2ca02c; stroke-width: 1.5"/>
   </g>
   <g id="line2d_45">
    <path d="M 407.135284 261.20949 
L 424.057677 276.665925 
L 440.98007 241.10418 
L 457.902463 211.019042 
L 474.824856 270.670612 
L 491.747249 254.346642 
L 508.669642 207.117493 
L 525.592035 249.973226 
L 542.514428 245.243548 
L 559.436822 227.244061 
L 576.359215 270.105729 
L 593.281608 208.036163 
L 610.204001 200.685127 
L 627.126394 268.386447 
L 644.048787 225.718678 
L 660.97118 253.964942 
L 677.893573 264.942544 
L 694.815966 275.149423 
" clip-path="url(#p3ac15b712c)" style="fill: none; stroke-dasharray: 4.5,1.875,2.25,1.875; stroke-dashoffset: 0; stroke: #d62728; stroke-width: 1.5"/>
   </g>
   <g id="line2d_46">
    <path d="M 407.135284 271.03723 
L 424.057677 276.975632 
L 440.98007 260.87453 
L 457.902463 225.537141 
L 474.824856 252.462479 
L 491.747249 278.206331 
L 508.669642 238.77218 
L 525.592035 266.273246 
L 542.514428 283.109682 
L 559.436822 262.977909 
L 576.359215 267.179719 
L 593.281608 275.272326 
L 610.204001 263.201477 
L 627.126394 295.64796 
L 644.048787 257.12538 
L 660.97118 264.292052 
L 677.893573 274.81293 
L 694.815966 280.713386 
" clip-path="url(#p3ac15b712c)" style="fill: none; stroke-dasharray: 7.5,1.5,1.5,1.5; stroke-dashoffset: 0; stroke: #9467bd; stroke-width: 1.5"/>
   </g>
   <g id="line2d_47"/>
   <g id="line2d_48"/>
   <g id="line2d_49"/>
   <g id="line2d_50"/>
   <g id="line2d_51"/>
   <g id="patch_9">
    <path d="M 392.75125 317.93875 
L 392.75125 10.8 
" style="fill: none; stroke: #000000; stroke-width: 0.8; stroke-linejoin: miter; stroke-linecap: square"/>
   </g>
   <g id="patch_10">
    <path d="M 709.2 317.93875 
L 709.2 10.8 
" style="fill: none; stroke: #000000; stroke-width: 0.8; stroke-linejoin: miter; stroke-linecap: square"/>
   </g>
   <g id="patch_11">
    <path d="M 392.75125 317.93875 
L 709.2 317.93875 
" style="fill: none; stroke: #000000; stroke-width: 0.8; stroke-linejoin: miter; stroke-linecap: square"/>
   </g>
   <g id="patch_12">
    <path d="M 392.75125 10.8 
L 709.2 10.8 
" style="fill: none; stroke: #000000; stroke-width: 0.8; stroke-linejoin: miter; stroke-linecap: square"/>
   </g>
   <g id="legend_2">
    <g id="patch_13">
     <path d="M 558.44375 106.86875 
L 702.2 106.86875 
Q 704.2 106.86875 704.2 104.86875 
L 704.2 17.8 
Q 704.2 15.8 702.2 15.8 
L 558.44375 15.8 
Q 556.44375 15.8 556.44375 17.8 
L 556.44375 104.86875 
Q 556.44375 106.86875 558.44375 106.86875 
z
" style="fill: #ffffff; opacity: 0.8; stroke: #cccccc; stroke-linejoin: miter"/>
    </g>
    <g id="text_32">
     <!-- model -->
     <g transform="translate(614.752344 27.398438) scale(0.1 -0.1)">
      <use xlink:href="#DejaVuSans-6d"/>
      <use xlink:href="#DejaVuSans-6f" x="97.412109"/>
      <use xlink:href="#DejaVuSans-64" x="158.59375"/>
      <use xlink:href="#DejaVuSans-65" x="222.070312"/>
      <use xlink:href="#DejaVuSans-6c" x="283.59375"/>
     </g>
    </g>
    <g id="line2d_52">
     <path d="M 560.44375 38.576563 
L 570.44375 38.576563 
L 580.44375 38.576563 
" style="fill: none; stroke: #1f77b4; stroke-width: 1.5; stroke-linecap: square"/>
    </g>
    <g id="text_33">
     <!-- None -->
     <g transform="translate(588.44375 42.076563) scale(0.1 -0.1)">
      <use xlink:href="#DejaVuSans-4e"/>
      <use xlink:href="#DejaVuSans-6f" x="74.804688"/>
      <use xlink:href="#DejaVuSans-6e" x="135.986328"/>
      <use xlink:href="#DejaVuSans-65" x="199.365234"/>
     </g>
    </g>
    <g id="line2d_53">
     <path d="M 560.44375 53.254688 
L 570.44375 53.254688 
L 580.44375 53.254688 
" style="fill: none; stroke-dasharray: 6,2.25; stroke-dashoffset: 0; stroke: #ff7f0e; stroke-width: 1.5"/>
    </g>
    <g id="text_34">
     <!-- logisticregression -->
     <g transform="translate(588.44375 56.754688) scale(0.1 -0.1)">
      <use xlink:href="#DejaVuSans-6c"/>
      <use xlink:href="#DejaVuSans-6f" x="27.783203"/>
      <use xlink:href="#DejaVuSans-67" x="88.964844"/>
      <use xlink:href="#DejaVuSans-69" x="152.441406"/>
      <use xlink:href="#DejaVuSans-73" x="180.224609"/>
      <use xlink:href="#DejaVuSans-74" x="232.324219"/>
      <use xlink:href="#DejaVuSans-69" x="271.533203"/>
      <use xlink:href="#DejaVuSans-63" x="299.316406"/>
      <use xlink:href="#DejaVuSans-72" x="354.296875"/>
      <use xlink:href="#DejaVuSans-65" x="393.160156"/>
      <use xlink:href="#DejaVuSans-67" x="454.683594"/>
      <use xlink:href="#DejaVuSans-72" x="518.160156"/>
      <use xlink:href="#DejaVuSans-65" x="557.023438"/>
      <use xlink:href="#DejaVuSans-73" x="618.546875"/>
      <use xlink:href="#DejaVuSans-73" x="670.646484"/>
      <use xlink:href="#DejaVuSans-69" x="722.746094"/>
      <use xlink:href="#DejaVuSans-6f" x="750.529297"/>
      <use xlink:href="#DejaVuSans-6e" x="811.710938"/>
     </g>
    </g>
    <g id="line2d_54">
     <path d="M 560.44375 67.932813 
L 570.44375 67.932813 
L 580.44375 67.932813 
" style="fill: none; stroke-dasharray: 1.5,1.5; stroke-dashoffset: 0; stroke: #2ca02c; stroke-width: 1.5"/>
    </g>
    <g id="text_35">
     <!-- decisiontreeclassifier -->
     <g transform="translate(588.44375 71.432813) scale(0.1 -0.1)">
      <use xlink:href="#DejaVuSans-64"/>
      <use xlink:href="#DejaVuSans-65" x="63.476562"/>
      <use xlink:href="#DejaVuSans-63" x="125"/>
      <use xlink:href="#DejaVuSans-69" x="179.980469"/>
      <use xlink:href="#DejaVuSans-73" x="207.763672"/>
      <use xlink:href="#DejaVuSans-69" x="259.863281"/>
      <use xlink:href="#DejaVuSans-6f" x="287.646484"/>
      <use xlink:href="#DejaVuSans-6e" x="348.828125"/>
      <use xlink:href="#DejaVuSans-74" x="412.207031"/>
      <use xlink:href="#DejaVuSans-72" x="451.416016"/>
      <use xlink:href="#DejaVuSans-65" x="490.279297"/>
      <use xlink:href="#DejaVuSans-65" x="551.802734"/>
      <use xlink:href="#DejaVuSans-63" x="613.326172"/>
      <use xlink:href="#DejaVuSans-6c" x="668.306641"/>
      <use xlink:href="#DejaVuSans-61" x="696.089844"/>
      <use xlink:href="#DejaVuSans-73" x="757.369141"/>
      <use xlink:href="#DejaVuSans-73" x="809.46875"/>
      <use xlink:href="#DejaVuSans-69" x="861.568359"/>
      <use xlink:href="#DejaVuSans-66" x="889.351562"/>
      <use xlink:href="#DejaVuSans-69" x="924.556641"/>
      <use xlink:href="#DejaVuSans-65" x="952.339844"/>
      <use xlink:href="#DejaVuSans-72" x="1013.863281"/>
     </g>
    </g>
    <g id="line2d_55">
     <path d="M 560.44375 82.610938 
L 570.44375 82.610938 
L 580.44375 82.610938 
" style="fill: none; stroke-dasharray: 4.5,1.875,2.25,1.875; stroke-dashoffset: 0; stroke: #d62728; stroke-width: 1.5"/>
    </g>
    <g id="text_36">
     <!-- adaboostclassifier -->
     <g transform="translate(588.44375 86.110938) scale(0.1 -0.1)">
      <use xlink:href="#DejaVuSans-61"/>
      <use xlink:href="#DejaVuSans-64" x="61.279297"/>
      <use xlink:href="#DejaVuSans-61" x="124.755859"/>
      <use xlink:href="#DejaVuSans-62" x="186.035156"/>
      <use xlink:href="#DejaVuSans-6f" x="249.511719"/>
      <use xlink:href="#DejaVuSans-6f" x="310.693359"/>
      <use xlink:href="#DejaVuSans-73" x="371.875"/>
      <use xlink:href="#DejaVuSans-74" x="423.974609"/>
      <use xlink:href="#DejaVuSans-63" x="463.183594"/>
      <use xlink:href="#DejaVuSans-6c" x="518.164062"/>
      <use xlink:href="#DejaVuSans-61" x="545.947266"/>
      <use xlink:href="#DejaVuSans-73" x="607.226562"/>
      <use xlink:href="#DejaVuSans-73" x="659.326172"/>
      <use xlink:href="#DejaVuSans-69" x="711.425781"/>
      <use xlink:href="#DejaVuSans-66" x="739.208984"/>
      <use xlink:href="#DejaVuSans-69" x="774.414062"/>
      <use xlink:href="#DejaVuSans-65" x="802.197266"/>
      <use xlink:href="#DejaVuSans-72" x="863.720703"/>
     </g>
    </g>
    <g id="line2d_56">
     <path d="M 560.44375 97.289062 
L 570.44375 97.289062 
L 580.44375 97.289062 
" style="fill: none; stroke-dasharray: 7.5,1.5,1.5,1.5; stroke-dashoffset: 0; stroke: #9467bd; stroke-width: 1.5"/>
    </g>
    <g id="text_37">
     <!-- randomforestclassifier -->
     <g transform="translate(588.44375 100.789062) scale(0.1 -0.1)">
      <use xlink:href="#DejaVuSans-72"/>
      <use xlink:href="#DejaVuSans-61" x="41.113281"/>
      <use xlink:href="#DejaVuSans-6e" x="102.392578"/>
      <use xlink:href="#DejaVuSans-64" x="165.771484"/>
      <use xlink:href="#DejaVuSans-6f" x="229.248047"/>
      <use xlink:href="#DejaVuSans-6d" x="290.429688"/>
      <use xlink:href="#DejaVuSans-66" x="387.841797"/>
      <use xlink:href="#DejaVuSans-6f" x="423.046875"/>
      <use xlink:href="#DejaVuSans-72" x="484.228516"/>
      <use xlink:href="#DejaVuSans-65" x="523.091797"/>
      <use xlink:href="#DejaVuSans-73" x="584.615234"/>
      <use xlink:href="#DejaVuSans-74" x="636.714844"/>
      <use xlink:href="#DejaVuSans-63" x="675.923828"/>
      <use xlink:href="#DejaVuSans-6c" x="730.904297"/>
      <use xlink:href="#DejaVuSans-61" x="758.6875"/>
      <use xlink:href="#DejaVuSans-73" x="819.966797"/>
      <use xlink:href="#DejaVuSans-73" x="872.066406"/>
      <use xlink:href="#DejaVuSans-69" x="924.166016"/>
      <use xlink:href="#DejaVuSans-66" x="951.949219"/>
      <use xlink:href="#DejaVuSans-69" x="987.154297"/>
      <use xlink:href="#DejaVuSans-65" x="1014.9375"/>
      <use xlink:href="#DejaVuSans-72" x="1076.460938"/>
     </g>
    </g>
   </g>
  </g>
 </g>
 <defs>
  <clipPath id="pd15d4ae3b7">
   <rect x="47.82125" y="10.8" width="316.44875" height="307.13875"/>
  </clipPath>
  <clipPath id="p3ac15b712c">
   <rect x="392.75125" y="10.8" width="316.44875" height="307.13875"/>
  </clipPath>
 </defs>
</svg>
