<?xml version="1.0" encoding="utf-8" standalone="no"?>
<!DOCTYPE svg PUBLIC "-//W3C//DTD SVG 1.1//EN"
  "http://www.w3.org/Graphics/SVG/1.1/DTD/svg11.dtd">
<svg xmlns:xlink="http://www.w3.org/1999/xlink" width="720pt" height="360pt" viewBox="0 0 720 360" xmlns="http://www.w3.org/2000/svg" version="1.1">
 <metadata>
  <rdf:RDF xmlns:dc="http://purl.org/dc/elements/1.1/" xmlns:cc="http://creativecommons.org/ns#" xmlns:rdf="http://www.w3.org/1999/02/22-rdf-syntax-ns#">
   <cc:Work>
    <dc:type rdf:resource="http://purl.org/dc/dcmitype/StillImage"/>
    <dc:date>2022-11-03T13:21:09.079412</dc:date>
    <dc:format>image/svg+xml</dc:format>
    <dc:creator>
     <cc:Agent>
      <dc:title>Matplotlib v3.6.0, https://matplotlib.org/</dc:title>
     </cc:Agent>
    </dc:creator>
   </cc:Work>
  </rdf:RDF>
 </metadata>
 <defs>
  <style type="text/css">*{stroke-linejoin: round; stroke-linecap: butt}</style>
 </defs>
 <g id="figure_1">
  <g id="patch_1">
   <path d="M 0 360 
L 720 360 
L 720 0 
L 0 0 
z
" style="fill: #ffffff"/>
  </g>
  <g id="axes_1">
   <g id="patch_2">
    <path d="M 47.82125 318.04 
L 364.27 318.04 
L 364.27 10.8 
L 47.82125 10.8 
z
" style="fill: #ffffff"/>
   </g>
   <g id="PolyCollection_1">
    <defs>
     <path id="m8e7725010c" d="M 62.205284 -65.169992 
L 62.205284 -65.169992 
L 78.187544 -65.169992 
L 94.169804 -65.169992 
L 110.152064 -65.169992 
L 126.134324 -65.169992 
L 142.116585 -65.169992 
L 158.098845 -65.169992 
L 174.081105 -65.169992 
L 190.063365 -65.169992 
L 206.045625 -65.169992 
L 222.027885 -65.169992 
L 238.010145 -65.169992 
L 253.992405 -65.169992 
L 269.974665 -65.169992 
L 285.956926 -65.169992 
L 301.939186 -65.169992 
L 317.921446 -65.169992 
L 333.903706 -65.169992 
L 349.885966 -65.169992 
L 349.885966 -65.169992 
L 349.885966 -65.169992 
L 333.903706 -65.169992 
L 317.921446 -65.169992 
L 301.939186 -65.169992 
L 285.956926 -65.169992 
L 269.974665 -65.169992 
L 253.992405 -65.169992 
L 238.010145 -65.169992 
L 222.027885 -65.169992 
L 206.045625 -65.169992 
L 190.063365 -65.169992 
L 174.081105 -65.169992 
L 158.098845 -65.169992 
L 142.116585 -65.169992 
L 126.134324 -65.169992 
L 110.152064 -65.169992 
L 94.169804 -65.169992 
L 78.187544 -65.169992 
L 62.205284 -65.169992 
z
" style="stroke: #1f77b4; stroke-opacity: 0.2"/>
    </defs>
    <g clip-path="url(#p47f9226175)">
     <use xlink:href="#m8e7725010c" x="0" y="360" style="fill: #1f77b4; fill-opacity: 0.2; stroke: #1f77b4; stroke-opacity: 0.2"/>
    </g>
   </g>
   <g id="PolyCollection_2">
    <defs>
     <path id="m2c7c8c603b" d="M 62.205284 -151.001234 
L 62.205284 -151.001234 
L 78.187544 -314.848042 
L 94.169804 -276.535604 
L 110.152064 -76.228827 
L 126.134324 -146.034047 
L 142.116585 -176.108108 
L 158.098845 -93.085619 
L 174.081105 -125.953296 
L 190.063365 -212.865294 
L 206.045625 -199.438011 
L 222.027885 -128.058746 
L 238.010145 -192.124562 
L 253.992405 -213.479834 
L 269.974665 -269.846131 
L 285.956926 -198.226068 
L 301.939186 -234.835106 
L 317.921446 -220.4987 
L 333.903706 -198.844753 
L 349.885966 -183.794491 
L 349.885966 -183.794491 
L 349.885966 -183.794491 
L 333.903706 -198.844753 
L 317.921446 -220.4987 
L 301.939186 -234.835106 
L 285.956926 -198.226068 
L 269.974665 -269.846131 
L 253.992405 -213.479834 
L 238.010145 -192.124562 
L 222.027885 -128.058746 
L 206.045625 -199.438011 
L 190.063365 -212.865294 
L 174.081105 -125.953296 
L 158.098845 -93.085619 
L 142.116585 -176.108108 
L 126.134324 -146.034047 
L 110.152064 -76.228827 
L 94.169804 -276.535604 
L 78.187544 -314.848042 
L 62.205284 -151.001234 
z
" style="stroke: #ff7f0e; stroke-opacity: 0.2"/>
    </defs>
    <g clip-path="url(#p47f9226175)">
     <use xlink:href="#m2c7c8c603b" x="0" y="360" style="fill: #ff7f0e; fill-opacity: 0.2; stroke: #ff7f0e; stroke-opacity: 0.2"/>
    </g>
   </g>
   <g id="PolyCollection_3">
    <defs>
     <path id="m80ab4fdef8" d="M 62.205284 -97.884687 
L 62.205284 -82.019742 
L 78.187544 -89.446144 
L 94.169804 -146.420963 
L 110.152064 -88.632441 
L 126.134324 -102.819928 
L 142.116585 -119.341368 
L 158.098845 -123.845372 
L 174.081105 -155.846288 
L 190.063365 -124.426378 
L 206.045625 -136.147982 
L 222.027885 -122.965205 
L 238.010145 -115.932951 
L 253.992405 -89.241179 
L 269.974665 -90.030672 
L 285.956926 -113.076311 
L 301.939186 -88.59919 
L 317.921446 -161.7186 
L 333.903706 -205.698158 
L 349.885966 -114.251928 
L 349.885966 -138.186898 
L 349.885966 -138.186898 
L 333.903706 -227.847564 
L 317.921446 -189.320951 
L 301.939186 -104.538921 
L 285.956926 -139.908133 
L 269.974665 -107.138024 
L 253.992405 -105.908781 
L 238.010145 -138.040103 
L 222.027885 -151.67888 
L 206.045625 -184.188544 
L 190.063365 -147.818077 
L 174.081105 -180.810646 
L 158.098845 -143.480241 
L 142.116585 -147.881314 
L 126.134324 -124.958114 
L 110.152064 -106.478427 
L 94.169804 -164.375714 
L 78.187544 -106.080173 
L 62.205284 -97.884687 
z
" style="stroke: #2ca02c; stroke-opacity: 0.2"/>
    </defs>
    <g clip-path="url(#p47f9226175)">
     <use xlink:href="#m80ab4fdef8" x="0" y="360" style="fill: #2ca02c; fill-opacity: 0.2; stroke: #2ca02c; stroke-opacity: 0.2"/>
    </g>
   </g>
   <g id="PolyCollection_4">
    <defs>
     <path id="me35ab67b57" d="M 62.205284 -162.698006 
L 62.205284 -162.698006 
L 78.187544 -75.926758 
L 94.169804 -67.156673 
L 110.152064 -85.437405 
L 126.134324 -257.419459 
L 142.116585 -285.460542 
L 158.098845 -57.001297 
L 174.081105 -137.96264 
L 190.063365 -70.647108 
L 206.045625 -72.011981 
L 222.027885 -59.348284 
L 238.010145 -198.844753 
L 253.992405 -249.677778 
L 269.974665 -256.791935 
L 285.956926 -235.142376 
L 301.939186 -300.404815 
L 317.921446 -300.404815 
L 333.903706 -313.730973 
L 349.885966 -335.234545 
L 349.885966 -335.234545 
L 349.885966 -335.234545 
L 333.903706 -313.730973 
L 317.921446 -300.404815 
L 301.939186 -300.404815 
L 285.956926 -235.142376 
L 269.974665 -256.791935 
L 253.992405 -249.677778 
L 238.010145 -198.844753 
L 222.027885 -59.348284 
L 206.045625 -72.011981 
L 190.063365 -70.647108 
L 174.081105 -137.96264 
L 158.098845 -57.001297 
L 142.116585 -285.460542 
L 126.134324 -257.419459 
L 110.152064 -85.437405 
L 94.169804 -67.156673 
L 78.187544 -75.926758 
L 62.205284 -162.698006 
z
" style="stroke: #d62728; stroke-opacity: 0.2"/>
    </defs>
    <g clip-path="url(#p47f9226175)">
     <use xlink:href="#me35ab67b57" x="0" y="360" style="fill: #d62728; fill-opacity: 0.2; stroke: #d62728; stroke-opacity: 0.2"/>
    </g>
   </g>
   <g id="PolyCollection_5">
    <defs>
     <path id="mafefc7624d" d="M 62.205284 -85.342371 
L 62.205284 -75.511316 
L 78.187544 -96.064591 
L 94.169804 -107.9495 
L 110.152064 -120.081654 
L 126.134324 -92.82342 
L 142.116585 -124.821605 
L 158.098845 -108.648256 
L 174.081105 -129.251086 
L 190.063365 -128.62992 
L 206.045625 -101.449263 
L 222.027885 -115.525246 
L 238.010145 -77.850347 
L 253.992405 -84.880043 
L 269.974665 -83.672301 
L 285.956926 -86.823488 
L 301.939186 -83.663655 
L 317.921446 -77.043545 
L 333.903706 -84.562376 
L 349.885966 -78.520547 
L 349.885966 -88.280884 
L 349.885966 -88.280884 
L 333.903706 -99.265222 
L 317.921446 -90.020876 
L 301.939186 -97.404917 
L 285.956926 -101.364236 
L 269.974665 -96.45753 
L 253.992405 -101.586874 
L 238.010145 -89.966273 
L 222.027885 -134.615916 
L 206.045625 -119.527578 
L 190.063365 -152.657558 
L 174.081105 -148.833104 
L 158.098845 -129.825436 
L 142.116585 -149.067613 
L 126.134324 -109.180405 
L 110.152064 -137.274894 
L 94.169804 -123.286096 
L 78.187544 -113.072429 
L 62.205284 -85.342371 
z
" style="stroke: #9467bd; stroke-opacity: 0.2"/>
    </defs>
    <g clip-path="url(#p47f9226175)">
     <use xlink:href="#mafefc7624d" x="0" y="360" style="fill: #9467bd; fill-opacity: 0.2; stroke: #9467bd; stroke-opacity: 0.2"/>
    </g>
   </g>
   <g id="matplotlib.axis_1">
    <g id="xtick_1">
     <g id="line2d_1">
      <defs>
       <path id="m54edb83ea2" d="M 0 0 
L 0 3.5 
" style="stroke: #000000; stroke-width: 0.8"/>
      </defs>
      <g>
       <use xlink:href="#m54edb83ea2" x="94.169804" y="318.04" style="stroke: #000000; stroke-width: 0.8"/>
      </g>
     </g>
     <g id="text_1">
      <!-- 0.2 -->
      <g transform="translate(86.218242 332.638438) scale(0.1 -0.1)">
       <defs>
        <path id="DejaVuSans-30" d="M 2034 4250 
Q 1547 4250 1301 3770 
Q 1056 3291 1056 2328 
Q 1056 1369 1301 889 
Q 1547 409 2034 409 
Q 2525 409 2770 889 
Q 3016 1369 3016 2328 
Q 3016 3291 2770 3770 
Q 2525 4250 2034 4250 
z
M 2034 4750 
Q 2819 4750 3233 4129 
Q 3647 3509 3647 2328 
Q 3647 1150 3233 529 
Q 2819 -91 2034 -91 
Q 1250 -91 836 529 
Q 422 1150 422 2328 
Q 422 3509 836 4129 
Q 1250 4750 2034 4750 
z
" transform="scale(0.015625)"/>
        <path id="DejaVuSans-2e" d="M 684 794 
L 1344 794 
L 1344 0 
L 684 0 
L 684 794 
z
" transform="scale(0.015625)"/>
        <path id="DejaVuSans-32" d="M 1228 531 
L 3431 531 
L 3431 0 
L 469 0 
L 469 531 
Q 828 903 1448 1529 
Q 2069 2156 2228 2338 
Q 2531 2678 2651 2914 
Q 2772 3150 2772 3378 
Q 2772 3750 2511 3984 
Q 2250 4219 1831 4219 
Q 1534 4219 1204 4116 
Q 875 4013 500 3803 
L 500 4441 
Q 881 4594 1212 4672 
Q 1544 4750 1819 4750 
Q 2544 4750 2975 4387 
Q 3406 4025 3406 3419 
Q 3406 3131 3298 2873 
Q 3191 2616 2906 2266 
Q 2828 2175 2409 1742 
Q 1991 1309 1228 531 
z
" transform="scale(0.015625)"/>
       </defs>
       <use xlink:href="#DejaVuSans-30"/>
       <use xlink:href="#DejaVuSans-2e" x="63.623047"/>
       <use xlink:href="#DejaVuSans-32" x="95.410156"/>
      </g>
     </g>
    </g>
    <g id="xtick_2">
     <g id="line2d_2">
      <g>
       <use xlink:href="#m54edb83ea2" x="158.098845" y="318.04" style="stroke: #000000; stroke-width: 0.8"/>
      </g>
     </g>
     <g id="text_2">
      <!-- 0.4 -->
      <g transform="translate(150.147282 332.638438) scale(0.1 -0.1)">
       <defs>
        <path id="DejaVuSans-34" d="M 2419 4116 
L 825 1625 
L 2419 1625 
L 2419 4116 
z
M 2253 4666 
L 3047 4666 
L 3047 1625 
L 3713 1625 
L 3713 1100 
L 3047 1100 
L 3047 0 
L 2419 0 
L 2419 1100 
L 313 1100 
L 313 1709 
L 2253 4666 
z
" transform="scale(0.015625)"/>
       </defs>
       <use xlink:href="#DejaVuSans-30"/>
       <use xlink:href="#DejaVuSans-2e" x="63.623047"/>
       <use xlink:href="#DejaVuSans-34" x="95.410156"/>
      </g>
     </g>
    </g>
    <g id="xtick_3">
     <g id="line2d_3">
      <g>
       <use xlink:href="#m54edb83ea2" x="222.027885" y="318.04" style="stroke: #000000; stroke-width: 0.8"/>
      </g>
     </g>
     <g id="text_3">
      <!-- 0.6 -->
      <g transform="translate(214.076323 332.638438) scale(0.1 -0.1)">
       <defs>
        <path id="DejaVuSans-36" d="M 2113 2584 
Q 1688 2584 1439 2293 
Q 1191 2003 1191 1497 
Q 1191 994 1439 701 
Q 1688 409 2113 409 
Q 2538 409 2786 701 
Q 3034 994 3034 1497 
Q 3034 2003 2786 2293 
Q 2538 2584 2113 2584 
z
M 3366 4563 
L 3366 3988 
Q 3128 4100 2886 4159 
Q 2644 4219 2406 4219 
Q 1781 4219 1451 3797 
Q 1122 3375 1075 2522 
Q 1259 2794 1537 2939 
Q 1816 3084 2150 3084 
Q 2853 3084 3261 2657 
Q 3669 2231 3669 1497 
Q 3669 778 3244 343 
Q 2819 -91 2113 -91 
Q 1303 -91 875 529 
Q 447 1150 447 2328 
Q 447 3434 972 4092 
Q 1497 4750 2381 4750 
Q 2619 4750 2861 4703 
Q 3103 4656 3366 4563 
z
" transform="scale(0.015625)"/>
       </defs>
       <use xlink:href="#DejaVuSans-30"/>
       <use xlink:href="#DejaVuSans-2e" x="63.623047"/>
       <use xlink:href="#DejaVuSans-36" x="95.410156"/>
      </g>
     </g>
    </g>
    <g id="xtick_4">
     <g id="line2d_4">
      <g>
       <use xlink:href="#m54edb83ea2" x="285.956926" y="318.04" style="stroke: #000000; stroke-width: 0.8"/>
      </g>
     </g>
     <g id="text_4">
      <!-- 0.8 -->
      <g transform="translate(278.005363 332.638438) scale(0.1 -0.1)">
       <defs>
        <path id="DejaVuSans-38" d="M 2034 2216 
Q 1584 2216 1326 1975 
Q 1069 1734 1069 1313 
Q 1069 891 1326 650 
Q 1584 409 2034 409 
Q 2484 409 2743 651 
Q 3003 894 3003 1313 
Q 3003 1734 2745 1975 
Q 2488 2216 2034 2216 
z
M 1403 2484 
Q 997 2584 770 2862 
Q 544 3141 544 3541 
Q 544 4100 942 4425 
Q 1341 4750 2034 4750 
Q 2731 4750 3128 4425 
Q 3525 4100 3525 3541 
Q 3525 3141 3298 2862 
Q 3072 2584 2669 2484 
Q 3125 2378 3379 2068 
Q 3634 1759 3634 1313 
Q 3634 634 3220 271 
Q 2806 -91 2034 -91 
Q 1263 -91 848 271 
Q 434 634 434 1313 
Q 434 1759 690 2068 
Q 947 2378 1403 2484 
z
M 1172 3481 
Q 1172 3119 1398 2916 
Q 1625 2713 2034 2713 
Q 2441 2713 2670 2916 
Q 2900 3119 2900 3481 
Q 2900 3844 2670 4047 
Q 2441 4250 2034 4250 
Q 1625 4250 1398 4047 
Q 1172 3844 1172 3481 
z
" transform="scale(0.015625)"/>
       </defs>
       <use xlink:href="#DejaVuSans-30"/>
       <use xlink:href="#DejaVuSans-2e" x="63.623047"/>
       <use xlink:href="#DejaVuSans-38" x="95.410156"/>
      </g>
     </g>
    </g>
    <g id="xtick_5">
     <g id="line2d_5">
      <g>
       <use xlink:href="#m54edb83ea2" x="349.885966" y="318.04" style="stroke: #000000; stroke-width: 0.8"/>
      </g>
     </g>
     <g id="text_5">
      <!-- 1.0 -->
      <g transform="translate(341.934403 332.638438) scale(0.1 -0.1)">
       <defs>
        <path id="DejaVuSans-31" d="M 794 531 
L 1825 531 
L 1825 4091 
L 703 3866 
L 703 4441 
L 1819 4666 
L 2450 4666 
L 2450 531 
L 3481 531 
L 3481 0 
L 794 0 
L 794 531 
z
" transform="scale(0.015625)"/>
       </defs>
       <use xlink:href="#DejaVuSans-31"/>
       <use xlink:href="#DejaVuSans-2e" x="63.623047"/>
       <use xlink:href="#DejaVuSans-30" x="95.410156"/>
      </g>
     </g>
    </g>
    <g id="text_6">
     <!-- frac -->
     <g transform="translate(196.416719 346.316563) scale(0.1 -0.1)">
      <defs>
       <path id="DejaVuSans-66" d="M 2375 4863 
L 2375 4384 
L 1825 4384 
Q 1516 4384 1395 4259 
Q 1275 4134 1275 3809 
L 1275 3500 
L 2222 3500 
L 2222 3053 
L 1275 3053 
L 1275 0 
L 697 0 
L 697 3053 
L 147 3053 
L 147 3500 
L 697 3500 
L 697 3744 
Q 697 4328 969 4595 
Q 1241 4863 1831 4863 
L 2375 4863 
z
" transform="scale(0.015625)"/>
       <path id="DejaVuSans-72" d="M 2631 2963 
Q 2534 3019 2420 3045 
Q 2306 3072 2169 3072 
Q 1681 3072 1420 2755 
Q 1159 2438 1159 1844 
L 1159 0 
L 581 0 
L 581 3500 
L 1159 3500 
L 1159 2956 
Q 1341 3275 1631 3429 
Q 1922 3584 2338 3584 
Q 2397 3584 2469 3576 
Q 2541 3569 2628 3553 
L 2631 2963 
z
" transform="scale(0.015625)"/>
       <path id="DejaVuSans-61" d="M 2194 1759 
Q 1497 1759 1228 1600 
Q 959 1441 959 1056 
Q 959 750 1161 570 
Q 1363 391 1709 391 
Q 2188 391 2477 730 
Q 2766 1069 2766 1631 
L 2766 1759 
L 2194 1759 
z
M 3341 1997 
L 3341 0 
L 2766 0 
L 2766 531 
Q 2569 213 2275 61 
Q 1981 -91 1556 -91 
Q 1019 -91 701 211 
Q 384 513 384 1019 
Q 384 1609 779 1909 
Q 1175 2209 1959 2209 
L 2766 2209 
L 2766 2266 
Q 2766 2663 2505 2880 
Q 2244 3097 1772 3097 
Q 1472 3097 1187 3025 
Q 903 2953 641 2809 
L 641 3341 
Q 956 3463 1253 3523 
Q 1550 3584 1831 3584 
Q 2591 3584 2966 3190 
Q 3341 2797 3341 1997 
z
" transform="scale(0.015625)"/>
       <path id="DejaVuSans-63" d="M 3122 3366 
L 3122 2828 
Q 2878 2963 2633 3030 
Q 2388 3097 2138 3097 
Q 1578 3097 1268 2742 
Q 959 2388 959 1747 
Q 959 1106 1268 751 
Q 1578 397 2138 397 
Q 2388 397 2633 464 
Q 2878 531 3122 666 
L 3122 134 
Q 2881 22 2623 -34 
Q 2366 -91 2075 -91 
Q 1284 -91 818 406 
Q 353 903 353 1747 
Q 353 2603 823 3093 
Q 1294 3584 2113 3584 
Q 2378 3584 2631 3529 
Q 2884 3475 3122 3366 
z
" transform="scale(0.015625)"/>
      </defs>
      <use xlink:href="#DejaVuSans-66"/>
      <use xlink:href="#DejaVuSans-72" x="35.205078"/>
      <use xlink:href="#DejaVuSans-61" x="76.318359"/>
      <use xlink:href="#DejaVuSans-63" x="137.597656"/>
     </g>
    </g>
   </g>
   <g id="matplotlib.axis_2">
    <g id="ytick_1">
     <g id="line2d_6">
      <defs>
       <path id="m787be7bc11" d="M 0 0 
L -3.5 0 
" style="stroke: #000000; stroke-width: 0.8"/>
      </defs>
      <g>
       <use xlink:href="#m787be7bc11" x="47.82125" y="304.311899" style="stroke: #000000; stroke-width: 0.8"/>
      </g>
     </g>
     <g id="text_7">
      <!-- 0.0 -->
      <g transform="translate(24.918125 308.111117) scale(0.1 -0.1)">
       <use xlink:href="#DejaVuSans-30"/>
       <use xlink:href="#DejaVuSans-2e" x="63.623047"/>
       <use xlink:href="#DejaVuSans-30" x="95.410156"/>
      </g>
     </g>
    </g>
    <g id="ytick_2">
     <g id="line2d_7">
      <g>
       <use xlink:href="#m787be7bc11" x="47.82125" y="244.498884" style="stroke: #000000; stroke-width: 0.8"/>
      </g>
     </g>
     <g id="text_8">
      <!-- 0.2 -->
      <g transform="translate(24.918125 248.298103) scale(0.1 -0.1)">
       <use xlink:href="#DejaVuSans-30"/>
       <use xlink:href="#DejaVuSans-2e" x="63.623047"/>
       <use xlink:href="#DejaVuSans-32" x="95.410156"/>
      </g>
     </g>
    </g>
    <g id="ytick_3">
     <g id="line2d_8">
      <g>
       <use xlink:href="#m787be7bc11" x="47.82125" y="184.68587" style="stroke: #000000; stroke-width: 0.8"/>
      </g>
     </g>
     <g id="text_9">
      <!-- 0.4 -->
      <g transform="translate(24.918125 188.485089) scale(0.1 -0.1)">
       <use xlink:href="#DejaVuSans-30"/>
       <use xlink:href="#DejaVuSans-2e" x="63.623047"/>
       <use xlink:href="#DejaVuSans-34" x="95.410156"/>
      </g>
     </g>
    </g>
    <g id="ytick_4">
     <g id="line2d_9">
      <g>
       <use xlink:href="#m787be7bc11" x="47.82125" y="124.872856" style="stroke: #000000; stroke-width: 0.8"/>
      </g>
     </g>
     <g id="text_10">
      <!-- 0.6 -->
      <g transform="translate(24.918125 128.672074) scale(0.1 -0.1)">
       <use xlink:href="#DejaVuSans-30"/>
       <use xlink:href="#DejaVuSans-2e" x="63.623047"/>
       <use xlink:href="#DejaVuSans-36" x="95.410156"/>
      </g>
     </g>
    </g>
    <g id="ytick_5">
     <g id="line2d_10">
      <g>
       <use xlink:href="#m787be7bc11" x="47.82125" y="65.059841" style="stroke: #000000; stroke-width: 0.8"/>
      </g>
     </g>
     <g id="text_11">
      <!-- 0.8 -->
      <g transform="translate(24.918125 68.85906) scale(0.1 -0.1)">
       <use xlink:href="#DejaVuSans-30"/>
       <use xlink:href="#DejaVuSans-2e" x="63.623047"/>
       <use xlink:href="#DejaVuSans-38" x="95.410156"/>
      </g>
     </g>
    </g>
    <g id="text_12">
     <!-- disparate_impact -->
     <g transform="translate(18.560313 207.689531) rotate(-90) scale(0.1 -0.1)">
      <defs>
       <path id="DejaVuSans-64" d="M 2906 2969 
L 2906 4863 
L 3481 4863 
L 3481 0 
L 2906 0 
L 2906 525 
Q 2725 213 2448 61 
Q 2172 -91 1784 -91 
Q 1150 -91 751 415 
Q 353 922 353 1747 
Q 353 2572 751 3078 
Q 1150 3584 1784 3584 
Q 2172 3584 2448 3432 
Q 2725 3281 2906 2969 
z
M 947 1747 
Q 947 1113 1208 752 
Q 1469 391 1925 391 
Q 2381 391 2643 752 
Q 2906 1113 2906 1747 
Q 2906 2381 2643 2742 
Q 2381 3103 1925 3103 
Q 1469 3103 1208 2742 
Q 947 2381 947 1747 
z
" transform="scale(0.015625)"/>
       <path id="DejaVuSans-69" d="M 603 3500 
L 1178 3500 
L 1178 0 
L 603 0 
L 603 3500 
z
M 603 4863 
L 1178 4863 
L 1178 4134 
L 603 4134 
L 603 4863 
z
" transform="scale(0.015625)"/>
       <path id="DejaVuSans-73" d="M 2834 3397 
L 2834 2853 
Q 2591 2978 2328 3040 
Q 2066 3103 1784 3103 
Q 1356 3103 1142 2972 
Q 928 2841 928 2578 
Q 928 2378 1081 2264 
Q 1234 2150 1697 2047 
L 1894 2003 
Q 2506 1872 2764 1633 
Q 3022 1394 3022 966 
Q 3022 478 2636 193 
Q 2250 -91 1575 -91 
Q 1294 -91 989 -36 
Q 684 19 347 128 
L 347 722 
Q 666 556 975 473 
Q 1284 391 1588 391 
Q 1994 391 2212 530 
Q 2431 669 2431 922 
Q 2431 1156 2273 1281 
Q 2116 1406 1581 1522 
L 1381 1569 
Q 847 1681 609 1914 
Q 372 2147 372 2553 
Q 372 3047 722 3315 
Q 1072 3584 1716 3584 
Q 2034 3584 2315 3537 
Q 2597 3491 2834 3397 
z
" transform="scale(0.015625)"/>
       <path id="DejaVuSans-70" d="M 1159 525 
L 1159 -1331 
L 581 -1331 
L 581 3500 
L 1159 3500 
L 1159 2969 
Q 1341 3281 1617 3432 
Q 1894 3584 2278 3584 
Q 2916 3584 3314 3078 
Q 3713 2572 3713 1747 
Q 3713 922 3314 415 
Q 2916 -91 2278 -91 
Q 1894 -91 1617 61 
Q 1341 213 1159 525 
z
M 3116 1747 
Q 3116 2381 2855 2742 
Q 2594 3103 2138 3103 
Q 1681 3103 1420 2742 
Q 1159 2381 1159 1747 
Q 1159 1113 1420 752 
Q 1681 391 2138 391 
Q 2594 391 2855 752 
Q 3116 1113 3116 1747 
z
" transform="scale(0.015625)"/>
       <path id="DejaVuSans-74" d="M 1172 4494 
L 1172 3500 
L 2356 3500 
L 2356 3053 
L 1172 3053 
L 1172 1153 
Q 1172 725 1289 603 
Q 1406 481 1766 481 
L 2356 481 
L 2356 0 
L 1766 0 
Q 1100 0 847 248 
Q 594 497 594 1153 
L 594 3053 
L 172 3053 
L 172 3500 
L 594 3500 
L 594 4494 
L 1172 4494 
z
" transform="scale(0.015625)"/>
       <path id="DejaVuSans-65" d="M 3597 1894 
L 3597 1613 
L 953 1613 
Q 991 1019 1311 708 
Q 1631 397 2203 397 
Q 2534 397 2845 478 
Q 3156 559 3463 722 
L 3463 178 
Q 3153 47 2828 -22 
Q 2503 -91 2169 -91 
Q 1331 -91 842 396 
Q 353 884 353 1716 
Q 353 2575 817 3079 
Q 1281 3584 2069 3584 
Q 2775 3584 3186 3129 
Q 3597 2675 3597 1894 
z
M 3022 2063 
Q 3016 2534 2758 2815 
Q 2500 3097 2075 3097 
Q 1594 3097 1305 2825 
Q 1016 2553 972 2059 
L 3022 2063 
z
" transform="scale(0.015625)"/>
       <path id="DejaVuSans-5f" d="M 3263 -1063 
L 3263 -1509 
L -63 -1509 
L -63 -1063 
L 3263 -1063 
z
" transform="scale(0.015625)"/>
       <path id="DejaVuSans-6d" d="M 3328 2828 
Q 3544 3216 3844 3400 
Q 4144 3584 4550 3584 
Q 5097 3584 5394 3201 
Q 5691 2819 5691 2113 
L 5691 0 
L 5113 0 
L 5113 2094 
Q 5113 2597 4934 2840 
Q 4756 3084 4391 3084 
Q 3944 3084 3684 2787 
Q 3425 2491 3425 1978 
L 3425 0 
L 2847 0 
L 2847 2094 
Q 2847 2600 2669 2842 
Q 2491 3084 2119 3084 
Q 1678 3084 1418 2786 
Q 1159 2488 1159 1978 
L 1159 0 
L 581 0 
L 581 3500 
L 1159 3500 
L 1159 2956 
Q 1356 3278 1631 3431 
Q 1906 3584 2284 3584 
Q 2666 3584 2933 3390 
Q 3200 3197 3328 2828 
z
" transform="scale(0.015625)"/>
      </defs>
      <use xlink:href="#DejaVuSans-64"/>
      <use xlink:href="#DejaVuSans-69" x="63.476562"/>
      <use xlink:href="#DejaVuSans-73" x="91.259766"/>
      <use xlink:href="#DejaVuSans-70" x="143.359375"/>
      <use xlink:href="#DejaVuSans-61" x="206.835938"/>
      <use xlink:href="#DejaVuSans-72" x="268.115234"/>
      <use xlink:href="#DejaVuSans-61" x="309.228516"/>
      <use xlink:href="#DejaVuSans-74" x="370.507812"/>
      <use xlink:href="#DejaVuSans-65" x="409.716797"/>
      <use xlink:href="#DejaVuSans-5f" x="471.240234"/>
      <use xlink:href="#DejaVuSans-69" x="521.240234"/>
      <use xlink:href="#DejaVuSans-6d" x="549.023438"/>
      <use xlink:href="#DejaVuSans-70" x="646.435547"/>
      <use xlink:href="#DejaVuSans-61" x="709.912109"/>
      <use xlink:href="#DejaVuSans-63" x="771.191406"/>
      <use xlink:href="#DejaVuSans-74" x="826.171875"/>
     </g>
    </g>
   </g>
   <g id="line2d_11">
    <path d="M 62.205284 294.830008 
L 78.187544 294.830008 
L 94.169804 294.830008 
L 110.152064 294.830008 
L 126.134324 294.830008 
L 142.116585 294.830008 
L 158.098845 294.830008 
L 174.081105 294.830008 
L 190.063365 294.830008 
L 206.045625 294.830008 
L 222.027885 294.830008 
L 238.010145 294.830008 
L 253.992405 294.830008 
L 269.974665 294.830008 
L 285.956926 294.830008 
L 301.939186 294.830008 
L 317.921446 294.830008 
L 333.903706 294.830008 
L 349.885966 294.830008 
" clip-path="url(#p47f9226175)" style="fill: none; stroke: #1f77b4; stroke-width: 1.5; stroke-linecap: square"/>
   </g>
   <g id="line2d_12">
    <path d="M 62.205284 208.998766 
L 78.187544 45.151958 
L 94.169804 83.464396 
L 110.152064 283.771173 
L 126.134324 213.965953 
L 142.116585 183.891892 
L 158.098845 266.914381 
L 174.081105 234.046704 
L 190.063365 147.134706 
L 206.045625 160.561989 
L 222.027885 231.941254 
L 238.010145 167.875438 
L 253.992405 146.520166 
L 269.974665 90.153869 
L 285.956926 161.773932 
L 301.939186 125.164894 
L 317.921446 139.5013 
L 333.903706 161.155247 
L 349.885966 176.205509 
" clip-path="url(#p47f9226175)" style="fill: none; stroke-dasharray: 6,2.25; stroke-dashoffset: 0; stroke: #ff7f0e; stroke-width: 1.5"/>
   </g>
   <g id="line2d_13">
    <path d="M 62.205284 270.07581 
L 78.187544 262.753368 
L 94.169804 204.443753 
L 110.152064 262.649643 
L 126.134324 246.985895 
L 142.116585 227.430132 
L 158.098845 226.214003 
L 174.081105 191.643234 
L 190.063365 223.497467 
L 206.045625 201.620538 
L 222.027885 223.578603 
L 238.010145 232.872007 
L 253.992405 261.910319 
L 269.974665 261.503725 
L 285.956926 233.352714 
L 301.939186 263.645641 
L 317.921446 184.850458 
L 333.903706 143.288087 
L 349.885966 234.446659 
" clip-path="url(#p47f9226175)" style="fill: none; stroke-dasharray: 1.5,1.5; stroke-dashoffset: 0; stroke: #2ca02c; stroke-width: 1.5"/>
   </g>
   <g id="line2d_14">
    <path d="M 62.205284 197.301994 
L 78.187544 284.073242 
L 94.169804 292.843327 
L 110.152064 274.562595 
L 126.134324 102.580541 
L 142.116585 74.539458 
L 158.098845 302.998703 
L 174.081105 222.03736 
L 190.063365 289.352892 
L 206.045625 287.988019 
L 222.027885 300.651716 
L 238.010145 161.155247 
L 253.992405 110.322222 
L 269.974665 103.208065 
L 285.956926 124.857624 
L 301.939186 59.595185 
L 317.921446 59.595185 
L 333.903706 46.269027 
L 349.885966 24.765455 
" clip-path="url(#p47f9226175)" style="fill: none; stroke-dasharray: 4.5,1.875,2.25,1.875; stroke-dashoffset: 0; stroke: #d62728; stroke-width: 1.5"/>
   </g>
   <g id="line2d_15">
    <path d="M 62.205284 279.793482 
L 78.187544 255.561541 
L 94.169804 244.121608 
L 110.152064 231.469013 
L 126.134324 258.841267 
L 142.116585 222.93427 
L 158.098845 241.231605 
L 174.081105 220.68471 
L 190.063365 220.003177 
L 206.045625 249.465808 
L 222.027885 234.928855 
L 238.010145 276.016153 
L 253.992405 266.648271 
L 269.974665 270.035067 
L 285.956926 265.667156 
L 301.939186 269.680496 
L 317.921446 277.001284 
L 333.903706 268.605949 
L 349.885966 276.597873 
" clip-path="url(#p47f9226175)" style="fill: none; stroke-dasharray: 7.5,1.5,1.5,1.5; stroke-dashoffset: 0; stroke: #9467bd; stroke-width: 1.5"/>
   </g>
   <g id="line2d_16"/>
   <g id="line2d_17"/>
   <g id="line2d_18"/>
   <g id="line2d_19"/>
   <g id="line2d_20"/>
   <g id="patch_3">
    <path d="M 47.82125 318.04 
L 47.82125 10.8 
" style="fill: none; stroke: #000000; stroke-width: 0.8; stroke-linejoin: miter; stroke-linecap: square"/>
   </g>
   <g id="patch_4">
    <path d="M 364.27 318.04 
L 364.27 10.8 
" style="fill: none; stroke: #000000; stroke-width: 0.8; stroke-linejoin: miter; stroke-linecap: square"/>
   </g>
   <g id="patch_5">
    <path d="M 47.82125 318.04 
L 364.27 318.04 
" style="fill: none; stroke: #000000; stroke-width: 0.8; stroke-linejoin: miter; stroke-linecap: square"/>
   </g>
   <g id="patch_6">
    <path d="M 47.82125 10.8 
L 364.27 10.8 
" style="fill: none; stroke: #000000; stroke-width: 0.8; stroke-linejoin: miter; stroke-linecap: square"/>
   </g>
   <g id="legend_1">
    <g id="patch_7">
     <path d="M 134.1675 106.86875 
L 277.92375 106.86875 
Q 279.92375 106.86875 279.92375 104.86875 
L 279.92375 17.8 
Q 279.92375 15.8 277.92375 15.8 
L 134.1675 15.8 
Q 132.1675 15.8 132.1675 17.8 
L 132.1675 104.86875 
Q 132.1675 106.86875 134.1675 106.86875 
z
" style="fill: #ffffff; opacity: 0.8; stroke: #cccccc; stroke-linejoin: miter"/>
    </g>
    <g id="text_13">
     <!-- model -->
     <g transform="translate(190.476094 27.398438) scale(0.1 -0.1)">
      <defs>
       <path id="DejaVuSans-6f" d="M 1959 3097 
Q 1497 3097 1228 2736 
Q 959 2375 959 1747 
Q 959 1119 1226 758 
Q 1494 397 1959 397 
Q 2419 397 2687 759 
Q 2956 1122 2956 1747 
Q 2956 2369 2687 2733 
Q 2419 3097 1959 3097 
z
M 1959 3584 
Q 2709 3584 3137 3096 
Q 3566 2609 3566 1747 
Q 3566 888 3137 398 
Q 2709 -91 1959 -91 
Q 1206 -91 779 398 
Q 353 888 353 1747 
Q 353 2609 779 3096 
Q 1206 3584 1959 3584 
z
" transform="scale(0.015625)"/>
       <path id="DejaVuSans-6c" d="M 603 4863 
L 1178 4863 
L 1178 0 
L 603 0 
L 603 4863 
z
" transform="scale(0.015625)"/>
      </defs>
      <use xlink:href="#DejaVuSans-6d"/>
      <use xlink:href="#DejaVuSans-6f" x="97.412109"/>
      <use xlink:href="#DejaVuSans-64" x="158.59375"/>
      <use xlink:href="#DejaVuSans-65" x="222.070312"/>
      <use xlink:href="#DejaVuSans-6c" x="283.59375"/>
     </g>
    </g>
    <g id="line2d_21">
     <path d="M 136.1675 38.576563 
L 146.1675 38.576563 
L 156.1675 38.576563 
" style="fill: none; stroke: #1f77b4; stroke-width: 1.5; stroke-linecap: square"/>
    </g>
    <g id="text_14">
     <!-- None -->
     <g transform="translate(164.1675 42.076563) scale(0.1 -0.1)">
      <defs>
       <path id="DejaVuSans-4e" d="M 628 4666 
L 1478 4666 
L 3547 763 
L 3547 4666 
L 4159 4666 
L 4159 0 
L 3309 0 
L 1241 3903 
L 1241 0 
L 628 0 
L 628 4666 
z
" transform="scale(0.015625)"/>
       <path id="DejaVuSans-6e" d="M 3513 2113 
L 3513 0 
L 2938 0 
L 2938 2094 
Q 2938 2591 2744 2837 
Q 2550 3084 2163 3084 
Q 1697 3084 1428 2787 
Q 1159 2491 1159 1978 
L 1159 0 
L 581 0 
L 581 3500 
L 1159 3500 
L 1159 2956 
Q 1366 3272 1645 3428 
Q 1925 3584 2291 3584 
Q 2894 3584 3203 3211 
Q 3513 2838 3513 2113 
z
" transform="scale(0.015625)"/>
      </defs>
      <use xlink:href="#DejaVuSans-4e"/>
      <use xlink:href="#DejaVuSans-6f" x="74.804688"/>
      <use xlink:href="#DejaVuSans-6e" x="135.986328"/>
      <use xlink:href="#DejaVuSans-65" x="199.365234"/>
     </g>
    </g>
    <g id="line2d_22">
     <path d="M 136.1675 53.254688 
L 146.1675 53.254688 
L 156.1675 53.254688 
" style="fill: none; stroke-dasharray: 6,2.25; stroke-dashoffset: 0; stroke: #ff7f0e; stroke-width: 1.5"/>
    </g>
    <g id="text_15">
     <!-- logisticregression -->
     <g transform="translate(164.1675 56.754688) scale(0.1 -0.1)">
      <defs>
       <path id="DejaVuSans-67" d="M 2906 1791 
Q 2906 2416 2648 2759 
Q 2391 3103 1925 3103 
Q 1463 3103 1205 2759 
Q 947 2416 947 1791 
Q 947 1169 1205 825 
Q 1463 481 1925 481 
Q 2391 481 2648 825 
Q 2906 1169 2906 1791 
z
M 3481 434 
Q 3481 -459 3084 -895 
Q 2688 -1331 1869 -1331 
Q 1566 -1331 1297 -1286 
Q 1028 -1241 775 -1147 
L 775 -588 
Q 1028 -725 1275 -790 
Q 1522 -856 1778 -856 
Q 2344 -856 2625 -561 
Q 2906 -266 2906 331 
L 2906 616 
Q 2728 306 2450 153 
Q 2172 0 1784 0 
Q 1141 0 747 490 
Q 353 981 353 1791 
Q 353 2603 747 3093 
Q 1141 3584 1784 3584 
Q 2172 3584 2450 3431 
Q 2728 3278 2906 2969 
L 2906 3500 
L 3481 3500 
L 3481 434 
z
" transform="scale(0.015625)"/>
      </defs>
      <use xlink:href="#DejaVuSans-6c"/>
      <use xlink:href="#DejaVuSans-6f" x="27.783203"/>
      <use xlink:href="#DejaVuSans-67" x="88.964844"/>
      <use xlink:href="#DejaVuSans-69" x="152.441406"/>
      <use xlink:href="#DejaVuSans-73" x="180.224609"/>
      <use xlink:href="#DejaVuSans-74" x="232.324219"/>
      <use xlink:href="#DejaVuSans-69" x="271.533203"/>
      <use xlink:href="#DejaVuSans-63" x="299.316406"/>
      <use xlink:href="#DejaVuSans-72" x="354.296875"/>
      <use xlink:href="#DejaVuSans-65" x="393.160156"/>
      <use xlink:href="#DejaVuSans-67" x="454.683594"/>
      <use xlink:href="#DejaVuSans-72" x="518.160156"/>
      <use xlink:href="#DejaVuSans-65" x="557.023438"/>
      <use xlink:href="#DejaVuSans-73" x="618.546875"/>
      <use xlink:href="#DejaVuSans-73" x="670.646484"/>
      <use xlink:href="#DejaVuSans-69" x="722.746094"/>
      <use xlink:href="#DejaVuSans-6f" x="750.529297"/>
      <use xlink:href="#DejaVuSans-6e" x="811.710938"/>
     </g>
    </g>
    <g id="line2d_23">
     <path d="M 136.1675 67.932813 
L 146.1675 67.932813 
L 156.1675 67.932813 
" style="fill: none; stroke-dasharray: 1.5,1.5; stroke-dashoffset: 0; stroke: #2ca02c; stroke-width: 1.5"/>
    </g>
    <g id="text_16">
     <!-- decisiontreeclassifier -->
     <g transform="translate(164.1675 71.432813) scale(0.1 -0.1)">
      <use xlink:href="#DejaVuSans-64"/>
      <use xlink:href="#DejaVuSans-65" x="63.476562"/>
      <use xlink:href="#DejaVuSans-63" x="125"/>
      <use xlink:href="#DejaVuSans-69" x="179.980469"/>
      <use xlink:href="#DejaVuSans-73" x="207.763672"/>
      <use xlink:href="#DejaVuSans-69" x="259.863281"/>
      <use xlink:href="#DejaVuSans-6f" x="287.646484"/>
      <use xlink:href="#DejaVuSans-6e" x="348.828125"/>
      <use xlink:href="#DejaVuSans-74" x="412.207031"/>
      <use xlink:href="#DejaVuSans-72" x="451.416016"/>
      <use xlink:href="#DejaVuSans-65" x="490.279297"/>
      <use xlink:href="#DejaVuSans-65" x="551.802734"/>
      <use xlink:href="#DejaVuSans-63" x="613.326172"/>
      <use xlink:href="#DejaVuSans-6c" x="668.306641"/>
      <use xlink:href="#DejaVuSans-61" x="696.089844"/>
      <use xlink:href="#DejaVuSans-73" x="757.369141"/>
      <use xlink:href="#DejaVuSans-73" x="809.46875"/>
      <use xlink:href="#DejaVuSans-69" x="861.568359"/>
      <use xlink:href="#DejaVuSans-66" x="889.351562"/>
      <use xlink:href="#DejaVuSans-69" x="924.556641"/>
      <use xlink:href="#DejaVuSans-65" x="952.339844"/>
      <use xlink:href="#DejaVuSans-72" x="1013.863281"/>
     </g>
    </g>
    <g id="line2d_24">
     <path d="M 136.1675 82.610938 
L 146.1675 82.610938 
L 156.1675 82.610938 
" style="fill: none; stroke-dasharray: 4.5,1.875,2.25,1.875; stroke-dashoffset: 0; stroke: #d62728; stroke-width: 1.5"/>
    </g>
    <g id="text_17">
     <!-- adaboostclassifier -->
     <g transform="translate(164.1675 86.110938) scale(0.1 -0.1)">
      <defs>
       <path id="DejaVuSans-62" d="M 3116 1747 
Q 3116 2381 2855 2742 
Q 2594 3103 2138 3103 
Q 1681 3103 1420 2742 
Q 1159 2381 1159 1747 
Q 1159 1113 1420 752 
Q 1681 391 2138 391 
Q 2594 391 2855 752 
Q 3116 1113 3116 1747 
z
M 1159 2969 
Q 1341 3281 1617 3432 
Q 1894 3584 2278 3584 
Q 2916 3584 3314 3078 
Q 3713 2572 3713 1747 
Q 3713 922 3314 415 
Q 2916 -91 2278 -91 
Q 1894 -91 1617 61 
Q 1341 213 1159 525 
L 1159 0 
L 581 0 
L 581 4863 
L 1159 4863 
L 1159 2969 
z
" transform="scale(0.015625)"/>
      </defs>
      <use xlink:href="#DejaVuSans-61"/>
      <use xlink:href="#DejaVuSans-64" x="61.279297"/>
      <use xlink:href="#DejaVuSans-61" x="124.755859"/>
      <use xlink:href="#DejaVuSans-62" x="186.035156"/>
      <use xlink:href="#DejaVuSans-6f" x="249.511719"/>
      <use xlink:href="#DejaVuSans-6f" x="310.693359"/>
      <use xlink:href="#DejaVuSans-73" x="371.875"/>
      <use xlink:href="#DejaVuSans-74" x="423.974609"/>
      <use xlink:href="#DejaVuSans-63" x="463.183594"/>
      <use xlink:href="#DejaVuSans-6c" x="518.164062"/>
      <use xlink:href="#DejaVuSans-61" x="545.947266"/>
      <use xlink:href="#DejaVuSans-73" x="607.226562"/>
      <use xlink:href="#DejaVuSans-73" x="659.326172"/>
      <use xlink:href="#DejaVuSans-69" x="711.425781"/>
      <use xlink:href="#DejaVuSans-66" x="739.208984"/>
      <use xlink:href="#DejaVuSans-69" x="774.414062"/>
      <use xlink:href="#DejaVuSans-65" x="802.197266"/>
      <use xlink:href="#DejaVuSans-72" x="863.720703"/>
     </g>
    </g>
    <g id="line2d_25">
     <path d="M 136.1675 97.289062 
L 146.1675 97.289062 
L 156.1675 97.289062 
" style="fill: none; stroke-dasharray: 7.5,1.5,1.5,1.5; stroke-dashoffset: 0; stroke: #9467bd; stroke-width: 1.5"/>
    </g>
    <g id="text_18">
     <!-- randomforestclassifier -->
     <g transform="translate(164.1675 100.789062) scale(0.1 -0.1)">
      <use xlink:href="#DejaVuSans-72"/>
      <use xlink:href="#DejaVuSans-61" x="41.113281"/>
      <use xlink:href="#DejaVuSans-6e" x="102.392578"/>
      <use xlink:href="#DejaVuSans-64" x="165.771484"/>
      <use xlink:href="#DejaVuSans-6f" x="229.248047"/>
      <use xlink:href="#DejaVuSans-6d" x="290.429688"/>
      <use xlink:href="#DejaVuSans-66" x="387.841797"/>
      <use xlink:href="#DejaVuSans-6f" x="423.046875"/>
      <use xlink:href="#DejaVuSans-72" x="484.228516"/>
      <use xlink:href="#DejaVuSans-65" x="523.091797"/>
      <use xlink:href="#DejaVuSans-73" x="584.615234"/>
      <use xlink:href="#DejaVuSans-74" x="636.714844"/>
      <use xlink:href="#DejaVuSans-63" x="675.923828"/>
      <use xlink:href="#DejaVuSans-6c" x="730.904297"/>
      <use xlink:href="#DejaVuSans-61" x="758.6875"/>
      <use xlink:href="#DejaVuSans-73" x="819.966797"/>
      <use xlink:href="#DejaVuSans-73" x="872.066406"/>
      <use xlink:href="#DejaVuSans-69" x="924.166016"/>
      <use xlink:href="#DejaVuSans-66" x="951.949219"/>
      <use xlink:href="#DejaVuSans-69" x="987.154297"/>
      <use xlink:href="#DejaVuSans-65" x="1014.9375"/>
      <use xlink:href="#DejaVuSans-72" x="1076.460938"/>
     </g>
    </g>
   </g>
  </g>
  <g id="axes_2">
   <g id="patch_8">
    <path d="M 392.75125 318.04 
L 709.2 318.04 
L 709.2 10.8 
L 392.75125 10.8 
z
" style="fill: #ffffff"/>
   </g>
   <g id="PolyCollection_6">
    <defs>
     <path id="m3e5436081d" d="M 407.135284 -57.349574 
L 407.135284 -57.349574 
L 423.117544 -57.349574 
L 439.099804 -57.349574 
L 455.082064 -57.349574 
L 471.064324 -57.349574 
L 487.046585 -57.349574 
L 503.028845 -57.349574 
L 519.011105 -57.349574 
L 534.993365 -57.349574 
L 550.975625 -57.349574 
L 566.957885 -57.349574 
L 582.940145 -57.349574 
L 598.922405 -57.349574 
L 614.904665 -57.349574 
L 630.886926 -57.349574 
L 646.869186 -57.349574 
L 662.851446 -57.349574 
L 678.833706 -57.349574 
L 694.815966 -57.349574 
L 694.815966 -57.349574 
L 694.815966 -57.349574 
L 678.833706 -57.349574 
L 662.851446 -57.349574 
L 646.869186 -57.349574 
L 630.886926 -57.349574 
L 614.904665 -57.349574 
L 598.922405 -57.349574 
L 582.940145 -57.349574 
L 566.957885 -57.349574 
L 550.975625 -57.349574 
L 534.993365 -57.349574 
L 519.011105 -57.349574 
L 503.028845 -57.349574 
L 487.046585 -57.349574 
L 471.064324 -57.349574 
L 455.082064 -57.349574 
L 439.099804 -57.349574 
L 423.117544 -57.349574 
L 407.135284 -57.349574 
z
" style="stroke: #1f77b4; stroke-opacity: 0.2"/>
    </defs>
    <g clip-path="url(#p6726532321)">
     <use xlink:href="#m3e5436081d" x="0" y="360" style="fill: #1f77b4; fill-opacity: 0.2; stroke: #1f77b4; stroke-opacity: 0.2"/>
    </g>
   </g>
   <g id="PolyCollection_7">
    <defs>
     <path id="m96953742f9" d="M 407.135284 -75.151066 
L 407.135284 -75.151066 
L 423.117544 -110.754051 
L 439.099804 -100.785215 
L 455.082064 -59.485753 
L 471.064324 -73.014887 
L 487.046585 -78.948718 
L 503.028845 -62.808698 
L 519.011105 -69.454589 
L 534.993365 -85.831962 
L 550.975625 -84.645196 
L 566.957885 -70.166648 
L 582.940145 -82.983723 
L 598.922405 -87.256081 
L 614.904665 -99.123743 
L 630.886926 -83.221076 
L 646.869186 -91.528439 
L 662.851446 -88.205494 
L 678.833706 -83.933136 
L 694.815966 -80.610191 
L 694.815966 -80.610191 
L 694.815966 -80.610191 
L 678.833706 -83.933136 
L 662.851446 -88.205494 
L 646.869186 -91.528439 
L 630.886926 -83.221076 
L 614.904665 -99.123743 
L 598.922405 -87.256081 
L 582.940145 -82.983723 
L 566.957885 -70.166648 
L 550.975625 -84.645196 
L 534.993365 -85.831962 
L 519.011105 -69.454589 
L 503.028845 -62.808698 
L 487.046585 -78.948718 
L 471.064324 -73.014887 
L 455.082064 -59.485753 
L 439.099804 -100.785215 
L 423.117544 -110.754051 
L 407.135284 -75.151066 
z
" style="stroke: #ff7f0e; stroke-opacity: 0.2"/>
    </defs>
    <g clip-path="url(#p6726532321)">
     <use xlink:href="#m96953742f9" x="0" y="360" style="fill: #ff7f0e; fill-opacity: 0.2; stroke: #ff7f0e; stroke-opacity: 0.2"/>
    </g>
   </g>
   <g id="PolyCollection_8">
    <defs>
     <path id="maf41446795" d="M 407.135284 -64.480021 
L 407.135284 -61.237301 
L 423.117544 -62.499902 
L 439.099804 -72.150565 
L 455.082064 -61.166095 
L 471.064324 -63.682158 
L 487.046585 -66.041093 
L 503.028845 -66.43059 
L 519.011105 -72.482623 
L 534.993365 -67.526094 
L 550.975625 -69.160152 
L 566.957885 -66.929032 
L 582.940145 -65.91316 
L 598.922405 -61.702632 
L 614.904665 -61.574343 
L 630.886926 -65.409496 
L 646.869186 -61.427184 
L 662.851446 -72.91508 
L 678.833706 -79.522875 
L 694.815966 -65.566387 
L 694.815966 -69.564246 
L 694.815966 -69.564246 
L 678.833706 -83.216566 
L 662.851446 -77.478196 
L 646.869186 -64.323012 
L 630.886926 -69.72078 
L 614.904665 -64.774102 
L 598.922405 -64.775288 
L 582.940145 -69.568874 
L 566.957885 -71.662211 
L 550.975625 -77.171654 
L 534.993365 -71.183232 
L 519.011105 -76.684962 
L 503.028845 -69.744753 
L 487.046585 -70.722411 
L 471.064324 -67.532265 
L 455.082064 -63.877619 
L 439.099804 -75.378925 
L 423.117544 -65.829612 
L 407.135284 -64.480021 
z
" style="stroke: #2ca02c; stroke-opacity: 0.2"/>
    </defs>
    <g clip-path="url(#p6726532321)">
     <use xlink:href="#maf41446795" x="0" y="360" style="fill: #2ca02c; fill-opacity: 0.2; stroke: #2ca02c; stroke-opacity: 0.2"/>
    </g>
   </g>
   <g id="PolyCollection_9">
    <defs>
     <path id="m316ffd8157" d="M 407.135284 -74.439007 
L 407.135284 -74.439007 
L 423.117544 -59.485753 
L 439.099804 -57.82428 
L 455.082064 -61.147226 
L 471.064324 -94.376678 
L 487.046585 -101.022569 
L 503.028845 -55.925455 
L 519.011105 -71.353415 
L 534.993365 -58.53634 
L 550.975625 -58.773693 
L 566.957885 -56.400161 
L 582.940145 -83.933136 
L 598.922405 -93.427265 
L 614.904665 -95.088738 
L 630.886926 -90.10432 
L 646.869186 -103.633454 
L 662.851446 -103.633454 
L 678.833706 -106.956399 
L 694.815966 -111.228757 
L 694.815966 -111.228757 
L 694.815966 -111.228757 
L 678.833706 -106.956399 
L 662.851446 -103.633454 
L 646.869186 -103.633454 
L 630.886926 -90.10432 
L 614.904665 -95.088738 
L 598.922405 -93.427265 
L 582.940145 -83.933136 
L 566.957885 -56.400161 
L 550.975625 -58.773693 
L 534.993365 -58.53634 
L 519.011105 -71.353415 
L 503.028845 -55.925455 
L 487.046585 -101.022569 
L 471.064324 -94.376678 
L 455.082064 -61.147226 
L 439.099804 -57.82428 
L 423.117544 -59.485753 
L 407.135284 -74.439007 
z
" style="stroke: #d62728; stroke-opacity: 0.2"/>
    </defs>
    <g clip-path="url(#p6726532321)">
     <use xlink:href="#m316ffd8157" x="0" y="360" style="fill: #d62728; fill-opacity: 0.2; stroke: #d62728; stroke-opacity: 0.2"/>
    </g>
   </g>
   <g id="PolyCollection_10">
    <defs>
     <path id="m1160f36df7" d="M 407.135284 -62.338858 
L 407.135284 -60.169212 
L 423.117544 -64.754876 
L 439.099804 -66.857707 
L 455.082064 -68.993886 
L 471.064324 -63.292661 
L 487.046585 -69.239903 
L 503.028845 -66.23062 
L 519.011105 -70.541192 
L 534.993365 -69.905323 
L 550.975625 -64.930517 
L 566.957885 -67.626969 
L 582.940145 -60.221311 
L 598.922405 -61.763513 
L 614.904665 -61.32263 
L 630.886926 -62.042759 
L 646.869186 -61.355978 
L 662.851446 -59.993333 
L 678.833706 -61.550726 
L 694.815966 -60.392086 
L 694.815966 -62.372087 
L 694.815966 -62.372087 
L 678.833706 -64.551346 
L 662.851446 -62.599946 
L 646.869186 -64.20481 
L 630.886926 -64.959712 
L 614.904665 -63.881891 
L 598.922405 -64.959237 
L 582.940145 -62.675899 
L 566.957885 -71.401241 
L 550.975625 -68.823823 
L 534.993365 -74.434497 
L 519.011105 -74.211266 
L 503.028845 -70.237973 
L 487.046585 -73.846454 
L 471.064324 -66.69785 
L 455.082064 -72.588245 
L 439.099804 -70.095917 
L 423.117544 -68.633703 
L 407.135284 -62.338858 
z
" style="stroke: #9467bd; stroke-opacity: 0.2"/>
    </defs>
    <g clip-path="url(#p6726532321)">
     <use xlink:href="#m1160f36df7" x="0" y="360" style="fill: #9467bd; fill-opacity: 0.2; stroke: #9467bd; stroke-opacity: 0.2"/>
    </g>
   </g>
   <g id="matplotlib.axis_3">
    <g id="xtick_6">
     <g id="line2d_26">
      <g>
       <use xlink:href="#m54edb83ea2" x="439.099804" y="318.04" style="stroke: #000000; stroke-width: 0.8"/>
      </g>
     </g>
     <g id="text_19">
      <!-- 0.2 -->
      <g transform="translate(431.148242 332.638438) scale(0.1 -0.1)">
       <use xlink:href="#DejaVuSans-30"/>
       <use xlink:href="#DejaVuSans-2e" x="63.623047"/>
       <use xlink:href="#DejaVuSans-32" x="95.410156"/>
      </g>
     </g>
    </g>
    <g id="xtick_7">
     <g id="line2d_27">
      <g>
       <use xlink:href="#m54edb83ea2" x="503.028845" y="318.04" style="stroke: #000000; stroke-width: 0.8"/>
      </g>
     </g>
     <g id="text_20">
      <!-- 0.4 -->
      <g transform="translate(495.077282 332.638438) scale(0.1 -0.1)">
       <use xlink:href="#DejaVuSans-30"/>
       <use xlink:href="#DejaVuSans-2e" x="63.623047"/>
       <use xlink:href="#DejaVuSans-34" x="95.410156"/>
      </g>
     </g>
    </g>
    <g id="xtick_8">
     <g id="line2d_28">
      <g>
       <use xlink:href="#m54edb83ea2" x="566.957885" y="318.04" style="stroke: #000000; stroke-width: 0.8"/>
      </g>
     </g>
     <g id="text_21">
      <!-- 0.6 -->
      <g transform="translate(559.006323 332.638438) scale(0.1 -0.1)">
       <use xlink:href="#DejaVuSans-30"/>
       <use xlink:href="#DejaVuSans-2e" x="63.623047"/>
       <use xlink:href="#DejaVuSans-36" x="95.410156"/>
      </g>
     </g>
    </g>
    <g id="xtick_9">
     <g id="line2d_29">
      <g>
       <use xlink:href="#m54edb83ea2" x="630.886926" y="318.04" style="stroke: #000000; stroke-width: 0.8"/>
      </g>
     </g>
     <g id="text_22">
      <!-- 0.8 -->
      <g transform="translate(622.935363 332.638438) scale(0.1 -0.1)">
       <use xlink:href="#DejaVuSans-30"/>
       <use xlink:href="#DejaVuSans-2e" x="63.623047"/>
       <use xlink:href="#DejaVuSans-38" x="95.410156"/>
      </g>
     </g>
    </g>
    <g id="xtick_10">
     <g id="line2d_30">
      <g>
       <use xlink:href="#m54edb83ea2" x="694.815966" y="318.04" style="stroke: #000000; stroke-width: 0.8"/>
      </g>
     </g>
     <g id="text_23">
      <!-- 1.0 -->
      <g transform="translate(686.864403 332.638438) scale(0.1 -0.1)">
       <use xlink:href="#DejaVuSans-31"/>
       <use xlink:href="#DejaVuSans-2e" x="63.623047"/>
       <use xlink:href="#DejaVuSans-30" x="95.410156"/>
      </g>
     </g>
    </g>
    <g id="text_24">
     <!-- frac -->
     <g transform="translate(541.346719 346.316563) scale(0.1 -0.1)">
      <use xlink:href="#DejaVuSans-66"/>
      <use xlink:href="#DejaVuSans-72" x="35.205078"/>
      <use xlink:href="#DejaVuSans-61" x="76.318359"/>
      <use xlink:href="#DejaVuSans-63" x="137.597656"/>
     </g>
    </g>
   </g>
   <g id="matplotlib.axis_4">
    <g id="ytick_6">
     <g id="line2d_31">
      <g>
       <use xlink:href="#m787be7bc11" x="392.75125" y="304.311899" style="stroke: #000000; stroke-width: 0.8"/>
      </g>
     </g>
    </g>
    <g id="ytick_7">
     <g id="line2d_32">
      <g>
       <use xlink:href="#m787be7bc11" x="392.75125" y="244.498884" style="stroke: #000000; stroke-width: 0.8"/>
      </g>
     </g>
    </g>
    <g id="ytick_8">
     <g id="line2d_33">
      <g>
       <use xlink:href="#m787be7bc11" x="392.75125" y="184.68587" style="stroke: #000000; stroke-width: 0.8"/>
      </g>
     </g>
    </g>
    <g id="ytick_9">
     <g id="line2d_34">
      <g>
       <use xlink:href="#m787be7bc11" x="392.75125" y="124.872856" style="stroke: #000000; stroke-width: 0.8"/>
      </g>
     </g>
    </g>
    <g id="ytick_10">
     <g id="line2d_35">
      <g>
       <use xlink:href="#m787be7bc11" x="392.75125" y="65.059841" style="stroke: #000000; stroke-width: 0.8"/>
      </g>
     </g>
    </g>
    <g id="text_25">
     <!-- statistical_parity_difference -->
     <g transform="translate(382.893437 233.330938) rotate(-90) scale(0.1 -0.1)">
      <defs>
       <path id="DejaVuSans-79" d="M 2059 -325 
Q 1816 -950 1584 -1140 
Q 1353 -1331 966 -1331 
L 506 -1331 
L 506 -850 
L 844 -850 
Q 1081 -850 1212 -737 
Q 1344 -625 1503 -206 
L 1606 56 
L 191 3500 
L 800 3500 
L 1894 763 
L 2988 3500 
L 3597 3500 
L 2059 -325 
z
" transform="scale(0.015625)"/>
      </defs>
      <use xlink:href="#DejaVuSans-73"/>
      <use xlink:href="#DejaVuSans-74" x="52.099609"/>
      <use xlink:href="#DejaVuSans-61" x="91.308594"/>
      <use xlink:href="#DejaVuSans-74" x="152.587891"/>
      <use xlink:href="#DejaVuSans-69" x="191.796875"/>
      <use xlink:href="#DejaVuSans-73" x="219.580078"/>
      <use xlink:href="#DejaVuSans-74" x="271.679688"/>
      <use xlink:href="#DejaVuSans-69" x="310.888672"/>
      <use xlink:href="#DejaVuSans-63" x="338.671875"/>
      <use xlink:href="#DejaVuSans-61" x="393.652344"/>
      <use xlink:href="#DejaVuSans-6c" x="454.931641"/>
      <use xlink:href="#DejaVuSans-5f" x="482.714844"/>
      <use xlink:href="#DejaVuSans-70" x="532.714844"/>
      <use xlink:href="#DejaVuSans-61" x="596.191406"/>
      <use xlink:href="#DejaVuSans-72" x="657.470703"/>
      <use xlink:href="#DejaVuSans-69" x="698.583984"/>
      <use xlink:href="#DejaVuSans-74" x="726.367188"/>
      <use xlink:href="#DejaVuSans-79" x="765.576172"/>
      <use xlink:href="#DejaVuSans-5f" x="824.755859"/>
      <use xlink:href="#DejaVuSans-64" x="874.755859"/>
      <use xlink:href="#DejaVuSans-69" x="938.232422"/>
      <use xlink:href="#DejaVuSans-66" x="966.015625"/>
      <use xlink:href="#DejaVuSans-66" x="1001.220703"/>
      <use xlink:href="#DejaVuSans-65" x="1036.425781"/>
      <use xlink:href="#DejaVuSans-72" x="1097.949219"/>
      <use xlink:href="#DejaVuSans-65" x="1136.8125"/>
      <use xlink:href="#DejaVuSans-6e" x="1198.335938"/>
      <use xlink:href="#DejaVuSans-63" x="1261.714844"/>
      <use xlink:href="#DejaVuSans-65" x="1316.695312"/>
     </g>
    </g>
   </g>
   <g id="line2d_36">
    <path d="M 407.135284 302.650426 
L 423.117544 302.650426 
L 439.099804 302.650426 
L 455.082064 302.650426 
L 471.064324 302.650426 
L 487.046585 302.650426 
L 503.028845 302.650426 
L 519.011105 302.650426 
L 534.993365 302.650426 
L 550.975625 302.650426 
L 566.957885 302.650426 
L 582.940145 302.650426 
L 598.922405 302.650426 
L 614.904665 302.650426 
L 630.886926 302.650426 
L 646.869186 302.650426 
L 662.851446 302.650426 
L 678.833706 302.650426 
L 694.815966 302.650426 
" clip-path="url(#p6726532321)" style="fill: none; stroke: #1f77b4; stroke-width: 1.5; stroke-linecap: square"/>
   </g>
   <g id="line2d_37">
    <path d="M 407.135284 284.848934 
L 423.117544 249.245949 
L 439.099804 259.214785 
L 455.082064 300.514247 
L 471.064324 286.985113 
L 487.046585 281.051282 
L 503.028845 297.191302 
L 519.011105 290.545411 
L 534.993365 274.168038 
L 550.975625 275.354804 
L 566.957885 289.833352 
L 582.940145 277.016277 
L 598.922405 272.743919 
L 614.904665 260.876257 
L 630.886926 276.778924 
L 646.869186 268.471561 
L 662.851446 271.794506 
L 678.833706 276.066864 
L 694.815966 279.389809 
" clip-path="url(#p6726532321)" style="fill: none; stroke-dasharray: 6,2.25; stroke-dashoffset: 0; stroke: #ff7f0e; stroke-width: 1.5"/>
   </g>
   <g id="line2d_38">
    <path d="M 407.135284 297.205543 
L 423.117544 295.895353 
L 439.099804 286.173365 
L 455.082064 297.457137 
L 471.064324 294.537693 
L 487.046585 291.751166 
L 503.028845 291.898325 
L 519.011105 285.32364 
L 534.993365 290.597629 
L 550.975625 286.999354 
L 566.957885 290.635605 
L 582.940145 292.235366 
L 598.922405 296.920719 
L 614.904665 296.873248 
L 630.886926 292.482214 
L 646.869186 297.205543 
L 662.851446 284.825198 
L 678.833706 278.649267 
L 694.815966 292.548673 
" clip-path="url(#p6726532321)" style="fill: none; stroke-dasharray: 1.5,1.5; stroke-dashoffset: 0; stroke: #2ca02c; stroke-width: 1.5"/>
   </g>
   <g id="line2d_39">
    <path d="M 407.135284 285.560993 
L 423.117544 300.514247 
L 439.099804 302.17572 
L 455.082064 298.852774 
L 471.064324 265.623322 
L 487.046585 258.977431 
L 503.028845 304.074545 
L 519.011105 288.646585 
L 534.993365 301.46366 
L 550.975625 301.226307 
L 566.957885 303.599839 
L 582.940145 276.066864 
L 598.922405 266.572735 
L 614.904665 264.911262 
L 630.886926 269.89568 
L 646.869186 256.366546 
L 662.851446 256.366546 
L 678.833706 253.043601 
L 694.815966 248.771243 
" clip-path="url(#p6726532321)" style="fill: none; stroke-dasharray: 4.5,1.875,2.25,1.875; stroke-dashoffset: 0; stroke: #d62728; stroke-width: 1.5"/>
   </g>
   <g id="line2d_40">
    <path d="M 407.135284 298.814798 
L 423.117544 293.384156 
L 439.099804 291.442606 
L 455.082064 289.273198 
L 471.064324 294.998158 
L 487.046585 288.466197 
L 503.028845 291.827119 
L 519.011105 287.602231 
L 534.993365 287.920285 
L 550.975625 293.142056 
L 566.957885 290.455217 
L 582.940145 298.577445 
L 598.922405 296.745078 
L 614.904665 297.385931 
L 630.886926 296.597919 
L 646.869186 297.338461 
L 662.851446 298.781568 
L 678.833706 297.039396 
L 694.815966 298.686627 
" clip-path="url(#p6726532321)" style="fill: none; stroke-dasharray: 7.5,1.5,1.5,1.5; stroke-dashoffset: 0; stroke: #9467bd; stroke-width: 1.5"/>
   </g>
   <g id="line2d_41"/>
   <g id="line2d_42"/>
   <g id="line2d_43"/>
   <g id="line2d_44"/>
   <g id="line2d_45"/>
   <g id="patch_9">
    <path d="M 392.75125 318.04 
L 392.75125 10.8 
" style="fill: none; stroke: #000000; stroke-width: 0.8; stroke-linejoin: miter; stroke-linecap: square"/>
   </g>
   <g id="patch_10">
    <path d="M 709.2 318.04 
L 709.2 10.8 
" style="fill: none; stroke: #000000; stroke-width: 0.8; stroke-linejoin: miter; stroke-linecap: square"/>
   </g>
   <g id="patch_11">
    <path d="M 392.75125 318.04 
L 709.2 318.04 
" style="fill: none; stroke: #000000; stroke-width: 0.8; stroke-linejoin: miter; stroke-linecap: square"/>
   </g>
   <g id="patch_12">
    <path d="M 392.75125 10.8 
L 709.2 10.8 
" style="fill: none; stroke: #000000; stroke-width: 0.8; stroke-linejoin: miter; stroke-linecap: square"/>
   </g>
   <g id="legend_2">
    <g id="patch_13">
     <path d="M 558.44375 106.86875 
L 702.2 106.86875 
Q 704.2 106.86875 704.2 104.86875 
L 704.2 17.8 
Q 704.2 15.8 702.2 15.8 
L 558.44375 15.8 
Q 556.44375 15.8 556.44375 17.8 
L 556.44375 104.86875 
Q 556.44375 106.86875 558.44375 106.86875 
z
" style="fill: #ffffff; opacity: 0.8; stroke: #cccccc; stroke-linejoin: miter"/>
    </g>
    <g id="text_26">
     <!-- model -->
     <g transform="translate(614.752344 27.398438) scale(0.1 -0.1)">
      <use xlink:href="#DejaVuSans-6d"/>
      <use xlink:href="#DejaVuSans-6f" x="97.412109"/>
      <use xlink:href="#DejaVuSans-64" x="158.59375"/>
      <use xlink:href="#DejaVuSans-65" x="222.070312"/>
      <use xlink:href="#DejaVuSans-6c" x="283.59375"/>
     </g>
    </g>
    <g id="line2d_46">
     <path d="M 560.44375 38.576563 
L 570.44375 38.576563 
L 580.44375 38.576563 
" style="fill: none; stroke: #1f77b4; stroke-width: 1.5; stroke-linecap: square"/>
    </g>
    <g id="text_27">
     <!-- None -->
     <g transform="translate(588.44375 42.076563) scale(0.1 -0.1)">
      <use xlink:href="#DejaVuSans-4e"/>
      <use xlink:href="#DejaVuSans-6f" x="74.804688"/>
      <use xlink:href="#DejaVuSans-6e" x="135.986328"/>
      <use xlink:href="#DejaVuSans-65" x="199.365234"/>
     </g>
    </g>
    <g id="line2d_47">
     <path d="M 560.44375 53.254688 
L 570.44375 53.254688 
L 580.44375 53.254688 
" style="fill: none; stroke-dasharray: 6,2.25; stroke-dashoffset: 0; stroke: #ff7f0e; stroke-width: 1.5"/>
    </g>
    <g id="text_28">
     <!-- logisticregression -->
     <g transform="translate(588.44375 56.754688) scale(0.1 -0.1)">
      <use xlink:href="#DejaVuSans-6c"/>
      <use xlink:href="#DejaVuSans-6f" x="27.783203"/>
      <use xlink:href="#DejaVuSans-67" x="88.964844"/>
      <use xlink:href="#DejaVuSans-69" x="152.441406"/>
      <use xlink:href="#DejaVuSans-73" x="180.224609"/>
      <use xlink:href="#DejaVuSans-74" x="232.324219"/>
      <use xlink:href="#DejaVuSans-69" x="271.533203"/>
      <use xlink:href="#DejaVuSans-63" x="299.316406"/>
      <use xlink:href="#DejaVuSans-72" x="354.296875"/>
      <use xlink:href="#DejaVuSans-65" x="393.160156"/>
      <use xlink:href="#DejaVuSans-67" x="454.683594"/>
      <use xlink:href="#DejaVuSans-72" x="518.160156"/>
      <use xlink:href="#DejaVuSans-65" x="557.023438"/>
      <use xlink:href="#DejaVuSans-73" x="618.546875"/>
      <use xlink:href="#DejaVuSans-73" x="670.646484"/>
      <use xlink:href="#DejaVuSans-69" x="722.746094"/>
      <use xlink:href="#DejaVuSans-6f" x="750.529297"/>
      <use xlink:href="#DejaVuSans-6e" x="811.710938"/>
     </g>
    </g>
    <g id="line2d_48">
     <path d="M 560.44375 67.932813 
L 570.44375 67.932813 
L 580.44375 67.932813 
" style="fill: none; stroke-dasharray: 1.5,1.5; stroke-dashoffset: 0; stroke: #2ca02c; stroke-width: 1.5"/>
    </g>
    <g id="text_29">
     <!-- decisiontreeclassifier -->
     <g transform="translate(588.44375 71.432813) scale(0.1 -0.1)">
      <use xlink:href="#DejaVuSans-64"/>
      <use xlink:href="#DejaVuSans-65" x="63.476562"/>
      <use xlink:href="#DejaVuSans-63" x="125"/>
      <use xlink:href="#DejaVuSans-69" x="179.980469"/>
      <use xlink:href="#DejaVuSans-73" x="207.763672"/>
      <use xlink:href="#DejaVuSans-69" x="259.863281"/>
      <use xlink:href="#DejaVuSans-6f" x="287.646484"/>
      <use xlink:href="#DejaVuSans-6e" x="348.828125"/>
      <use xlink:href="#DejaVuSans-74" x="412.207031"/>
      <use xlink:href="#DejaVuSans-72" x="451.416016"/>
      <use xlink:href="#DejaVuSans-65" x="490.279297"/>
      <use xlink:href="#DejaVuSans-65" x="551.802734"/>
      <use xlink:href="#DejaVuSans-63" x="613.326172"/>
      <use xlink:href="#DejaVuSans-6c" x="668.306641"/>
      <use xlink:href="#DejaVuSans-61" x="696.089844"/>
      <use xlink:href="#DejaVuSans-73" x="757.369141"/>
      <use xlink:href="#DejaVuSans-73" x="809.46875"/>
      <use xlink:href="#DejaVuSans-69" x="861.568359"/>
      <use xlink:href="#DejaVuSans-66" x="889.351562"/>
      <use xlink:href="#DejaVuSans-69" x="924.556641"/>
      <use xlink:href="#DejaVuSans-65" x="952.339844"/>
      <use xlink:href="#DejaVuSans-72" x="1013.863281"/>
     </g>
    </g>
    <g id="line2d_49">
     <path d="M 560.44375 82.610938 
L 570.44375 82.610938 
L 580.44375 82.610938 
" style="fill: none; stroke-dasharray: 4.5,1.875,2.25,1.875; stroke-dashoffset: 0; stroke: #d62728; stroke-width: 1.5"/>
    </g>
    <g id="text_30">
     <!-- adaboostclassifier -->
     <g transform="translate(588.44375 86.110938) scale(0.1 -0.1)">
      <use xlink:href="#DejaVuSans-61"/>
      <use xlink:href="#DejaVuSans-64" x="61.279297"/>
      <use xlink:href="#DejaVuSans-61" x="124.755859"/>
      <use xlink:href="#DejaVuSans-62" x="186.035156"/>
      <use xlink:href="#DejaVuSans-6f" x="249.511719"/>
      <use xlink:href="#DejaVuSans-6f" x="310.693359"/>
      <use xlink:href="#DejaVuSans-73" x="371.875"/>
      <use xlink:href="#DejaVuSans-74" x="423.974609"/>
      <use xlink:href="#DejaVuSans-63" x="463.183594"/>
      <use xlink:href="#DejaVuSans-6c" x="518.164062"/>
      <use xlink:href="#DejaVuSans-61" x="545.947266"/>
      <use xlink:href="#DejaVuSans-73" x="607.226562"/>
      <use xlink:href="#DejaVuSans-73" x="659.326172"/>
      <use xlink:href="#DejaVuSans-69" x="711.425781"/>
      <use xlink:href="#DejaVuSans-66" x="739.208984"/>
      <use xlink:href="#DejaVuSans-69" x="774.414062"/>
      <use xlink:href="#DejaVuSans-65" x="802.197266"/>
      <use xlink:href="#DejaVuSans-72" x="863.720703"/>
     </g>
    </g>
    <g id="line2d_50">
     <path d="M 560.44375 97.289062 
L 570.44375 97.289062 
L 580.44375 97.289062 
" style="fill: none; stroke-dasharray: 7.5,1.5,1.5,1.5; stroke-dashoffset: 0; stroke: #9467bd; stroke-width: 1.5"/>
    </g>
    <g id="text_31">
     <!-- randomforestclassifier -->
     <g transform="translate(588.44375 100.789062) scale(0.1 -0.1)">
      <use xlink:href="#DejaVuSans-72"/>
      <use xlink:href="#DejaVuSans-61" x="41.113281"/>
      <use xlink:href="#DejaVuSans-6e" x="102.392578"/>
      <use xlink:href="#DejaVuSans-64" x="165.771484"/>
      <use xlink:href="#DejaVuSans-6f" x="229.248047"/>
      <use xlink:href="#DejaVuSans-6d" x="290.429688"/>
      <use xlink:href="#DejaVuSans-66" x="387.841797"/>
      <use xlink:href="#DejaVuSans-6f" x="423.046875"/>
      <use xlink:href="#DejaVuSans-72" x="484.228516"/>
      <use xlink:href="#DejaVuSans-65" x="523.091797"/>
      <use xlink:href="#DejaVuSans-73" x="584.615234"/>
      <use xlink:href="#DejaVuSans-74" x="636.714844"/>
      <use xlink:href="#DejaVuSans-63" x="675.923828"/>
      <use xlink:href="#DejaVuSans-6c" x="730.904297"/>
      <use xlink:href="#DejaVuSans-61" x="758.6875"/>
      <use xlink:href="#DejaVuSans-73" x="819.966797"/>
      <use xlink:href="#DejaVuSans-73" x="872.066406"/>
      <use xlink:href="#DejaVuSans-69" x="924.166016"/>
      <use xlink:href="#DejaVuSans-66" x="951.949219"/>
      <use xlink:href="#DejaVuSans-69" x="987.154297"/>
      <use xlink:href="#DejaVuSans-65" x="1014.9375"/>
      <use xlink:href="#DejaVuSans-72" x="1076.460938"/>
     </g>
    </g>
   </g>
  </g>
 </g>
 <defs>
  <clipPath id="p47f9226175">
   <rect x="47.82125" y="10.8" width="316.44875" height="307.24"/>
  </clipPath>
  <clipPath id="p6726532321">
   <rect x="392.75125" y="10.8" width="316.44875" height="307.24"/>
  </clipPath>
 </defs>
</svg>
