<?xml version="1.0" encoding="utf-8" standalone="no"?>
<!DOCTYPE svg PUBLIC "-//W3C//DTD SVG 1.1//EN"
  "http://www.w3.org/Graphics/SVG/1.1/DTD/svg11.dtd">
<svg xmlns:xlink="http://www.w3.org/1999/xlink" width="720pt" height="360pt" viewBox="0 0 720 360" xmlns="http://www.w3.org/2000/svg" version="1.1">
 <metadata>
  <rdf:RDF xmlns:dc="http://purl.org/dc/elements/1.1/" xmlns:cc="http://creativecommons.org/ns#" xmlns:rdf="http://www.w3.org/1999/02/22-rdf-syntax-ns#">
   <cc:Work>
    <dc:type rdf:resource="http://purl.org/dc/dcmitype/StillImage"/>
    <dc:date>2022-10-31T17:12:09.946643</dc:date>
    <dc:format>image/svg+xml</dc:format>
    <dc:creator>
     <cc:Agent>
      <dc:title>Matplotlib v3.6.0, https://matplotlib.org/</dc:title>
     </cc:Agent>
    </dc:creator>
   </cc:Work>
  </rdf:RDF>
 </metadata>
 <defs>
  <style type="text/css">*{stroke-linejoin: round; stroke-linecap: butt}</style>
 </defs>
 <g id="figure_1">
  <g id="patch_1">
   <path d="M 0 360 
L 720 360 
L 720 0 
L 0 0 
z
" style="fill: #ffffff"/>
  </g>
  <g id="axes_1">
   <g id="patch_2">
    <path d="M 47.82125 317.93875 
L 364.27 317.93875 
L 364.27 10.8 
L 47.82125 10.8 
z
" style="fill: #ffffff"/>
   </g>
   <g id="PolyCollection_1">
    <defs>
     <path id="md1a748e36a" d="M 62.205284 -187.172774 
L 62.205284 -187.172774 
L 69.581712 -204.461501 
L 76.95814 -183.437011 
L 84.334567 -186.223484 
L 91.710995 -154.217091 
L 99.087423 -183.498514 
L 106.463851 -119.528239 
L 113.840278 -182.997396 
L 121.216706 -136.12936 
L 128.593134 -153.38706 
L 135.969561 -190.59246 
L 143.345989 -128.664992 
L 150.722417 -154.872897 
L 158.098845 -170.262931 
L 165.475272 -142.150206 
L 172.8517 -177.345735 
L 180.228128 -178.731289 
L 187.604556 -188.335016 
L 194.980983 -181.252181 
L 202.357411 -147.979287 
L 209.733839 -198.1855 
L 217.110267 -181.555568 
L 224.486694 -206.340996 
L 231.863122 -155.621306 
L 239.23955 -175.90777 
L 246.615978 -182.153536 
L 253.992405 -191.614373 
L 261.368833 -149.273044 
L 268.745261 -140.383275 
L 276.121689 -195.231276 
L 283.498116 -204.60249 
L 290.874544 -180.502292 
L 298.250972 -154.240189 
L 305.627399 -131.919824 
L 313.003827 -176.043812 
L 320.380255 -150.451763 
L 327.756683 -205.967368 
L 335.13311 -136.82924 
L 342.509538 -169.063673 
L 349.885966 -194.162536 
L 349.885966 -194.162536 
L 349.885966 -194.162536 
L 342.509538 -169.063673 
L 335.13311 -136.82924 
L 327.756683 -205.967368 
L 320.380255 -150.451763 
L 313.003827 -176.043812 
L 305.627399 -131.919824 
L 298.250972 -154.240189 
L 290.874544 -180.502292 
L 283.498116 -204.60249 
L 276.121689 -195.231276 
L 268.745261 -140.383275 
L 261.368833 -149.273044 
L 253.992405 -191.614373 
L 246.615978 -182.153536 
L 239.23955 -175.90777 
L 231.863122 -155.621306 
L 224.486694 -206.340996 
L 217.110267 -181.555568 
L 209.733839 -198.1855 
L 202.357411 -147.979287 
L 194.980983 -181.252181 
L 187.604556 -188.335016 
L 180.228128 -178.731289 
L 172.8517 -177.345735 
L 165.475272 -142.150206 
L 158.098845 -170.262931 
L 150.722417 -154.872897 
L 143.345989 -128.664992 
L 135.969561 -190.59246 
L 128.593134 -153.38706 
L 121.216706 -136.12936 
L 113.840278 -182.997396 
L 106.463851 -119.528239 
L 99.087423 -183.498514 
L 91.710995 -154.217091 
L 84.334567 -186.223484 
L 76.95814 -183.437011 
L 69.581712 -204.461501 
L 62.205284 -187.172774 
z
" style="stroke: #1f77b4; stroke-opacity: 0.2"/>
    </defs>
    <g clip-path="url(#pc8a905deb8)">
     <use xlink:href="#md1a748e36a" x="0" y="360" style="fill: #1f77b4; fill-opacity: 0.2; stroke: #1f77b4; stroke-opacity: 0.2"/>
    </g>
   </g>
   <g id="PolyCollection_2">
    <defs>
     <path id="m86b93289b8" d="M 62.205284 -299.220278 
L 62.205284 -299.220278 
L 69.581712 -284.938269 
L 76.95814 -305.563018 
L 84.334567 -301.807739 
L 91.710995 -273.284971 
L 99.087423 -297.517165 
L 106.463851 -276.364339 
L 113.840278 -269.419675 
L 121.216706 -229.936695 
L 128.593134 -283.909361 
L 135.969561 -277.202945 
L 143.345989 -277.27747 
L 150.722417 -305.41762 
L 158.098845 -287.806478 
L 165.475272 -283.652129 
L 172.8517 -265.579787 
L 180.228128 -297.550899 
L 187.604556 -230.283613 
L 194.980983 -277.241669 
L 202.357411 -281.427201 
L 209.733839 -266.076733 
L 217.110267 -254.761347 
L 224.486694 -274.32165 
L 231.863122 -284.284405 
L 239.23955 -263.599492 
L 246.615978 -317.257554 
L 253.992405 -291.881627 
L 261.368833 -285.71272 
L 268.745261 -273.439114 
L 276.121689 -297.207431 
L 283.498116 -289.648651 
L 290.874544 -275.314341 
L 298.250972 -271.665881 
L 305.627399 -254.729979 
L 313.003827 -276.051951 
L 320.380255 -285.622147 
L 327.756683 -315.990886 
L 335.13311 -279.19329 
L 342.509538 -327.087511 
L 349.885966 -305.392329 
L 349.885966 -305.392329 
L 349.885966 -305.392329 
L 342.509538 -327.087511 
L 335.13311 -279.19329 
L 327.756683 -315.990886 
L 320.380255 -285.622147 
L 313.003827 -276.051951 
L 305.627399 -254.729979 
L 298.250972 -271.665881 
L 290.874544 -275.314341 
L 283.498116 -289.648651 
L 276.121689 -297.207431 
L 268.745261 -273.439114 
L 261.368833 -285.71272 
L 253.992405 -291.881627 
L 246.615978 -317.257554 
L 239.23955 -263.599492 
L 231.863122 -284.284405 
L 224.486694 -274.32165 
L 217.110267 -254.761347 
L 209.733839 -266.076733 
L 202.357411 -281.427201 
L 194.980983 -277.241669 
L 187.604556 -230.283613 
L 180.228128 -297.550899 
L 172.8517 -265.579787 
L 165.475272 -283.652129 
L 158.098845 -287.806478 
L 150.722417 -305.41762 
L 143.345989 -277.27747 
L 135.969561 -277.202945 
L 128.593134 -283.909361 
L 121.216706 -229.936695 
L 113.840278 -269.419675 
L 106.463851 -276.364339 
L 99.087423 -297.517165 
L 91.710995 -273.284971 
L 84.334567 -301.807739 
L 76.95814 -305.563018 
L 69.581712 -284.938269 
L 62.205284 -299.220278 
z
" style="stroke: #ff7f0e; stroke-opacity: 0.2"/>
    </defs>
    <g clip-path="url(#pc8a905deb8)">
     <use xlink:href="#m86b93289b8" x="0" y="360" style="fill: #ff7f0e; fill-opacity: 0.2; stroke: #ff7f0e; stroke-opacity: 0.2"/>
    </g>
   </g>
   <g id="PolyCollection_3">
    <defs>
     <path id="mc5f79b1804" d="M 62.205284 -152.334672 
L 62.205284 -145.788663 
L 69.581712 -173.129929 
L 76.95814 -196.430364 
L 84.334567 -123.371062 
L 91.710995 -125.736418 
L 99.087423 -172.556083 
L 106.463851 -147.754596 
L 113.840278 -118.533047 
L 121.216706 -139.887177 
L 128.593134 -129.681048 
L 135.969561 -156.917695 
L 143.345989 -187.152215 
L 150.722417 -137.57181 
L 158.098845 -163.128802 
L 165.475272 -143.826997 
L 172.8517 -116.200636 
L 180.228128 -133.243676 
L 187.604556 -113.995968 
L 194.980983 -128.753603 
L 202.357411 -122.222286 
L 209.733839 -158.372121 
L 217.110267 -144.871392 
L 224.486694 -120.511373 
L 231.863122 -160.299576 
L 239.23955 -150.087794 
L 246.615978 -138.079225 
L 253.992405 -136.990659 
L 261.368833 -111.340023 
L 268.745261 -148.338682 
L 276.121689 -162.026564 
L 283.498116 -167.883355 
L 290.874544 -145.371959 
L 298.250972 -144.611008 
L 305.627399 -74.087686 
L 313.003827 -165.955158 
L 320.380255 -131.305241 
L 327.756683 -149.889648 
L 335.13311 -155.229453 
L 342.509538 -186.42804 
L 349.885966 -131.755671 
L 349.885966 -138.263248 
L 349.885966 -138.263248 
L 342.509538 -191.780685 
L 335.13311 -162.155337 
L 327.756683 -156.324675 
L 320.380255 -139.948612 
L 313.003827 -172.728854 
L 305.627399 -82.893453 
L 298.250972 -152.83286 
L 290.874544 -150.878732 
L 283.498116 -173.647421 
L 276.121689 -168.405643 
L 268.745261 -154.257037 
L 261.368833 -118.572392 
L 253.992405 -142.54951 
L 246.615978 -143.798292 
L 239.23955 -156.252474 
L 231.863122 -165.04652 
L 224.486694 -127.087578 
L 217.110267 -150.536589 
L 209.733839 -164.883131 
L 202.357411 -129.33092 
L 194.980983 -137.141471 
L 187.604556 -121.551114 
L 180.228128 -138.442015 
L 172.8517 -124.0224 
L 165.475272 -149.628208 
L 158.098845 -168.692555 
L 150.722417 -143.450251 
L 143.345989 -192.313682 
L 135.969561 -164.334333 
L 128.593134 -135.949006 
L 121.216706 -147.283012 
L 113.840278 -125.678171 
L 106.463851 -153.533988 
L 99.087423 -180.096183 
L 91.710995 -132.221667 
L 84.334567 -130.494596 
L 76.95814 -201.326832 
L 69.581712 -180.791421 
L 62.205284 -152.334672 
z
" style="stroke: #2ca02c; stroke-opacity: 0.2"/>
    </defs>
    <g clip-path="url(#pc8a905deb8)">
     <use xlink:href="#mc5f79b1804" x="0" y="360" style="fill: #2ca02c; fill-opacity: 0.2; stroke: #2ca02c; stroke-opacity: 0.2"/>
    </g>
   </g>
   <g id="PolyCollection_4">
    <defs>
     <path id="me5f73e5cec" d="M 62.205284 -304.503568 
L 62.205284 -304.503568 
L 69.581712 -316.276186 
L 76.95814 -311.607126 
L 84.334567 -304.556074 
L 91.710995 -288.776454 
L 99.087423 -306.517473 
L 106.463851 -289.545586 
L 113.840278 -275.762225 
L 121.216706 -241.423 
L 128.593134 -304.183358 
L 135.969561 -305.795674 
L 143.345989 -282.490297 
L 150.722417 -324.02838 
L 158.098845 -306.234125 
L 165.475272 -307.160474 
L 172.8517 -302.635254 
L 180.228128 -319.358675 
L 187.604556 -260.182755 
L 194.980983 -307.136635 
L 202.357411 -291.337772 
L 209.733839 -295.778232 
L 217.110267 -272.193037 
L 224.486694 -293.849397 
L 231.863122 -303.967835 
L 239.23955 -276.771533 
L 246.615978 -309.159608 
L 253.992405 -288.793177 
L 261.368833 -291.425629 
L 268.745261 -289.69673 
L 276.121689 -292.788889 
L 283.498116 -292.738653 
L 290.874544 -300.478232 
L 298.250972 -279.312271 
L 305.627399 -278.210922 
L 313.003827 -279.534113 
L 320.380255 -279.56769 
L 327.756683 -318.289996 
L 335.13311 -297.21086 
L 342.509538 -335.239148 
L 349.885966 -329.670994 
L 349.885966 -329.670994 
L 349.885966 -329.670994 
L 342.509538 -335.239148 
L 335.13311 -297.21086 
L 327.756683 -318.289996 
L 320.380255 -279.56769 
L 313.003827 -279.534113 
L 305.627399 -278.210922 
L 298.250972 -279.312271 
L 290.874544 -300.478232 
L 283.498116 -292.738653 
L 276.121689 -292.788889 
L 268.745261 -289.69673 
L 261.368833 -291.425629 
L 253.992405 -288.793177 
L 246.615978 -309.159608 
L 239.23955 -276.771533 
L 231.863122 -303.967835 
L 224.486694 -293.849397 
L 217.110267 -272.193037 
L 209.733839 -295.778232 
L 202.357411 -291.337772 
L 194.980983 -307.136635 
L 187.604556 -260.182755 
L 180.228128 -319.358675 
L 172.8517 -302.635254 
L 165.475272 -307.160474 
L 158.098845 -306.234125 
L 150.722417 -324.02838 
L 143.345989 -282.490297 
L 135.969561 -305.795674 
L 128.593134 -304.183358 
L 121.216706 -241.423 
L 113.840278 -275.762225 
L 106.463851 -289.545586 
L 99.087423 -306.517473 
L 91.710995 -288.776454 
L 84.334567 -304.556074 
L 76.95814 -311.607126 
L 69.581712 -316.276186 
L 62.205284 -304.503568 
z
" style="stroke: #d62728; stroke-opacity: 0.2"/>
    </defs>
    <g clip-path="url(#pc8a905deb8)">
     <use xlink:href="#me5f73e5cec" x="0" y="360" style="fill: #d62728; fill-opacity: 0.2; stroke: #d62728; stroke-opacity: 0.2"/>
    </g>
   </g>
   <g id="PolyCollection_5">
    <defs>
     <path id="m5d331492f1" d="M 62.205284 -236.903314 
L 62.205284 -231.239648 
L 69.581712 -241.252112 
L 76.95814 -241.276725 
L 84.334567 -243.029886 
L 91.710995 -189.038584 
L 99.087423 -246.891196 
L 106.463851 -191.826695 
L 113.840278 -216.557649 
L 121.216706 -178.360469 
L 128.593134 -196.78194 
L 135.969561 -224.015917 
L 143.345989 -220.650936 
L 150.722417 -243.383528 
L 158.098845 -232.576678 
L 165.475272 -221.552219 
L 172.8517 -204.194501 
L 180.228128 -219.692056 
L 187.604556 -170.386482 
L 194.980983 -210.369314 
L 202.357411 -212.144493 
L 209.733839 -206.28638 
L 217.110267 -193.897498 
L 224.486694 -227.340786 
L 231.863122 -230.671313 
L 239.23955 -192.828131 
L 246.615978 -225.058079 
L 253.992405 -229.991809 
L 261.368833 -200.507405 
L 268.745261 -205.114859 
L 276.121689 -250.753722 
L 283.498116 -248.815739 
L 290.874544 -225.321118 
L 298.250972 -161.421414 
L 305.627399 -188.362218 
L 313.003827 -214.73633 
L 320.380255 -195.526138 
L 327.756683 -261.826037 
L 335.13311 -241.333069 
L 342.509538 -266.857725 
L 349.885966 -218.911404 
L 349.885966 -226.140226 
L 349.885966 -226.140226 
L 342.509538 -271.958109 
L 335.13311 -246.564291 
L 327.756683 -267.744507 
L 320.380255 -203.904617 
L 313.003827 -222.313923 
L 305.627399 -197.605384 
L 298.250972 -169.185593 
L 290.874544 -232.075143 
L 283.498116 -254.930971 
L 276.121689 -256.185613 
L 268.745261 -211.885284 
L 261.368833 -207.148129 
L 253.992405 -237.610298 
L 246.615978 -234.405575 
L 239.23955 -200.501712 
L 231.863122 -236.512798 
L 224.486694 -234.382394 
L 217.110267 -200.888392 
L 209.733839 -212.366659 
L 202.357411 -218.409631 
L 194.980983 -218.3011 
L 187.604556 -179.06704 
L 180.228128 -226.161443 
L 172.8517 -210.293877 
L 165.475272 -228.940676 
L 158.098845 -240.031952 
L 150.722417 -249.949358 
L 143.345989 -225.649629 
L 135.969561 -231.69692 
L 128.593134 -204.884706 
L 121.216706 -186.872963 
L 113.840278 -224.794152 
L 106.463851 -199.42052 
L 99.087423 -253.657765 
L 91.710995 -196.371004 
L 84.334567 -250.591598 
L 76.95814 -246.819895 
L 69.581712 -247.757499 
L 62.205284 -236.903314 
z
" style="stroke: #9467bd; stroke-opacity: 0.2"/>
    </defs>
    <g clip-path="url(#pc8a905deb8)">
     <use xlink:href="#m5d331492f1" x="0" y="360" style="fill: #9467bd; fill-opacity: 0.2; stroke: #9467bd; stroke-opacity: 0.2"/>
    </g>
   </g>
   <g id="matplotlib.axis_1">
    <g id="xtick_1">
     <g id="line2d_1">
      <defs>
       <path id="mf2a4e52e68" d="M 0 0 
L 0 3.5 
" style="stroke: #000000; stroke-width: 0.8"/>
      </defs>
      <g>
       <use xlink:href="#mf2a4e52e68" x="76.95814" y="317.93875" style="stroke: #000000; stroke-width: 0.8"/>
      </g>
     </g>
     <g id="text_1">
      <!-- 5 -->
      <g transform="translate(73.77689 332.537188) scale(0.1 -0.1)">
       <defs>
        <path id="DejaVuSans-35" d="M 691 4666 
L 3169 4666 
L 3169 4134 
L 1269 4134 
L 1269 2991 
Q 1406 3038 1543 3061 
Q 1681 3084 1819 3084 
Q 2600 3084 3056 2656 
Q 3513 2228 3513 1497 
Q 3513 744 3044 326 
Q 2575 -91 1722 -91 
Q 1428 -91 1123 -41 
Q 819 9 494 109 
L 494 744 
Q 775 591 1075 516 
Q 1375 441 1709 441 
Q 2250 441 2565 725 
Q 2881 1009 2881 1497 
Q 2881 1984 2565 2268 
Q 2250 2553 1709 2553 
Q 1456 2553 1204 2497 
Q 953 2441 691 2322 
L 691 4666 
z
" transform="scale(0.015625)"/>
       </defs>
       <use xlink:href="#DejaVuSans-35"/>
      </g>
     </g>
    </g>
    <g id="xtick_2">
     <g id="line2d_2">
      <g>
       <use xlink:href="#mf2a4e52e68" x="113.840278" y="317.93875" style="stroke: #000000; stroke-width: 0.8"/>
      </g>
     </g>
     <g id="text_2">
      <!-- 10 -->
      <g transform="translate(107.477778 332.537188) scale(0.1 -0.1)">
       <defs>
        <path id="DejaVuSans-31" d="M 794 531 
L 1825 531 
L 1825 4091 
L 703 3866 
L 703 4441 
L 1819 4666 
L 2450 4666 
L 2450 531 
L 3481 531 
L 3481 0 
L 794 0 
L 794 531 
z
" transform="scale(0.015625)"/>
        <path id="DejaVuSans-30" d="M 2034 4250 
Q 1547 4250 1301 3770 
Q 1056 3291 1056 2328 
Q 1056 1369 1301 889 
Q 1547 409 2034 409 
Q 2525 409 2770 889 
Q 3016 1369 3016 2328 
Q 3016 3291 2770 3770 
Q 2525 4250 2034 4250 
z
M 2034 4750 
Q 2819 4750 3233 4129 
Q 3647 3509 3647 2328 
Q 3647 1150 3233 529 
Q 2819 -91 2034 -91 
Q 1250 -91 836 529 
Q 422 1150 422 2328 
Q 422 3509 836 4129 
Q 1250 4750 2034 4750 
z
" transform="scale(0.015625)"/>
       </defs>
       <use xlink:href="#DejaVuSans-31"/>
       <use xlink:href="#DejaVuSans-30" x="63.623047"/>
      </g>
     </g>
    </g>
    <g id="xtick_3">
     <g id="line2d_3">
      <g>
       <use xlink:href="#mf2a4e52e68" x="150.722417" y="317.93875" style="stroke: #000000; stroke-width: 0.8"/>
      </g>
     </g>
     <g id="text_3">
      <!-- 15 -->
      <g transform="translate(144.359917 332.537188) scale(0.1 -0.1)">
       <use xlink:href="#DejaVuSans-31"/>
       <use xlink:href="#DejaVuSans-35" x="63.623047"/>
      </g>
     </g>
    </g>
    <g id="xtick_4">
     <g id="line2d_4">
      <g>
       <use xlink:href="#mf2a4e52e68" x="187.604556" y="317.93875" style="stroke: #000000; stroke-width: 0.8"/>
      </g>
     </g>
     <g id="text_4">
      <!-- 20 -->
      <g transform="translate(181.242056 332.537188) scale(0.1 -0.1)">
       <defs>
        <path id="DejaVuSans-32" d="M 1228 531 
L 3431 531 
L 3431 0 
L 469 0 
L 469 531 
Q 828 903 1448 1529 
Q 2069 2156 2228 2338 
Q 2531 2678 2651 2914 
Q 2772 3150 2772 3378 
Q 2772 3750 2511 3984 
Q 2250 4219 1831 4219 
Q 1534 4219 1204 4116 
Q 875 4013 500 3803 
L 500 4441 
Q 881 4594 1212 4672 
Q 1544 4750 1819 4750 
Q 2544 4750 2975 4387 
Q 3406 4025 3406 3419 
Q 3406 3131 3298 2873 
Q 3191 2616 2906 2266 
Q 2828 2175 2409 1742 
Q 1991 1309 1228 531 
z
" transform="scale(0.015625)"/>
       </defs>
       <use xlink:href="#DejaVuSans-32"/>
       <use xlink:href="#DejaVuSans-30" x="63.623047"/>
      </g>
     </g>
    </g>
    <g id="xtick_5">
     <g id="line2d_5">
      <g>
       <use xlink:href="#mf2a4e52e68" x="224.486694" y="317.93875" style="stroke: #000000; stroke-width: 0.8"/>
      </g>
     </g>
     <g id="text_5">
      <!-- 25 -->
      <g transform="translate(218.124194 332.537188) scale(0.1 -0.1)">
       <use xlink:href="#DejaVuSans-32"/>
       <use xlink:href="#DejaVuSans-35" x="63.623047"/>
      </g>
     </g>
    </g>
    <g id="xtick_6">
     <g id="line2d_6">
      <g>
       <use xlink:href="#mf2a4e52e68" x="261.368833" y="317.93875" style="stroke: #000000; stroke-width: 0.8"/>
      </g>
     </g>
     <g id="text_6">
      <!-- 30 -->
      <g transform="translate(255.006333 332.537188) scale(0.1 -0.1)">
       <defs>
        <path id="DejaVuSans-33" d="M 2597 2516 
Q 3050 2419 3304 2112 
Q 3559 1806 3559 1356 
Q 3559 666 3084 287 
Q 2609 -91 1734 -91 
Q 1441 -91 1130 -33 
Q 819 25 488 141 
L 488 750 
Q 750 597 1062 519 
Q 1375 441 1716 441 
Q 2309 441 2620 675 
Q 2931 909 2931 1356 
Q 2931 1769 2642 2001 
Q 2353 2234 1838 2234 
L 1294 2234 
L 1294 2753 
L 1863 2753 
Q 2328 2753 2575 2939 
Q 2822 3125 2822 3475 
Q 2822 3834 2567 4026 
Q 2313 4219 1838 4219 
Q 1578 4219 1281 4162 
Q 984 4106 628 3988 
L 628 4550 
Q 988 4650 1302 4700 
Q 1616 4750 1894 4750 
Q 2613 4750 3031 4423 
Q 3450 4097 3450 3541 
Q 3450 3153 3228 2886 
Q 3006 2619 2597 2516 
z
" transform="scale(0.015625)"/>
       </defs>
       <use xlink:href="#DejaVuSans-33"/>
       <use xlink:href="#DejaVuSans-30" x="63.623047"/>
      </g>
     </g>
    </g>
    <g id="xtick_7">
     <g id="line2d_7">
      <g>
       <use xlink:href="#mf2a4e52e68" x="298.250972" y="317.93875" style="stroke: #000000; stroke-width: 0.8"/>
      </g>
     </g>
     <g id="text_7">
      <!-- 35 -->
      <g transform="translate(291.888472 332.537188) scale(0.1 -0.1)">
       <use xlink:href="#DejaVuSans-33"/>
       <use xlink:href="#DejaVuSans-35" x="63.623047"/>
      </g>
     </g>
    </g>
    <g id="xtick_8">
     <g id="line2d_8">
      <g>
       <use xlink:href="#mf2a4e52e68" x="335.13311" y="317.93875" style="stroke: #000000; stroke-width: 0.8"/>
      </g>
     </g>
     <g id="text_8">
      <!-- 40 -->
      <g transform="translate(328.77061 332.537188) scale(0.1 -0.1)">
       <defs>
        <path id="DejaVuSans-34" d="M 2419 4116 
L 825 1625 
L 2419 1625 
L 2419 4116 
z
M 2253 4666 
L 3047 4666 
L 3047 1625 
L 3713 1625 
L 3713 1100 
L 3047 1100 
L 3047 0 
L 2419 0 
L 2419 1100 
L 313 1100 
L 313 1709 
L 2253 4666 
z
" transform="scale(0.015625)"/>
       </defs>
       <use xlink:href="#DejaVuSans-34"/>
       <use xlink:href="#DejaVuSans-30" x="63.623047"/>
      </g>
     </g>
    </g>
    <g id="text_9">
     <!-- num_features -->
     <g transform="translate(171.683906 346.215312) scale(0.1 -0.1)">
      <defs>
       <path id="DejaVuSans-6e" d="M 3513 2113 
L 3513 0 
L 2938 0 
L 2938 2094 
Q 2938 2591 2744 2837 
Q 2550 3084 2163 3084 
Q 1697 3084 1428 2787 
Q 1159 2491 1159 1978 
L 1159 0 
L 581 0 
L 581 3500 
L 1159 3500 
L 1159 2956 
Q 1366 3272 1645 3428 
Q 1925 3584 2291 3584 
Q 2894 3584 3203 3211 
Q 3513 2838 3513 2113 
z
" transform="scale(0.015625)"/>
       <path id="DejaVuSans-75" d="M 544 1381 
L 544 3500 
L 1119 3500 
L 1119 1403 
Q 1119 906 1312 657 
Q 1506 409 1894 409 
Q 2359 409 2629 706 
Q 2900 1003 2900 1516 
L 2900 3500 
L 3475 3500 
L 3475 0 
L 2900 0 
L 2900 538 
Q 2691 219 2414 64 
Q 2138 -91 1772 -91 
Q 1169 -91 856 284 
Q 544 659 544 1381 
z
M 1991 3584 
L 1991 3584 
z
" transform="scale(0.015625)"/>
       <path id="DejaVuSans-6d" d="M 3328 2828 
Q 3544 3216 3844 3400 
Q 4144 3584 4550 3584 
Q 5097 3584 5394 3201 
Q 5691 2819 5691 2113 
L 5691 0 
L 5113 0 
L 5113 2094 
Q 5113 2597 4934 2840 
Q 4756 3084 4391 3084 
Q 3944 3084 3684 2787 
Q 3425 2491 3425 1978 
L 3425 0 
L 2847 0 
L 2847 2094 
Q 2847 2600 2669 2842 
Q 2491 3084 2119 3084 
Q 1678 3084 1418 2786 
Q 1159 2488 1159 1978 
L 1159 0 
L 581 0 
L 581 3500 
L 1159 3500 
L 1159 2956 
Q 1356 3278 1631 3431 
Q 1906 3584 2284 3584 
Q 2666 3584 2933 3390 
Q 3200 3197 3328 2828 
z
" transform="scale(0.015625)"/>
       <path id="DejaVuSans-5f" d="M 3263 -1063 
L 3263 -1509 
L -63 -1509 
L -63 -1063 
L 3263 -1063 
z
" transform="scale(0.015625)"/>
       <path id="DejaVuSans-66" d="M 2375 4863 
L 2375 4384 
L 1825 4384 
Q 1516 4384 1395 4259 
Q 1275 4134 1275 3809 
L 1275 3500 
L 2222 3500 
L 2222 3053 
L 1275 3053 
L 1275 0 
L 697 0 
L 697 3053 
L 147 3053 
L 147 3500 
L 697 3500 
L 697 3744 
Q 697 4328 969 4595 
Q 1241 4863 1831 4863 
L 2375 4863 
z
" transform="scale(0.015625)"/>
       <path id="DejaVuSans-65" d="M 3597 1894 
L 3597 1613 
L 953 1613 
Q 991 1019 1311 708 
Q 1631 397 2203 397 
Q 2534 397 2845 478 
Q 3156 559 3463 722 
L 3463 178 
Q 3153 47 2828 -22 
Q 2503 -91 2169 -91 
Q 1331 -91 842 396 
Q 353 884 353 1716 
Q 353 2575 817 3079 
Q 1281 3584 2069 3584 
Q 2775 3584 3186 3129 
Q 3597 2675 3597 1894 
z
M 3022 2063 
Q 3016 2534 2758 2815 
Q 2500 3097 2075 3097 
Q 1594 3097 1305 2825 
Q 1016 2553 972 2059 
L 3022 2063 
z
" transform="scale(0.015625)"/>
       <path id="DejaVuSans-61" d="M 2194 1759 
Q 1497 1759 1228 1600 
Q 959 1441 959 1056 
Q 959 750 1161 570 
Q 1363 391 1709 391 
Q 2188 391 2477 730 
Q 2766 1069 2766 1631 
L 2766 1759 
L 2194 1759 
z
M 3341 1997 
L 3341 0 
L 2766 0 
L 2766 531 
Q 2569 213 2275 61 
Q 1981 -91 1556 -91 
Q 1019 -91 701 211 
Q 384 513 384 1019 
Q 384 1609 779 1909 
Q 1175 2209 1959 2209 
L 2766 2209 
L 2766 2266 
Q 2766 2663 2505 2880 
Q 2244 3097 1772 3097 
Q 1472 3097 1187 3025 
Q 903 2953 641 2809 
L 641 3341 
Q 956 3463 1253 3523 
Q 1550 3584 1831 3584 
Q 2591 3584 2966 3190 
Q 3341 2797 3341 1997 
z
" transform="scale(0.015625)"/>
       <path id="DejaVuSans-74" d="M 1172 4494 
L 1172 3500 
L 2356 3500 
L 2356 3053 
L 1172 3053 
L 1172 1153 
Q 1172 725 1289 603 
Q 1406 481 1766 481 
L 2356 481 
L 2356 0 
L 1766 0 
Q 1100 0 847 248 
Q 594 497 594 1153 
L 594 3053 
L 172 3053 
L 172 3500 
L 594 3500 
L 594 4494 
L 1172 4494 
z
" transform="scale(0.015625)"/>
       <path id="DejaVuSans-72" d="M 2631 2963 
Q 2534 3019 2420 3045 
Q 2306 3072 2169 3072 
Q 1681 3072 1420 2755 
Q 1159 2438 1159 1844 
L 1159 0 
L 581 0 
L 581 3500 
L 1159 3500 
L 1159 2956 
Q 1341 3275 1631 3429 
Q 1922 3584 2338 3584 
Q 2397 3584 2469 3576 
Q 2541 3569 2628 3553 
L 2631 2963 
z
" transform="scale(0.015625)"/>
       <path id="DejaVuSans-73" d="M 2834 3397 
L 2834 2853 
Q 2591 2978 2328 3040 
Q 2066 3103 1784 3103 
Q 1356 3103 1142 2972 
Q 928 2841 928 2578 
Q 928 2378 1081 2264 
Q 1234 2150 1697 2047 
L 1894 2003 
Q 2506 1872 2764 1633 
Q 3022 1394 3022 966 
Q 3022 478 2636 193 
Q 2250 -91 1575 -91 
Q 1294 -91 989 -36 
Q 684 19 347 128 
L 347 722 
Q 666 556 975 473 
Q 1284 391 1588 391 
Q 1994 391 2212 530 
Q 2431 669 2431 922 
Q 2431 1156 2273 1281 
Q 2116 1406 1581 1522 
L 1381 1569 
Q 847 1681 609 1914 
Q 372 2147 372 2553 
Q 372 3047 722 3315 
Q 1072 3584 1716 3584 
Q 2034 3584 2315 3537 
Q 2597 3491 2834 3397 
z
" transform="scale(0.015625)"/>
      </defs>
      <use xlink:href="#DejaVuSans-6e"/>
      <use xlink:href="#DejaVuSans-75" x="63.378906"/>
      <use xlink:href="#DejaVuSans-6d" x="126.757812"/>
      <use xlink:href="#DejaVuSans-5f" x="224.169922"/>
      <use xlink:href="#DejaVuSans-66" x="274.169922"/>
      <use xlink:href="#DejaVuSans-65" x="309.375"/>
      <use xlink:href="#DejaVuSans-61" x="370.898438"/>
      <use xlink:href="#DejaVuSans-74" x="432.177734"/>
      <use xlink:href="#DejaVuSans-75" x="471.386719"/>
      <use xlink:href="#DejaVuSans-72" x="534.765625"/>
      <use xlink:href="#DejaVuSans-65" x="573.628906"/>
      <use xlink:href="#DejaVuSans-73" x="635.152344"/>
     </g>
    </g>
   </g>
   <g id="matplotlib.axis_2">
    <g id="ytick_1">
     <g id="line2d_9">
      <defs>
       <path id="mde8f02b8ed" d="M 0 0 
L -3.5 0 
" style="stroke: #000000; stroke-width: 0.8"/>
      </defs>
      <g>
       <use xlink:href="#mde8f02b8ed" x="47.82125" y="263.031386" style="stroke: #000000; stroke-width: 0.8"/>
      </g>
     </g>
     <g id="text_10">
      <!-- 0.2 -->
      <g transform="translate(24.918125 266.830605) scale(0.1 -0.1)">
       <defs>
        <path id="DejaVuSans-2e" d="M 684 794 
L 1344 794 
L 1344 0 
L 684 0 
L 684 794 
z
" transform="scale(0.015625)"/>
       </defs>
       <use xlink:href="#DejaVuSans-30"/>
       <use xlink:href="#DejaVuSans-2e" x="63.623047"/>
       <use xlink:href="#DejaVuSans-32" x="95.410156"/>
      </g>
     </g>
    </g>
    <g id="ytick_2">
     <g id="line2d_10">
      <g>
       <use xlink:href="#mde8f02b8ed" x="47.82125" y="203.463752" style="stroke: #000000; stroke-width: 0.8"/>
      </g>
     </g>
     <g id="text_11">
      <!-- 0.4 -->
      <g transform="translate(24.918125 207.262971) scale(0.1 -0.1)">
       <use xlink:href="#DejaVuSans-30"/>
       <use xlink:href="#DejaVuSans-2e" x="63.623047"/>
       <use xlink:href="#DejaVuSans-34" x="95.410156"/>
      </g>
     </g>
    </g>
    <g id="ytick_3">
     <g id="line2d_11">
      <g>
       <use xlink:href="#mde8f02b8ed" x="47.82125" y="143.896119" style="stroke: #000000; stroke-width: 0.8"/>
      </g>
     </g>
     <g id="text_12">
      <!-- 0.6 -->
      <g transform="translate(24.918125 147.695338) scale(0.1 -0.1)">
       <defs>
        <path id="DejaVuSans-36" d="M 2113 2584 
Q 1688 2584 1439 2293 
Q 1191 2003 1191 1497 
Q 1191 994 1439 701 
Q 1688 409 2113 409 
Q 2538 409 2786 701 
Q 3034 994 3034 1497 
Q 3034 2003 2786 2293 
Q 2538 2584 2113 2584 
z
M 3366 4563 
L 3366 3988 
Q 3128 4100 2886 4159 
Q 2644 4219 2406 4219 
Q 1781 4219 1451 3797 
Q 1122 3375 1075 2522 
Q 1259 2794 1537 2939 
Q 1816 3084 2150 3084 
Q 2853 3084 3261 2657 
Q 3669 2231 3669 1497 
Q 3669 778 3244 343 
Q 2819 -91 2113 -91 
Q 1303 -91 875 529 
Q 447 1150 447 2328 
Q 447 3434 972 4092 
Q 1497 4750 2381 4750 
Q 2619 4750 2861 4703 
Q 3103 4656 3366 4563 
z
" transform="scale(0.015625)"/>
       </defs>
       <use xlink:href="#DejaVuSans-30"/>
       <use xlink:href="#DejaVuSans-2e" x="63.623047"/>
       <use xlink:href="#DejaVuSans-36" x="95.410156"/>
      </g>
     </g>
    </g>
    <g id="ytick_4">
     <g id="line2d_12">
      <g>
       <use xlink:href="#mde8f02b8ed" x="47.82125" y="84.328486" style="stroke: #000000; stroke-width: 0.8"/>
      </g>
     </g>
     <g id="text_13">
      <!-- 0.8 -->
      <g transform="translate(24.918125 88.127704) scale(0.1 -0.1)">
       <defs>
        <path id="DejaVuSans-38" d="M 2034 2216 
Q 1584 2216 1326 1975 
Q 1069 1734 1069 1313 
Q 1069 891 1326 650 
Q 1584 409 2034 409 
Q 2484 409 2743 651 
Q 3003 894 3003 1313 
Q 3003 1734 2745 1975 
Q 2488 2216 2034 2216 
z
M 1403 2484 
Q 997 2584 770 2862 
Q 544 3141 544 3541 
Q 544 4100 942 4425 
Q 1341 4750 2034 4750 
Q 2731 4750 3128 4425 
Q 3525 4100 3525 3541 
Q 3525 3141 3298 2862 
Q 3072 2584 2669 2484 
Q 3125 2378 3379 2068 
Q 3634 1759 3634 1313 
Q 3634 634 3220 271 
Q 2806 -91 2034 -91 
Q 1263 -91 848 271 
Q 434 634 434 1313 
Q 434 1759 690 2068 
Q 947 2378 1403 2484 
z
M 1172 3481 
Q 1172 3119 1398 2916 
Q 1625 2713 2034 2713 
Q 2441 2713 2670 2916 
Q 2900 3119 2900 3481 
Q 2900 3844 2670 4047 
Q 2441 4250 2034 4250 
Q 1625 4250 1398 4047 
Q 1172 3844 1172 3481 
z
" transform="scale(0.015625)"/>
       </defs>
       <use xlink:href="#DejaVuSans-30"/>
       <use xlink:href="#DejaVuSans-2e" x="63.623047"/>
       <use xlink:href="#DejaVuSans-38" x="95.410156"/>
      </g>
     </g>
    </g>
    <g id="ytick_5">
     <g id="line2d_13">
      <g>
       <use xlink:href="#mde8f02b8ed" x="47.82125" y="24.760852" style="stroke: #000000; stroke-width: 0.8"/>
      </g>
     </g>
     <g id="text_14">
      <!-- 1.0 -->
      <g transform="translate(24.918125 28.560071) scale(0.1 -0.1)">
       <use xlink:href="#DejaVuSans-31"/>
       <use xlink:href="#DejaVuSans-2e" x="63.623047"/>
       <use xlink:href="#DejaVuSans-30" x="95.410156"/>
      </g>
     </g>
    </g>
    <g id="text_15">
     <!-- disparate_impact -->
     <g transform="translate(18.560313 207.638906) rotate(-90) scale(0.1 -0.1)">
      <defs>
       <path id="DejaVuSans-64" d="M 2906 2969 
L 2906 4863 
L 3481 4863 
L 3481 0 
L 2906 0 
L 2906 525 
Q 2725 213 2448 61 
Q 2172 -91 1784 -91 
Q 1150 -91 751 415 
Q 353 922 353 1747 
Q 353 2572 751 3078 
Q 1150 3584 1784 3584 
Q 2172 3584 2448 3432 
Q 2725 3281 2906 2969 
z
M 947 1747 
Q 947 1113 1208 752 
Q 1469 391 1925 391 
Q 2381 391 2643 752 
Q 2906 1113 2906 1747 
Q 2906 2381 2643 2742 
Q 2381 3103 1925 3103 
Q 1469 3103 1208 2742 
Q 947 2381 947 1747 
z
" transform="scale(0.015625)"/>
       <path id="DejaVuSans-69" d="M 603 3500 
L 1178 3500 
L 1178 0 
L 603 0 
L 603 3500 
z
M 603 4863 
L 1178 4863 
L 1178 4134 
L 603 4134 
L 603 4863 
z
" transform="scale(0.015625)"/>
       <path id="DejaVuSans-70" d="M 1159 525 
L 1159 -1331 
L 581 -1331 
L 581 3500 
L 1159 3500 
L 1159 2969 
Q 1341 3281 1617 3432 
Q 1894 3584 2278 3584 
Q 2916 3584 3314 3078 
Q 3713 2572 3713 1747 
Q 3713 922 3314 415 
Q 2916 -91 2278 -91 
Q 1894 -91 1617 61 
Q 1341 213 1159 525 
z
M 3116 1747 
Q 3116 2381 2855 2742 
Q 2594 3103 2138 3103 
Q 1681 3103 1420 2742 
Q 1159 2381 1159 1747 
Q 1159 1113 1420 752 
Q 1681 391 2138 391 
Q 2594 391 2855 752 
Q 3116 1113 3116 1747 
z
" transform="scale(0.015625)"/>
       <path id="DejaVuSans-63" d="M 3122 3366 
L 3122 2828 
Q 2878 2963 2633 3030 
Q 2388 3097 2138 3097 
Q 1578 3097 1268 2742 
Q 959 2388 959 1747 
Q 959 1106 1268 751 
Q 1578 397 2138 397 
Q 2388 397 2633 464 
Q 2878 531 3122 666 
L 3122 134 
Q 2881 22 2623 -34 
Q 2366 -91 2075 -91 
Q 1284 -91 818 406 
Q 353 903 353 1747 
Q 353 2603 823 3093 
Q 1294 3584 2113 3584 
Q 2378 3584 2631 3529 
Q 2884 3475 3122 3366 
z
" transform="scale(0.015625)"/>
      </defs>
      <use xlink:href="#DejaVuSans-64"/>
      <use xlink:href="#DejaVuSans-69" x="63.476562"/>
      <use xlink:href="#DejaVuSans-73" x="91.259766"/>
      <use xlink:href="#DejaVuSans-70" x="143.359375"/>
      <use xlink:href="#DejaVuSans-61" x="206.835938"/>
      <use xlink:href="#DejaVuSans-72" x="268.115234"/>
      <use xlink:href="#DejaVuSans-61" x="309.228516"/>
      <use xlink:href="#DejaVuSans-74" x="370.507812"/>
      <use xlink:href="#DejaVuSans-65" x="409.716797"/>
      <use xlink:href="#DejaVuSans-5f" x="471.240234"/>
      <use xlink:href="#DejaVuSans-69" x="521.240234"/>
      <use xlink:href="#DejaVuSans-6d" x="549.023438"/>
      <use xlink:href="#DejaVuSans-70" x="646.435547"/>
      <use xlink:href="#DejaVuSans-61" x="709.912109"/>
      <use xlink:href="#DejaVuSans-63" x="771.191406"/>
      <use xlink:href="#DejaVuSans-74" x="826.171875"/>
     </g>
    </g>
   </g>
   <g id="line2d_14">
    <path d="M 62.205284 172.827226 
L 69.581712 155.538499 
L 76.95814 176.562989 
L 84.334567 173.776516 
L 91.710995 205.782909 
L 99.087423 176.501486 
L 106.463851 240.471761 
L 113.840278 177.002604 
L 121.216706 223.87064 
L 128.593134 206.61294 
L 135.969561 169.40754 
L 143.345989 231.335008 
L 150.722417 205.127103 
L 158.098845 189.737069 
L 165.475272 217.849794 
L 172.8517 182.654265 
L 180.228128 181.268711 
L 187.604556 171.664984 
L 194.980983 178.747819 
L 202.357411 212.020713 
L 209.733839 161.8145 
L 217.110267 178.444432 
L 224.486694 153.659004 
L 231.863122 204.378694 
L 239.23955 184.09223 
L 246.615978 177.846464 
L 253.992405 168.385627 
L 261.368833 210.726956 
L 268.745261 219.616725 
L 276.121689 164.768724 
L 283.498116 155.39751 
L 290.874544 179.497708 
L 298.250972 205.759811 
L 305.627399 228.080176 
L 313.003827 183.956188 
L 320.380255 209.548237 
L 327.756683 154.032632 
L 335.13311 223.17076 
L 342.509538 190.936327 
L 349.885966 165.837464 
" clip-path="url(#pc8a905deb8)" style="fill: none; stroke: #1f77b4; stroke-width: 1.5; stroke-linecap: square"/>
   </g>
   <g id="line2d_15">
    <path d="M 62.205284 60.779722 
L 69.581712 75.061731 
L 76.95814 54.436982 
L 84.334567 58.192261 
L 91.710995 86.715029 
L 99.087423 62.482835 
L 106.463851 83.635661 
L 113.840278 90.580325 
L 121.216706 130.063305 
L 128.593134 76.090639 
L 135.969561 82.797055 
L 143.345989 82.72253 
L 150.722417 54.58238 
L 158.098845 72.193522 
L 165.475272 76.347871 
L 172.8517 94.420213 
L 180.228128 62.449101 
L 187.604556 129.716387 
L 194.980983 82.758331 
L 202.357411 78.572799 
L 209.733839 93.923267 
L 217.110267 105.238653 
L 224.486694 85.67835 
L 231.863122 75.715595 
L 239.23955 96.400508 
L 246.615978 42.742446 
L 253.992405 68.118373 
L 261.368833 74.28728 
L 268.745261 86.560886 
L 276.121689 62.792569 
L 283.498116 70.351349 
L 290.874544 84.685659 
L 298.250972 88.334119 
L 305.627399 105.270021 
L 313.003827 83.948049 
L 320.380255 74.377853 
L 327.756683 44.009114 
L 335.13311 80.80671 
L 342.509538 32.912489 
L 349.885966 54.607671 
" clip-path="url(#pc8a905deb8)" style="fill: none; stroke-dasharray: 6,2.25; stroke-dashoffset: 0; stroke: #ff7f0e; stroke-width: 1.5"/>
   </g>
   <g id="line2d_16">
    <path d="M 62.205284 210.839513 
L 69.581712 183.206596 
L 76.95814 161.090588 
L 84.334567 232.933784 
L 91.710995 230.87178 
L 99.087423 183.840829 
L 106.463851 209.328933 
L 113.840278 237.979739 
L 121.216706 216.531152 
L 128.593134 227.217431 
L 135.969561 199.260579 
L 143.345989 170.33833 
L 150.722417 219.487607 
L 158.098845 194.080425 
L 165.475272 213.238166 
L 172.8517 239.934349 
L 180.228128 224.166842 
L 187.604556 241.950254 
L 194.980983 227.228415 
L 202.357411 234.206801 
L 209.733839 198.447773 
L 217.110267 212.271774 
L 224.486694 236.198842 
L 231.863122 197.262666 
L 239.23955 206.908439 
L 246.615978 218.921108 
L 253.992405 220.40277 
L 261.368833 245.037081 
L 268.745261 208.493657 
L 276.121689 194.906919 
L 283.498116 189.306811 
L 290.874544 211.829522 
L 298.250972 211.259676 
L 305.627399 281.602523 
L 313.003827 190.529049 
L 320.380255 224.211876 
L 327.756683 206.997662 
L 335.13311 201.592267 
L 342.509538 170.859815 
L 349.885966 225.008443 
" clip-path="url(#pc8a905deb8)" style="fill: none; stroke-dasharray: 1.5,1.5; stroke-dashoffset: 0; stroke: #2ca02c; stroke-width: 1.5"/>
   </g>
   <g id="line2d_17">
    <path d="M 62.205284 55.496432 
L 69.581712 43.723814 
L 76.95814 48.392874 
L 84.334567 55.443926 
L 91.710995 71.223546 
L 99.087423 53.482527 
L 106.463851 70.454414 
L 113.840278 84.237775 
L 121.216706 118.577 
L 128.593134 55.816642 
L 135.969561 54.204326 
L 143.345989 77.509703 
L 150.722417 35.97162 
L 158.098845 53.765875 
L 165.475272 52.839526 
L 172.8517 57.364746 
L 180.228128 40.641325 
L 187.604556 99.817245 
L 194.980983 52.863365 
L 202.357411 68.662228 
L 209.733839 64.221768 
L 217.110267 87.806963 
L 224.486694 66.150603 
L 231.863122 56.032165 
L 239.23955 83.228467 
L 246.615978 50.840392 
L 253.992405 71.206823 
L 261.368833 68.574371 
L 268.745261 70.30327 
L 276.121689 67.211111 
L 283.498116 67.261347 
L 290.874544 59.521768 
L 298.250972 80.687729 
L 305.627399 81.789078 
L 313.003827 80.465887 
L 320.380255 80.43231 
L 327.756683 41.710004 
L 335.13311 62.78914 
L 342.509538 24.760852 
L 349.885966 30.329006 
" clip-path="url(#pc8a905deb8)" style="fill: none; stroke-dasharray: 4.5,1.875,2.25,1.875; stroke-dashoffset: 0; stroke: #d62728; stroke-width: 1.5"/>
   </g>
   <g id="line2d_18">
    <path d="M 62.205284 125.73369 
L 69.581712 115.436989 
L 76.95814 115.900025 
L 84.334567 113.033563 
L 91.710995 167.359052 
L 99.087423 109.884785 
L 106.463851 164.334248 
L 113.840278 139.380665 
L 121.216706 177.280503 
L 128.593134 159.347149 
L 135.969561 131.981958 
L 143.345989 137.054279 
L 150.722417 113.316364 
L 158.098845 123.935748 
L 165.475272 134.81913 
L 172.8517 152.797936 
L 180.228128 136.728126 
L 187.604556 185.297649 
L 194.980983 145.661727 
L 202.357411 144.818903 
L 209.733839 150.450448 
L 217.110267 162.491279 
L 224.486694 129.139122 
L 231.863122 126.355342 
L 239.23955 163.245435 
L 246.615978 130.37982 
L 253.992405 126.26652 
L 261.368833 156.143314 
L 268.745261 151.595291 
L 276.121689 106.53521 
L 283.498116 108.043238 
L 290.874544 131.237336 
L 298.250972 194.592844 
L 305.627399 166.829068 
L 313.003827 141.246945 
L 320.380255 160.36329 
L 327.756683 95.319906 
L 335.13311 116.045342 
L 342.509538 90.489686 
L 349.885966 137.512233 
" clip-path="url(#pc8a905deb8)" style="fill: none; stroke-dasharray: 7.5,1.5,1.5,1.5; stroke-dashoffset: 0; stroke: #9467bd; stroke-width: 1.5"/>
   </g>
   <g id="line2d_19"/>
   <g id="line2d_20"/>
   <g id="line2d_21"/>
   <g id="line2d_22"/>
   <g id="line2d_23"/>
   <g id="patch_3">
    <path d="M 47.82125 317.93875 
L 47.82125 10.8 
" style="fill: none; stroke: #000000; stroke-width: 0.8; stroke-linejoin: miter; stroke-linecap: square"/>
   </g>
   <g id="patch_4">
    <path d="M 364.27 317.93875 
L 364.27 10.8 
" style="fill: none; stroke: #000000; stroke-width: 0.8; stroke-linejoin: miter; stroke-linecap: square"/>
   </g>
   <g id="patch_5">
    <path d="M 47.82125 317.93875 
L 364.27 317.93875 
" style="fill: none; stroke: #000000; stroke-width: 0.8; stroke-linejoin: miter; stroke-linecap: square"/>
   </g>
   <g id="patch_6">
    <path d="M 47.82125 10.8 
L 364.27 10.8 
" style="fill: none; stroke: #000000; stroke-width: 0.8; stroke-linejoin: miter; stroke-linecap: square"/>
   </g>
   <g id="legend_1">
    <g id="patch_7">
     <path d="M 213.51375 312.93875 
L 357.27 312.93875 
Q 359.27 312.93875 359.27 310.93875 
L 359.27 223.87 
Q 359.27 221.87 357.27 221.87 
L 213.51375 221.87 
Q 211.51375 221.87 211.51375 223.87 
L 211.51375 310.93875 
Q 211.51375 312.93875 213.51375 312.93875 
z
" style="fill: #ffffff; opacity: 0.8; stroke: #cccccc; stroke-linejoin: miter"/>
    </g>
    <g id="text_16">
     <!-- model -->
     <g transform="translate(269.822344 233.468438) scale(0.1 -0.1)">
      <defs>
       <path id="DejaVuSans-6f" d="M 1959 3097 
Q 1497 3097 1228 2736 
Q 959 2375 959 1747 
Q 959 1119 1226 758 
Q 1494 397 1959 397 
Q 2419 397 2687 759 
Q 2956 1122 2956 1747 
Q 2956 2369 2687 2733 
Q 2419 3097 1959 3097 
z
M 1959 3584 
Q 2709 3584 3137 3096 
Q 3566 2609 3566 1747 
Q 3566 888 3137 398 
Q 2709 -91 1959 -91 
Q 1206 -91 779 398 
Q 353 888 353 1747 
Q 353 2609 779 3096 
Q 1206 3584 1959 3584 
z
" transform="scale(0.015625)"/>
       <path id="DejaVuSans-6c" d="M 603 4863 
L 1178 4863 
L 1178 0 
L 603 0 
L 603 4863 
z
" transform="scale(0.015625)"/>
      </defs>
      <use xlink:href="#DejaVuSans-6d"/>
      <use xlink:href="#DejaVuSans-6f" x="97.412109"/>
      <use xlink:href="#DejaVuSans-64" x="158.59375"/>
      <use xlink:href="#DejaVuSans-65" x="222.070312"/>
      <use xlink:href="#DejaVuSans-6c" x="283.59375"/>
     </g>
    </g>
    <g id="line2d_24">
     <path d="M 215.51375 244.646563 
L 225.51375 244.646563 
L 235.51375 244.646563 
" style="fill: none; stroke: #1f77b4; stroke-width: 1.5; stroke-linecap: square"/>
    </g>
    <g id="text_17">
     <!-- None -->
     <g transform="translate(243.51375 248.146563) scale(0.1 -0.1)">
      <defs>
       <path id="DejaVuSans-4e" d="M 628 4666 
L 1478 4666 
L 3547 763 
L 3547 4666 
L 4159 4666 
L 4159 0 
L 3309 0 
L 1241 3903 
L 1241 0 
L 628 0 
L 628 4666 
z
" transform="scale(0.015625)"/>
      </defs>
      <use xlink:href="#DejaVuSans-4e"/>
      <use xlink:href="#DejaVuSans-6f" x="74.804688"/>
      <use xlink:href="#DejaVuSans-6e" x="135.986328"/>
      <use xlink:href="#DejaVuSans-65" x="199.365234"/>
     </g>
    </g>
    <g id="line2d_25">
     <path d="M 215.51375 259.324687 
L 225.51375 259.324687 
L 235.51375 259.324687 
" style="fill: none; stroke-dasharray: 6,2.25; stroke-dashoffset: 0; stroke: #ff7f0e; stroke-width: 1.5"/>
    </g>
    <g id="text_18">
     <!-- logisticregression -->
     <g transform="translate(243.51375 262.824687) scale(0.1 -0.1)">
      <defs>
       <path id="DejaVuSans-67" d="M 2906 1791 
Q 2906 2416 2648 2759 
Q 2391 3103 1925 3103 
Q 1463 3103 1205 2759 
Q 947 2416 947 1791 
Q 947 1169 1205 825 
Q 1463 481 1925 481 
Q 2391 481 2648 825 
Q 2906 1169 2906 1791 
z
M 3481 434 
Q 3481 -459 3084 -895 
Q 2688 -1331 1869 -1331 
Q 1566 -1331 1297 -1286 
Q 1028 -1241 775 -1147 
L 775 -588 
Q 1028 -725 1275 -790 
Q 1522 -856 1778 -856 
Q 2344 -856 2625 -561 
Q 2906 -266 2906 331 
L 2906 616 
Q 2728 306 2450 153 
Q 2172 0 1784 0 
Q 1141 0 747 490 
Q 353 981 353 1791 
Q 353 2603 747 3093 
Q 1141 3584 1784 3584 
Q 2172 3584 2450 3431 
Q 2728 3278 2906 2969 
L 2906 3500 
L 3481 3500 
L 3481 434 
z
" transform="scale(0.015625)"/>
      </defs>
      <use xlink:href="#DejaVuSans-6c"/>
      <use xlink:href="#DejaVuSans-6f" x="27.783203"/>
      <use xlink:href="#DejaVuSans-67" x="88.964844"/>
      <use xlink:href="#DejaVuSans-69" x="152.441406"/>
      <use xlink:href="#DejaVuSans-73" x="180.224609"/>
      <use xlink:href="#DejaVuSans-74" x="232.324219"/>
      <use xlink:href="#DejaVuSans-69" x="271.533203"/>
      <use xlink:href="#DejaVuSans-63" x="299.316406"/>
      <use xlink:href="#DejaVuSans-72" x="354.296875"/>
      <use xlink:href="#DejaVuSans-65" x="393.160156"/>
      <use xlink:href="#DejaVuSans-67" x="454.683594"/>
      <use xlink:href="#DejaVuSans-72" x="518.160156"/>
      <use xlink:href="#DejaVuSans-65" x="557.023438"/>
      <use xlink:href="#DejaVuSans-73" x="618.546875"/>
      <use xlink:href="#DejaVuSans-73" x="670.646484"/>
      <use xlink:href="#DejaVuSans-69" x="722.746094"/>
      <use xlink:href="#DejaVuSans-6f" x="750.529297"/>
      <use xlink:href="#DejaVuSans-6e" x="811.710938"/>
     </g>
    </g>
    <g id="line2d_26">
     <path d="M 215.51375 274.002813 
L 225.51375 274.002813 
L 235.51375 274.002813 
" style="fill: none; stroke-dasharray: 1.5,1.5; stroke-dashoffset: 0; stroke: #2ca02c; stroke-width: 1.5"/>
    </g>
    <g id="text_19">
     <!-- decisiontreeclassifier -->
     <g transform="translate(243.51375 277.502813) scale(0.1 -0.1)">
      <use xlink:href="#DejaVuSans-64"/>
      <use xlink:href="#DejaVuSans-65" x="63.476562"/>
      <use xlink:href="#DejaVuSans-63" x="125"/>
      <use xlink:href="#DejaVuSans-69" x="179.980469"/>
      <use xlink:href="#DejaVuSans-73" x="207.763672"/>
      <use xlink:href="#DejaVuSans-69" x="259.863281"/>
      <use xlink:href="#DejaVuSans-6f" x="287.646484"/>
      <use xlink:href="#DejaVuSans-6e" x="348.828125"/>
      <use xlink:href="#DejaVuSans-74" x="412.207031"/>
      <use xlink:href="#DejaVuSans-72" x="451.416016"/>
      <use xlink:href="#DejaVuSans-65" x="490.279297"/>
      <use xlink:href="#DejaVuSans-65" x="551.802734"/>
      <use xlink:href="#DejaVuSans-63" x="613.326172"/>
      <use xlink:href="#DejaVuSans-6c" x="668.306641"/>
      <use xlink:href="#DejaVuSans-61" x="696.089844"/>
      <use xlink:href="#DejaVuSans-73" x="757.369141"/>
      <use xlink:href="#DejaVuSans-73" x="809.46875"/>
      <use xlink:href="#DejaVuSans-69" x="861.568359"/>
      <use xlink:href="#DejaVuSans-66" x="889.351562"/>
      <use xlink:href="#DejaVuSans-69" x="924.556641"/>
      <use xlink:href="#DejaVuSans-65" x="952.339844"/>
      <use xlink:href="#DejaVuSans-72" x="1013.863281"/>
     </g>
    </g>
    <g id="line2d_27">
     <path d="M 215.51375 288.680938 
L 225.51375 288.680938 
L 235.51375 288.680938 
" style="fill: none; stroke-dasharray: 4.5,1.875,2.25,1.875; stroke-dashoffset: 0; stroke: #d62728; stroke-width: 1.5"/>
    </g>
    <g id="text_20">
     <!-- adaboostclassifier -->
     <g transform="translate(243.51375 292.180938) scale(0.1 -0.1)">
      <defs>
       <path id="DejaVuSans-62" d="M 3116 1747 
Q 3116 2381 2855 2742 
Q 2594 3103 2138 3103 
Q 1681 3103 1420 2742 
Q 1159 2381 1159 1747 
Q 1159 1113 1420 752 
Q 1681 391 2138 391 
Q 2594 391 2855 752 
Q 3116 1113 3116 1747 
z
M 1159 2969 
Q 1341 3281 1617 3432 
Q 1894 3584 2278 3584 
Q 2916 3584 3314 3078 
Q 3713 2572 3713 1747 
Q 3713 922 3314 415 
Q 2916 -91 2278 -91 
Q 1894 -91 1617 61 
Q 1341 213 1159 525 
L 1159 0 
L 581 0 
L 581 4863 
L 1159 4863 
L 1159 2969 
z
" transform="scale(0.015625)"/>
      </defs>
      <use xlink:href="#DejaVuSans-61"/>
      <use xlink:href="#DejaVuSans-64" x="61.279297"/>
      <use xlink:href="#DejaVuSans-61" x="124.755859"/>
      <use xlink:href="#DejaVuSans-62" x="186.035156"/>
      <use xlink:href="#DejaVuSans-6f" x="249.511719"/>
      <use xlink:href="#DejaVuSans-6f" x="310.693359"/>
      <use xlink:href="#DejaVuSans-73" x="371.875"/>
      <use xlink:href="#DejaVuSans-74" x="423.974609"/>
      <use xlink:href="#DejaVuSans-63" x="463.183594"/>
      <use xlink:href="#DejaVuSans-6c" x="518.164062"/>
      <use xlink:href="#DejaVuSans-61" x="545.947266"/>
      <use xlink:href="#DejaVuSans-73" x="607.226562"/>
      <use xlink:href="#DejaVuSans-73" x="659.326172"/>
      <use xlink:href="#DejaVuSans-69" x="711.425781"/>
      <use xlink:href="#DejaVuSans-66" x="739.208984"/>
      <use xlink:href="#DejaVuSans-69" x="774.414062"/>
      <use xlink:href="#DejaVuSans-65" x="802.197266"/>
      <use xlink:href="#DejaVuSans-72" x="863.720703"/>
     </g>
    </g>
    <g id="line2d_28">
     <path d="M 215.51375 303.359063 
L 225.51375 303.359063 
L 235.51375 303.359063 
" style="fill: none; stroke-dasharray: 7.5,1.5,1.5,1.5; stroke-dashoffset: 0; stroke: #9467bd; stroke-width: 1.5"/>
    </g>
    <g id="text_21">
     <!-- randomforestclassifier -->
     <g transform="translate(243.51375 306.859063) scale(0.1 -0.1)">
      <use xlink:href="#DejaVuSans-72"/>
      <use xlink:href="#DejaVuSans-61" x="41.113281"/>
      <use xlink:href="#DejaVuSans-6e" x="102.392578"/>
      <use xlink:href="#DejaVuSans-64" x="165.771484"/>
      <use xlink:href="#DejaVuSans-6f" x="229.248047"/>
      <use xlink:href="#DejaVuSans-6d" x="290.429688"/>
      <use xlink:href="#DejaVuSans-66" x="387.841797"/>
      <use xlink:href="#DejaVuSans-6f" x="423.046875"/>
      <use xlink:href="#DejaVuSans-72" x="484.228516"/>
      <use xlink:href="#DejaVuSans-65" x="523.091797"/>
      <use xlink:href="#DejaVuSans-73" x="584.615234"/>
      <use xlink:href="#DejaVuSans-74" x="636.714844"/>
      <use xlink:href="#DejaVuSans-63" x="675.923828"/>
      <use xlink:href="#DejaVuSans-6c" x="730.904297"/>
      <use xlink:href="#DejaVuSans-61" x="758.6875"/>
      <use xlink:href="#DejaVuSans-73" x="819.966797"/>
      <use xlink:href="#DejaVuSans-73" x="872.066406"/>
      <use xlink:href="#DejaVuSans-69" x="924.166016"/>
      <use xlink:href="#DejaVuSans-66" x="951.949219"/>
      <use xlink:href="#DejaVuSans-69" x="987.154297"/>
      <use xlink:href="#DejaVuSans-65" x="1014.9375"/>
      <use xlink:href="#DejaVuSans-72" x="1076.460938"/>
     </g>
    </g>
   </g>
  </g>
  <g id="axes_2">
   <g id="patch_8">
    <path d="M 392.75125 317.93875 
L 709.2 317.93875 
L 709.2 10.8 
L 392.75125 10.8 
z
" style="fill: #ffffff"/>
   </g>
   <g id="PolyCollection_6">
    <defs>
     <path id="ma6412e8a3a" d="M 407.135284 -78.73921 
L 407.135284 -78.73921 
L 414.511712 -82.704699 
L 421.88814 -76.650215 
L 429.264567 -77.544335 
L 436.640995 -73.952185 
L 444.017423 -78.109352 
L 451.393851 -68.052726 
L 458.770278 -78.855018 
L 466.146706 -68.636539 
L 473.523134 -73.480276 
L 480.899561 -76.444217 
L 488.275989 -68.732328 
L 495.652417 -71.580135 
L 503.028845 -75.626715 
L 510.405272 -71.279249 
L 517.7817 -75.934777 
L 525.158128 -74.935449 
L 532.534556 -76.061163 
L 539.910983 -77.15011 
L 547.287411 -73.522442 
L 554.663839 -81.078743 
L 562.040267 -76.68886 
L 569.416694 -79.146079 
L 576.793122 -73.543962 
L 584.16955 -77.618405 
L 591.545978 -76.989985 
L 598.922405 -76.040657 
L 606.298833 -70.493887 
L 613.675261 -71.163634 
L 621.051689 -80.906835 
L 628.428116 -79.926708 
L 635.804544 -79.114959 
L 643.180972 -72.343619 
L 650.557399 -69.578352 
L 657.933827 -76.108947 
L 665.310255 -72.6385 
L 672.686683 -82.60276 
L 680.06311 -69.446616 
L 687.439538 -75.001616 
L 694.815966 -80.760437 
L 694.815966 -80.760437 
L 694.815966 -80.760437 
L 687.439538 -75.001616 
L 680.06311 -69.446616 
L 672.686683 -82.60276 
L 665.310255 -72.6385 
L 657.933827 -76.108947 
L 650.557399 -69.578352 
L 643.180972 -72.343619 
L 635.804544 -79.114959 
L 628.428116 -79.926708 
L 621.051689 -80.906835 
L 613.675261 -71.163634 
L 606.298833 -70.493887 
L 598.922405 -76.040657 
L 591.545978 -76.989985 
L 584.16955 -77.618405 
L 576.793122 -73.543962 
L 569.416694 -79.146079 
L 562.040267 -76.68886 
L 554.663839 -81.078743 
L 547.287411 -73.522442 
L 539.910983 -77.15011 
L 532.534556 -76.061163 
L 525.158128 -74.935449 
L 517.7817 -75.934777 
L 510.405272 -71.279249 
L 503.028845 -75.626715 
L 495.652417 -71.580135 
L 488.275989 -68.732328 
L 480.899561 -76.444217 
L 473.523134 -73.480276 
L 466.146706 -68.636539 
L 458.770278 -78.855018 
L 451.393851 -68.052726 
L 444.017423 -78.109352 
L 436.640995 -73.952185 
L 429.264567 -77.544335 
L 421.88814 -76.650215 
L 414.511712 -82.704699 
L 407.135284 -78.73921 
z
" style="stroke: #1f77b4; stroke-opacity: 0.2"/>
    </defs>
    <g clip-path="url(#pc1c87747fe)">
     <use xlink:href="#ma6412e8a3a" x="0" y="360" style="fill: #1f77b4; fill-opacity: 0.2; stroke: #1f77b4; stroke-opacity: 0.2"/>
    </g>
   </g>
   <g id="PolyCollection_7">
    <defs>
     <path id="mb63fb644a5" d="M 407.135284 -70.866934 
L 407.135284 -70.866934 
L 414.511712 -65.541885 
L 421.88814 -76.460365 
L 429.264567 -71.337153 
L 436.640995 -69.716174 
L 444.017423 -71.231023 
L 451.393851 -66.138026 
L 458.770278 -67.977731 
L 466.146706 -60.893906 
L 473.523134 -67.944354 
L 480.899561 -66.993802 
L 488.275989 -70.169039 
L 495.652417 -68.870183 
L 503.028845 -69.426451 
L 510.405272 -68.245103 
L 517.7817 -67.922099 
L 525.158128 -71.85268 
L 532.534556 -60.644494 
L 539.910983 -68.394217 
L 547.287411 -68.576944 
L 554.663839 -67.986344 
L 562.040267 -64.417832 
L 569.416694 -68.088386 
L 576.793122 -67.4941 
L 584.16955 -66.124856 
L 591.545978 -67.853437 
L 598.922405 -71.015933 
L 606.298833 -67.525133 
L 613.675261 -71.479255 
L 621.051689 -69.037452 
L 628.428116 -68.248911 
L 635.804544 -68.708907 
L 643.180972 -66.850959 
L 650.557399 -65.742463 
L 657.933827 -67.190601 
L 665.310255 -69.19754 
L 672.686683 -75.606894 
L 680.06311 -68.759802 
L 687.439538 -72.469528 
L 694.815966 -70.169316 
L 694.815966 -70.169316 
L 694.815966 -70.169316 
L 687.439538 -72.469528 
L 680.06311 -68.759802 
L 672.686683 -75.606894 
L 665.310255 -69.19754 
L 657.933827 -67.190601 
L 650.557399 -65.742463 
L 643.180972 -66.850959 
L 635.804544 -68.708907 
L 628.428116 -68.248911 
L 621.051689 -69.037452 
L 613.675261 -71.479255 
L 606.298833 -67.525133 
L 598.922405 -71.015933 
L 591.545978 -67.853437 
L 584.16955 -66.124856 
L 576.793122 -67.4941 
L 569.416694 -68.088386 
L 562.040267 -64.417832 
L 554.663839 -67.986344 
L 547.287411 -68.576944 
L 539.910983 -68.394217 
L 532.534556 -60.644494 
L 525.158128 -71.85268 
L 517.7817 -67.922099 
L 510.405272 -68.245103 
L 503.028845 -69.426451 
L 495.652417 -68.870183 
L 488.275989 -70.169039 
L 480.899561 -66.993802 
L 473.523134 -67.944354 
L 466.146706 -60.893906 
L 458.770278 -67.977731 
L 451.393851 -66.138026 
L 444.017423 -71.231023 
L 436.640995 -69.716174 
L 429.264567 -71.337153 
L 421.88814 -76.460365 
L 414.511712 -65.541885 
L 407.135284 -70.866934 
z
" style="stroke: #ff7f0e; stroke-opacity: 0.2"/>
    </defs>
    <g clip-path="url(#pc1c87747fe)">
     <use xlink:href="#mb63fb644a5" x="0" y="360" style="fill: #ff7f0e; fill-opacity: 0.2; stroke: #ff7f0e; stroke-opacity: 0.2"/>
    </g>
   </g>
   <g id="PolyCollection_8">
    <defs>
     <path id="m5fdf108610" d="M 407.135284 -72.023378 
L 407.135284 -70.832689 
L 414.511712 -75.284029 
L 421.88814 -82.975227 
L 429.264567 -70.426545 
L 436.640995 -72.674045 
L 444.017423 -74.373666 
L 451.393851 -74.463527 
L 458.770278 -69.775917 
L 466.146706 -71.651979 
L 473.523134 -69.295819 
L 480.899561 -72.117237 
L 488.275989 -83.093206 
L 495.652417 -69.275196 
L 503.028845 -73.945643 
L 510.405272 -71.976222 
L 517.7817 -66.755214 
L 525.158128 -70.451818 
L 532.534556 -65.372015 
L 539.910983 -68.747411 
L 547.287411 -71.495834 
L 554.663839 -76.701032 
L 562.040267 -74.593089 
L 569.416694 -67.891043 
L 576.793122 -78.944865 
L 584.16955 -72.947543 
L 591.545978 -67.553633 
L 598.922405 -70.207448 
L 606.298833 -66.398825 
L 613.675261 -73.846458 
L 621.051689 -77.17371 
L 628.428116 -73.180936 
L 635.804544 -72.277207 
L 643.180972 -72.17793 
L 650.557399 -61.067925 
L 657.933827 -74.514953 
L 665.310255 -69.236495 
L 672.686683 -72.319731 
L 680.06311 -74.555138 
L 687.439538 -76.984913 
L 694.815966 -67.723104 
L 694.815966 -68.593761 
L 694.815966 -68.593761 
L 687.439538 -78.060938 
L 680.06311 -75.839394 
L 672.686683 -73.414761 
L 665.310255 -70.622144 
L 657.933827 -75.640883 
L 650.557399 -62.33457 
L 643.180972 -73.433409 
L 635.804544 -73.248395 
L 628.428116 -74.10295 
L 621.051689 -78.383727 
L 613.675261 -75.120846 
L 606.298833 -67.684801 
L 598.922405 -71.162929 
L 591.545978 -68.39018 
L 584.16955 -74.056497 
L 576.793122 -79.892097 
L 569.416694 -68.923587 
L 562.040267 -75.554687 
L 554.663839 -77.786869 
L 547.287411 -72.799681 
L 539.910983 -70.006027 
L 532.534556 -66.579785 
L 525.158128 -71.346359 
L 517.7817 -67.930417 
L 510.405272 -73.058317 
L 503.028845 -74.981962 
L 495.652417 -70.065466 
L 488.275989 -84.081257 
L 480.899561 -73.293211 
L 473.523134 -70.344087 
L 466.146706 -72.857724 
L 458.770278 -71.029273 
L 451.393851 -75.432865 
L 444.017423 -75.557706 
L 436.640995 -73.818643 
L 429.264567 -71.717727 
L 421.88814 -84.233773 
L 414.511712 -76.486724 
L 407.135284 -72.023378 
z
" style="stroke: #2ca02c; stroke-opacity: 0.2"/>
    </defs>
    <g clip-path="url(#pc1c87747fe)">
     <use xlink:href="#m5fdf108610" x="0" y="360" style="fill: #2ca02c; fill-opacity: 0.2; stroke: #2ca02c; stroke-opacity: 0.2"/>
    </g>
   </g>
   <g id="PolyCollection_9">
    <defs>
     <path id="mef7260a2b8" d="M 407.135284 -72.352172 
L 407.135284 -72.352172 
L 414.511712 -70.283783 
L 421.88814 -78.259902 
L 429.264567 -72.135441 
L 436.640995 -70.141987 
L 444.017423 -73.506849 
L 451.393851 -69.383032 
L 458.770278 -69.198254 
L 466.146706 -62.465144 
L 473.523134 -72.1801 
L 480.899561 -70.507892 
L 488.275989 -70.31691 
L 495.652417 -72.220182 
L 503.028845 -73.203069 
L 510.405272 -71.663821 
L 517.7817 -71.64996 
L 525.158128 -76.084807 
L 532.534556 -63.29323 
L 539.910983 -72.239448 
L 547.287411 -70.958285 
L 554.663839 -73.147626 
L 562.040267 -68.447833 
L 569.416694 -70.130692 
L 576.793122 -70.231309 
L 584.16955 -67.780924 
L 591.545978 -66.482287 
L 598.922405 -70.118596 
L 606.298833 -66.450533 
L 613.675261 -74.008313 
L 621.051689 -70.549886 
L 628.428116 -69.761806 
L 635.804544 -73.043449 
L 643.180972 -68.050269 
L 650.557399 -70.804528 
L 657.933827 -68.209488 
L 665.310255 -70.533001 
L 672.686683 -76.253433 
L 680.06311 -73.76272 
L 687.439538 -76.338582 
L 694.815966 -74.951362 
L 694.815966 -74.951362 
L 694.815966 -74.951362 
L 687.439538 -76.338582 
L 680.06311 -73.76272 
L 672.686683 -76.253433 
L 665.310255 -70.533001 
L 657.933827 -68.209488 
L 650.557399 -70.804528 
L 643.180972 -68.050269 
L 635.804544 -73.043449 
L 628.428116 -69.761806 
L 621.051689 -70.549886 
L 613.675261 -74.008313 
L 606.298833 -66.450533 
L 598.922405 -70.118596 
L 591.545978 -66.482287 
L 584.16955 -67.780924 
L 576.793122 -70.231309 
L 569.416694 -70.130692 
L 562.040267 -68.447833 
L 554.663839 -73.147626 
L 547.287411 -70.958285 
L 539.910983 -72.239448 
L 532.534556 -63.29323 
L 525.158128 -76.084807 
L 517.7817 -71.64996 
L 510.405272 -71.663821 
L 503.028845 -73.203069 
L 495.652417 -72.220182 
L 488.275989 -70.31691 
L 480.899561 -70.507892 
L 473.523134 -72.1801 
L 466.146706 -62.465144 
L 458.770278 -69.198254 
L 451.393851 -69.383032 
L 444.017423 -73.506849 
L 436.640995 -70.141987 
L 429.264567 -72.135441 
L 421.88814 -78.259902 
L 414.511712 -70.283783 
L 407.135284 -72.352172 
z
" style="stroke: #d62728; stroke-opacity: 0.2"/>
    </defs>
    <g clip-path="url(#pc1c87747fe)">
     <use xlink:href="#mef7260a2b8" x="0" y="360" style="fill: #d62728; fill-opacity: 0.2; stroke: #d62728; stroke-opacity: 0.2"/>
    </g>
   </g>
   <g id="PolyCollection_10">
    <defs>
     <path id="m5de20f2a46" d="M 407.135284 -63.391183 
L 407.135284 -62.729164 
L 414.511712 -62.489104 
L 421.88814 -66.993202 
L 429.264567 -64.528187 
L 436.640995 -61.077975 
L 444.017423 -65.891217 
L 451.393851 -57.511585 
L 458.770278 -61.818442 
L 466.146706 -56.489549 
L 473.523134 -58.136794 
L 480.899561 -60.645677 
L 488.275989 -64.453632 
L 495.652417 -60.868924 
L 503.028845 -61.8615 
L 510.405272 -61.62805 
L 517.7817 -60.560267 
L 525.158128 -61.286037 
L 532.534556 -56.332401 
L 539.910983 -59.972965 
L 547.287411 -61.337652 
L 554.663839 -62.066414 
L 562.040267 -59.40983 
L 569.416694 -62.144617 
L 576.793122 -62.583448 
L 584.16955 -59.513177 
L 591.545978 -58.902268 
L 598.922405 -62.65019 
L 606.298833 -58.280378 
L 613.675261 -62.725011 
L 621.051689 -64.866477 
L 628.428116 -64.492448 
L 635.804544 -62.018288 
L 643.180972 -56.022102 
L 650.557399 -57.836697 
L 657.933827 -59.992435 
L 665.310255 -57.356494 
L 672.686683 -67.3136 
L 680.06311 -63.925627 
L 687.439538 -64.047755 
L 694.815966 -58.94079 
L 694.815966 -59.627689 
L 694.815966 -59.627689 
L 687.439538 -64.789169 
L 680.06311 -64.689348 
L 672.686683 -68.072213 
L 665.310255 -58.21083 
L 657.933827 -60.71302 
L 650.557399 -58.690313 
L 643.180972 -56.679988 
L 635.804544 -62.878571 
L 628.428116 -65.237391 
L 621.051689 -65.556173 
L 613.675261 -63.539392 
L 606.298833 -59.036117 
L 598.922405 -63.506181 
L 591.545978 -59.742647 
L 584.16955 -60.443921 
L 576.793122 -63.339333 
L 569.416694 -62.953795 
L 562.040267 -60.19844 
L 554.663839 -62.740632 
L 547.287411 -61.974508 
L 539.910983 -60.887248 
L 532.534556 -57.118661 
L 525.158128 -62.11624 
L 517.7817 -61.210125 
L 510.405272 -62.466575 
L 503.028845 -62.727976 
L 495.652417 -61.50737 
L 488.275989 -65.034056 
L 480.899561 -61.485676 
L 473.523134 -58.970763 
L 466.146706 -57.239852 
L 458.770278 -62.71308 
L 451.393851 -58.200165 
L 444.017423 -66.715231 
L 436.640995 -61.770778 
L 429.264567 -65.371355 
L 421.88814 -67.75099 
L 414.511712 -63.272987 
L 407.135284 -63.391183 
z
" style="stroke: #9467bd; stroke-opacity: 0.2"/>
    </defs>
    <g clip-path="url(#pc1c87747fe)">
     <use xlink:href="#m5de20f2a46" x="0" y="360" style="fill: #9467bd; fill-opacity: 0.2; stroke: #9467bd; stroke-opacity: 0.2"/>
    </g>
   </g>
   <g id="matplotlib.axis_3">
    <g id="xtick_9">
     <g id="line2d_29">
      <g>
       <use xlink:href="#mf2a4e52e68" x="421.88814" y="317.93875" style="stroke: #000000; stroke-width: 0.8"/>
      </g>
     </g>
     <g id="text_22">
      <!-- 5 -->
      <g transform="translate(418.70689 332.537188) scale(0.1 -0.1)">
       <use xlink:href="#DejaVuSans-35"/>
      </g>
     </g>
    </g>
    <g id="xtick_10">
     <g id="line2d_30">
      <g>
       <use xlink:href="#mf2a4e52e68" x="458.770278" y="317.93875" style="stroke: #000000; stroke-width: 0.8"/>
      </g>
     </g>
     <g id="text_23">
      <!-- 10 -->
      <g transform="translate(452.407778 332.537188) scale(0.1 -0.1)">
       <use xlink:href="#DejaVuSans-31"/>
       <use xlink:href="#DejaVuSans-30" x="63.623047"/>
      </g>
     </g>
    </g>
    <g id="xtick_11">
     <g id="line2d_31">
      <g>
       <use xlink:href="#mf2a4e52e68" x="495.652417" y="317.93875" style="stroke: #000000; stroke-width: 0.8"/>
      </g>
     </g>
     <g id="text_24">
      <!-- 15 -->
      <g transform="translate(489.289917 332.537188) scale(0.1 -0.1)">
       <use xlink:href="#DejaVuSans-31"/>
       <use xlink:href="#DejaVuSans-35" x="63.623047"/>
      </g>
     </g>
    </g>
    <g id="xtick_12">
     <g id="line2d_32">
      <g>
       <use xlink:href="#mf2a4e52e68" x="532.534556" y="317.93875" style="stroke: #000000; stroke-width: 0.8"/>
      </g>
     </g>
     <g id="text_25">
      <!-- 20 -->
      <g transform="translate(526.172056 332.537188) scale(0.1 -0.1)">
       <use xlink:href="#DejaVuSans-32"/>
       <use xlink:href="#DejaVuSans-30" x="63.623047"/>
      </g>
     </g>
    </g>
    <g id="xtick_13">
     <g id="line2d_33">
      <g>
       <use xlink:href="#mf2a4e52e68" x="569.416694" y="317.93875" style="stroke: #000000; stroke-width: 0.8"/>
      </g>
     </g>
     <g id="text_26">
      <!-- 25 -->
      <g transform="translate(563.054194 332.537188) scale(0.1 -0.1)">
       <use xlink:href="#DejaVuSans-32"/>
       <use xlink:href="#DejaVuSans-35" x="63.623047"/>
      </g>
     </g>
    </g>
    <g id="xtick_14">
     <g id="line2d_34">
      <g>
       <use xlink:href="#mf2a4e52e68" x="606.298833" y="317.93875" style="stroke: #000000; stroke-width: 0.8"/>
      </g>
     </g>
     <g id="text_27">
      <!-- 30 -->
      <g transform="translate(599.936333 332.537188) scale(0.1 -0.1)">
       <use xlink:href="#DejaVuSans-33"/>
       <use xlink:href="#DejaVuSans-30" x="63.623047"/>
      </g>
     </g>
    </g>
    <g id="xtick_15">
     <g id="line2d_35">
      <g>
       <use xlink:href="#mf2a4e52e68" x="643.180972" y="317.93875" style="stroke: #000000; stroke-width: 0.8"/>
      </g>
     </g>
     <g id="text_28">
      <!-- 35 -->
      <g transform="translate(636.818472 332.537188) scale(0.1 -0.1)">
       <use xlink:href="#DejaVuSans-33"/>
       <use xlink:href="#DejaVuSans-35" x="63.623047"/>
      </g>
     </g>
    </g>
    <g id="xtick_16">
     <g id="line2d_36">
      <g>
       <use xlink:href="#mf2a4e52e68" x="680.06311" y="317.93875" style="stroke: #000000; stroke-width: 0.8"/>
      </g>
     </g>
     <g id="text_29">
      <!-- 40 -->
      <g transform="translate(673.70061 332.537188) scale(0.1 -0.1)">
       <use xlink:href="#DejaVuSans-34"/>
       <use xlink:href="#DejaVuSans-30" x="63.623047"/>
      </g>
     </g>
    </g>
    <g id="text_30">
     <!-- num_features -->
     <g transform="translate(516.613906 346.215312) scale(0.1 -0.1)">
      <use xlink:href="#DejaVuSans-6e"/>
      <use xlink:href="#DejaVuSans-75" x="63.378906"/>
      <use xlink:href="#DejaVuSans-6d" x="126.757812"/>
      <use xlink:href="#DejaVuSans-5f" x="224.169922"/>
      <use xlink:href="#DejaVuSans-66" x="274.169922"/>
      <use xlink:href="#DejaVuSans-65" x="309.375"/>
      <use xlink:href="#DejaVuSans-61" x="370.898438"/>
      <use xlink:href="#DejaVuSans-74" x="432.177734"/>
      <use xlink:href="#DejaVuSans-75" x="471.386719"/>
      <use xlink:href="#DejaVuSans-72" x="534.765625"/>
      <use xlink:href="#DejaVuSans-65" x="573.628906"/>
      <use xlink:href="#DejaVuSans-73" x="635.152344"/>
     </g>
    </g>
   </g>
   <g id="matplotlib.axis_4">
    <g id="ytick_6">
     <g id="line2d_37">
      <g>
       <use xlink:href="#mde8f02b8ed" x="392.75125" y="263.031386" style="stroke: #000000; stroke-width: 0.8"/>
      </g>
     </g>
    </g>
    <g id="ytick_7">
     <g id="line2d_38">
      <g>
       <use xlink:href="#mde8f02b8ed" x="392.75125" y="203.463752" style="stroke: #000000; stroke-width: 0.8"/>
      </g>
     </g>
    </g>
    <g id="ytick_8">
     <g id="line2d_39">
      <g>
       <use xlink:href="#mde8f02b8ed" x="392.75125" y="143.896119" style="stroke: #000000; stroke-width: 0.8"/>
      </g>
     </g>
    </g>
    <g id="ytick_9">
     <g id="line2d_40">
      <g>
       <use xlink:href="#mde8f02b8ed" x="392.75125" y="84.328486" style="stroke: #000000; stroke-width: 0.8"/>
      </g>
     </g>
    </g>
    <g id="ytick_10">
     <g id="line2d_41">
      <g>
       <use xlink:href="#mde8f02b8ed" x="392.75125" y="24.760852" style="stroke: #000000; stroke-width: 0.8"/>
      </g>
     </g>
    </g>
    <g id="text_31">
     <!-- statistical_parity_difference -->
     <g transform="translate(382.893437 233.280312) rotate(-90) scale(0.1 -0.1)">
      <defs>
       <path id="DejaVuSans-79" d="M 2059 -325 
Q 1816 -950 1584 -1140 
Q 1353 -1331 966 -1331 
L 506 -1331 
L 506 -850 
L 844 -850 
Q 1081 -850 1212 -737 
Q 1344 -625 1503 -206 
L 1606 56 
L 191 3500 
L 800 3500 
L 1894 763 
L 2988 3500 
L 3597 3500 
L 2059 -325 
z
" transform="scale(0.015625)"/>
      </defs>
      <use xlink:href="#DejaVuSans-73"/>
      <use xlink:href="#DejaVuSans-74" x="52.099609"/>
      <use xlink:href="#DejaVuSans-61" x="91.308594"/>
      <use xlink:href="#DejaVuSans-74" x="152.587891"/>
      <use xlink:href="#DejaVuSans-69" x="191.796875"/>
      <use xlink:href="#DejaVuSans-73" x="219.580078"/>
      <use xlink:href="#DejaVuSans-74" x="271.679688"/>
      <use xlink:href="#DejaVuSans-69" x="310.888672"/>
      <use xlink:href="#DejaVuSans-63" x="338.671875"/>
      <use xlink:href="#DejaVuSans-61" x="393.652344"/>
      <use xlink:href="#DejaVuSans-6c" x="454.931641"/>
      <use xlink:href="#DejaVuSans-5f" x="482.714844"/>
      <use xlink:href="#DejaVuSans-70" x="532.714844"/>
      <use xlink:href="#DejaVuSans-61" x="596.191406"/>
      <use xlink:href="#DejaVuSans-72" x="657.470703"/>
      <use xlink:href="#DejaVuSans-69" x="698.583984"/>
      <use xlink:href="#DejaVuSans-74" x="726.367188"/>
      <use xlink:href="#DejaVuSans-79" x="765.576172"/>
      <use xlink:href="#DejaVuSans-5f" x="824.755859"/>
      <use xlink:href="#DejaVuSans-64" x="874.755859"/>
      <use xlink:href="#DejaVuSans-69" x="938.232422"/>
      <use xlink:href="#DejaVuSans-66" x="966.015625"/>
      <use xlink:href="#DejaVuSans-66" x="1001.220703"/>
      <use xlink:href="#DejaVuSans-65" x="1036.425781"/>
      <use xlink:href="#DejaVuSans-72" x="1097.949219"/>
      <use xlink:href="#DejaVuSans-65" x="1136.8125"/>
      <use xlink:href="#DejaVuSans-6e" x="1198.335938"/>
      <use xlink:href="#DejaVuSans-63" x="1261.714844"/>
      <use xlink:href="#DejaVuSans-65" x="1316.695312"/>
     </g>
    </g>
   </g>
   <g id="line2d_42">
    <path d="M 407.135284 281.26079 
L 414.511712 277.295301 
L 421.88814 283.349785 
L 429.264567 282.455665 
L 436.640995 286.047815 
L 444.017423 281.890648 
L 451.393851 291.947274 
L 458.770278 281.144982 
L 466.146706 291.363461 
L 473.523134 286.519724 
L 480.899561 283.555783 
L 488.275989 291.267672 
L 495.652417 288.419865 
L 503.028845 284.373285 
L 510.405272 288.720751 
L 517.7817 284.065223 
L 525.158128 285.064551 
L 532.534556 283.938837 
L 539.910983 282.84989 
L 547.287411 286.477558 
L 554.663839 278.921257 
L 562.040267 283.31114 
L 569.416694 280.853921 
L 576.793122 286.456038 
L 584.16955 282.381595 
L 591.545978 283.010015 
L 598.922405 283.959343 
L 606.298833 289.506113 
L 613.675261 288.836366 
L 621.051689 279.093165 
L 628.428116 280.073292 
L 635.804544 280.885041 
L 643.180972 287.656381 
L 650.557399 290.421648 
L 657.933827 283.891053 
L 665.310255 287.3615 
L 672.686683 277.39724 
L 680.06311 290.553384 
L 687.439538 284.998384 
L 694.815966 279.239563 
" clip-path="url(#pc1c87747fe)" style="fill: none; stroke: #1f77b4; stroke-width: 1.5; stroke-linecap: square"/>
   </g>
   <g id="line2d_43">
    <path d="M 407.135284 289.133066 
L 414.511712 294.458115 
L 421.88814 283.539635 
L 429.264567 288.662847 
L 436.640995 290.283826 
L 444.017423 288.768977 
L 451.393851 293.861974 
L 458.770278 292.022269 
L 466.146706 299.106094 
L 473.523134 292.055646 
L 480.899561 293.006198 
L 488.275989 289.830961 
L 495.652417 291.129817 
L 503.028845 290.573549 
L 510.405272 291.754897 
L 517.7817 292.077901 
L 525.158128 288.14732 
L 532.534556 299.355506 
L 539.910983 291.605783 
L 547.287411 291.423056 
L 554.663839 292.013656 
L 562.040267 295.582168 
L 569.416694 291.911614 
L 576.793122 292.5059 
L 584.16955 293.875144 
L 591.545978 292.146563 
L 598.922405 288.984067 
L 606.298833 292.474867 
L 613.675261 288.520745 
L 621.051689 290.962548 
L 628.428116 291.751089 
L 635.804544 291.291093 
L 643.180972 293.149041 
L 650.557399 294.257537 
L 657.933827 292.809399 
L 665.310255 290.80246 
L 672.686683 284.393106 
L 680.06311 291.240198 
L 687.439538 287.530472 
L 694.815966 289.830684 
" clip-path="url(#pc1c87747fe)" style="fill: none; stroke-dasharray: 6,2.25; stroke-dashoffset: 0; stroke: #ff7f0e; stroke-width: 1.5"/>
   </g>
   <g id="line2d_44">
    <path d="M 407.135284 288.581571 
L 414.511712 284.104936 
L 421.88814 276.399394 
L 429.264567 288.926568 
L 436.640995 286.729141 
L 444.017423 285.027541 
L 451.393851 285.038108 
L 458.770278 289.603219 
L 466.146706 287.715983 
L 473.523134 290.15343 
L 480.899561 287.329196 
L 488.275989 276.438181 
L 495.652417 290.3152 
L 503.028845 285.547345 
L 510.405272 287.46936 
L 517.7817 292.639156 
L 525.158128 289.096061 
L 532.534556 294.026914 
L 539.910983 290.627086 
L 547.287411 287.882426 
L 554.663839 282.745315 
L 562.040267 284.936781 
L 569.416694 291.596017 
L 576.793122 280.589225 
L 584.16955 286.493135 
L 591.545978 292.023908 
L 598.922405 289.339804 
L 606.298833 292.936527 
L 613.675261 285.521335 
L 621.051689 282.224124 
L 628.428116 286.339967 
L 635.804544 287.230116 
L 643.180972 287.212287 
L 650.557399 298.263667 
L 657.933827 284.938551 
L 665.310255 290.096977 
L 672.686683 287.1238 
L 680.06311 284.809858 
L 687.439538 282.505753 
L 694.815966 291.816211 
" clip-path="url(#pc1c87747fe)" style="fill: none; stroke-dasharray: 1.5,1.5; stroke-dashoffset: 0; stroke: #2ca02c; stroke-width: 1.5"/>
   </g>
   <g id="line2d_45">
    <path d="M 407.135284 287.647828 
L 414.511712 289.716217 
L 421.88814 281.740098 
L 429.264567 287.864559 
L 436.640995 289.858013 
L 444.017423 286.493151 
L 451.393851 290.616968 
L 458.770278 290.801746 
L 466.146706 297.534856 
L 473.523134 287.8199 
L 480.899561 289.492108 
L 488.275989 289.68309 
L 495.652417 287.779818 
L 503.028845 286.796931 
L 510.405272 288.336179 
L 517.7817 288.35004 
L 525.158128 283.915193 
L 532.534556 296.70677 
L 539.910983 287.760552 
L 547.287411 289.041715 
L 554.663839 286.852374 
L 562.040267 291.552167 
L 569.416694 289.869308 
L 576.793122 289.768691 
L 584.16955 292.219076 
L 591.545978 293.517713 
L 598.922405 289.881404 
L 606.298833 293.549467 
L 613.675261 285.991687 
L 621.051689 289.450114 
L 628.428116 290.238194 
L 635.804544 286.956551 
L 643.180972 291.949731 
L 650.557399 289.195472 
L 657.933827 291.790512 
L 665.310255 289.466999 
L 672.686683 283.746567 
L 680.06311 286.23728 
L 687.439538 283.661418 
L 694.815966 285.048638 
" clip-path="url(#pc1c87747fe)" style="fill: none; stroke-dasharray: 4.5,1.875,2.25,1.875; stroke-dashoffset: 0; stroke: #d62728; stroke-width: 1.5"/>
   </g>
   <g id="line2d_46">
    <path d="M 407.135284 296.942478 
L 414.511712 297.116948 
L 421.88814 292.623373 
L 429.264567 295.06508 
L 436.640995 298.576267 
L 444.017423 293.700777 
L 451.393851 302.156468 
L 458.770278 297.73518 
L 466.146706 303.14195 
L 473.523134 301.455636 
L 480.899561 298.924988 
L 488.275989 295.252441 
L 495.652417 298.80022 
L 503.028845 297.728344 
L 510.405272 297.945285 
L 517.7817 299.12019 
L 525.158128 298.296307 
L 532.534556 303.258958 
L 539.910983 299.542608 
L 547.287411 298.34857 
L 554.663839 297.585444 
L 562.040267 300.197005 
L 569.416694 297.455748 
L 576.793122 297.021274 
L 584.16955 300.019051 
L 591.545978 300.68757 
L 598.922405 296.909741 
L 606.298833 301.346511 
L 613.675261 296.878986 
L 621.051689 294.796038 
L 628.428116 295.138308 
L 635.804544 297.545901 
L 643.180972 303.668505 
L 650.557399 301.738164 
L 657.933827 299.63718 
L 665.310255 302.20657 
L 672.686683 292.306044 
L 680.06311 295.708136 
L 687.439538 295.582768 
L 694.815966 300.719276 
" clip-path="url(#pc1c87747fe)" style="fill: none; stroke-dasharray: 7.5,1.5,1.5,1.5; stroke-dashoffset: 0; stroke: #9467bd; stroke-width: 1.5"/>
   </g>
   <g id="line2d_47"/>
   <g id="line2d_48"/>
   <g id="line2d_49"/>
   <g id="line2d_50"/>
   <g id="line2d_51"/>
   <g id="patch_9">
    <path d="M 392.75125 317.93875 
L 392.75125 10.8 
" style="fill: none; stroke: #000000; stroke-width: 0.8; stroke-linejoin: miter; stroke-linecap: square"/>
   </g>
   <g id="patch_10">
    <path d="M 709.2 317.93875 
L 709.2 10.8 
" style="fill: none; stroke: #000000; stroke-width: 0.8; stroke-linejoin: miter; stroke-linecap: square"/>
   </g>
   <g id="patch_11">
    <path d="M 392.75125 317.93875 
L 709.2 317.93875 
" style="fill: none; stroke: #000000; stroke-width: 0.8; stroke-linejoin: miter; stroke-linecap: square"/>
   </g>
   <g id="patch_12">
    <path d="M 392.75125 10.8 
L 709.2 10.8 
" style="fill: none; stroke: #000000; stroke-width: 0.8; stroke-linejoin: miter; stroke-linecap: square"/>
   </g>
   <g id="legend_2">
    <g id="patch_13">
     <path d="M 558.44375 106.86875 
L 702.2 106.86875 
Q 704.2 106.86875 704.2 104.86875 
L 704.2 17.8 
Q 704.2 15.8 702.2 15.8 
L 558.44375 15.8 
Q 556.44375 15.8 556.44375 17.8 
L 556.44375 104.86875 
Q 556.44375 106.86875 558.44375 106.86875 
z
" style="fill: #ffffff; opacity: 0.8; stroke: #cccccc; stroke-linejoin: miter"/>
    </g>
    <g id="text_32">
     <!-- model -->
     <g transform="translate(614.752344 27.398438) scale(0.1 -0.1)">
      <use xlink:href="#DejaVuSans-6d"/>
      <use xlink:href="#DejaVuSans-6f" x="97.412109"/>
      <use xlink:href="#DejaVuSans-64" x="158.59375"/>
      <use xlink:href="#DejaVuSans-65" x="222.070312"/>
      <use xlink:href="#DejaVuSans-6c" x="283.59375"/>
     </g>
    </g>
    <g id="line2d_52">
     <path d="M 560.44375 38.576563 
L 570.44375 38.576563 
L 580.44375 38.576563 
" style="fill: none; stroke: #1f77b4; stroke-width: 1.5; stroke-linecap: square"/>
    </g>
    <g id="text_33">
     <!-- None -->
     <g transform="translate(588.44375 42.076563) scale(0.1 -0.1)">
      <use xlink:href="#DejaVuSans-4e"/>
      <use xlink:href="#DejaVuSans-6f" x="74.804688"/>
      <use xlink:href="#DejaVuSans-6e" x="135.986328"/>
      <use xlink:href="#DejaVuSans-65" x="199.365234"/>
     </g>
    </g>
    <g id="line2d_53">
     <path d="M 560.44375 53.254688 
L 570.44375 53.254688 
L 580.44375 53.254688 
" style="fill: none; stroke-dasharray: 6,2.25; stroke-dashoffset: 0; stroke: #ff7f0e; stroke-width: 1.5"/>
    </g>
    <g id="text_34">
     <!-- logisticregression -->
     <g transform="translate(588.44375 56.754688) scale(0.1 -0.1)">
      <use xlink:href="#DejaVuSans-6c"/>
      <use xlink:href="#DejaVuSans-6f" x="27.783203"/>
      <use xlink:href="#DejaVuSans-67" x="88.964844"/>
      <use xlink:href="#DejaVuSans-69" x="152.441406"/>
      <use xlink:href="#DejaVuSans-73" x="180.224609"/>
      <use xlink:href="#DejaVuSans-74" x="232.324219"/>
      <use xlink:href="#DejaVuSans-69" x="271.533203"/>
      <use xlink:href="#DejaVuSans-63" x="299.316406"/>
      <use xlink:href="#DejaVuSans-72" x="354.296875"/>
      <use xlink:href="#DejaVuSans-65" x="393.160156"/>
      <use xlink:href="#DejaVuSans-67" x="454.683594"/>
      <use xlink:href="#DejaVuSans-72" x="518.160156"/>
      <use xlink:href="#DejaVuSans-65" x="557.023438"/>
      <use xlink:href="#DejaVuSans-73" x="618.546875"/>
      <use xlink:href="#DejaVuSans-73" x="670.646484"/>
      <use xlink:href="#DejaVuSans-69" x="722.746094"/>
      <use xlink:href="#DejaVuSans-6f" x="750.529297"/>
      <use xlink:href="#DejaVuSans-6e" x="811.710938"/>
     </g>
    </g>
    <g id="line2d_54">
     <path d="M 560.44375 67.932813 
L 570.44375 67.932813 
L 580.44375 67.932813 
" style="fill: none; stroke-dasharray: 1.5,1.5; stroke-dashoffset: 0; stroke: #2ca02c; stroke-width: 1.5"/>
    </g>
    <g id="text_35">
     <!-- decisiontreeclassifier -->
     <g transform="translate(588.44375 71.432813) scale(0.1 -0.1)">
      <use xlink:href="#DejaVuSans-64"/>
      <use xlink:href="#DejaVuSans-65" x="63.476562"/>
      <use xlink:href="#DejaVuSans-63" x="125"/>
      <use xlink:href="#DejaVuSans-69" x="179.980469"/>
      <use xlink:href="#DejaVuSans-73" x="207.763672"/>
      <use xlink:href="#DejaVuSans-69" x="259.863281"/>
      <use xlink:href="#DejaVuSans-6f" x="287.646484"/>
      <use xlink:href="#DejaVuSans-6e" x="348.828125"/>
      <use xlink:href="#DejaVuSans-74" x="412.207031"/>
      <use xlink:href="#DejaVuSans-72" x="451.416016"/>
      <use xlink:href="#DejaVuSans-65" x="490.279297"/>
      <use xlink:href="#DejaVuSans-65" x="551.802734"/>
      <use xlink:href="#DejaVuSans-63" x="613.326172"/>
      <use xlink:href="#DejaVuSans-6c" x="668.306641"/>
      <use xlink:href="#DejaVuSans-61" x="696.089844"/>
      <use xlink:href="#DejaVuSans-73" x="757.369141"/>
      <use xlink:href="#DejaVuSans-73" x="809.46875"/>
      <use xlink:href="#DejaVuSans-69" x="861.568359"/>
      <use xlink:href="#DejaVuSans-66" x="889.351562"/>
      <use xlink:href="#DejaVuSans-69" x="924.556641"/>
      <use xlink:href="#DejaVuSans-65" x="952.339844"/>
      <use xlink:href="#DejaVuSans-72" x="1013.863281"/>
     </g>
    </g>
    <g id="line2d_55">
     <path d="M 560.44375 82.610938 
L 570.44375 82.610938 
L 580.44375 82.610938 
" style="fill: none; stroke-dasharray: 4.5,1.875,2.25,1.875; stroke-dashoffset: 0; stroke: #d62728; stroke-width: 1.5"/>
    </g>
    <g id="text_36">
     <!-- adaboostclassifier -->
     <g transform="translate(588.44375 86.110938) scale(0.1 -0.1)">
      <use xlink:href="#DejaVuSans-61"/>
      <use xlink:href="#DejaVuSans-64" x="61.279297"/>
      <use xlink:href="#DejaVuSans-61" x="124.755859"/>
      <use xlink:href="#DejaVuSans-62" x="186.035156"/>
      <use xlink:href="#DejaVuSans-6f" x="249.511719"/>
      <use xlink:href="#DejaVuSans-6f" x="310.693359"/>
      <use xlink:href="#DejaVuSans-73" x="371.875"/>
      <use xlink:href="#DejaVuSans-74" x="423.974609"/>
      <use xlink:href="#DejaVuSans-63" x="463.183594"/>
      <use xlink:href="#DejaVuSans-6c" x="518.164062"/>
      <use xlink:href="#DejaVuSans-61" x="545.947266"/>
      <use xlink:href="#DejaVuSans-73" x="607.226562"/>
      <use xlink:href="#DejaVuSans-73" x="659.326172"/>
      <use xlink:href="#DejaVuSans-69" x="711.425781"/>
      <use xlink:href="#DejaVuSans-66" x="739.208984"/>
      <use xlink:href="#DejaVuSans-69" x="774.414062"/>
      <use xlink:href="#DejaVuSans-65" x="802.197266"/>
      <use xlink:href="#DejaVuSans-72" x="863.720703"/>
     </g>
    </g>
    <g id="line2d_56">
     <path d="M 560.44375 97.289062 
L 570.44375 97.289062 
L 580.44375 97.289062 
" style="fill: none; stroke-dasharray: 7.5,1.5,1.5,1.5; stroke-dashoffset: 0; stroke: #9467bd; stroke-width: 1.5"/>
    </g>
    <g id="text_37">
     <!-- randomforestclassifier -->
     <g transform="translate(588.44375 100.789062) scale(0.1 -0.1)">
      <use xlink:href="#DejaVuSans-72"/>
      <use xlink:href="#DejaVuSans-61" x="41.113281"/>
      <use xlink:href="#DejaVuSans-6e" x="102.392578"/>
      <use xlink:href="#DejaVuSans-64" x="165.771484"/>
      <use xlink:href="#DejaVuSans-6f" x="229.248047"/>
      <use xlink:href="#DejaVuSans-6d" x="290.429688"/>
      <use xlink:href="#DejaVuSans-66" x="387.841797"/>
      <use xlink:href="#DejaVuSans-6f" x="423.046875"/>
      <use xlink:href="#DejaVuSans-72" x="484.228516"/>
      <use xlink:href="#DejaVuSans-65" x="523.091797"/>
      <use xlink:href="#DejaVuSans-73" x="584.615234"/>
      <use xlink:href="#DejaVuSans-74" x="636.714844"/>
      <use xlink:href="#DejaVuSans-63" x="675.923828"/>
      <use xlink:href="#DejaVuSans-6c" x="730.904297"/>
      <use xlink:href="#DejaVuSans-61" x="758.6875"/>
      <use xlink:href="#DejaVuSans-73" x="819.966797"/>
      <use xlink:href="#DejaVuSans-73" x="872.066406"/>
      <use xlink:href="#DejaVuSans-69" x="924.166016"/>
      <use xlink:href="#DejaVuSans-66" x="951.949219"/>
      <use xlink:href="#DejaVuSans-69" x="987.154297"/>
      <use xlink:href="#DejaVuSans-65" x="1014.9375"/>
      <use xlink:href="#DejaVuSans-72" x="1076.460938"/>
     </g>
    </g>
   </g>
  </g>
 </g>
 <defs>
  <clipPath id="pc8a905deb8">
   <rect x="47.82125" y="10.8" width="316.44875" height="307.13875"/>
  </clipPath>
  <clipPath id="pc1c87747fe">
   <rect x="392.75125" y="10.8" width="316.44875" height="307.13875"/>
  </clipPath>
 </defs>
</svg>
