<?xml version="1.0" encoding="utf-8" standalone="no"?>
<!DOCTYPE svg PUBLIC "-//W3C//DTD SVG 1.1//EN"
  "http://www.w3.org/Graphics/SVG/1.1/DTD/svg11.dtd">
<svg xmlns:xlink="http://www.w3.org/1999/xlink" width="720pt" height="360pt" viewBox="0 0 720 360" xmlns="http://www.w3.org/2000/svg" version="1.1">
 <metadata>
  <rdf:RDF xmlns:dc="http://purl.org/dc/elements/1.1/" xmlns:cc="http://creativecommons.org/ns#" xmlns:rdf="http://www.w3.org/1999/02/22-rdf-syntax-ns#">
   <cc:Work>
    <dc:type rdf:resource="http://purl.org/dc/dcmitype/StillImage"/>
    <dc:date>2022-11-03T13:21:08.836147</dc:date>
    <dc:format>image/svg+xml</dc:format>
    <dc:creator>
     <cc:Agent>
      <dc:title>Matplotlib v3.6.0, https://matplotlib.org/</dc:title>
     </cc:Agent>
    </dc:creator>
   </cc:Work>
  </rdf:RDF>
 </metadata>
 <defs>
  <style type="text/css">*{stroke-linejoin: round; stroke-linecap: butt}</style>
 </defs>
 <g id="figure_1">
  <g id="patch_1">
   <path d="M 0 360 
L 720 360 
L 720 0 
L 0 0 
z
" style="fill: #ffffff"/>
  </g>
  <g id="axes_1">
   <g id="patch_2">
    <path d="M 47.82125 318.04 
L 364.27 318.04 
L 364.27 10.8 
L 47.82125 10.8 
z
" style="fill: #ffffff"/>
   </g>
   <g id="PolyCollection_1">
    <defs>
     <path id="mfa0882f68d" d="M 62.205284 -166.828721 
L 62.205284 -166.828721 
L 78.187544 -166.828721 
L 94.169804 -166.828721 
L 110.152064 -166.828721 
L 126.134324 -166.828721 
L 142.116585 -166.828721 
L 158.098845 -166.828721 
L 174.081105 -166.828721 
L 190.063365 -166.828721 
L 206.045625 -166.828721 
L 222.027885 -166.828721 
L 238.010145 -166.828721 
L 253.992405 -166.828721 
L 269.974665 -166.828721 
L 285.956926 -166.828721 
L 301.939186 -166.828721 
L 317.921446 -166.828721 
L 333.903706 -166.828721 
L 349.885966 -166.828721 
L 349.885966 -166.828721 
L 349.885966 -166.828721 
L 333.903706 -166.828721 
L 317.921446 -166.828721 
L 301.939186 -166.828721 
L 285.956926 -166.828721 
L 269.974665 -166.828721 
L 253.992405 -166.828721 
L 238.010145 -166.828721 
L 222.027885 -166.828721 
L 206.045625 -166.828721 
L 190.063365 -166.828721 
L 174.081105 -166.828721 
L 158.098845 -166.828721 
L 142.116585 -166.828721 
L 126.134324 -166.828721 
L 110.152064 -166.828721 
L 94.169804 -166.828721 
L 78.187544 -166.828721 
L 62.205284 -166.828721 
z
" style="stroke: #1f77b4; stroke-opacity: 0.2"/>
    </defs>
    <g clip-path="url(#p9701af89b0)">
     <use xlink:href="#mfa0882f68d" x="0" y="360" style="fill: #1f77b4; fill-opacity: 0.2; stroke: #1f77b4; stroke-opacity: 0.2"/>
    </g>
   </g>
   <g id="PolyCollection_2">
    <defs>
     <path id="m0fa3ecd232" d="M 62.205284 -335.234545 
L 62.205284 -335.234545 
L 78.187544 -321.944396 
L 94.169804 -283.089667 
L 110.152064 -286.2067 
L 126.134324 -287.875725 
L 142.116585 -276.011882 
L 158.098845 -243.3306 
L 174.081105 -263.399519 
L 190.063365 -238.287691 
L 206.045625 -230.89913 
L 222.027885 -230.608181 
L 238.010145 -230.550271 
L 253.992405 -216.37555 
L 269.974665 -219.050719 
L 285.956926 -220.53163 
L 301.939186 -224.356858 
L 317.921446 -228.423319 
L 333.903706 -239.603339 
L 349.885966 -236.374308 
L 349.885966 -236.374308 
L 349.885966 -236.374308 
L 333.903706 -239.603339 
L 317.921446 -228.423319 
L 301.939186 -224.356858 
L 285.956926 -220.53163 
L 269.974665 -219.050719 
L 253.992405 -216.37555 
L 238.010145 -230.550271 
L 222.027885 -230.608181 
L 206.045625 -230.89913 
L 190.063365 -238.287691 
L 174.081105 -263.399519 
L 158.098845 -243.3306 
L 142.116585 -276.011882 
L 126.134324 -287.875725 
L 110.152064 -286.2067 
L 94.169804 -283.089667 
L 78.187544 -321.944396 
L 62.205284 -335.234545 
z
" style="stroke: #ff7f0e; stroke-opacity: 0.2"/>
    </defs>
    <g clip-path="url(#p9701af89b0)">
     <use xlink:href="#m0fa3ecd232" x="0" y="360" style="fill: #ff7f0e; fill-opacity: 0.2; stroke: #ff7f0e; stroke-opacity: 0.2"/>
    </g>
   </g>
   <g id="PolyCollection_3">
    <defs>
     <path id="md738f88806" d="M 62.205284 -102.817479 
L 62.205284 -89.043944 
L 78.187544 -155.0222 
L 94.169804 -120.557478 
L 110.152064 -120.087747 
L 126.134324 -130.430789 
L 142.116585 -64.853775 
L 158.098845 -73.183393 
L 174.081105 -86.59366 
L 190.063365 -57.987675 
L 206.045625 -103.770226 
L 222.027885 -76.219189 
L 238.010145 -76.350785 
L 253.992405 -88.728646 
L 269.974665 -106.897452 
L 285.956926 -100.506232 
L 301.939186 -76.430376 
L 317.921446 -66.94252 
L 333.903706 -63.462771 
L 349.885966 -81.848308 
L 349.885966 -88.978118 
L 349.885966 -88.978118 
L 333.903706 -70.904015 
L 317.921446 -74.169461 
L 301.939186 -83.725083 
L 285.956926 -107.106724 
L 269.974665 -114.459035 
L 253.992405 -96.393631 
L 238.010145 -84.562434 
L 222.027885 -85.150253 
L 206.045625 -109.646327 
L 190.063365 -66.148614 
L 174.081105 -94.316846 
L 158.098845 -81.767824 
L 142.116585 -72.82807 
L 126.134324 -142.263487 
L 110.152064 -128.077844 
L 94.169804 -127.491214 
L 78.187544 -166.626833 
L 62.205284 -102.817479 
z
" style="stroke: #2ca02c; stroke-opacity: 0.2"/>
    </defs>
    <g clip-path="url(#p9701af89b0)">
     <use xlink:href="#md738f88806" x="0" y="360" style="fill: #2ca02c; fill-opacity: 0.2; stroke: #2ca02c; stroke-opacity: 0.2"/>
    </g>
   </g>
   <g id="PolyCollection_4">
    <defs>
     <path id="m7e7c31b733" d="M 62.205284 -287.233828 
L 62.205284 -287.233828 
L 78.187544 -297.519594 
L 94.169804 -267.853112 
L 110.152064 -289.8427 
L 126.134324 -271.094749 
L 142.116585 -254.733657 
L 158.098845 -251.996014 
L 174.081105 -273.055589 
L 190.063365 -258.408078 
L 206.045625 -269.434193 
L 222.027885 -237.907684 
L 238.010145 -254.44328 
L 253.992405 -265.46146 
L 269.974665 -270.817308 
L 285.956926 -183.300953 
L 301.939186 -283.127856 
L 317.921446 -275.075461 
L 333.903706 -174.290997 
L 349.885966 -147.358298 
L 349.885966 -147.358298 
L 349.885966 -147.358298 
L 333.903706 -174.290997 
L 317.921446 -275.075461 
L 301.939186 -283.127856 
L 285.956926 -183.300953 
L 269.974665 -270.817308 
L 253.992405 -265.46146 
L 238.010145 -254.44328 
L 222.027885 -237.907684 
L 206.045625 -269.434193 
L 190.063365 -258.408078 
L 174.081105 -273.055589 
L 158.098845 -251.996014 
L 142.116585 -254.733657 
L 126.134324 -271.094749 
L 110.152064 -289.8427 
L 94.169804 -267.853112 
L 78.187544 -297.519594 
L 62.205284 -287.233828 
z
" style="stroke: #d62728; stroke-opacity: 0.2"/>
    </defs>
    <g clip-path="url(#p9701af89b0)">
     <use xlink:href="#m7e7c31b733" x="0" y="360" style="fill: #d62728; fill-opacity: 0.2; stroke: #d62728; stroke-opacity: 0.2"/>
    </g>
   </g>
   <g id="PolyCollection_5">
    <defs>
     <path id="m2d27872ff0" d="M 62.205284 -285.38686 
L 62.205284 -277.011701 
L 78.187544 -261.255578 
L 94.169804 -228.955898 
L 110.152064 -213.815571 
L 126.134324 -220.372954 
L 142.116585 -217.426619 
L 158.098845 -218.741634 
L 174.081105 -222.022348 
L 190.063365 -201.820401 
L 206.045625 -197.422433 
L 222.027885 -198.465989 
L 238.010145 -205.370739 
L 253.992405 -200.162792 
L 269.974665 -210.232739 
L 285.956926 -205.860969 
L 301.939186 -209.597693 
L 317.921446 -203.504259 
L 333.903706 -199.405341 
L 349.885966 -193.88169 
L 349.885966 -200.176624 
L 349.885966 -200.176624 
L 333.903706 -205.37545 
L 317.921446 -209.39696 
L 301.939186 -215.712776 
L 285.956926 -212.762001 
L 269.974665 -217.99006 
L 253.992405 -206.841667 
L 238.010145 -212.310317 
L 222.027885 -204.203892 
L 206.045625 -204.13356 
L 190.063365 -208.475455 
L 174.081105 -228.092681 
L 158.098845 -224.894813 
L 142.116585 -225.154645 
L 126.134324 -228.950474 
L 110.152064 -220.664001 
L 94.169804 -235.335835 
L 78.187544 -269.480479 
L 62.205284 -285.38686 
z
" style="stroke: #9467bd; stroke-opacity: 0.2"/>
    </defs>
    <g clip-path="url(#p9701af89b0)">
     <use xlink:href="#m2d27872ff0" x="0" y="360" style="fill: #9467bd; fill-opacity: 0.2; stroke: #9467bd; stroke-opacity: 0.2"/>
    </g>
   </g>
   <g id="matplotlib.axis_1">
    <g id="xtick_1">
     <g id="line2d_1">
      <defs>
       <path id="m485317c1ba" d="M 0 0 
L 0 3.5 
" style="stroke: #000000; stroke-width: 0.8"/>
      </defs>
      <g>
       <use xlink:href="#m485317c1ba" x="94.169804" y="318.04" style="stroke: #000000; stroke-width: 0.8"/>
      </g>
     </g>
     <g id="text_1">
      <!-- 0.2 -->
      <g transform="translate(86.218242 332.638438) scale(0.1 -0.1)">
       <defs>
        <path id="DejaVuSans-30" d="M 2034 4250 
Q 1547 4250 1301 3770 
Q 1056 3291 1056 2328 
Q 1056 1369 1301 889 
Q 1547 409 2034 409 
Q 2525 409 2770 889 
Q 3016 1369 3016 2328 
Q 3016 3291 2770 3770 
Q 2525 4250 2034 4250 
z
M 2034 4750 
Q 2819 4750 3233 4129 
Q 3647 3509 3647 2328 
Q 3647 1150 3233 529 
Q 2819 -91 2034 -91 
Q 1250 -91 836 529 
Q 422 1150 422 2328 
Q 422 3509 836 4129 
Q 1250 4750 2034 4750 
z
" transform="scale(0.015625)"/>
        <path id="DejaVuSans-2e" d="M 684 794 
L 1344 794 
L 1344 0 
L 684 0 
L 684 794 
z
" transform="scale(0.015625)"/>
        <path id="DejaVuSans-32" d="M 1228 531 
L 3431 531 
L 3431 0 
L 469 0 
L 469 531 
Q 828 903 1448 1529 
Q 2069 2156 2228 2338 
Q 2531 2678 2651 2914 
Q 2772 3150 2772 3378 
Q 2772 3750 2511 3984 
Q 2250 4219 1831 4219 
Q 1534 4219 1204 4116 
Q 875 4013 500 3803 
L 500 4441 
Q 881 4594 1212 4672 
Q 1544 4750 1819 4750 
Q 2544 4750 2975 4387 
Q 3406 4025 3406 3419 
Q 3406 3131 3298 2873 
Q 3191 2616 2906 2266 
Q 2828 2175 2409 1742 
Q 1991 1309 1228 531 
z
" transform="scale(0.015625)"/>
       </defs>
       <use xlink:href="#DejaVuSans-30"/>
       <use xlink:href="#DejaVuSans-2e" x="63.623047"/>
       <use xlink:href="#DejaVuSans-32" x="95.410156"/>
      </g>
     </g>
    </g>
    <g id="xtick_2">
     <g id="line2d_2">
      <g>
       <use xlink:href="#m485317c1ba" x="158.098845" y="318.04" style="stroke: #000000; stroke-width: 0.8"/>
      </g>
     </g>
     <g id="text_2">
      <!-- 0.4 -->
      <g transform="translate(150.147282 332.638438) scale(0.1 -0.1)">
       <defs>
        <path id="DejaVuSans-34" d="M 2419 4116 
L 825 1625 
L 2419 1625 
L 2419 4116 
z
M 2253 4666 
L 3047 4666 
L 3047 1625 
L 3713 1625 
L 3713 1100 
L 3047 1100 
L 3047 0 
L 2419 0 
L 2419 1100 
L 313 1100 
L 313 1709 
L 2253 4666 
z
" transform="scale(0.015625)"/>
       </defs>
       <use xlink:href="#DejaVuSans-30"/>
       <use xlink:href="#DejaVuSans-2e" x="63.623047"/>
       <use xlink:href="#DejaVuSans-34" x="95.410156"/>
      </g>
     </g>
    </g>
    <g id="xtick_3">
     <g id="line2d_3">
      <g>
       <use xlink:href="#m485317c1ba" x="222.027885" y="318.04" style="stroke: #000000; stroke-width: 0.8"/>
      </g>
     </g>
     <g id="text_3">
      <!-- 0.6 -->
      <g transform="translate(214.076323 332.638438) scale(0.1 -0.1)">
       <defs>
        <path id="DejaVuSans-36" d="M 2113 2584 
Q 1688 2584 1439 2293 
Q 1191 2003 1191 1497 
Q 1191 994 1439 701 
Q 1688 409 2113 409 
Q 2538 409 2786 701 
Q 3034 994 3034 1497 
Q 3034 2003 2786 2293 
Q 2538 2584 2113 2584 
z
M 3366 4563 
L 3366 3988 
Q 3128 4100 2886 4159 
Q 2644 4219 2406 4219 
Q 1781 4219 1451 3797 
Q 1122 3375 1075 2522 
Q 1259 2794 1537 2939 
Q 1816 3084 2150 3084 
Q 2853 3084 3261 2657 
Q 3669 2231 3669 1497 
Q 3669 778 3244 343 
Q 2819 -91 2113 -91 
Q 1303 -91 875 529 
Q 447 1150 447 2328 
Q 447 3434 972 4092 
Q 1497 4750 2381 4750 
Q 2619 4750 2861 4703 
Q 3103 4656 3366 4563 
z
" transform="scale(0.015625)"/>
       </defs>
       <use xlink:href="#DejaVuSans-30"/>
       <use xlink:href="#DejaVuSans-2e" x="63.623047"/>
       <use xlink:href="#DejaVuSans-36" x="95.410156"/>
      </g>
     </g>
    </g>
    <g id="xtick_4">
     <g id="line2d_4">
      <g>
       <use xlink:href="#m485317c1ba" x="285.956926" y="318.04" style="stroke: #000000; stroke-width: 0.8"/>
      </g>
     </g>
     <g id="text_4">
      <!-- 0.8 -->
      <g transform="translate(278.005363 332.638438) scale(0.1 -0.1)">
       <defs>
        <path id="DejaVuSans-38" d="M 2034 2216 
Q 1584 2216 1326 1975 
Q 1069 1734 1069 1313 
Q 1069 891 1326 650 
Q 1584 409 2034 409 
Q 2484 409 2743 651 
Q 3003 894 3003 1313 
Q 3003 1734 2745 1975 
Q 2488 2216 2034 2216 
z
M 1403 2484 
Q 997 2584 770 2862 
Q 544 3141 544 3541 
Q 544 4100 942 4425 
Q 1341 4750 2034 4750 
Q 2731 4750 3128 4425 
Q 3525 4100 3525 3541 
Q 3525 3141 3298 2862 
Q 3072 2584 2669 2484 
Q 3125 2378 3379 2068 
Q 3634 1759 3634 1313 
Q 3634 634 3220 271 
Q 2806 -91 2034 -91 
Q 1263 -91 848 271 
Q 434 634 434 1313 
Q 434 1759 690 2068 
Q 947 2378 1403 2484 
z
M 1172 3481 
Q 1172 3119 1398 2916 
Q 1625 2713 2034 2713 
Q 2441 2713 2670 2916 
Q 2900 3119 2900 3481 
Q 2900 3844 2670 4047 
Q 2441 4250 2034 4250 
Q 1625 4250 1398 4047 
Q 1172 3844 1172 3481 
z
" transform="scale(0.015625)"/>
       </defs>
       <use xlink:href="#DejaVuSans-30"/>
       <use xlink:href="#DejaVuSans-2e" x="63.623047"/>
       <use xlink:href="#DejaVuSans-38" x="95.410156"/>
      </g>
     </g>
    </g>
    <g id="xtick_5">
     <g id="line2d_5">
      <g>
       <use xlink:href="#m485317c1ba" x="349.885966" y="318.04" style="stroke: #000000; stroke-width: 0.8"/>
      </g>
     </g>
     <g id="text_5">
      <!-- 1.0 -->
      <g transform="translate(341.934403 332.638438) scale(0.1 -0.1)">
       <defs>
        <path id="DejaVuSans-31" d="M 794 531 
L 1825 531 
L 1825 4091 
L 703 3866 
L 703 4441 
L 1819 4666 
L 2450 4666 
L 2450 531 
L 3481 531 
L 3481 0 
L 794 0 
L 794 531 
z
" transform="scale(0.015625)"/>
       </defs>
       <use xlink:href="#DejaVuSans-31"/>
       <use xlink:href="#DejaVuSans-2e" x="63.623047"/>
       <use xlink:href="#DejaVuSans-30" x="95.410156"/>
      </g>
     </g>
    </g>
    <g id="text_6">
     <!-- frac -->
     <g transform="translate(196.416719 346.316563) scale(0.1 -0.1)">
      <defs>
       <path id="DejaVuSans-66" d="M 2375 4863 
L 2375 4384 
L 1825 4384 
Q 1516 4384 1395 4259 
Q 1275 4134 1275 3809 
L 1275 3500 
L 2222 3500 
L 2222 3053 
L 1275 3053 
L 1275 0 
L 697 0 
L 697 3053 
L 147 3053 
L 147 3500 
L 697 3500 
L 697 3744 
Q 697 4328 969 4595 
Q 1241 4863 1831 4863 
L 2375 4863 
z
" transform="scale(0.015625)"/>
       <path id="DejaVuSans-72" d="M 2631 2963 
Q 2534 3019 2420 3045 
Q 2306 3072 2169 3072 
Q 1681 3072 1420 2755 
Q 1159 2438 1159 1844 
L 1159 0 
L 581 0 
L 581 3500 
L 1159 3500 
L 1159 2956 
Q 1341 3275 1631 3429 
Q 1922 3584 2338 3584 
Q 2397 3584 2469 3576 
Q 2541 3569 2628 3553 
L 2631 2963 
z
" transform="scale(0.015625)"/>
       <path id="DejaVuSans-61" d="M 2194 1759 
Q 1497 1759 1228 1600 
Q 959 1441 959 1056 
Q 959 750 1161 570 
Q 1363 391 1709 391 
Q 2188 391 2477 730 
Q 2766 1069 2766 1631 
L 2766 1759 
L 2194 1759 
z
M 3341 1997 
L 3341 0 
L 2766 0 
L 2766 531 
Q 2569 213 2275 61 
Q 1981 -91 1556 -91 
Q 1019 -91 701 211 
Q 384 513 384 1019 
Q 384 1609 779 1909 
Q 1175 2209 1959 2209 
L 2766 2209 
L 2766 2266 
Q 2766 2663 2505 2880 
Q 2244 3097 1772 3097 
Q 1472 3097 1187 3025 
Q 903 2953 641 2809 
L 641 3341 
Q 956 3463 1253 3523 
Q 1550 3584 1831 3584 
Q 2591 3584 2966 3190 
Q 3341 2797 3341 1997 
z
" transform="scale(0.015625)"/>
       <path id="DejaVuSans-63" d="M 3122 3366 
L 3122 2828 
Q 2878 2963 2633 3030 
Q 2388 3097 2138 3097 
Q 1578 3097 1268 2742 
Q 959 2388 959 1747 
Q 959 1106 1268 751 
Q 1578 397 2138 397 
Q 2388 397 2633 464 
Q 2878 531 3122 666 
L 3122 134 
Q 2881 22 2623 -34 
Q 2366 -91 2075 -91 
Q 1284 -91 818 406 
Q 353 903 353 1747 
Q 353 2603 823 3093 
Q 1294 3584 2113 3584 
Q 2378 3584 2631 3529 
Q 2884 3475 3122 3366 
z
" transform="scale(0.015625)"/>
      </defs>
      <use xlink:href="#DejaVuSans-66"/>
      <use xlink:href="#DejaVuSans-72" x="35.205078"/>
      <use xlink:href="#DejaVuSans-61" x="76.318359"/>
      <use xlink:href="#DejaVuSans-63" x="137.597656"/>
     </g>
    </g>
   </g>
   <g id="matplotlib.axis_2">
    <g id="ytick_1">
     <g id="line2d_6">
      <defs>
       <path id="m9bd58a0484" d="M 0 0 
L -3.5 0 
" style="stroke: #000000; stroke-width: 0.8"/>
      </defs>
      <g>
       <use xlink:href="#m9bd58a0484" x="47.82125" y="266.558674" style="stroke: #000000; stroke-width: 0.8"/>
      </g>
     </g>
     <g id="text_7">
      <!-- 0.2 -->
      <g transform="translate(24.918125 270.357893) scale(0.1 -0.1)">
       <use xlink:href="#DejaVuSans-30"/>
       <use xlink:href="#DejaVuSans-2e" x="63.623047"/>
       <use xlink:href="#DejaVuSans-32" x="95.410156"/>
      </g>
     </g>
    </g>
    <g id="ytick_2">
     <g id="line2d_7">
      <g>
       <use xlink:href="#m9bd58a0484" x="47.82125" y="206.110369" style="stroke: #000000; stroke-width: 0.8"/>
      </g>
     </g>
     <g id="text_8">
      <!-- 0.4 -->
      <g transform="translate(24.918125 209.909588) scale(0.1 -0.1)">
       <use xlink:href="#DejaVuSans-30"/>
       <use xlink:href="#DejaVuSans-2e" x="63.623047"/>
       <use xlink:href="#DejaVuSans-34" x="95.410156"/>
      </g>
     </g>
    </g>
    <g id="ytick_3">
     <g id="line2d_8">
      <g>
       <use xlink:href="#m9bd58a0484" x="47.82125" y="145.662064" style="stroke: #000000; stroke-width: 0.8"/>
      </g>
     </g>
     <g id="text_9">
      <!-- 0.6 -->
      <g transform="translate(24.918125 149.461283) scale(0.1 -0.1)">
       <use xlink:href="#DejaVuSans-30"/>
       <use xlink:href="#DejaVuSans-2e" x="63.623047"/>
       <use xlink:href="#DejaVuSans-36" x="95.410156"/>
      </g>
     </g>
    </g>
    <g id="ytick_4">
     <g id="line2d_9">
      <g>
       <use xlink:href="#m9bd58a0484" x="47.82125" y="85.213759" style="stroke: #000000; stroke-width: 0.8"/>
      </g>
     </g>
     <g id="text_10">
      <!-- 0.8 -->
      <g transform="translate(24.918125 89.012978) scale(0.1 -0.1)">
       <use xlink:href="#DejaVuSans-30"/>
       <use xlink:href="#DejaVuSans-2e" x="63.623047"/>
       <use xlink:href="#DejaVuSans-38" x="95.410156"/>
      </g>
     </g>
    </g>
    <g id="ytick_5">
     <g id="line2d_10">
      <g>
       <use xlink:href="#m9bd58a0484" x="47.82125" y="24.765455" style="stroke: #000000; stroke-width: 0.8"/>
      </g>
     </g>
     <g id="text_11">
      <!-- 1.0 -->
      <g transform="translate(24.918125 28.564673) scale(0.1 -0.1)">
       <use xlink:href="#DejaVuSans-31"/>
       <use xlink:href="#DejaVuSans-2e" x="63.623047"/>
       <use xlink:href="#DejaVuSans-30" x="95.410156"/>
      </g>
     </g>
    </g>
    <g id="text_12">
     <!-- disparate_impact -->
     <g transform="translate(18.560313 207.689531) rotate(-90) scale(0.1 -0.1)">
      <defs>
       <path id="DejaVuSans-64" d="M 2906 2969 
L 2906 4863 
L 3481 4863 
L 3481 0 
L 2906 0 
L 2906 525 
Q 2725 213 2448 61 
Q 2172 -91 1784 -91 
Q 1150 -91 751 415 
Q 353 922 353 1747 
Q 353 2572 751 3078 
Q 1150 3584 1784 3584 
Q 2172 3584 2448 3432 
Q 2725 3281 2906 2969 
z
M 947 1747 
Q 947 1113 1208 752 
Q 1469 391 1925 391 
Q 2381 391 2643 752 
Q 2906 1113 2906 1747 
Q 2906 2381 2643 2742 
Q 2381 3103 1925 3103 
Q 1469 3103 1208 2742 
Q 947 2381 947 1747 
z
" transform="scale(0.015625)"/>
       <path id="DejaVuSans-69" d="M 603 3500 
L 1178 3500 
L 1178 0 
L 603 0 
L 603 3500 
z
M 603 4863 
L 1178 4863 
L 1178 4134 
L 603 4134 
L 603 4863 
z
" transform="scale(0.015625)"/>
       <path id="DejaVuSans-73" d="M 2834 3397 
L 2834 2853 
Q 2591 2978 2328 3040 
Q 2066 3103 1784 3103 
Q 1356 3103 1142 2972 
Q 928 2841 928 2578 
Q 928 2378 1081 2264 
Q 1234 2150 1697 2047 
L 1894 2003 
Q 2506 1872 2764 1633 
Q 3022 1394 3022 966 
Q 3022 478 2636 193 
Q 2250 -91 1575 -91 
Q 1294 -91 989 -36 
Q 684 19 347 128 
L 347 722 
Q 666 556 975 473 
Q 1284 391 1588 391 
Q 1994 391 2212 530 
Q 2431 669 2431 922 
Q 2431 1156 2273 1281 
Q 2116 1406 1581 1522 
L 1381 1569 
Q 847 1681 609 1914 
Q 372 2147 372 2553 
Q 372 3047 722 3315 
Q 1072 3584 1716 3584 
Q 2034 3584 2315 3537 
Q 2597 3491 2834 3397 
z
" transform="scale(0.015625)"/>
       <path id="DejaVuSans-70" d="M 1159 525 
L 1159 -1331 
L 581 -1331 
L 581 3500 
L 1159 3500 
L 1159 2969 
Q 1341 3281 1617 3432 
Q 1894 3584 2278 3584 
Q 2916 3584 3314 3078 
Q 3713 2572 3713 1747 
Q 3713 922 3314 415 
Q 2916 -91 2278 -91 
Q 1894 -91 1617 61 
Q 1341 213 1159 525 
z
M 3116 1747 
Q 3116 2381 2855 2742 
Q 2594 3103 2138 3103 
Q 1681 3103 1420 2742 
Q 1159 2381 1159 1747 
Q 1159 1113 1420 752 
Q 1681 391 2138 391 
Q 2594 391 2855 752 
Q 3116 1113 3116 1747 
z
" transform="scale(0.015625)"/>
       <path id="DejaVuSans-74" d="M 1172 4494 
L 1172 3500 
L 2356 3500 
L 2356 3053 
L 1172 3053 
L 1172 1153 
Q 1172 725 1289 603 
Q 1406 481 1766 481 
L 2356 481 
L 2356 0 
L 1766 0 
Q 1100 0 847 248 
Q 594 497 594 1153 
L 594 3053 
L 172 3053 
L 172 3500 
L 594 3500 
L 594 4494 
L 1172 4494 
z
" transform="scale(0.015625)"/>
       <path id="DejaVuSans-65" d="M 3597 1894 
L 3597 1613 
L 953 1613 
Q 991 1019 1311 708 
Q 1631 397 2203 397 
Q 2534 397 2845 478 
Q 3156 559 3463 722 
L 3463 178 
Q 3153 47 2828 -22 
Q 2503 -91 2169 -91 
Q 1331 -91 842 396 
Q 353 884 353 1716 
Q 353 2575 817 3079 
Q 1281 3584 2069 3584 
Q 2775 3584 3186 3129 
Q 3597 2675 3597 1894 
z
M 3022 2063 
Q 3016 2534 2758 2815 
Q 2500 3097 2075 3097 
Q 1594 3097 1305 2825 
Q 1016 2553 972 2059 
L 3022 2063 
z
" transform="scale(0.015625)"/>
       <path id="DejaVuSans-5f" d="M 3263 -1063 
L 3263 -1509 
L -63 -1509 
L -63 -1063 
L 3263 -1063 
z
" transform="scale(0.015625)"/>
       <path id="DejaVuSans-6d" d="M 3328 2828 
Q 3544 3216 3844 3400 
Q 4144 3584 4550 3584 
Q 5097 3584 5394 3201 
Q 5691 2819 5691 2113 
L 5691 0 
L 5113 0 
L 5113 2094 
Q 5113 2597 4934 2840 
Q 4756 3084 4391 3084 
Q 3944 3084 3684 2787 
Q 3425 2491 3425 1978 
L 3425 0 
L 2847 0 
L 2847 2094 
Q 2847 2600 2669 2842 
Q 2491 3084 2119 3084 
Q 1678 3084 1418 2786 
Q 1159 2488 1159 1978 
L 1159 0 
L 581 0 
L 581 3500 
L 1159 3500 
L 1159 2956 
Q 1356 3278 1631 3431 
Q 1906 3584 2284 3584 
Q 2666 3584 2933 3390 
Q 3200 3197 3328 2828 
z
" transform="scale(0.015625)"/>
      </defs>
      <use xlink:href="#DejaVuSans-64"/>
      <use xlink:href="#DejaVuSans-69" x="63.476562"/>
      <use xlink:href="#DejaVuSans-73" x="91.259766"/>
      <use xlink:href="#DejaVuSans-70" x="143.359375"/>
      <use xlink:href="#DejaVuSans-61" x="206.835938"/>
      <use xlink:href="#DejaVuSans-72" x="268.115234"/>
      <use xlink:href="#DejaVuSans-61" x="309.228516"/>
      <use xlink:href="#DejaVuSans-74" x="370.507812"/>
      <use xlink:href="#DejaVuSans-65" x="409.716797"/>
      <use xlink:href="#DejaVuSans-5f" x="471.240234"/>
      <use xlink:href="#DejaVuSans-69" x="521.240234"/>
      <use xlink:href="#DejaVuSans-6d" x="549.023438"/>
      <use xlink:href="#DejaVuSans-70" x="646.435547"/>
      <use xlink:href="#DejaVuSans-61" x="709.912109"/>
      <use xlink:href="#DejaVuSans-63" x="771.191406"/>
      <use xlink:href="#DejaVuSans-74" x="826.171875"/>
     </g>
    </g>
   </g>
   <g id="line2d_11">
    <path d="M 62.205284 193.171279 
L 78.187544 193.171279 
L 94.169804 193.171279 
L 110.152064 193.171279 
L 126.134324 193.171279 
L 142.116585 193.171279 
L 158.098845 193.171279 
L 174.081105 193.171279 
L 190.063365 193.171279 
L 206.045625 193.171279 
L 222.027885 193.171279 
L 238.010145 193.171279 
L 253.992405 193.171279 
L 269.974665 193.171279 
L 285.956926 193.171279 
L 301.939186 193.171279 
L 317.921446 193.171279 
L 333.903706 193.171279 
L 349.885966 193.171279 
" clip-path="url(#p9701af89b0)" style="fill: none; stroke: #1f77b4; stroke-width: 1.5; stroke-linecap: square"/>
   </g>
   <g id="line2d_12">
    <path d="M 62.205284 24.765455 
L 78.187544 38.055604 
L 94.169804 76.910333 
L 110.152064 73.7933 
L 126.134324 72.124275 
L 142.116585 83.988118 
L 158.098845 116.6694 
L 174.081105 96.600481 
L 190.063365 121.712309 
L 206.045625 129.10087 
L 222.027885 129.391819 
L 238.010145 129.449729 
L 253.992405 143.62445 
L 269.974665 140.949281 
L 285.956926 139.46837 
L 301.939186 135.643142 
L 317.921446 131.576681 
L 333.903706 120.396661 
L 349.885966 123.625692 
" clip-path="url(#p9701af89b0)" style="fill: none; stroke-dasharray: 6,2.25; stroke-dashoffset: 0; stroke: #ff7f0e; stroke-width: 1.5"/>
   </g>
   <g id="line2d_13">
    <path d="M 62.205284 264.128403 
L 78.187544 198.943124 
L 94.169804 236.029691 
L 110.152064 235.917593 
L 126.134324 223.485046 
L 142.116585 291.33865 
L 158.098845 282.352128 
L 174.081105 269.591616 
L 190.063365 297.913948 
L 206.045625 253.325569 
L 222.027885 279.267333 
L 238.010145 279.620185 
L 253.992405 267.607854 
L 269.974665 249.127116 
L 285.956926 256.239893 
L 301.939186 280.025658 
L 317.921446 289.329082 
L 333.903706 292.759323 
L 349.885966 274.630373 
" clip-path="url(#p9701af89b0)" style="fill: none; stroke-dasharray: 1.5,1.5; stroke-dashoffset: 0; stroke: #2ca02c; stroke-width: 1.5"/>
   </g>
   <g id="line2d_14">
    <path d="M 62.205284 72.766172 
L 78.187544 62.480406 
L 94.169804 92.146888 
L 110.152064 70.1573 
L 126.134324 88.905251 
L 142.116585 105.266343 
L 158.098845 108.003986 
L 174.081105 86.944411 
L 190.063365 101.591922 
L 206.045625 90.565807 
L 222.027885 122.092316 
L 238.010145 105.55672 
L 253.992405 94.53854 
L 269.974665 89.182692 
L 285.956926 176.699047 
L 301.939186 76.872144 
L 317.921446 84.924539 
L 333.903706 185.709003 
L 349.885966 212.641702 
" clip-path="url(#p9701af89b0)" style="fill: none; stroke-dasharray: 4.5,1.875,2.25,1.875; stroke-dashoffset: 0; stroke: #d62728; stroke-width: 1.5"/>
   </g>
   <g id="line2d_15">
    <path d="M 62.205284 78.826653 
L 78.187544 94.685106 
L 94.169804 127.755645 
L 110.152064 142.796434 
L 126.134324 135.517727 
L 142.116585 138.649778 
L 158.098845 138.070908 
L 174.081105 135.072878 
L 190.063365 154.800119 
L 206.045625 159.299352 
L 222.027885 158.753247 
L 238.010145 151.26737 
L 253.992405 156.374268 
L 269.974665 145.773355 
L 285.956926 150.561454 
L 301.939186 147.455181 
L 317.921446 153.703512 
L 333.903706 157.528988 
L 349.885966 163.063658 
" clip-path="url(#p9701af89b0)" style="fill: none; stroke-dasharray: 7.5,1.5,1.5,1.5; stroke-dashoffset: 0; stroke: #9467bd; stroke-width: 1.5"/>
   </g>
   <g id="line2d_16"/>
   <g id="line2d_17"/>
   <g id="line2d_18"/>
   <g id="line2d_19"/>
   <g id="line2d_20"/>
   <g id="patch_3">
    <path d="M 47.82125 318.04 
L 47.82125 10.8 
" style="fill: none; stroke: #000000; stroke-width: 0.8; stroke-linejoin: miter; stroke-linecap: square"/>
   </g>
   <g id="patch_4">
    <path d="M 364.27 318.04 
L 364.27 10.8 
" style="fill: none; stroke: #000000; stroke-width: 0.8; stroke-linejoin: miter; stroke-linecap: square"/>
   </g>
   <g id="patch_5">
    <path d="M 47.82125 318.04 
L 364.27 318.04 
" style="fill: none; stroke: #000000; stroke-width: 0.8; stroke-linejoin: miter; stroke-linecap: square"/>
   </g>
   <g id="patch_6">
    <path d="M 47.82125 10.8 
L 364.27 10.8 
" style="fill: none; stroke: #000000; stroke-width: 0.8; stroke-linejoin: miter; stroke-linecap: square"/>
   </g>
   <g id="legend_1">
    <g id="patch_7">
     <path d="M 213.51375 106.86875 
L 357.27 106.86875 
Q 359.27 106.86875 359.27 104.86875 
L 359.27 17.8 
Q 359.27 15.8 357.27 15.8 
L 213.51375 15.8 
Q 211.51375 15.8 211.51375 17.8 
L 211.51375 104.86875 
Q 211.51375 106.86875 213.51375 106.86875 
z
" style="fill: #ffffff; opacity: 0.8; stroke: #cccccc; stroke-linejoin: miter"/>
    </g>
    <g id="text_13">
     <!-- model -->
     <g transform="translate(269.822344 27.398438) scale(0.1 -0.1)">
      <defs>
       <path id="DejaVuSans-6f" d="M 1959 3097 
Q 1497 3097 1228 2736 
Q 959 2375 959 1747 
Q 959 1119 1226 758 
Q 1494 397 1959 397 
Q 2419 397 2687 759 
Q 2956 1122 2956 1747 
Q 2956 2369 2687 2733 
Q 2419 3097 1959 3097 
z
M 1959 3584 
Q 2709 3584 3137 3096 
Q 3566 2609 3566 1747 
Q 3566 888 3137 398 
Q 2709 -91 1959 -91 
Q 1206 -91 779 398 
Q 353 888 353 1747 
Q 353 2609 779 3096 
Q 1206 3584 1959 3584 
z
" transform="scale(0.015625)"/>
       <path id="DejaVuSans-6c" d="M 603 4863 
L 1178 4863 
L 1178 0 
L 603 0 
L 603 4863 
z
" transform="scale(0.015625)"/>
      </defs>
      <use xlink:href="#DejaVuSans-6d"/>
      <use xlink:href="#DejaVuSans-6f" x="97.412109"/>
      <use xlink:href="#DejaVuSans-64" x="158.59375"/>
      <use xlink:href="#DejaVuSans-65" x="222.070312"/>
      <use xlink:href="#DejaVuSans-6c" x="283.59375"/>
     </g>
    </g>
    <g id="line2d_21">
     <path d="M 215.51375 38.576563 
L 225.51375 38.576563 
L 235.51375 38.576563 
" style="fill: none; stroke: #1f77b4; stroke-width: 1.5; stroke-linecap: square"/>
    </g>
    <g id="text_14">
     <!-- None -->
     <g transform="translate(243.51375 42.076563) scale(0.1 -0.1)">
      <defs>
       <path id="DejaVuSans-4e" d="M 628 4666 
L 1478 4666 
L 3547 763 
L 3547 4666 
L 4159 4666 
L 4159 0 
L 3309 0 
L 1241 3903 
L 1241 0 
L 628 0 
L 628 4666 
z
" transform="scale(0.015625)"/>
       <path id="DejaVuSans-6e" d="M 3513 2113 
L 3513 0 
L 2938 0 
L 2938 2094 
Q 2938 2591 2744 2837 
Q 2550 3084 2163 3084 
Q 1697 3084 1428 2787 
Q 1159 2491 1159 1978 
L 1159 0 
L 581 0 
L 581 3500 
L 1159 3500 
L 1159 2956 
Q 1366 3272 1645 3428 
Q 1925 3584 2291 3584 
Q 2894 3584 3203 3211 
Q 3513 2838 3513 2113 
z
" transform="scale(0.015625)"/>
      </defs>
      <use xlink:href="#DejaVuSans-4e"/>
      <use xlink:href="#DejaVuSans-6f" x="74.804688"/>
      <use xlink:href="#DejaVuSans-6e" x="135.986328"/>
      <use xlink:href="#DejaVuSans-65" x="199.365234"/>
     </g>
    </g>
    <g id="line2d_22">
     <path d="M 215.51375 53.254688 
L 225.51375 53.254688 
L 235.51375 53.254688 
" style="fill: none; stroke-dasharray: 6,2.25; stroke-dashoffset: 0; stroke: #ff7f0e; stroke-width: 1.5"/>
    </g>
    <g id="text_15">
     <!-- logisticregression -->
     <g transform="translate(243.51375 56.754688) scale(0.1 -0.1)">
      <defs>
       <path id="DejaVuSans-67" d="M 2906 1791 
Q 2906 2416 2648 2759 
Q 2391 3103 1925 3103 
Q 1463 3103 1205 2759 
Q 947 2416 947 1791 
Q 947 1169 1205 825 
Q 1463 481 1925 481 
Q 2391 481 2648 825 
Q 2906 1169 2906 1791 
z
M 3481 434 
Q 3481 -459 3084 -895 
Q 2688 -1331 1869 -1331 
Q 1566 -1331 1297 -1286 
Q 1028 -1241 775 -1147 
L 775 -588 
Q 1028 -725 1275 -790 
Q 1522 -856 1778 -856 
Q 2344 -856 2625 -561 
Q 2906 -266 2906 331 
L 2906 616 
Q 2728 306 2450 153 
Q 2172 0 1784 0 
Q 1141 0 747 490 
Q 353 981 353 1791 
Q 353 2603 747 3093 
Q 1141 3584 1784 3584 
Q 2172 3584 2450 3431 
Q 2728 3278 2906 2969 
L 2906 3500 
L 3481 3500 
L 3481 434 
z
" transform="scale(0.015625)"/>
      </defs>
      <use xlink:href="#DejaVuSans-6c"/>
      <use xlink:href="#DejaVuSans-6f" x="27.783203"/>
      <use xlink:href="#DejaVuSans-67" x="88.964844"/>
      <use xlink:href="#DejaVuSans-69" x="152.441406"/>
      <use xlink:href="#DejaVuSans-73" x="180.224609"/>
      <use xlink:href="#DejaVuSans-74" x="232.324219"/>
      <use xlink:href="#DejaVuSans-69" x="271.533203"/>
      <use xlink:href="#DejaVuSans-63" x="299.316406"/>
      <use xlink:href="#DejaVuSans-72" x="354.296875"/>
      <use xlink:href="#DejaVuSans-65" x="393.160156"/>
      <use xlink:href="#DejaVuSans-67" x="454.683594"/>
      <use xlink:href="#DejaVuSans-72" x="518.160156"/>
      <use xlink:href="#DejaVuSans-65" x="557.023438"/>
      <use xlink:href="#DejaVuSans-73" x="618.546875"/>
      <use xlink:href="#DejaVuSans-73" x="670.646484"/>
      <use xlink:href="#DejaVuSans-69" x="722.746094"/>
      <use xlink:href="#DejaVuSans-6f" x="750.529297"/>
      <use xlink:href="#DejaVuSans-6e" x="811.710938"/>
     </g>
    </g>
    <g id="line2d_23">
     <path d="M 215.51375 67.932813 
L 225.51375 67.932813 
L 235.51375 67.932813 
" style="fill: none; stroke-dasharray: 1.5,1.5; stroke-dashoffset: 0; stroke: #2ca02c; stroke-width: 1.5"/>
    </g>
    <g id="text_16">
     <!-- decisiontreeclassifier -->
     <g transform="translate(243.51375 71.432813) scale(0.1 -0.1)">
      <use xlink:href="#DejaVuSans-64"/>
      <use xlink:href="#DejaVuSans-65" x="63.476562"/>
      <use xlink:href="#DejaVuSans-63" x="125"/>
      <use xlink:href="#DejaVuSans-69" x="179.980469"/>
      <use xlink:href="#DejaVuSans-73" x="207.763672"/>
      <use xlink:href="#DejaVuSans-69" x="259.863281"/>
      <use xlink:href="#DejaVuSans-6f" x="287.646484"/>
      <use xlink:href="#DejaVuSans-6e" x="348.828125"/>
      <use xlink:href="#DejaVuSans-74" x="412.207031"/>
      <use xlink:href="#DejaVuSans-72" x="451.416016"/>
      <use xlink:href="#DejaVuSans-65" x="490.279297"/>
      <use xlink:href="#DejaVuSans-65" x="551.802734"/>
      <use xlink:href="#DejaVuSans-63" x="613.326172"/>
      <use xlink:href="#DejaVuSans-6c" x="668.306641"/>
      <use xlink:href="#DejaVuSans-61" x="696.089844"/>
      <use xlink:href="#DejaVuSans-73" x="757.369141"/>
      <use xlink:href="#DejaVuSans-73" x="809.46875"/>
      <use xlink:href="#DejaVuSans-69" x="861.568359"/>
      <use xlink:href="#DejaVuSans-66" x="889.351562"/>
      <use xlink:href="#DejaVuSans-69" x="924.556641"/>
      <use xlink:href="#DejaVuSans-65" x="952.339844"/>
      <use xlink:href="#DejaVuSans-72" x="1013.863281"/>
     </g>
    </g>
    <g id="line2d_24">
     <path d="M 215.51375 82.610938 
L 225.51375 82.610938 
L 235.51375 82.610938 
" style="fill: none; stroke-dasharray: 4.5,1.875,2.25,1.875; stroke-dashoffset: 0; stroke: #d62728; stroke-width: 1.5"/>
    </g>
    <g id="text_17">
     <!-- adaboostclassifier -->
     <g transform="translate(243.51375 86.110938) scale(0.1 -0.1)">
      <defs>
       <path id="DejaVuSans-62" d="M 3116 1747 
Q 3116 2381 2855 2742 
Q 2594 3103 2138 3103 
Q 1681 3103 1420 2742 
Q 1159 2381 1159 1747 
Q 1159 1113 1420 752 
Q 1681 391 2138 391 
Q 2594 391 2855 752 
Q 3116 1113 3116 1747 
z
M 1159 2969 
Q 1341 3281 1617 3432 
Q 1894 3584 2278 3584 
Q 2916 3584 3314 3078 
Q 3713 2572 3713 1747 
Q 3713 922 3314 415 
Q 2916 -91 2278 -91 
Q 1894 -91 1617 61 
Q 1341 213 1159 525 
L 1159 0 
L 581 0 
L 581 4863 
L 1159 4863 
L 1159 2969 
z
" transform="scale(0.015625)"/>
      </defs>
      <use xlink:href="#DejaVuSans-61"/>
      <use xlink:href="#DejaVuSans-64" x="61.279297"/>
      <use xlink:href="#DejaVuSans-61" x="124.755859"/>
      <use xlink:href="#DejaVuSans-62" x="186.035156"/>
      <use xlink:href="#DejaVuSans-6f" x="249.511719"/>
      <use xlink:href="#DejaVuSans-6f" x="310.693359"/>
      <use xlink:href="#DejaVuSans-73" x="371.875"/>
      <use xlink:href="#DejaVuSans-74" x="423.974609"/>
      <use xlink:href="#DejaVuSans-63" x="463.183594"/>
      <use xlink:href="#DejaVuSans-6c" x="518.164062"/>
      <use xlink:href="#DejaVuSans-61" x="545.947266"/>
      <use xlink:href="#DejaVuSans-73" x="607.226562"/>
      <use xlink:href="#DejaVuSans-73" x="659.326172"/>
      <use xlink:href="#DejaVuSans-69" x="711.425781"/>
      <use xlink:href="#DejaVuSans-66" x="739.208984"/>
      <use xlink:href="#DejaVuSans-69" x="774.414062"/>
      <use xlink:href="#DejaVuSans-65" x="802.197266"/>
      <use xlink:href="#DejaVuSans-72" x="863.720703"/>
     </g>
    </g>
    <g id="line2d_25">
     <path d="M 215.51375 97.289062 
L 225.51375 97.289062 
L 235.51375 97.289062 
" style="fill: none; stroke-dasharray: 7.5,1.5,1.5,1.5; stroke-dashoffset: 0; stroke: #9467bd; stroke-width: 1.5"/>
    </g>
    <g id="text_18">
     <!-- randomforestclassifier -->
     <g transform="translate(243.51375 100.789062) scale(0.1 -0.1)">
      <use xlink:href="#DejaVuSans-72"/>
      <use xlink:href="#DejaVuSans-61" x="41.113281"/>
      <use xlink:href="#DejaVuSans-6e" x="102.392578"/>
      <use xlink:href="#DejaVuSans-64" x="165.771484"/>
      <use xlink:href="#DejaVuSans-6f" x="229.248047"/>
      <use xlink:href="#DejaVuSans-6d" x="290.429688"/>
      <use xlink:href="#DejaVuSans-66" x="387.841797"/>
      <use xlink:href="#DejaVuSans-6f" x="423.046875"/>
      <use xlink:href="#DejaVuSans-72" x="484.228516"/>
      <use xlink:href="#DejaVuSans-65" x="523.091797"/>
      <use xlink:href="#DejaVuSans-73" x="584.615234"/>
      <use xlink:href="#DejaVuSans-74" x="636.714844"/>
      <use xlink:href="#DejaVuSans-63" x="675.923828"/>
      <use xlink:href="#DejaVuSans-6c" x="730.904297"/>
      <use xlink:href="#DejaVuSans-61" x="758.6875"/>
      <use xlink:href="#DejaVuSans-73" x="819.966797"/>
      <use xlink:href="#DejaVuSans-73" x="872.066406"/>
      <use xlink:href="#DejaVuSans-69" x="924.166016"/>
      <use xlink:href="#DejaVuSans-66" x="951.949219"/>
      <use xlink:href="#DejaVuSans-69" x="987.154297"/>
      <use xlink:href="#DejaVuSans-65" x="1014.9375"/>
      <use xlink:href="#DejaVuSans-72" x="1076.460938"/>
     </g>
    </g>
   </g>
  </g>
  <g id="axes_2">
   <g id="patch_8">
    <path d="M 392.75125 318.04 
L 709.2 318.04 
L 709.2 10.8 
L 392.75125 10.8 
z
" style="fill: #ffffff"/>
   </g>
   <g id="PolyCollection_6">
    <defs>
     <path id="mbbc68a967d" d="M 407.135284 -65.991635 
L 407.135284 -65.991635 
L 423.117544 -65.991635 
L 439.099804 -65.991635 
L 455.082064 -65.991635 
L 471.064324 -65.991635 
L 487.046585 -65.991635 
L 503.028845 -65.991635 
L 519.011105 -65.991635 
L 534.993365 -65.991635 
L 550.975625 -65.991635 
L 566.957885 -65.991635 
L 582.940145 -65.991635 
L 598.922405 -65.991635 
L 614.904665 -65.991635 
L 630.886926 -65.991635 
L 646.869186 -65.991635 
L 662.851446 -65.991635 
L 678.833706 -65.991635 
L 694.815966 -65.991635 
L 694.815966 -65.991635 
L 694.815966 -65.991635 
L 678.833706 -65.991635 
L 662.851446 -65.991635 
L 646.869186 -65.991635 
L 630.886926 -65.991635 
L 614.904665 -65.991635 
L 598.922405 -65.991635 
L 582.940145 -65.991635 
L 566.957885 -65.991635 
L 550.975625 -65.991635 
L 534.993365 -65.991635 
L 519.011105 -65.991635 
L 503.028845 -65.991635 
L 487.046585 -65.991635 
L 471.064324 -65.991635 
L 455.082064 -65.991635 
L 439.099804 -65.991635 
L 423.117544 -65.991635 
L 407.135284 -65.991635 
z
" style="stroke: #1f77b4; stroke-opacity: 0.2"/>
    </defs>
    <g clip-path="url(#pae8443d794)">
     <use xlink:href="#mbbc68a967d" x="0" y="360" style="fill: #1f77b4; fill-opacity: 0.2; stroke: #1f77b4; stroke-opacity: 0.2"/>
    </g>
   </g>
   <g id="PolyCollection_7">
    <defs>
     <path id="m8d9f692111" d="M 407.135284 -70.222272 
L 407.135284 -70.222272 
L 423.117544 -69.162123 
L 439.099804 -66.63692 
L 455.082064 -66.418235 
L 471.064324 -66.418119 
L 487.046585 -65.420236 
L 503.028845 -63.393859 
L 519.011105 -64.547234 
L 534.993365 -63.019682 
L 550.975625 -63.051452 
L 566.957885 -63.020261 
L 582.940145 -63.176332 
L 598.922405 -62.147374 
L 614.904665 -62.428093 
L 630.886926 -62.427978 
L 646.869186 -62.833462 
L 662.851446 -63.270137 
L 678.833706 -63.831113 
L 694.815966 -63.644082 
L 694.815966 -63.644082 
L 694.815966 -63.644082 
L 678.833706 -63.831113 
L 662.851446 -63.270137 
L 646.869186 -62.833462 
L 630.886926 -62.427978 
L 614.904665 -62.428093 
L 598.922405 -62.147374 
L 582.940145 -63.176332 
L 566.957885 -63.020261 
L 550.975625 -63.051452 
L 534.993365 -63.019682 
L 519.011105 -64.547234 
L 503.028845 -63.393859 
L 487.046585 -65.420236 
L 471.064324 -66.418119 
L 455.082064 -66.418235 
L 439.099804 -66.63692 
L 423.117544 -69.162123 
L 407.135284 -70.222272 
z
" style="stroke: #ff7f0e; stroke-opacity: 0.2"/>
    </defs>
    <g clip-path="url(#pae8443d794)">
     <use xlink:href="#m8d9f692111" x="0" y="360" style="fill: #ff7f0e; fill-opacity: 0.2; stroke: #ff7f0e; stroke-opacity: 0.2"/>
    </g>
   </g>
   <g id="PolyCollection_8">
    <defs>
     <path id="m70e5e90840" d="M 407.135284 -61.326298 
L 407.135284 -60.394331 
L 423.117544 -64.222658 
L 439.099804 -61.796275 
L 455.082064 -61.705818 
L 471.064324 -62.304126 
L 487.046585 -57.259547 
L 503.028845 -57.081597 
L 519.011105 -58.12854 
L 534.993365 -55.925455 
L 550.975625 -59.318397 
L 566.957885 -57.956955 
L 582.940145 -57.411075 
L 598.922405 -58.505591 
L 614.904665 -60.269723 
L 630.886926 -59.70537 
L 646.869186 -57.86771 
L 662.851446 -57.011819 
L 678.833706 -56.717423 
L 694.815966 -57.901946 
L 694.815966 -58.430165 
L 694.815966 -58.430165 
L 678.833706 -57.192767 
L 662.851446 -57.506298 
L 646.869186 -58.430144 
L 630.886926 -60.219187 
L 614.904665 -60.826647 
L 598.922405 -59.008243 
L 582.940145 -58.021824 
L 566.957885 -58.579847 
L 550.975625 -59.7648 
L 534.993365 -56.447385 
L 519.011105 -58.644445 
L 503.028845 -57.700245 
L 487.046585 -57.825829 
L 471.064324 -63.101469 
L 455.082064 -62.331336 
L 439.099804 -62.336357 
L 423.117544 -65.022024 
L 407.135284 -61.326298 
z
" style="stroke: #2ca02c; stroke-opacity: 0.2"/>
    </defs>
    <g clip-path="url(#pae8443d794)">
     <use xlink:href="#m70e5e90840" x="0" y="360" style="fill: #2ca02c; fill-opacity: 0.2; stroke: #2ca02c; stroke-opacity: 0.2"/>
    </g>
   </g>
   <g id="PolyCollection_9">
    <defs>
     <path id="mfc9abb7357" d="M 407.135284 -67.135977 
L 407.135284 -67.135977 
L 423.117544 -66.760758 
L 439.099804 -65.420815 
L 455.082064 -65.450501 
L 471.064324 -64.671535 
L 487.046585 -63.236977 
L 503.028845 -62.768995 
L 519.011105 -64.515348 
L 534.993365 -63.455199 
L 550.975625 -64.671651 
L 566.957885 -61.646348 
L 582.940145 -63.205786 
L 598.922405 -63.860451 
L 614.904665 -65.014868 
L 630.886926 -59.278142 
L 646.869186 -65.07644 
L 662.851446 -64.171899 
L 678.833706 -58.560863 
L 694.815966 -57.220689 
L 694.815966 -57.220689 
L 694.815966 -57.220689 
L 678.833706 -58.560863 
L 662.851446 -64.171899 
L 646.869186 -65.07644 
L 630.886926 -59.278142 
L 614.904665 -65.014868 
L 598.922405 -63.860451 
L 582.940145 -63.205786 
L 566.957885 -61.646348 
L 550.975625 -64.671651 
L 534.993365 -63.455199 
L 519.011105 -64.515348 
L 503.028845 -62.768995 
L 487.046585 -63.236977 
L 471.064324 -64.671535 
L 455.082064 -65.450501 
L 439.099804 -65.420815 
L 423.117544 -66.760758 
L 407.135284 -67.135977 
z
" style="stroke: #d62728; stroke-opacity: 0.2"/>
    </defs>
    <g clip-path="url(#pae8443d794)">
     <use xlink:href="#mfc9abb7357" x="0" y="360" style="fill: #d62728; fill-opacity: 0.2; stroke: #d62728; stroke-opacity: 0.2"/>
    </g>
   </g>
   <g id="PolyCollection_10">
    <defs>
     <path id="m1885637dea" d="M 407.135284 -68.922596 
L 407.135284 -68.368149 
L 423.117544 -67.966819 
L 439.099804 -65.812143 
L 455.082064 -64.86002 
L 471.064324 -65.501895 
L 487.046585 -65.008946 
L 503.028845 -65.374763 
L 519.011105 -65.361936 
L 534.993365 -63.786075 
L 550.975625 -63.471162 
L 566.957885 -63.75632 
L 582.940145 -64.30519 
L 598.922405 -63.572085 
L 614.904665 -64.551399 
L 630.886926 -64.18091 
L 646.869186 -64.302956 
L 662.851446 -63.774063 
L 678.833706 -63.416105 
L 694.815966 -63.040732 
L 694.815966 -63.450445 
L 694.815966 -63.450445 
L 678.833706 -63.804002 
L 662.851446 -64.171295 
L 646.869186 -64.697775 
L 630.886926 -64.630491 
L 614.904665 -65.051484 
L 598.922405 -64.023514 
L 582.940145 -64.77422 
L 566.957885 -64.180539 
L 550.975625 -63.908405 
L 534.993365 -64.244512 
L 519.011105 -65.781798 
L 503.028845 -65.829399 
L 487.046585 -65.525315 
L 471.064324 -66.086907 
L 455.082064 -65.29916 
L 439.099804 -66.263608 
L 423.117544 -68.56115 
L 407.135284 -68.922596 
z
" style="stroke: #9467bd; stroke-opacity: 0.2"/>
    </defs>
    <g clip-path="url(#pae8443d794)">
     <use xlink:href="#m1885637dea" x="0" y="360" style="fill: #9467bd; fill-opacity: 0.2; stroke: #9467bd; stroke-opacity: 0.2"/>
    </g>
   </g>
   <g id="matplotlib.axis_3">
    <g id="xtick_6">
     <g id="line2d_26">
      <g>
       <use xlink:href="#m485317c1ba" x="439.099804" y="318.04" style="stroke: #000000; stroke-width: 0.8"/>
      </g>
     </g>
     <g id="text_19">
      <!-- 0.2 -->
      <g transform="translate(431.148242 332.638438) scale(0.1 -0.1)">
       <use xlink:href="#DejaVuSans-30"/>
       <use xlink:href="#DejaVuSans-2e" x="63.623047"/>
       <use xlink:href="#DejaVuSans-32" x="95.410156"/>
      </g>
     </g>
    </g>
    <g id="xtick_7">
     <g id="line2d_27">
      <g>
       <use xlink:href="#m485317c1ba" x="503.028845" y="318.04" style="stroke: #000000; stroke-width: 0.8"/>
      </g>
     </g>
     <g id="text_20">
      <!-- 0.4 -->
      <g transform="translate(495.077282 332.638438) scale(0.1 -0.1)">
       <use xlink:href="#DejaVuSans-30"/>
       <use xlink:href="#DejaVuSans-2e" x="63.623047"/>
       <use xlink:href="#DejaVuSans-34" x="95.410156"/>
      </g>
     </g>
    </g>
    <g id="xtick_8">
     <g id="line2d_28">
      <g>
       <use xlink:href="#m485317c1ba" x="566.957885" y="318.04" style="stroke: #000000; stroke-width: 0.8"/>
      </g>
     </g>
     <g id="text_21">
      <!-- 0.6 -->
      <g transform="translate(559.006323 332.638438) scale(0.1 -0.1)">
       <use xlink:href="#DejaVuSans-30"/>
       <use xlink:href="#DejaVuSans-2e" x="63.623047"/>
       <use xlink:href="#DejaVuSans-36" x="95.410156"/>
      </g>
     </g>
    </g>
    <g id="xtick_9">
     <g id="line2d_29">
      <g>
       <use xlink:href="#m485317c1ba" x="630.886926" y="318.04" style="stroke: #000000; stroke-width: 0.8"/>
      </g>
     </g>
     <g id="text_22">
      <!-- 0.8 -->
      <g transform="translate(622.935363 332.638438) scale(0.1 -0.1)">
       <use xlink:href="#DejaVuSans-30"/>
       <use xlink:href="#DejaVuSans-2e" x="63.623047"/>
       <use xlink:href="#DejaVuSans-38" x="95.410156"/>
      </g>
     </g>
    </g>
    <g id="xtick_10">
     <g id="line2d_30">
      <g>
       <use xlink:href="#m485317c1ba" x="694.815966" y="318.04" style="stroke: #000000; stroke-width: 0.8"/>
      </g>
     </g>
     <g id="text_23">
      <!-- 1.0 -->
      <g transform="translate(686.864403 332.638438) scale(0.1 -0.1)">
       <use xlink:href="#DejaVuSans-31"/>
       <use xlink:href="#DejaVuSans-2e" x="63.623047"/>
       <use xlink:href="#DejaVuSans-30" x="95.410156"/>
      </g>
     </g>
    </g>
    <g id="text_24">
     <!-- frac -->
     <g transform="translate(541.346719 346.316563) scale(0.1 -0.1)">
      <use xlink:href="#DejaVuSans-66"/>
      <use xlink:href="#DejaVuSans-72" x="35.205078"/>
      <use xlink:href="#DejaVuSans-61" x="76.318359"/>
      <use xlink:href="#DejaVuSans-63" x="137.597656"/>
     </g>
    </g>
   </g>
   <g id="matplotlib.axis_4">
    <g id="ytick_6">
     <g id="line2d_31">
      <g>
       <use xlink:href="#m9bd58a0484" x="392.75125" y="266.558674" style="stroke: #000000; stroke-width: 0.8"/>
      </g>
     </g>
    </g>
    <g id="ytick_7">
     <g id="line2d_32">
      <g>
       <use xlink:href="#m9bd58a0484" x="392.75125" y="206.110369" style="stroke: #000000; stroke-width: 0.8"/>
      </g>
     </g>
    </g>
    <g id="ytick_8">
     <g id="line2d_33">
      <g>
       <use xlink:href="#m9bd58a0484" x="392.75125" y="145.662064" style="stroke: #000000; stroke-width: 0.8"/>
      </g>
     </g>
    </g>
    <g id="ytick_9">
     <g id="line2d_34">
      <g>
       <use xlink:href="#m9bd58a0484" x="392.75125" y="85.213759" style="stroke: #000000; stroke-width: 0.8"/>
      </g>
     </g>
    </g>
    <g id="ytick_10">
     <g id="line2d_35">
      <g>
       <use xlink:href="#m9bd58a0484" x="392.75125" y="24.765455" style="stroke: #000000; stroke-width: 0.8"/>
      </g>
     </g>
    </g>
    <g id="text_25">
     <!-- statistical_parity_difference -->
     <g transform="translate(382.893437 233.330938) rotate(-90) scale(0.1 -0.1)">
      <defs>
       <path id="DejaVuSans-79" d="M 2059 -325 
Q 1816 -950 1584 -1140 
Q 1353 -1331 966 -1331 
L 506 -1331 
L 506 -850 
L 844 -850 
Q 1081 -850 1212 -737 
Q 1344 -625 1503 -206 
L 1606 56 
L 191 3500 
L 800 3500 
L 1894 763 
L 2988 3500 
L 3597 3500 
L 2059 -325 
z
" transform="scale(0.015625)"/>
      </defs>
      <use xlink:href="#DejaVuSans-73"/>
      <use xlink:href="#DejaVuSans-74" x="52.099609"/>
      <use xlink:href="#DejaVuSans-61" x="91.308594"/>
      <use xlink:href="#DejaVuSans-74" x="152.587891"/>
      <use xlink:href="#DejaVuSans-69" x="191.796875"/>
      <use xlink:href="#DejaVuSans-73" x="219.580078"/>
      <use xlink:href="#DejaVuSans-74" x="271.679688"/>
      <use xlink:href="#DejaVuSans-69" x="310.888672"/>
      <use xlink:href="#DejaVuSans-63" x="338.671875"/>
      <use xlink:href="#DejaVuSans-61" x="393.652344"/>
      <use xlink:href="#DejaVuSans-6c" x="454.931641"/>
      <use xlink:href="#DejaVuSans-5f" x="482.714844"/>
      <use xlink:href="#DejaVuSans-70" x="532.714844"/>
      <use xlink:href="#DejaVuSans-61" x="596.191406"/>
      <use xlink:href="#DejaVuSans-72" x="657.470703"/>
      <use xlink:href="#DejaVuSans-69" x="698.583984"/>
      <use xlink:href="#DejaVuSans-74" x="726.367188"/>
      <use xlink:href="#DejaVuSans-79" x="765.576172"/>
      <use xlink:href="#DejaVuSans-5f" x="824.755859"/>
      <use xlink:href="#DejaVuSans-64" x="874.755859"/>
      <use xlink:href="#DejaVuSans-69" x="938.232422"/>
      <use xlink:href="#DejaVuSans-66" x="966.015625"/>
      <use xlink:href="#DejaVuSans-66" x="1001.220703"/>
      <use xlink:href="#DejaVuSans-65" x="1036.425781"/>
      <use xlink:href="#DejaVuSans-72" x="1097.949219"/>
      <use xlink:href="#DejaVuSans-65" x="1136.8125"/>
      <use xlink:href="#DejaVuSans-6e" x="1198.335938"/>
      <use xlink:href="#DejaVuSans-63" x="1261.714844"/>
      <use xlink:href="#DejaVuSans-65" x="1316.695312"/>
     </g>
    </g>
   </g>
   <g id="line2d_36">
    <path d="M 407.135284 294.008365 
L 423.117544 294.008365 
L 439.099804 294.008365 
L 455.082064 294.008365 
L 471.064324 294.008365 
L 487.046585 294.008365 
L 503.028845 294.008365 
L 519.011105 294.008365 
L 534.993365 294.008365 
L 550.975625 294.008365 
L 566.957885 294.008365 
L 582.940145 294.008365 
L 598.922405 294.008365 
L 614.904665 294.008365 
L 630.886926 294.008365 
L 646.869186 294.008365 
L 662.851446 294.008365 
L 678.833706 294.008365 
L 694.815966 294.008365 
" clip-path="url(#pae8443d794)" style="fill: none; stroke: #1f77b4; stroke-width: 1.5; stroke-linecap: square"/>
   </g>
   <g id="line2d_37">
    <path d="M 407.135284 289.777728 
L 423.117544 290.837877 
L 439.099804 293.36308 
L 455.082064 293.581765 
L 471.064324 293.581881 
L 487.046585 294.579764 
L 503.028845 296.606141 
L 519.011105 295.452766 
L 534.993365 296.980318 
L 550.975625 296.948548 
L 566.957885 296.979739 
L 582.940145 296.823668 
L 598.922405 297.852626 
L 614.904665 297.571907 
L 630.886926 297.572022 
L 646.869186 297.166538 
L 662.851446 296.729863 
L 678.833706 296.168887 
L 694.815966 296.355918 
" clip-path="url(#pae8443d794)" style="fill: none; stroke-dasharray: 6,2.25; stroke-dashoffset: 0; stroke: #ff7f0e; stroke-width: 1.5"/>
   </g>
   <g id="line2d_38">
    <path d="M 407.135284 299.15366 
L 423.117544 295.367036 
L 439.099804 297.939309 
L 455.082064 297.972422 
L 471.064324 297.292546 
L 487.046585 302.458626 
L 503.028845 302.605308 
L 519.011105 301.627511 
L 534.993365 303.814509 
L 550.975625 300.460282 
L 566.957885 301.743738 
L 582.940145 302.278354 
L 598.922405 301.236145 
L 614.904665 299.456547 
L 630.886926 300.044628 
L 646.869186 301.854196 
L 662.851446 302.746216 
L 678.833706 303.044976 
L 694.815966 301.839879 
" clip-path="url(#pae8443d794)" style="fill: none; stroke-dasharray: 1.5,1.5; stroke-dashoffset: 0; stroke: #2ca02c; stroke-width: 1.5"/>
   </g>
   <g id="line2d_39">
    <path d="M 407.135284 292.864023 
L 423.117544 293.239242 
L 439.099804 294.579185 
L 455.082064 294.549499 
L 471.064324 295.328465 
L 487.046585 296.763023 
L 503.028845 297.231005 
L 519.011105 295.484652 
L 534.993365 296.544801 
L 550.975625 295.328349 
L 566.957885 298.353652 
L 582.940145 296.794214 
L 598.922405 296.139549 
L 614.904665 294.985132 
L 630.886926 300.721858 
L 646.869186 294.92356 
L 662.851446 295.828101 
L 678.833706 301.439137 
L 694.815966 302.779311 
" clip-path="url(#pae8443d794)" style="fill: none; stroke-dasharray: 4.5,1.875,2.25,1.875; stroke-dashoffset: 0; stroke: #d62728; stroke-width: 1.5"/>
   </g>
   <g id="line2d_40">
    <path d="M 407.135284 291.351169 
L 423.117544 291.724468 
L 439.099804 293.9603 
L 455.082064 294.931644 
L 471.064324 294.209351 
L 487.046585 294.734103 
L 503.028845 294.39704 
L 519.011105 294.424764 
L 534.993365 295.983797 
L 550.975625 296.305547 
L 566.957885 296.023406 
L 582.940145 295.459689 
L 598.922405 296.207164 
L 614.904665 295.190469 
L 630.886926 295.600842 
L 646.869186 295.508713 
L 662.851446 296.026346 
L 678.833706 296.395605 
L 694.815966 296.761596 
" clip-path="url(#pae8443d794)" style="fill: none; stroke-dasharray: 7.5,1.5,1.5,1.5; stroke-dashoffset: 0; stroke: #9467bd; stroke-width: 1.5"/>
   </g>
   <g id="line2d_41"/>
   <g id="line2d_42"/>
   <g id="line2d_43"/>
   <g id="line2d_44"/>
   <g id="line2d_45"/>
   <g id="patch_9">
    <path d="M 392.75125 318.04 
L 392.75125 10.8 
" style="fill: none; stroke: #000000; stroke-width: 0.8; stroke-linejoin: miter; stroke-linecap: square"/>
   </g>
   <g id="patch_10">
    <path d="M 709.2 318.04 
L 709.2 10.8 
" style="fill: none; stroke: #000000; stroke-width: 0.8; stroke-linejoin: miter; stroke-linecap: square"/>
   </g>
   <g id="patch_11">
    <path d="M 392.75125 318.04 
L 709.2 318.04 
" style="fill: none; stroke: #000000; stroke-width: 0.8; stroke-linejoin: miter; stroke-linecap: square"/>
   </g>
   <g id="patch_12">
    <path d="M 392.75125 10.8 
L 709.2 10.8 
" style="fill: none; stroke: #000000; stroke-width: 0.8; stroke-linejoin: miter; stroke-linecap: square"/>
   </g>
   <g id="legend_2">
    <g id="patch_13">
     <path d="M 558.44375 106.86875 
L 702.2 106.86875 
Q 704.2 106.86875 704.2 104.86875 
L 704.2 17.8 
Q 704.2 15.8 702.2 15.8 
L 558.44375 15.8 
Q 556.44375 15.8 556.44375 17.8 
L 556.44375 104.86875 
Q 556.44375 106.86875 558.44375 106.86875 
z
" style="fill: #ffffff; opacity: 0.8; stroke: #cccccc; stroke-linejoin: miter"/>
    </g>
    <g id="text_26">
     <!-- model -->
     <g transform="translate(614.752344 27.398438) scale(0.1 -0.1)">
      <use xlink:href="#DejaVuSans-6d"/>
      <use xlink:href="#DejaVuSans-6f" x="97.412109"/>
      <use xlink:href="#DejaVuSans-64" x="158.59375"/>
      <use xlink:href="#DejaVuSans-65" x="222.070312"/>
      <use xlink:href="#DejaVuSans-6c" x="283.59375"/>
     </g>
    </g>
    <g id="line2d_46">
     <path d="M 560.44375 38.576563 
L 570.44375 38.576563 
L 580.44375 38.576563 
" style="fill: none; stroke: #1f77b4; stroke-width: 1.5; stroke-linecap: square"/>
    </g>
    <g id="text_27">
     <!-- None -->
     <g transform="translate(588.44375 42.076563) scale(0.1 -0.1)">
      <use xlink:href="#DejaVuSans-4e"/>
      <use xlink:href="#DejaVuSans-6f" x="74.804688"/>
      <use xlink:href="#DejaVuSans-6e" x="135.986328"/>
      <use xlink:href="#DejaVuSans-65" x="199.365234"/>
     </g>
    </g>
    <g id="line2d_47">
     <path d="M 560.44375 53.254688 
L 570.44375 53.254688 
L 580.44375 53.254688 
" style="fill: none; stroke-dasharray: 6,2.25; stroke-dashoffset: 0; stroke: #ff7f0e; stroke-width: 1.5"/>
    </g>
    <g id="text_28">
     <!-- logisticregression -->
     <g transform="translate(588.44375 56.754688) scale(0.1 -0.1)">
      <use xlink:href="#DejaVuSans-6c"/>
      <use xlink:href="#DejaVuSans-6f" x="27.783203"/>
      <use xlink:href="#DejaVuSans-67" x="88.964844"/>
      <use xlink:href="#DejaVuSans-69" x="152.441406"/>
      <use xlink:href="#DejaVuSans-73" x="180.224609"/>
      <use xlink:href="#DejaVuSans-74" x="232.324219"/>
      <use xlink:href="#DejaVuSans-69" x="271.533203"/>
      <use xlink:href="#DejaVuSans-63" x="299.316406"/>
      <use xlink:href="#DejaVuSans-72" x="354.296875"/>
      <use xlink:href="#DejaVuSans-65" x="393.160156"/>
      <use xlink:href="#DejaVuSans-67" x="454.683594"/>
      <use xlink:href="#DejaVuSans-72" x="518.160156"/>
      <use xlink:href="#DejaVuSans-65" x="557.023438"/>
      <use xlink:href="#DejaVuSans-73" x="618.546875"/>
      <use xlink:href="#DejaVuSans-73" x="670.646484"/>
      <use xlink:href="#DejaVuSans-69" x="722.746094"/>
      <use xlink:href="#DejaVuSans-6f" x="750.529297"/>
      <use xlink:href="#DejaVuSans-6e" x="811.710938"/>
     </g>
    </g>
    <g id="line2d_48">
     <path d="M 560.44375 67.932813 
L 570.44375 67.932813 
L 580.44375 67.932813 
" style="fill: none; stroke-dasharray: 1.5,1.5; stroke-dashoffset: 0; stroke: #2ca02c; stroke-width: 1.5"/>
    </g>
    <g id="text_29">
     <!-- decisiontreeclassifier -->
     <g transform="translate(588.44375 71.432813) scale(0.1 -0.1)">
      <use xlink:href="#DejaVuSans-64"/>
      <use xlink:href="#DejaVuSans-65" x="63.476562"/>
      <use xlink:href="#DejaVuSans-63" x="125"/>
      <use xlink:href="#DejaVuSans-69" x="179.980469"/>
      <use xlink:href="#DejaVuSans-73" x="207.763672"/>
      <use xlink:href="#DejaVuSans-69" x="259.863281"/>
      <use xlink:href="#DejaVuSans-6f" x="287.646484"/>
      <use xlink:href="#DejaVuSans-6e" x="348.828125"/>
      <use xlink:href="#DejaVuSans-74" x="412.207031"/>
      <use xlink:href="#DejaVuSans-72" x="451.416016"/>
      <use xlink:href="#DejaVuSans-65" x="490.279297"/>
      <use xlink:href="#DejaVuSans-65" x="551.802734"/>
      <use xlink:href="#DejaVuSans-63" x="613.326172"/>
      <use xlink:href="#DejaVuSans-6c" x="668.306641"/>
      <use xlink:href="#DejaVuSans-61" x="696.089844"/>
      <use xlink:href="#DejaVuSans-73" x="757.369141"/>
      <use xlink:href="#DejaVuSans-73" x="809.46875"/>
      <use xlink:href="#DejaVuSans-69" x="861.568359"/>
      <use xlink:href="#DejaVuSans-66" x="889.351562"/>
      <use xlink:href="#DejaVuSans-69" x="924.556641"/>
      <use xlink:href="#DejaVuSans-65" x="952.339844"/>
      <use xlink:href="#DejaVuSans-72" x="1013.863281"/>
     </g>
    </g>
    <g id="line2d_49">
     <path d="M 560.44375 82.610938 
L 570.44375 82.610938 
L 580.44375 82.610938 
" style="fill: none; stroke-dasharray: 4.5,1.875,2.25,1.875; stroke-dashoffset: 0; stroke: #d62728; stroke-width: 1.5"/>
    </g>
    <g id="text_30">
     <!-- adaboostclassifier -->
     <g transform="translate(588.44375 86.110938) scale(0.1 -0.1)">
      <use xlink:href="#DejaVuSans-61"/>
      <use xlink:href="#DejaVuSans-64" x="61.279297"/>
      <use xlink:href="#DejaVuSans-61" x="124.755859"/>
      <use xlink:href="#DejaVuSans-62" x="186.035156"/>
      <use xlink:href="#DejaVuSans-6f" x="249.511719"/>
      <use xlink:href="#DejaVuSans-6f" x="310.693359"/>
      <use xlink:href="#DejaVuSans-73" x="371.875"/>
      <use xlink:href="#DejaVuSans-74" x="423.974609"/>
      <use xlink:href="#DejaVuSans-63" x="463.183594"/>
      <use xlink:href="#DejaVuSans-6c" x="518.164062"/>
      <use xlink:href="#DejaVuSans-61" x="545.947266"/>
      <use xlink:href="#DejaVuSans-73" x="607.226562"/>
      <use xlink:href="#DejaVuSans-73" x="659.326172"/>
      <use xlink:href="#DejaVuSans-69" x="711.425781"/>
      <use xlink:href="#DejaVuSans-66" x="739.208984"/>
      <use xlink:href="#DejaVuSans-69" x="774.414062"/>
      <use xlink:href="#DejaVuSans-65" x="802.197266"/>
      <use xlink:href="#DejaVuSans-72" x="863.720703"/>
     </g>
    </g>
    <g id="line2d_50">
     <path d="M 560.44375 97.289062 
L 570.44375 97.289062 
L 580.44375 97.289062 
" style="fill: none; stroke-dasharray: 7.5,1.5,1.5,1.5; stroke-dashoffset: 0; stroke: #9467bd; stroke-width: 1.5"/>
    </g>
    <g id="text_31">
     <!-- randomforestclassifier -->
     <g transform="translate(588.44375 100.789062) scale(0.1 -0.1)">
      <use xlink:href="#DejaVuSans-72"/>
      <use xlink:href="#DejaVuSans-61" x="41.113281"/>
      <use xlink:href="#DejaVuSans-6e" x="102.392578"/>
      <use xlink:href="#DejaVuSans-64" x="165.771484"/>
      <use xlink:href="#DejaVuSans-6f" x="229.248047"/>
      <use xlink:href="#DejaVuSans-6d" x="290.429688"/>
      <use xlink:href="#DejaVuSans-66" x="387.841797"/>
      <use xlink:href="#DejaVuSans-6f" x="423.046875"/>
      <use xlink:href="#DejaVuSans-72" x="484.228516"/>
      <use xlink:href="#DejaVuSans-65" x="523.091797"/>
      <use xlink:href="#DejaVuSans-73" x="584.615234"/>
      <use xlink:href="#DejaVuSans-74" x="636.714844"/>
      <use xlink:href="#DejaVuSans-63" x="675.923828"/>
      <use xlink:href="#DejaVuSans-6c" x="730.904297"/>
      <use xlink:href="#DejaVuSans-61" x="758.6875"/>
      <use xlink:href="#DejaVuSans-73" x="819.966797"/>
      <use xlink:href="#DejaVuSans-73" x="872.066406"/>
      <use xlink:href="#DejaVuSans-69" x="924.166016"/>
      <use xlink:href="#DejaVuSans-66" x="951.949219"/>
      <use xlink:href="#DejaVuSans-69" x="987.154297"/>
      <use xlink:href="#DejaVuSans-65" x="1014.9375"/>
      <use xlink:href="#DejaVuSans-72" x="1076.460938"/>
     </g>
    </g>
   </g>
  </g>
 </g>
 <defs>
  <clipPath id="p9701af89b0">
   <rect x="47.82125" y="10.8" width="316.44875" height="307.24"/>
  </clipPath>
  <clipPath id="pae8443d794">
   <rect x="392.75125" y="10.8" width="316.44875" height="307.24"/>
  </clipPath>
 </defs>
</svg>
