<?xml version="1.0" encoding="utf-8" standalone="no"?>
<!DOCTYPE svg PUBLIC "-//W3C//DTD SVG 1.1//EN"
  "http://www.w3.org/Graphics/SVG/1.1/DTD/svg11.dtd">
<svg xmlns:xlink="http://www.w3.org/1999/xlink" width="720pt" height="360pt" viewBox="0 0 720 360" xmlns="http://www.w3.org/2000/svg" version="1.1">
 <metadata>
  <rdf:RDF xmlns:dc="http://purl.org/dc/elements/1.1/" xmlns:cc="http://creativecommons.org/ns#" xmlns:rdf="http://www.w3.org/1999/02/22-rdf-syntax-ns#">
   <cc:Work>
    <dc:type rdf:resource="http://purl.org/dc/dcmitype/StillImage"/>
    <dc:date>2022-11-03T13:21:34.194974</dc:date>
    <dc:format>image/svg+xml</dc:format>
    <dc:creator>
     <cc:Agent>
      <dc:title>Matplotlib v3.6.0, https://matplotlib.org/</dc:title>
     </cc:Agent>
    </dc:creator>
   </cc:Work>
  </rdf:RDF>
 </metadata>
 <defs>
  <style type="text/css">*{stroke-linejoin: round; stroke-linecap: butt}</style>
 </defs>
 <g id="figure_1">
  <g id="patch_1">
   <path d="M 0 360 
L 720 360 
L 720 0 
L 0 0 
z
" style="fill: #ffffff"/>
  </g>
  <g id="axes_1">
   <g id="patch_2">
    <path d="M 47.82125 317.93875 
L 364.27 317.93875 
L 364.27 10.8 
L 47.82125 10.8 
z
" style="fill: #ffffff"/>
   </g>
   <g id="PolyCollection_1">
    <defs>
     <path id="m10684a0235" d="M 62.205284 -187.184431 
L 62.205284 -187.184431 
L 69.581712 -204.471796 
L 76.95814 -183.448961 
L 84.334567 -186.235215 
L 91.710995 -154.231342 
L 99.087423 -183.510459 
L 106.463851 -119.54522 
L 113.840278 -183.009381 
L 121.216706 -136.145035 
L 128.593134 -153.401376 
L 135.969561 -190.603847 
L 143.345989 -128.681254 
L 150.722417 -154.887096 
L 158.098845 -170.275919 
L 165.475272 -142.165407 
L 172.8517 -177.358165 
L 180.228128 -178.74361 
L 187.604556 -188.346581 
L 194.980983 -181.264303 
L 202.357411 -147.994029 
L 209.733839 -198.196289 
L 217.110267 -181.567666 
L 224.486694 -206.351143 
L 231.863122 -155.635446 
L 239.23955 -175.920314 
L 246.615978 -182.165588 
L 253.992405 -191.62568 
L 261.368833 -149.287684 
L 268.745261 -140.398614 
L 276.121689 -195.242298 
L 283.498116 -204.612774 
L 290.874544 -180.514473 
L 298.250972 -154.254438 
L 305.627399 -131.93583 
L 313.003827 -176.056344 
L 320.380255 -150.46631 
L 327.756683 -205.977545 
L 335.13311 -136.844859 
L 342.509538 -169.076755 
L 349.885966 -194.173642 
L 349.885966 -194.173642 
L 349.885966 -194.173642 
L 342.509538 -169.076755 
L 335.13311 -136.844859 
L 327.756683 -205.977545 
L 320.380255 -150.46631 
L 313.003827 -176.056344 
L 305.627399 -131.93583 
L 298.250972 -154.254438 
L 290.874544 -180.514473 
L 283.498116 -204.612774 
L 276.121689 -195.242298 
L 268.745261 -140.398614 
L 261.368833 -149.287684 
L 253.992405 -191.62568 
L 246.615978 -182.165588 
L 239.23955 -175.920314 
L 231.863122 -155.635446 
L 224.486694 -206.351143 
L 217.110267 -181.567666 
L 209.733839 -198.196289 
L 202.357411 -147.994029 
L 194.980983 -181.264303 
L 187.604556 -188.346581 
L 180.228128 -178.74361 
L 172.8517 -177.358165 
L 165.475272 -142.165407 
L 158.098845 -170.275919 
L 150.722417 -154.887096 
L 143.345989 -128.681254 
L 135.969561 -190.603847 
L 128.593134 -153.401376 
L 121.216706 -136.145035 
L 113.840278 -183.009381 
L 106.463851 -119.54522 
L 99.087423 -183.510459 
L 91.710995 -154.231342 
L 84.334567 -186.235215 
L 76.95814 -183.448961 
L 69.581712 -204.471796 
L 62.205284 -187.184431 
z
" style="stroke: #1f77b4; stroke-opacity: 0.2"/>
    </defs>
    <g clip-path="url(#pf1f5611f4a)">
     <use xlink:href="#m10684a0235" x="0" y="360" style="fill: #1f77b4; fill-opacity: 0.2; stroke: #1f77b4; stroke-opacity: 0.2"/>
    </g>
   </g>
   <g id="PolyCollection_2">
    <defs>
     <path id="m5e844a2c36" d="M 62.205284 -299.223114 
L 62.205284 -299.223114 
L 69.581712 -284.942229 
L 76.95814 -305.565354 
L 84.334567 -301.810371 
L 91.710995 -273.289849 
L 99.087423 -297.520135 
L 106.463851 -276.368974 
L 113.840278 -269.424857 
L 121.216706 -229.944985 
L 128.593134 -283.913402 
L 135.969561 -277.207514 
L 143.345989 -277.282033 
L 150.722417 -305.419967 
L 158.098845 -287.810212 
L 165.475272 -283.65619 
L 172.8517 -265.585271 
L 180.228128 -297.553866 
L 187.604556 -230.291875 
L 194.980983 -277.246235 
L 202.357411 -281.431437 
L 209.733839 -266.082178 
L 217.110267 -254.767682 
L 224.486694 -274.326446 
L 231.863122 -284.288417 
L 239.23955 -263.605132 
L 246.615978 -317.25897 
L 253.992405 -291.88504 
L 261.368833 -285.716619 
L 268.745261 -273.443979 
L 276.121689 -297.210425 
L 283.498116 -289.65224 
L 290.874544 -275.319058 
L 298.250972 -271.670886 
L 305.627399 -254.736317 
L 313.003827 -276.056611 
L 320.380255 -285.626053 
L 327.756683 -315.992402 
L 335.13311 -279.197702 
L 342.509538 -327.088153 
L 349.885966 -305.394679 
L 349.885966 -305.394679 
L 349.885966 -305.394679 
L 342.509538 -327.088153 
L 335.13311 -279.197702 
L 327.756683 -315.992402 
L 320.380255 -285.626053 
L 313.003827 -276.056611 
L 305.627399 -254.736317 
L 298.250972 -271.670886 
L 290.874544 -275.319058 
L 283.498116 -289.65224 
L 276.121689 -297.210425 
L 268.745261 -273.443979 
L 261.368833 -285.716619 
L 253.992405 -291.88504 
L 246.615978 -317.25897 
L 239.23955 -263.605132 
L 231.863122 -284.288417 
L 224.486694 -274.326446 
L 217.110267 -254.767682 
L 209.733839 -266.082178 
L 202.357411 -281.431437 
L 194.980983 -277.246235 
L 187.604556 -230.291875 
L 180.228128 -297.553866 
L 172.8517 -265.585271 
L 165.475272 -283.65619 
L 158.098845 -287.810212 
L 150.722417 -305.419967 
L 143.345989 -277.282033 
L 135.969561 -277.207514 
L 128.593134 -283.913402 
L 121.216706 -229.944985 
L 113.840278 -269.424857 
L 106.463851 -276.368974 
L 99.087423 -297.520135 
L 91.710995 -273.289849 
L 84.334567 -301.810371 
L 76.95814 -305.565354 
L 69.581712 -284.942229 
L 62.205284 -299.223114 
z
" style="stroke: #ff7f0e; stroke-opacity: 0.2"/>
    </defs>
    <g clip-path="url(#pf1f5611f4a)">
     <use xlink:href="#m5e844a2c36" x="0" y="360" style="fill: #ff7f0e; fill-opacity: 0.2; stroke: #ff7f0e; stroke-opacity: 0.2"/>
    </g>
   </g>
   <g id="PolyCollection_3">
    <defs>
     <path id="m273f6f6be1" d="M 62.205284 -152.400116 
L 62.205284 -145.91411 
L 69.581712 -172.914905 
L 76.95814 -196.450606 
L 84.334567 -123.619994 
L 91.710995 -125.890169 
L 99.087423 -172.662149 
L 106.463851 -147.854116 
L 113.840278 -118.521211 
L 121.216706 -139.575698 
L 128.593134 -129.662152 
L 135.969561 -156.957971 
L 143.345989 -186.963213 
L 150.722417 -137.829121 
L 158.098845 -163.150168 
L 165.475272 -143.995686 
L 172.8517 -116.165368 
L 180.228128 -133.133903 
L 187.604556 -114.25435 
L 194.980983 -128.735405 
L 202.357411 -122.208766 
L 209.733839 -158.385104 
L 217.110267 -145.186197 
L 224.486694 -120.726405 
L 231.863122 -160.339581 
L 239.23955 -150.333366 
L 246.615978 -138.287686 
L 253.992405 -136.692525 
L 261.368833 -111.215966 
L 268.745261 -148.476315 
L 276.121689 -161.843085 
L 283.498116 -167.676037 
L 290.874544 -145.368208 
L 298.250972 -144.368459 
L 305.627399 -74.558261 
L 313.003827 -166.025808 
L 320.380255 -131.409105 
L 327.756683 -150.083132 
L 335.13311 -154.620692 
L 342.509538 -186.58459 
L 349.885966 -131.937627 
L 349.885966 -138.050558 
L 349.885966 -138.050558 
L 342.509538 -191.859446 
L 335.13311 -162.063195 
L 327.756683 -155.763133 
L 320.380255 -140.118157 
L 313.003827 -172.760141 
L 305.627399 -82.502494 
L 298.250972 -152.919264 
L 290.874544 -150.848583 
L 283.498116 -173.698854 
L 276.121689 -168.299197 
L 268.745261 -154.356344 
L 261.368833 -118.969394 
L 253.992405 -142.636231 
L 246.615978 -143.84791 
L 239.23955 -155.991473 
L 231.863122 -165.197665 
L 224.486694 -127.093444 
L 217.110267 -150.613513 
L 209.733839 -164.759578 
L 202.357411 -129.166296 
L 194.980983 -136.891553 
L 187.604556 -121.739989 
L 180.228128 -138.393698 
L 172.8517 -123.66151 
L 165.475272 -149.837532 
L 158.098845 -168.639528 
L 150.722417 -143.431674 
L 143.345989 -192.325815 
L 135.969561 -164.383535 
L 128.593134 -135.906242 
L 121.216706 -147.78431 
L 113.840278 -125.372531 
L 106.463851 -153.706957 
L 99.087423 -179.851829 
L 91.710995 -132.100971 
L 84.334567 -130.447615 
L 76.95814 -201.44589 
L 69.581712 -180.712788 
L 62.205284 -152.400116 
z
" style="stroke: #2ca02c; stroke-opacity: 0.2"/>
    </defs>
    <g clip-path="url(#pf1f5611f4a)">
     <use xlink:href="#m273f6f6be1" x="0" y="360" style="fill: #2ca02c; fill-opacity: 0.2; stroke: #2ca02c; stroke-opacity: 0.2"/>
    </g>
   </g>
   <g id="PolyCollection_4">
    <defs>
     <path id="m18cfb0ae98" d="M 62.205284 -304.505988 
L 62.205284 -304.505988 
L 69.581712 -316.277679 
L 76.95814 -311.608987 
L 84.334567 -304.558489 
L 91.710995 -288.780112 
L 99.087423 -306.519734 
L 106.463851 -289.549183 
L 113.840278 -275.766908 
L 121.216706 -241.430385 
L 128.593134 -304.185803 
L 135.969561 -305.797992 
L 143.345989 -282.49445 
L 150.722417 -324.029263 
L 158.098845 -306.236408 
L 165.475272 -307.162684 
L 172.8517 -302.637821 
L 180.228128 -319.359926 
L 187.604556 -260.188664 
L 194.980983 -307.138847 
L 202.357411 -291.341228 
L 209.733839 -295.781338 
L 217.110267 -272.198 
L 224.486694 -293.852655 
L 231.863122 -303.970297 
L 239.23955 -276.776136 
L 246.615978 -309.161661 
L 253.992405 -288.796833 
L 261.368833 -291.429078 
L 268.745261 -289.700316 
L 276.121689 -292.792231 
L 283.498116 -292.741998 
L 290.874544 -300.480968 
L 298.250972 -279.316673 
L 305.627399 -278.215412 
L 313.003827 -279.538499 
L 320.380255 -279.572072 
L 327.756683 -318.291331 
L 335.13311 -297.213853 
L 342.509538 -335.239148 
L 349.885966 -329.671433 
L 349.885966 -329.671433 
L 349.885966 -329.671433 
L 342.509538 -335.239148 
L 335.13311 -297.213853 
L 327.756683 -318.291331 
L 320.380255 -279.572072 
L 313.003827 -279.538499 
L 305.627399 -278.215412 
L 298.250972 -279.316673 
L 290.874544 -300.480968 
L 283.498116 -292.741998 
L 276.121689 -292.792231 
L 268.745261 -289.700316 
L 261.368833 -291.429078 
L 253.992405 -288.796833 
L 246.615978 -309.161661 
L 239.23955 -276.776136 
L 231.863122 -303.970297 
L 224.486694 -293.852655 
L 217.110267 -272.198 
L 209.733839 -295.781338 
L 202.357411 -291.341228 
L 194.980983 -307.138847 
L 187.604556 -260.188664 
L 180.228128 -319.359926 
L 172.8517 -302.637821 
L 165.475272 -307.162684 
L 158.098845 -306.236408 
L 150.722417 -324.029263 
L 143.345989 -282.49445 
L 135.969561 -305.797992 
L 128.593134 -304.185803 
L 121.216706 -241.430385 
L 113.840278 -275.766908 
L 106.463851 -289.549183 
L 99.087423 -306.519734 
L 91.710995 -288.780112 
L 84.334567 -304.558489 
L 76.95814 -311.608987 
L 69.581712 -316.277679 
L 62.205284 -304.505988 
z
" style="stroke: #d62728; stroke-opacity: 0.2"/>
    </defs>
    <g clip-path="url(#pf1f5611f4a)">
     <use xlink:href="#m18cfb0ae98" x="0" y="360" style="fill: #d62728; fill-opacity: 0.2; stroke: #d62728; stroke-opacity: 0.2"/>
    </g>
   </g>
   <g id="PolyCollection_5">
    <defs>
     <path id="m110eab9250" d="M 62.205284 -237.036904 
L 62.205284 -231.464768 
L 69.581712 -241.102528 
L 76.95814 -241.199373 
L 84.334567 -243.434373 
L 91.710995 -189.111225 
L 99.087423 -246.640043 
L 106.463851 -191.982291 
L 113.840278 -216.646621 
L 121.216706 -178.720862 
L 128.593134 -196.903003 
L 135.969561 -224.078593 
L 143.345989 -220.443957 
L 150.722417 -243.485735 
L 158.098845 -232.4691 
L 165.475272 -221.5522 
L 172.8517 -204.280495 
L 180.228128 -220.299574 
L 187.604556 -170.438713 
L 194.980983 -210.438206 
L 202.357411 -211.994562 
L 209.733839 -206.762988 
L 217.110267 -194.071625 
L 224.486694 -227.159068 
L 231.863122 -230.72534 
L 239.23955 -192.844211 
L 246.615978 -225.162593 
L 253.992405 -230.052622 
L 261.368833 -200.642022 
L 268.745261 -205.047735 
L 276.121689 -250.648898 
L 283.498116 -248.788078 
L 290.874544 -225.535303 
L 298.250972 -161.847817 
L 305.627399 -188.949869 
L 313.003827 -214.665893 
L 320.380255 -195.099591 
L 327.756683 -261.912354 
L 335.13311 -241.252946 
L 342.509538 -267.024285 
L 349.885966 -218.846373 
L 349.885966 -226.26107 
L 349.885966 -226.26107 
L 342.509538 -271.998263 
L 335.13311 -246.623237 
L 327.756683 -267.64936 
L 320.380255 -204.107724 
L 313.003827 -222.561163 
L 305.627399 -197.805148 
L 298.250972 -169.252291 
L 290.874544 -232.059037 
L 283.498116 -255.070967 
L 276.121689 -256.04691 
L 268.745261 -211.697371 
L 261.368833 -207.155653 
L 253.992405 -237.591975 
L 246.615978 -234.641016 
L 239.23955 -200.80656 
L 231.863122 -236.466556 
L 224.486694 -234.231523 
L 217.110267 -200.821126 
L 209.733839 -212.397088 
L 202.357411 -218.285446 
L 194.980983 -218.228612 
L 187.604556 -179.111694 
L 180.228128 -226.066387 
L 172.8517 -210.097178 
L 165.475272 -228.79443 
L 158.098845 -239.906564 
L 150.722417 -250.074845 
L 143.345989 -225.394219 
L 135.969561 -231.830845 
L 128.593134 -204.817942 
L 121.216706 -186.490954 
L 113.840278 -224.856767 
L 106.463851 -199.11004 
L 99.087423 -253.499417 
L 91.710995 -196.27853 
L 84.334567 -250.542358 
L 76.95814 -246.798566 
L 69.581712 -247.888745 
L 62.205284 -237.036904 
z
" style="stroke: #9467bd; stroke-opacity: 0.2"/>
    </defs>
    <g clip-path="url(#pf1f5611f4a)">
     <use xlink:href="#m110eab9250" x="0" y="360" style="fill: #9467bd; fill-opacity: 0.2; stroke: #9467bd; stroke-opacity: 0.2"/>
    </g>
   </g>
   <g id="matplotlib.axis_1">
    <g id="xtick_1">
     <g id="line2d_1">
      <defs>
       <path id="m86ae3d93b8" d="M 0 0 
L 0 3.5 
" style="stroke: #000000; stroke-width: 0.8"/>
      </defs>
      <g>
       <use xlink:href="#m86ae3d93b8" x="76.95814" y="317.93875" style="stroke: #000000; stroke-width: 0.8"/>
      </g>
     </g>
     <g id="text_1">
      <!-- 5 -->
      <g transform="translate(73.77689 332.537188) scale(0.1 -0.1)">
       <defs>
        <path id="DejaVuSans-35" d="M 691 4666 
L 3169 4666 
L 3169 4134 
L 1269 4134 
L 1269 2991 
Q 1406 3038 1543 3061 
Q 1681 3084 1819 3084 
Q 2600 3084 3056 2656 
Q 3513 2228 3513 1497 
Q 3513 744 3044 326 
Q 2575 -91 1722 -91 
Q 1428 -91 1123 -41 
Q 819 9 494 109 
L 494 744 
Q 775 591 1075 516 
Q 1375 441 1709 441 
Q 2250 441 2565 725 
Q 2881 1009 2881 1497 
Q 2881 1984 2565 2268 
Q 2250 2553 1709 2553 
Q 1456 2553 1204 2497 
Q 953 2441 691 2322 
L 691 4666 
z
" transform="scale(0.015625)"/>
       </defs>
       <use xlink:href="#DejaVuSans-35"/>
      </g>
     </g>
    </g>
    <g id="xtick_2">
     <g id="line2d_2">
      <g>
       <use xlink:href="#m86ae3d93b8" x="113.840278" y="317.93875" style="stroke: #000000; stroke-width: 0.8"/>
      </g>
     </g>
     <g id="text_2">
      <!-- 10 -->
      <g transform="translate(107.477778 332.537188) scale(0.1 -0.1)">
       <defs>
        <path id="DejaVuSans-31" d="M 794 531 
L 1825 531 
L 1825 4091 
L 703 3866 
L 703 4441 
L 1819 4666 
L 2450 4666 
L 2450 531 
L 3481 531 
L 3481 0 
L 794 0 
L 794 531 
z
" transform="scale(0.015625)"/>
        <path id="DejaVuSans-30" d="M 2034 4250 
Q 1547 4250 1301 3770 
Q 1056 3291 1056 2328 
Q 1056 1369 1301 889 
Q 1547 409 2034 409 
Q 2525 409 2770 889 
Q 3016 1369 3016 2328 
Q 3016 3291 2770 3770 
Q 2525 4250 2034 4250 
z
M 2034 4750 
Q 2819 4750 3233 4129 
Q 3647 3509 3647 2328 
Q 3647 1150 3233 529 
Q 2819 -91 2034 -91 
Q 1250 -91 836 529 
Q 422 1150 422 2328 
Q 422 3509 836 4129 
Q 1250 4750 2034 4750 
z
" transform="scale(0.015625)"/>
       </defs>
       <use xlink:href="#DejaVuSans-31"/>
       <use xlink:href="#DejaVuSans-30" x="63.623047"/>
      </g>
     </g>
    </g>
    <g id="xtick_3">
     <g id="line2d_3">
      <g>
       <use xlink:href="#m86ae3d93b8" x="150.722417" y="317.93875" style="stroke: #000000; stroke-width: 0.8"/>
      </g>
     </g>
     <g id="text_3">
      <!-- 15 -->
      <g transform="translate(144.359917 332.537188) scale(0.1 -0.1)">
       <use xlink:href="#DejaVuSans-31"/>
       <use xlink:href="#DejaVuSans-35" x="63.623047"/>
      </g>
     </g>
    </g>
    <g id="xtick_4">
     <g id="line2d_4">
      <g>
       <use xlink:href="#m86ae3d93b8" x="187.604556" y="317.93875" style="stroke: #000000; stroke-width: 0.8"/>
      </g>
     </g>
     <g id="text_4">
      <!-- 20 -->
      <g transform="translate(181.242056 332.537188) scale(0.1 -0.1)">
       <defs>
        <path id="DejaVuSans-32" d="M 1228 531 
L 3431 531 
L 3431 0 
L 469 0 
L 469 531 
Q 828 903 1448 1529 
Q 2069 2156 2228 2338 
Q 2531 2678 2651 2914 
Q 2772 3150 2772 3378 
Q 2772 3750 2511 3984 
Q 2250 4219 1831 4219 
Q 1534 4219 1204 4116 
Q 875 4013 500 3803 
L 500 4441 
Q 881 4594 1212 4672 
Q 1544 4750 1819 4750 
Q 2544 4750 2975 4387 
Q 3406 4025 3406 3419 
Q 3406 3131 3298 2873 
Q 3191 2616 2906 2266 
Q 2828 2175 2409 1742 
Q 1991 1309 1228 531 
z
" transform="scale(0.015625)"/>
       </defs>
       <use xlink:href="#DejaVuSans-32"/>
       <use xlink:href="#DejaVuSans-30" x="63.623047"/>
      </g>
     </g>
    </g>
    <g id="xtick_5">
     <g id="line2d_5">
      <g>
       <use xlink:href="#m86ae3d93b8" x="224.486694" y="317.93875" style="stroke: #000000; stroke-width: 0.8"/>
      </g>
     </g>
     <g id="text_5">
      <!-- 25 -->
      <g transform="translate(218.124194 332.537188) scale(0.1 -0.1)">
       <use xlink:href="#DejaVuSans-32"/>
       <use xlink:href="#DejaVuSans-35" x="63.623047"/>
      </g>
     </g>
    </g>
    <g id="xtick_6">
     <g id="line2d_6">
      <g>
       <use xlink:href="#m86ae3d93b8" x="261.368833" y="317.93875" style="stroke: #000000; stroke-width: 0.8"/>
      </g>
     </g>
     <g id="text_6">
      <!-- 30 -->
      <g transform="translate(255.006333 332.537188) scale(0.1 -0.1)">
       <defs>
        <path id="DejaVuSans-33" d="M 2597 2516 
Q 3050 2419 3304 2112 
Q 3559 1806 3559 1356 
Q 3559 666 3084 287 
Q 2609 -91 1734 -91 
Q 1441 -91 1130 -33 
Q 819 25 488 141 
L 488 750 
Q 750 597 1062 519 
Q 1375 441 1716 441 
Q 2309 441 2620 675 
Q 2931 909 2931 1356 
Q 2931 1769 2642 2001 
Q 2353 2234 1838 2234 
L 1294 2234 
L 1294 2753 
L 1863 2753 
Q 2328 2753 2575 2939 
Q 2822 3125 2822 3475 
Q 2822 3834 2567 4026 
Q 2313 4219 1838 4219 
Q 1578 4219 1281 4162 
Q 984 4106 628 3988 
L 628 4550 
Q 988 4650 1302 4700 
Q 1616 4750 1894 4750 
Q 2613 4750 3031 4423 
Q 3450 4097 3450 3541 
Q 3450 3153 3228 2886 
Q 3006 2619 2597 2516 
z
" transform="scale(0.015625)"/>
       </defs>
       <use xlink:href="#DejaVuSans-33"/>
       <use xlink:href="#DejaVuSans-30" x="63.623047"/>
      </g>
     </g>
    </g>
    <g id="xtick_7">
     <g id="line2d_7">
      <g>
       <use xlink:href="#m86ae3d93b8" x="298.250972" y="317.93875" style="stroke: #000000; stroke-width: 0.8"/>
      </g>
     </g>
     <g id="text_7">
      <!-- 35 -->
      <g transform="translate(291.888472 332.537188) scale(0.1 -0.1)">
       <use xlink:href="#DejaVuSans-33"/>
       <use xlink:href="#DejaVuSans-35" x="63.623047"/>
      </g>
     </g>
    </g>
    <g id="xtick_8">
     <g id="line2d_8">
      <g>
       <use xlink:href="#m86ae3d93b8" x="335.13311" y="317.93875" style="stroke: #000000; stroke-width: 0.8"/>
      </g>
     </g>
     <g id="text_8">
      <!-- 40 -->
      <g transform="translate(328.77061 332.537188) scale(0.1 -0.1)">
       <defs>
        <path id="DejaVuSans-34" d="M 2419 4116 
L 825 1625 
L 2419 1625 
L 2419 4116 
z
M 2253 4666 
L 3047 4666 
L 3047 1625 
L 3713 1625 
L 3713 1100 
L 3047 1100 
L 3047 0 
L 2419 0 
L 2419 1100 
L 313 1100 
L 313 1709 
L 2253 4666 
z
" transform="scale(0.015625)"/>
       </defs>
       <use xlink:href="#DejaVuSans-34"/>
       <use xlink:href="#DejaVuSans-30" x="63.623047"/>
      </g>
     </g>
    </g>
    <g id="text_9">
     <!-- num_features -->
     <g transform="translate(171.683906 346.215312) scale(0.1 -0.1)">
      <defs>
       <path id="DejaVuSans-6e" d="M 3513 2113 
L 3513 0 
L 2938 0 
L 2938 2094 
Q 2938 2591 2744 2837 
Q 2550 3084 2163 3084 
Q 1697 3084 1428 2787 
Q 1159 2491 1159 1978 
L 1159 0 
L 581 0 
L 581 3500 
L 1159 3500 
L 1159 2956 
Q 1366 3272 1645 3428 
Q 1925 3584 2291 3584 
Q 2894 3584 3203 3211 
Q 3513 2838 3513 2113 
z
" transform="scale(0.015625)"/>
       <path id="DejaVuSans-75" d="M 544 1381 
L 544 3500 
L 1119 3500 
L 1119 1403 
Q 1119 906 1312 657 
Q 1506 409 1894 409 
Q 2359 409 2629 706 
Q 2900 1003 2900 1516 
L 2900 3500 
L 3475 3500 
L 3475 0 
L 2900 0 
L 2900 538 
Q 2691 219 2414 64 
Q 2138 -91 1772 -91 
Q 1169 -91 856 284 
Q 544 659 544 1381 
z
M 1991 3584 
L 1991 3584 
z
" transform="scale(0.015625)"/>
       <path id="DejaVuSans-6d" d="M 3328 2828 
Q 3544 3216 3844 3400 
Q 4144 3584 4550 3584 
Q 5097 3584 5394 3201 
Q 5691 2819 5691 2113 
L 5691 0 
L 5113 0 
L 5113 2094 
Q 5113 2597 4934 2840 
Q 4756 3084 4391 3084 
Q 3944 3084 3684 2787 
Q 3425 2491 3425 1978 
L 3425 0 
L 2847 0 
L 2847 2094 
Q 2847 2600 2669 2842 
Q 2491 3084 2119 3084 
Q 1678 3084 1418 2786 
Q 1159 2488 1159 1978 
L 1159 0 
L 581 0 
L 581 3500 
L 1159 3500 
L 1159 2956 
Q 1356 3278 1631 3431 
Q 1906 3584 2284 3584 
Q 2666 3584 2933 3390 
Q 3200 3197 3328 2828 
z
" transform="scale(0.015625)"/>
       <path id="DejaVuSans-5f" d="M 3263 -1063 
L 3263 -1509 
L -63 -1509 
L -63 -1063 
L 3263 -1063 
z
" transform="scale(0.015625)"/>
       <path id="DejaVuSans-66" d="M 2375 4863 
L 2375 4384 
L 1825 4384 
Q 1516 4384 1395 4259 
Q 1275 4134 1275 3809 
L 1275 3500 
L 2222 3500 
L 2222 3053 
L 1275 3053 
L 1275 0 
L 697 0 
L 697 3053 
L 147 3053 
L 147 3500 
L 697 3500 
L 697 3744 
Q 697 4328 969 4595 
Q 1241 4863 1831 4863 
L 2375 4863 
z
" transform="scale(0.015625)"/>
       <path id="DejaVuSans-65" d="M 3597 1894 
L 3597 1613 
L 953 1613 
Q 991 1019 1311 708 
Q 1631 397 2203 397 
Q 2534 397 2845 478 
Q 3156 559 3463 722 
L 3463 178 
Q 3153 47 2828 -22 
Q 2503 -91 2169 -91 
Q 1331 -91 842 396 
Q 353 884 353 1716 
Q 353 2575 817 3079 
Q 1281 3584 2069 3584 
Q 2775 3584 3186 3129 
Q 3597 2675 3597 1894 
z
M 3022 2063 
Q 3016 2534 2758 2815 
Q 2500 3097 2075 3097 
Q 1594 3097 1305 2825 
Q 1016 2553 972 2059 
L 3022 2063 
z
" transform="scale(0.015625)"/>
       <path id="DejaVuSans-61" d="M 2194 1759 
Q 1497 1759 1228 1600 
Q 959 1441 959 1056 
Q 959 750 1161 570 
Q 1363 391 1709 391 
Q 2188 391 2477 730 
Q 2766 1069 2766 1631 
L 2766 1759 
L 2194 1759 
z
M 3341 1997 
L 3341 0 
L 2766 0 
L 2766 531 
Q 2569 213 2275 61 
Q 1981 -91 1556 -91 
Q 1019 -91 701 211 
Q 384 513 384 1019 
Q 384 1609 779 1909 
Q 1175 2209 1959 2209 
L 2766 2209 
L 2766 2266 
Q 2766 2663 2505 2880 
Q 2244 3097 1772 3097 
Q 1472 3097 1187 3025 
Q 903 2953 641 2809 
L 641 3341 
Q 956 3463 1253 3523 
Q 1550 3584 1831 3584 
Q 2591 3584 2966 3190 
Q 3341 2797 3341 1997 
z
" transform="scale(0.015625)"/>
       <path id="DejaVuSans-74" d="M 1172 4494 
L 1172 3500 
L 2356 3500 
L 2356 3053 
L 1172 3053 
L 1172 1153 
Q 1172 725 1289 603 
Q 1406 481 1766 481 
L 2356 481 
L 2356 0 
L 1766 0 
Q 1100 0 847 248 
Q 594 497 594 1153 
L 594 3053 
L 172 3053 
L 172 3500 
L 594 3500 
L 594 4494 
L 1172 4494 
z
" transform="scale(0.015625)"/>
       <path id="DejaVuSans-72" d="M 2631 2963 
Q 2534 3019 2420 3045 
Q 2306 3072 2169 3072 
Q 1681 3072 1420 2755 
Q 1159 2438 1159 1844 
L 1159 0 
L 581 0 
L 581 3500 
L 1159 3500 
L 1159 2956 
Q 1341 3275 1631 3429 
Q 1922 3584 2338 3584 
Q 2397 3584 2469 3576 
Q 2541 3569 2628 3553 
L 2631 2963 
z
" transform="scale(0.015625)"/>
       <path id="DejaVuSans-73" d="M 2834 3397 
L 2834 2853 
Q 2591 2978 2328 3040 
Q 2066 3103 1784 3103 
Q 1356 3103 1142 2972 
Q 928 2841 928 2578 
Q 928 2378 1081 2264 
Q 1234 2150 1697 2047 
L 1894 2003 
Q 2506 1872 2764 1633 
Q 3022 1394 3022 966 
Q 3022 478 2636 193 
Q 2250 -91 1575 -91 
Q 1294 -91 989 -36 
Q 684 19 347 128 
L 347 722 
Q 666 556 975 473 
Q 1284 391 1588 391 
Q 1994 391 2212 530 
Q 2431 669 2431 922 
Q 2431 1156 2273 1281 
Q 2116 1406 1581 1522 
L 1381 1569 
Q 847 1681 609 1914 
Q 372 2147 372 2553 
Q 372 3047 722 3315 
Q 1072 3584 1716 3584 
Q 2034 3584 2315 3537 
Q 2597 3491 2834 3397 
z
" transform="scale(0.015625)"/>
      </defs>
      <use xlink:href="#DejaVuSans-6e"/>
      <use xlink:href="#DejaVuSans-75" x="63.378906"/>
      <use xlink:href="#DejaVuSans-6d" x="126.757812"/>
      <use xlink:href="#DejaVuSans-5f" x="224.169922"/>
      <use xlink:href="#DejaVuSans-66" x="274.169922"/>
      <use xlink:href="#DejaVuSans-65" x="309.375"/>
      <use xlink:href="#DejaVuSans-61" x="370.898438"/>
      <use xlink:href="#DejaVuSans-74" x="432.177734"/>
      <use xlink:href="#DejaVuSans-75" x="471.386719"/>
      <use xlink:href="#DejaVuSans-72" x="534.765625"/>
      <use xlink:href="#DejaVuSans-65" x="573.628906"/>
      <use xlink:href="#DejaVuSans-73" x="635.152344"/>
     </g>
    </g>
   </g>
   <g id="matplotlib.axis_2">
    <g id="ytick_1">
     <g id="line2d_9">
      <defs>
       <path id="mf647859e70" d="M 0 0 
L -3.5 0 
" style="stroke: #000000; stroke-width: 0.8"/>
      </defs>
      <g>
       <use xlink:href="#mf647859e70" x="47.82125" y="263.012628" style="stroke: #000000; stroke-width: 0.8"/>
      </g>
     </g>
     <g id="text_10">
      <!-- 0.2 -->
      <g transform="translate(24.918125 266.811847) scale(0.1 -0.1)">
       <defs>
        <path id="DejaVuSans-2e" d="M 684 794 
L 1344 794 
L 1344 0 
L 684 0 
L 684 794 
z
" transform="scale(0.015625)"/>
       </defs>
       <use xlink:href="#DejaVuSans-30"/>
       <use xlink:href="#DejaVuSans-2e" x="63.623047"/>
       <use xlink:href="#DejaVuSans-32" x="95.410156"/>
      </g>
     </g>
    </g>
    <g id="ytick_2">
     <g id="line2d_10">
      <g>
       <use xlink:href="#mf647859e70" x="47.82125" y="203.449684" style="stroke: #000000; stroke-width: 0.8"/>
      </g>
     </g>
     <g id="text_11">
      <!-- 0.4 -->
      <g transform="translate(24.918125 207.248903) scale(0.1 -0.1)">
       <use xlink:href="#DejaVuSans-30"/>
       <use xlink:href="#DejaVuSans-2e" x="63.623047"/>
       <use xlink:href="#DejaVuSans-34" x="95.410156"/>
      </g>
     </g>
    </g>
    <g id="ytick_3">
     <g id="line2d_11">
      <g>
       <use xlink:href="#mf647859e70" x="47.82125" y="143.88674" style="stroke: #000000; stroke-width: 0.8"/>
      </g>
     </g>
     <g id="text_12">
      <!-- 0.6 -->
      <g transform="translate(24.918125 147.685959) scale(0.1 -0.1)">
       <defs>
        <path id="DejaVuSans-36" d="M 2113 2584 
Q 1688 2584 1439 2293 
Q 1191 2003 1191 1497 
Q 1191 994 1439 701 
Q 1688 409 2113 409 
Q 2538 409 2786 701 
Q 3034 994 3034 1497 
Q 3034 2003 2786 2293 
Q 2538 2584 2113 2584 
z
M 3366 4563 
L 3366 3988 
Q 3128 4100 2886 4159 
Q 2644 4219 2406 4219 
Q 1781 4219 1451 3797 
Q 1122 3375 1075 2522 
Q 1259 2794 1537 2939 
Q 1816 3084 2150 3084 
Q 2853 3084 3261 2657 
Q 3669 2231 3669 1497 
Q 3669 778 3244 343 
Q 2819 -91 2113 -91 
Q 1303 -91 875 529 
Q 447 1150 447 2328 
Q 447 3434 972 4092 
Q 1497 4750 2381 4750 
Q 2619 4750 2861 4703 
Q 3103 4656 3366 4563 
z
" transform="scale(0.015625)"/>
       </defs>
       <use xlink:href="#DejaVuSans-30"/>
       <use xlink:href="#DejaVuSans-2e" x="63.623047"/>
       <use xlink:href="#DejaVuSans-36" x="95.410156"/>
      </g>
     </g>
    </g>
    <g id="ytick_4">
     <g id="line2d_12">
      <g>
       <use xlink:href="#mf647859e70" x="47.82125" y="84.323796" style="stroke: #000000; stroke-width: 0.8"/>
      </g>
     </g>
     <g id="text_13">
      <!-- 0.8 -->
      <g transform="translate(24.918125 88.123015) scale(0.1 -0.1)">
       <defs>
        <path id="DejaVuSans-38" d="M 2034 2216 
Q 1584 2216 1326 1975 
Q 1069 1734 1069 1313 
Q 1069 891 1326 650 
Q 1584 409 2034 409 
Q 2484 409 2743 651 
Q 3003 894 3003 1313 
Q 3003 1734 2745 1975 
Q 2488 2216 2034 2216 
z
M 1403 2484 
Q 997 2584 770 2862 
Q 544 3141 544 3541 
Q 544 4100 942 4425 
Q 1341 4750 2034 4750 
Q 2731 4750 3128 4425 
Q 3525 4100 3525 3541 
Q 3525 3141 3298 2862 
Q 3072 2584 2669 2484 
Q 3125 2378 3379 2068 
Q 3634 1759 3634 1313 
Q 3634 634 3220 271 
Q 2806 -91 2034 -91 
Q 1263 -91 848 271 
Q 434 634 434 1313 
Q 434 1759 690 2068 
Q 947 2378 1403 2484 
z
M 1172 3481 
Q 1172 3119 1398 2916 
Q 1625 2713 2034 2713 
Q 2441 2713 2670 2916 
Q 2900 3119 2900 3481 
Q 2900 3844 2670 4047 
Q 2441 4250 2034 4250 
Q 1625 4250 1398 4047 
Q 1172 3844 1172 3481 
z
" transform="scale(0.015625)"/>
       </defs>
       <use xlink:href="#DejaVuSans-30"/>
       <use xlink:href="#DejaVuSans-2e" x="63.623047"/>
       <use xlink:href="#DejaVuSans-38" x="95.410156"/>
      </g>
     </g>
    </g>
    <g id="ytick_5">
     <g id="line2d_13">
      <g>
       <use xlink:href="#mf647859e70" x="47.82125" y="24.760852" style="stroke: #000000; stroke-width: 0.8"/>
      </g>
     </g>
     <g id="text_14">
      <!-- 1.0 -->
      <g transform="translate(24.918125 28.560071) scale(0.1 -0.1)">
       <use xlink:href="#DejaVuSans-31"/>
       <use xlink:href="#DejaVuSans-2e" x="63.623047"/>
       <use xlink:href="#DejaVuSans-30" x="95.410156"/>
      </g>
     </g>
    </g>
    <g id="text_15">
     <!-- disparate_impact -->
     <g transform="translate(18.560313 207.638906) rotate(-90) scale(0.1 -0.1)">
      <defs>
       <path id="DejaVuSans-64" d="M 2906 2969 
L 2906 4863 
L 3481 4863 
L 3481 0 
L 2906 0 
L 2906 525 
Q 2725 213 2448 61 
Q 2172 -91 1784 -91 
Q 1150 -91 751 415 
Q 353 922 353 1747 
Q 353 2572 751 3078 
Q 1150 3584 1784 3584 
Q 2172 3584 2448 3432 
Q 2725 3281 2906 2969 
z
M 947 1747 
Q 947 1113 1208 752 
Q 1469 391 1925 391 
Q 2381 391 2643 752 
Q 2906 1113 2906 1747 
Q 2906 2381 2643 2742 
Q 2381 3103 1925 3103 
Q 1469 3103 1208 2742 
Q 947 2381 947 1747 
z
" transform="scale(0.015625)"/>
       <path id="DejaVuSans-69" d="M 603 3500 
L 1178 3500 
L 1178 0 
L 603 0 
L 603 3500 
z
M 603 4863 
L 1178 4863 
L 1178 4134 
L 603 4134 
L 603 4863 
z
" transform="scale(0.015625)"/>
       <path id="DejaVuSans-70" d="M 1159 525 
L 1159 -1331 
L 581 -1331 
L 581 3500 
L 1159 3500 
L 1159 2969 
Q 1341 3281 1617 3432 
Q 1894 3584 2278 3584 
Q 2916 3584 3314 3078 
Q 3713 2572 3713 1747 
Q 3713 922 3314 415 
Q 2916 -91 2278 -91 
Q 1894 -91 1617 61 
Q 1341 213 1159 525 
z
M 3116 1747 
Q 3116 2381 2855 2742 
Q 2594 3103 2138 3103 
Q 1681 3103 1420 2742 
Q 1159 2381 1159 1747 
Q 1159 1113 1420 752 
Q 1681 391 2138 391 
Q 2594 391 2855 752 
Q 3116 1113 3116 1747 
z
" transform="scale(0.015625)"/>
       <path id="DejaVuSans-63" d="M 3122 3366 
L 3122 2828 
Q 2878 2963 2633 3030 
Q 2388 3097 2138 3097 
Q 1578 3097 1268 2742 
Q 959 2388 959 1747 
Q 959 1106 1268 751 
Q 1578 397 2138 397 
Q 2388 397 2633 464 
Q 2878 531 3122 666 
L 3122 134 
Q 2881 22 2623 -34 
Q 2366 -91 2075 -91 
Q 1284 -91 818 406 
Q 353 903 353 1747 
Q 353 2603 823 3093 
Q 1294 3584 2113 3584 
Q 2378 3584 2631 3529 
Q 2884 3475 3122 3366 
z
" transform="scale(0.015625)"/>
      </defs>
      <use xlink:href="#DejaVuSans-64"/>
      <use xlink:href="#DejaVuSans-69" x="63.476562"/>
      <use xlink:href="#DejaVuSans-73" x="91.259766"/>
      <use xlink:href="#DejaVuSans-70" x="143.359375"/>
      <use xlink:href="#DejaVuSans-61" x="206.835938"/>
      <use xlink:href="#DejaVuSans-72" x="268.115234"/>
      <use xlink:href="#DejaVuSans-61" x="309.228516"/>
      <use xlink:href="#DejaVuSans-74" x="370.507812"/>
      <use xlink:href="#DejaVuSans-65" x="409.716797"/>
      <use xlink:href="#DejaVuSans-5f" x="471.240234"/>
      <use xlink:href="#DejaVuSans-69" x="521.240234"/>
      <use xlink:href="#DejaVuSans-6d" x="549.023438"/>
      <use xlink:href="#DejaVuSans-70" x="646.435547"/>
      <use xlink:href="#DejaVuSans-61" x="709.912109"/>
      <use xlink:href="#DejaVuSans-63" x="771.191406"/>
      <use xlink:href="#DejaVuSans-74" x="826.171875"/>
     </g>
    </g>
   </g>
   <g id="line2d_14">
    <path d="M 62.205284 172.815569 
L 69.581712 155.528204 
L 76.95814 176.551039 
L 84.334567 173.764785 
L 91.710995 205.768658 
L 99.087423 176.489541 
L 106.463851 240.45478 
L 113.840278 176.990619 
L 121.216706 223.854965 
L 128.593134 206.598624 
L 135.969561 169.396153 
L 143.345989 231.318746 
L 150.722417 205.112904 
L 158.098845 189.724081 
L 165.475272 217.834593 
L 172.8517 182.641835 
L 180.228128 181.25639 
L 187.604556 171.653419 
L 194.980983 178.735697 
L 202.357411 212.005971 
L 209.733839 161.803711 
L 217.110267 178.432334 
L 224.486694 153.648857 
L 231.863122 204.364554 
L 239.23955 184.079686 
L 246.615978 177.834412 
L 253.992405 168.37432 
L 261.368833 210.712316 
L 268.745261 219.601386 
L 276.121689 164.757702 
L 283.498116 155.387226 
L 290.874544 179.485527 
L 298.250972 205.745562 
L 305.627399 228.06417 
L 313.003827 183.943656 
L 320.380255 209.53369 
L 327.756683 154.022455 
L 335.13311 223.155141 
L 342.509538 190.923245 
L 349.885966 165.826358 
" clip-path="url(#pf1f5611f4a)" style="fill: none; stroke: #1f77b4; stroke-width: 1.5; stroke-linecap: square"/>
   </g>
   <g id="line2d_15">
    <path d="M 62.205284 60.776886 
L 69.581712 75.057771 
L 76.95814 54.434646 
L 84.334567 58.189629 
L 91.710995 86.710151 
L 99.087423 62.479865 
L 106.463851 83.631026 
L 113.840278 90.575143 
L 121.216706 130.055015 
L 128.593134 76.086598 
L 135.969561 82.792486 
L 143.345989 82.717967 
L 150.722417 54.580033 
L 158.098845 72.189788 
L 165.475272 76.34381 
L 172.8517 94.414729 
L 180.228128 62.446134 
L 187.604556 129.708125 
L 194.980983 82.753765 
L 202.357411 78.568563 
L 209.733839 93.917822 
L 217.110267 105.232318 
L 224.486694 85.673554 
L 231.863122 75.711583 
L 239.23955 96.394868 
L 246.615978 42.74103 
L 253.992405 68.11496 
L 261.368833 74.283381 
L 268.745261 86.556021 
L 276.121689 62.789575 
L 283.498116 70.34776 
L 290.874544 84.680942 
L 298.250972 88.329114 
L 305.627399 105.263683 
L 313.003827 83.943389 
L 320.380255 74.373947 
L 327.756683 44.007598 
L 335.13311 80.802298 
L 342.509538 32.911847 
L 349.885966 54.605321 
" clip-path="url(#pf1f5611f4a)" style="fill: none; stroke-dasharray: 6,2.25; stroke-dashoffset: 0; stroke: #ff7f0e; stroke-width: 1.5"/>
   </g>
   <g id="line2d_16">
    <path d="M 62.205284 210.824864 
L 69.581712 183.194122 
L 76.95814 161.079856 
L 84.334567 232.917395 
L 91.710995 230.855554 
L 99.087423 183.828305 
L 106.463851 209.314403 
L 113.840278 237.962953 
L 121.216706 216.516055 
L 128.593134 227.201493 
L 135.969561 199.246841 
L 143.345989 170.326869 
L 150.722417 219.472277 
L 158.098845 194.067095 
L 165.475272 213.223328 
L 172.8517 239.917409 
L 180.228128 224.151144 
L 187.604556 241.933156 
L 194.980983 227.212476 
L 202.357411 234.190312 
L 209.733839 198.4341 
L 217.110267 212.257013 
L 224.486694 236.182197 
L 231.863122 197.249086 
L 239.23955 206.8941 
L 246.615978 218.905823 
L 253.992405 220.387368 
L 261.368833 245.01974 
L 268.745261 208.479193 
L 276.121689 194.893524 
L 283.498116 189.293858 
L 290.874544 211.814796 
L 298.250972 211.244994 
L 305.627399 281.582304 
L 313.003827 190.515999 
L 320.380255 224.196175 
L 327.756683 206.983315 
L 335.13311 201.578346 
L 342.509538 170.848314 
L 349.885966 224.992678 
" clip-path="url(#pf1f5611f4a)" style="fill: none; stroke-dasharray: 1.5,1.5; stroke-dashoffset: 0; stroke: #2ca02c; stroke-width: 1.5"/>
   </g>
   <g id="line2d_17">
    <path d="M 62.205284 55.494012 
L 69.581712 43.722321 
L 76.95814 48.391013 
L 84.334567 55.441511 
L 91.710995 71.219888 
L 99.087423 53.480266 
L 106.463851 70.450817 
L 113.840278 84.233092 
L 121.216706 118.569615 
L 128.593134 55.814197 
L 135.969561 54.202008 
L 143.345989 77.50555 
L 150.722417 35.970737 
L 158.098845 53.763592 
L 165.475272 52.837316 
L 172.8517 57.362179 
L 180.228128 40.640074 
L 187.604556 99.811336 
L 194.980983 52.861153 
L 202.357411 68.658772 
L 209.733839 64.218662 
L 217.110267 87.802 
L 224.486694 66.147345 
L 231.863122 56.029703 
L 239.23955 83.223864 
L 246.615978 50.838339 
L 253.992405 71.203167 
L 261.368833 68.570922 
L 268.745261 70.299684 
L 276.121689 67.207769 
L 283.498116 67.258002 
L 290.874544 59.519032 
L 298.250972 80.683327 
L 305.627399 81.784588 
L 313.003827 80.461501 
L 320.380255 80.427928 
L 327.756683 41.708669 
L 335.13311 62.786147 
L 342.509538 24.760852 
L 349.885966 30.328567 
" clip-path="url(#pf1f5611f4a)" style="fill: none; stroke-dasharray: 4.5,1.875,2.25,1.875; stroke-dashoffset: 0; stroke: #d62728; stroke-width: 1.5"/>
   </g>
   <g id="line2d_18">
    <path d="M 62.205284 125.725741 
L 69.581712 115.429851 
L 76.95814 115.89285 
L 84.334567 113.026614 
L 91.710995 167.347826 
L 99.087423 109.878083 
L 106.463851 164.32326 
L 113.840278 139.371641 
L 121.216706 177.268496 
L 128.593134 159.336554 
L 135.969561 131.973518 
L 143.345989 137.045439 
L 150.722417 113.309392 
L 158.098845 123.927941 
L 165.475272 134.810466 
L 172.8517 152.787857 
L 180.228128 136.719311 
L 187.604556 185.285011 
L 194.980983 145.652209 
L 202.357411 144.809452 
L 209.733839 150.440554 
L 217.110267 162.480436 
L 224.486694 129.130905 
L 231.863122 126.347344 
L 239.23955 163.234533 
L 246.615978 130.371505 
L 253.992405 126.25853 
L 261.368833 156.132971 
L 268.745261 151.585307 
L 276.121689 106.528772 
L 283.498116 108.036682 
L 290.874544 131.228954 
L 298.250972 194.579474 
L 305.627399 166.817884 
L 313.003827 141.237774 
L 320.380255 160.352615 
L 327.756683 95.314351 
L 335.13311 116.038156 
L 342.509538 90.484512 
L 349.885966 137.503357 
" clip-path="url(#pf1f5611f4a)" style="fill: none; stroke-dasharray: 7.5,1.5,1.5,1.5; stroke-dashoffset: 0; stroke: #9467bd; stroke-width: 1.5"/>
   </g>
   <g id="line2d_19"/>
   <g id="line2d_20"/>
   <g id="line2d_21"/>
   <g id="line2d_22"/>
   <g id="line2d_23"/>
   <g id="patch_3">
    <path d="M 47.82125 317.93875 
L 47.82125 10.8 
" style="fill: none; stroke: #000000; stroke-width: 0.8; stroke-linejoin: miter; stroke-linecap: square"/>
   </g>
   <g id="patch_4">
    <path d="M 364.27 317.93875 
L 364.27 10.8 
" style="fill: none; stroke: #000000; stroke-width: 0.8; stroke-linejoin: miter; stroke-linecap: square"/>
   </g>
   <g id="patch_5">
    <path d="M 47.82125 317.93875 
L 364.27 317.93875 
" style="fill: none; stroke: #000000; stroke-width: 0.8; stroke-linejoin: miter; stroke-linecap: square"/>
   </g>
   <g id="patch_6">
    <path d="M 47.82125 10.8 
L 364.27 10.8 
" style="fill: none; stroke: #000000; stroke-width: 0.8; stroke-linejoin: miter; stroke-linecap: square"/>
   </g>
   <g id="legend_1">
    <g id="patch_7">
     <path d="M 213.51375 312.93875 
L 357.27 312.93875 
Q 359.27 312.93875 359.27 310.93875 
L 359.27 223.87 
Q 359.27 221.87 357.27 221.87 
L 213.51375 221.87 
Q 211.51375 221.87 211.51375 223.87 
L 211.51375 310.93875 
Q 211.51375 312.93875 213.51375 312.93875 
z
" style="fill: #ffffff; opacity: 0.8; stroke: #cccccc; stroke-linejoin: miter"/>
    </g>
    <g id="text_16">
     <!-- model -->
     <g transform="translate(269.822344 233.468438) scale(0.1 -0.1)">
      <defs>
       <path id="DejaVuSans-6f" d="M 1959 3097 
Q 1497 3097 1228 2736 
Q 959 2375 959 1747 
Q 959 1119 1226 758 
Q 1494 397 1959 397 
Q 2419 397 2687 759 
Q 2956 1122 2956 1747 
Q 2956 2369 2687 2733 
Q 2419 3097 1959 3097 
z
M 1959 3584 
Q 2709 3584 3137 3096 
Q 3566 2609 3566 1747 
Q 3566 888 3137 398 
Q 2709 -91 1959 -91 
Q 1206 -91 779 398 
Q 353 888 353 1747 
Q 353 2609 779 3096 
Q 1206 3584 1959 3584 
z
" transform="scale(0.015625)"/>
       <path id="DejaVuSans-6c" d="M 603 4863 
L 1178 4863 
L 1178 0 
L 603 0 
L 603 4863 
z
" transform="scale(0.015625)"/>
      </defs>
      <use xlink:href="#DejaVuSans-6d"/>
      <use xlink:href="#DejaVuSans-6f" x="97.412109"/>
      <use xlink:href="#DejaVuSans-64" x="158.59375"/>
      <use xlink:href="#DejaVuSans-65" x="222.070312"/>
      <use xlink:href="#DejaVuSans-6c" x="283.59375"/>
     </g>
    </g>
    <g id="line2d_24">
     <path d="M 215.51375 244.646563 
L 225.51375 244.646563 
L 235.51375 244.646563 
" style="fill: none; stroke: #1f77b4; stroke-width: 1.5; stroke-linecap: square"/>
    </g>
    <g id="text_17">
     <!-- None -->
     <g transform="translate(243.51375 248.146563) scale(0.1 -0.1)">
      <defs>
       <path id="DejaVuSans-4e" d="M 628 4666 
L 1478 4666 
L 3547 763 
L 3547 4666 
L 4159 4666 
L 4159 0 
L 3309 0 
L 1241 3903 
L 1241 0 
L 628 0 
L 628 4666 
z
" transform="scale(0.015625)"/>
      </defs>
      <use xlink:href="#DejaVuSans-4e"/>
      <use xlink:href="#DejaVuSans-6f" x="74.804688"/>
      <use xlink:href="#DejaVuSans-6e" x="135.986328"/>
      <use xlink:href="#DejaVuSans-65" x="199.365234"/>
     </g>
    </g>
    <g id="line2d_25">
     <path d="M 215.51375 259.324687 
L 225.51375 259.324687 
L 235.51375 259.324687 
" style="fill: none; stroke-dasharray: 6,2.25; stroke-dashoffset: 0; stroke: #ff7f0e; stroke-width: 1.5"/>
    </g>
    <g id="text_18">
     <!-- logisticregression -->
     <g transform="translate(243.51375 262.824687) scale(0.1 -0.1)">
      <defs>
       <path id="DejaVuSans-67" d="M 2906 1791 
Q 2906 2416 2648 2759 
Q 2391 3103 1925 3103 
Q 1463 3103 1205 2759 
Q 947 2416 947 1791 
Q 947 1169 1205 825 
Q 1463 481 1925 481 
Q 2391 481 2648 825 
Q 2906 1169 2906 1791 
z
M 3481 434 
Q 3481 -459 3084 -895 
Q 2688 -1331 1869 -1331 
Q 1566 -1331 1297 -1286 
Q 1028 -1241 775 -1147 
L 775 -588 
Q 1028 -725 1275 -790 
Q 1522 -856 1778 -856 
Q 2344 -856 2625 -561 
Q 2906 -266 2906 331 
L 2906 616 
Q 2728 306 2450 153 
Q 2172 0 1784 0 
Q 1141 0 747 490 
Q 353 981 353 1791 
Q 353 2603 747 3093 
Q 1141 3584 1784 3584 
Q 2172 3584 2450 3431 
Q 2728 3278 2906 2969 
L 2906 3500 
L 3481 3500 
L 3481 434 
z
" transform="scale(0.015625)"/>
      </defs>
      <use xlink:href="#DejaVuSans-6c"/>
      <use xlink:href="#DejaVuSans-6f" x="27.783203"/>
      <use xlink:href="#DejaVuSans-67" x="88.964844"/>
      <use xlink:href="#DejaVuSans-69" x="152.441406"/>
      <use xlink:href="#DejaVuSans-73" x="180.224609"/>
      <use xlink:href="#DejaVuSans-74" x="232.324219"/>
      <use xlink:href="#DejaVuSans-69" x="271.533203"/>
      <use xlink:href="#DejaVuSans-63" x="299.316406"/>
      <use xlink:href="#DejaVuSans-72" x="354.296875"/>
      <use xlink:href="#DejaVuSans-65" x="393.160156"/>
      <use xlink:href="#DejaVuSans-67" x="454.683594"/>
      <use xlink:href="#DejaVuSans-72" x="518.160156"/>
      <use xlink:href="#DejaVuSans-65" x="557.023438"/>
      <use xlink:href="#DejaVuSans-73" x="618.546875"/>
      <use xlink:href="#DejaVuSans-73" x="670.646484"/>
      <use xlink:href="#DejaVuSans-69" x="722.746094"/>
      <use xlink:href="#DejaVuSans-6f" x="750.529297"/>
      <use xlink:href="#DejaVuSans-6e" x="811.710938"/>
     </g>
    </g>
    <g id="line2d_26">
     <path d="M 215.51375 274.002813 
L 225.51375 274.002813 
L 235.51375 274.002813 
" style="fill: none; stroke-dasharray: 1.5,1.5; stroke-dashoffset: 0; stroke: #2ca02c; stroke-width: 1.5"/>
    </g>
    <g id="text_19">
     <!-- decisiontreeclassifier -->
     <g transform="translate(243.51375 277.502813) scale(0.1 -0.1)">
      <use xlink:href="#DejaVuSans-64"/>
      <use xlink:href="#DejaVuSans-65" x="63.476562"/>
      <use xlink:href="#DejaVuSans-63" x="125"/>
      <use xlink:href="#DejaVuSans-69" x="179.980469"/>
      <use xlink:href="#DejaVuSans-73" x="207.763672"/>
      <use xlink:href="#DejaVuSans-69" x="259.863281"/>
      <use xlink:href="#DejaVuSans-6f" x="287.646484"/>
      <use xlink:href="#DejaVuSans-6e" x="348.828125"/>
      <use xlink:href="#DejaVuSans-74" x="412.207031"/>
      <use xlink:href="#DejaVuSans-72" x="451.416016"/>
      <use xlink:href="#DejaVuSans-65" x="490.279297"/>
      <use xlink:href="#DejaVuSans-65" x="551.802734"/>
      <use xlink:href="#DejaVuSans-63" x="613.326172"/>
      <use xlink:href="#DejaVuSans-6c" x="668.306641"/>
      <use xlink:href="#DejaVuSans-61" x="696.089844"/>
      <use xlink:href="#DejaVuSans-73" x="757.369141"/>
      <use xlink:href="#DejaVuSans-73" x="809.46875"/>
      <use xlink:href="#DejaVuSans-69" x="861.568359"/>
      <use xlink:href="#DejaVuSans-66" x="889.351562"/>
      <use xlink:href="#DejaVuSans-69" x="924.556641"/>
      <use xlink:href="#DejaVuSans-65" x="952.339844"/>
      <use xlink:href="#DejaVuSans-72" x="1013.863281"/>
     </g>
    </g>
    <g id="line2d_27">
     <path d="M 215.51375 288.680938 
L 225.51375 288.680938 
L 235.51375 288.680938 
" style="fill: none; stroke-dasharray: 4.5,1.875,2.25,1.875; stroke-dashoffset: 0; stroke: #d62728; stroke-width: 1.5"/>
    </g>
    <g id="text_20">
     <!-- adaboostclassifier -->
     <g transform="translate(243.51375 292.180938) scale(0.1 -0.1)">
      <defs>
       <path id="DejaVuSans-62" d="M 3116 1747 
Q 3116 2381 2855 2742 
Q 2594 3103 2138 3103 
Q 1681 3103 1420 2742 
Q 1159 2381 1159 1747 
Q 1159 1113 1420 752 
Q 1681 391 2138 391 
Q 2594 391 2855 752 
Q 3116 1113 3116 1747 
z
M 1159 2969 
Q 1341 3281 1617 3432 
Q 1894 3584 2278 3584 
Q 2916 3584 3314 3078 
Q 3713 2572 3713 1747 
Q 3713 922 3314 415 
Q 2916 -91 2278 -91 
Q 1894 -91 1617 61 
Q 1341 213 1159 525 
L 1159 0 
L 581 0 
L 581 4863 
L 1159 4863 
L 1159 2969 
z
" transform="scale(0.015625)"/>
      </defs>
      <use xlink:href="#DejaVuSans-61"/>
      <use xlink:href="#DejaVuSans-64" x="61.279297"/>
      <use xlink:href="#DejaVuSans-61" x="124.755859"/>
      <use xlink:href="#DejaVuSans-62" x="186.035156"/>
      <use xlink:href="#DejaVuSans-6f" x="249.511719"/>
      <use xlink:href="#DejaVuSans-6f" x="310.693359"/>
      <use xlink:href="#DejaVuSans-73" x="371.875"/>
      <use xlink:href="#DejaVuSans-74" x="423.974609"/>
      <use xlink:href="#DejaVuSans-63" x="463.183594"/>
      <use xlink:href="#DejaVuSans-6c" x="518.164062"/>
      <use xlink:href="#DejaVuSans-61" x="545.947266"/>
      <use xlink:href="#DejaVuSans-73" x="607.226562"/>
      <use xlink:href="#DejaVuSans-73" x="659.326172"/>
      <use xlink:href="#DejaVuSans-69" x="711.425781"/>
      <use xlink:href="#DejaVuSans-66" x="739.208984"/>
      <use xlink:href="#DejaVuSans-69" x="774.414062"/>
      <use xlink:href="#DejaVuSans-65" x="802.197266"/>
      <use xlink:href="#DejaVuSans-72" x="863.720703"/>
     </g>
    </g>
    <g id="line2d_28">
     <path d="M 215.51375 303.359063 
L 225.51375 303.359063 
L 235.51375 303.359063 
" style="fill: none; stroke-dasharray: 7.5,1.5,1.5,1.5; stroke-dashoffset: 0; stroke: #9467bd; stroke-width: 1.5"/>
    </g>
    <g id="text_21">
     <!-- randomforestclassifier -->
     <g transform="translate(243.51375 306.859063) scale(0.1 -0.1)">
      <use xlink:href="#DejaVuSans-72"/>
      <use xlink:href="#DejaVuSans-61" x="41.113281"/>
      <use xlink:href="#DejaVuSans-6e" x="102.392578"/>
      <use xlink:href="#DejaVuSans-64" x="165.771484"/>
      <use xlink:href="#DejaVuSans-6f" x="229.248047"/>
      <use xlink:href="#DejaVuSans-6d" x="290.429688"/>
      <use xlink:href="#DejaVuSans-66" x="387.841797"/>
      <use xlink:href="#DejaVuSans-6f" x="423.046875"/>
      <use xlink:href="#DejaVuSans-72" x="484.228516"/>
      <use xlink:href="#DejaVuSans-65" x="523.091797"/>
      <use xlink:href="#DejaVuSans-73" x="584.615234"/>
      <use xlink:href="#DejaVuSans-74" x="636.714844"/>
      <use xlink:href="#DejaVuSans-63" x="675.923828"/>
      <use xlink:href="#DejaVuSans-6c" x="730.904297"/>
      <use xlink:href="#DejaVuSans-61" x="758.6875"/>
      <use xlink:href="#DejaVuSans-73" x="819.966797"/>
      <use xlink:href="#DejaVuSans-73" x="872.066406"/>
      <use xlink:href="#DejaVuSans-69" x="924.166016"/>
      <use xlink:href="#DejaVuSans-66" x="951.949219"/>
      <use xlink:href="#DejaVuSans-69" x="987.154297"/>
      <use xlink:href="#DejaVuSans-65" x="1014.9375"/>
      <use xlink:href="#DejaVuSans-72" x="1076.460938"/>
     </g>
    </g>
   </g>
  </g>
  <g id="axes_2">
   <g id="patch_8">
    <path d="M 392.75125 317.93875 
L 709.2 317.93875 
L 709.2 10.8 
L 392.75125 10.8 
z
" style="fill: #ffffff"/>
   </g>
   <g id="PolyCollection_6">
    <defs>
     <path id="mfa881336e0" d="M 407.135284 -78.759403 
L 407.135284 -78.759403 
L 414.511712 -82.724579 
L 421.88814 -76.670572 
L 429.264567 -77.564621 
L 436.640995 -73.972754 
L 444.017423 -78.129595 
L 451.393851 -68.07376 
L 458.770278 -78.875201 
L 466.146706 -68.657527 
L 473.523134 -73.500883 
L 480.899561 -76.46459 
L 488.275989 -68.753309 
L 495.652417 -71.600892 
L 503.028845 -75.647152 
L 510.405272 -71.300029 
L 517.7817 -75.955191 
L 525.158128 -74.955941 
L 532.534556 -76.081567 
L 539.910983 -77.170428 
L 547.287411 -73.543045 
L 554.663839 -81.098751 
L 562.040267 -76.709214 
L 569.416694 -79.166239 
L 576.793122 -73.564564 
L 584.16955 -77.638686 
L 591.545978 -77.010316 
L 598.922405 -76.061062 
L 606.298833 -70.514729 
L 613.675261 -71.184423 
L 621.051689 -80.926857 
L 628.428116 -79.946808 
L 635.804544 -79.135122 
L 643.180972 -72.364315 
L 650.557399 -69.599266 
L 657.933827 -76.129346 
L 665.310255 -72.659173 
L 672.686683 -82.622648 
L 680.06311 -69.46754 
L 687.439538 -75.022103 
L 694.815966 -80.78047 
L 694.815966 -80.78047 
L 694.815966 -80.78047 
L 687.439538 -75.022103 
L 680.06311 -69.46754 
L 672.686683 -82.622648 
L 665.310255 -72.659173 
L 657.933827 -76.129346 
L 650.557399 -69.599266 
L 643.180972 -72.364315 
L 635.804544 -79.135122 
L 628.428116 -79.946808 
L 621.051689 -80.926857 
L 613.675261 -71.184423 
L 606.298833 -70.514729 
L 598.922405 -76.061062 
L 591.545978 -77.010316 
L 584.16955 -77.638686 
L 576.793122 -73.564564 
L 569.416694 -79.166239 
L 562.040267 -76.709214 
L 554.663839 -81.098751 
L 547.287411 -73.543045 
L 539.910983 -77.170428 
L 532.534556 -76.081567 
L 525.158128 -74.955941 
L 517.7817 -75.955191 
L 510.405272 -71.300029 
L 503.028845 -75.647152 
L 495.652417 -71.600892 
L 488.275989 -68.753309 
L 480.899561 -76.46459 
L 473.523134 -73.500883 
L 466.146706 -68.657527 
L 458.770278 -78.875201 
L 451.393851 -68.07376 
L 444.017423 -78.129595 
L 436.640995 -73.972754 
L 429.264567 -77.564621 
L 421.88814 -76.670572 
L 414.511712 -82.724579 
L 407.135284 -78.759403 
z
" style="stroke: #1f77b4; stroke-opacity: 0.2"/>
    </defs>
    <g clip-path="url(#p3638e07246)">
     <use xlink:href="#mfa881336e0" x="0" y="360" style="fill: #1f77b4; fill-opacity: 0.2; stroke: #1f77b4; stroke-opacity: 0.2"/>
    </g>
   </g>
   <g id="PolyCollection_7">
    <defs>
     <path id="ma7666b11e0" d="M 407.135284 -70.887747 
L 407.135284 -70.887747 
L 414.511712 -65.563117 
L 421.88814 -76.480737 
L 429.264567 -71.357928 
L 436.640995 -69.737077 
L 444.017423 -71.251806 
L 451.393851 -66.15921 
L 458.770278 -67.998771 
L 466.146706 -60.915503 
L 473.523134 -67.965396 
L 480.899561 -67.01492 
L 488.275989 -70.189906 
L 495.652417 -68.891153 
L 503.028845 -69.447377 
L 510.405272 -68.266122 
L 517.7817 -67.943143 
L 525.158128 -71.873415 
L 532.534556 -60.666111 
L 539.910983 -68.415224 
L 547.287411 -68.597937 
L 554.663839 -68.007383 
L 562.040267 -64.439152 
L 569.416694 -68.109418 
L 576.793122 -67.515178 
L 584.16955 -66.146042 
L 591.545978 -67.874486 
L 598.922405 -71.036734 
L 606.298833 -67.546209 
L 613.675261 -71.500019 
L 621.051689 -69.058408 
L 628.428116 -68.26993 
L 635.804544 -68.729889 
L 643.180972 -66.872088 
L 650.557399 -65.763679 
L 657.933827 -67.211703 
L 665.310255 -69.218484 
L 672.686683 -75.627333 
L 680.06311 -68.78078 
L 687.439538 -72.490214 
L 694.815966 -70.190183 
L 694.815966 -70.190183 
L 694.815966 -70.190183 
L 687.439538 -72.490214 
L 680.06311 -68.78078 
L 672.686683 -75.627333 
L 665.310255 -69.218484 
L 657.933827 -67.211703 
L 650.557399 -65.763679 
L 643.180972 -66.872088 
L 635.804544 -68.729889 
L 628.428116 -68.26993 
L 621.051689 -69.058408 
L 613.675261 -71.500019 
L 606.298833 -67.546209 
L 598.922405 -71.036734 
L 591.545978 -67.874486 
L 584.16955 -66.146042 
L 576.793122 -67.515178 
L 569.416694 -68.109418 
L 562.040267 -64.439152 
L 554.663839 -68.007383 
L 547.287411 -68.597937 
L 539.910983 -68.415224 
L 532.534556 -60.666111 
L 525.158128 -71.873415 
L 517.7817 -67.943143 
L 510.405272 -68.266122 
L 503.028845 -69.447377 
L 495.652417 -68.891153 
L 488.275989 -70.189906 
L 480.899561 -67.01492 
L 473.523134 -67.965396 
L 466.146706 -60.915503 
L 458.770278 -67.998771 
L 451.393851 -66.15921 
L 444.017423 -71.251806 
L 436.640995 -69.737077 
L 429.264567 -71.357928 
L 421.88814 -76.480737 
L 414.511712 -65.563117 
L 407.135284 -70.887747 
z
" style="stroke: #ff7f0e; stroke-opacity: 0.2"/>
    </defs>
    <g clip-path="url(#p3638e07246)">
     <use xlink:href="#ma7666b11e0" x="0" y="360" style="fill: #ff7f0e; fill-opacity: 0.2; stroke: #ff7f0e; stroke-opacity: 0.2"/>
    </g>
   </g>
   <g id="PolyCollection_8">
    <defs>
     <path id="m54dc43719b" d="M 407.135284 -72.030189 
L 407.135284 -70.835527 
L 414.511712 -75.325836 
L 421.88814 -82.940148 
L 429.264567 -70.484772 
L 436.640995 -72.759046 
L 444.017423 -74.401167 
L 451.393851 -74.444497 
L 458.770278 -69.823928 
L 466.146706 -71.724392 
L 473.523134 -69.338289 
L 480.899561 -72.104461 
L 488.275989 -83.029175 
L 495.652417 -69.288193 
L 503.028845 -73.949373 
L 510.405272 -72.008546 
L 517.7817 -66.770366 
L 525.158128 -70.4721 
L 532.534556 -65.358661 
L 539.910983 -68.767212 
L 547.287411 -71.495713 
L 554.663839 -76.737213 
L 562.040267 -74.585865 
L 569.416694 -67.897297 
L 576.793122 -78.926239 
L 584.16955 -72.981744 
L 591.545978 -67.56651 
L 598.922405 -70.151223 
L 606.298833 -66.443746 
L 613.675261 -73.905361 
L 621.051689 -77.187907 
L 628.428116 -73.225991 
L 635.804544 -72.30788 
L 643.180972 -72.146694 
L 650.557399 -61.121826 
L 657.933827 -74.488274 
L 665.310255 -69.26023 
L 672.686683 -72.396818 
L 680.06311 -74.577052 
L 687.439538 -77.029124 
L 694.815966 -67.766224 
L 694.815966 -68.638048 
L 694.815966 -68.638048 
L 687.439538 -78.036486 
L 680.06311 -75.809139 
L 672.686683 -73.399296 
L 665.310255 -70.607034 
L 657.933827 -75.663628 
L 650.557399 -62.353126 
L 643.180972 -73.491144 
L 635.804544 -73.274394 
L 628.428116 -74.166938 
L 621.051689 -78.347573 
L 613.675261 -75.069047 
L 606.298833 -67.708665 
L 598.922405 -71.247688 
L 591.545978 -68.384892 
L 584.16955 -74.109644 
L 576.793122 -79.893263 
L 569.416694 -68.966411 
L 562.040267 -75.550895 
L 554.663839 -77.807718 
L 547.287411 -72.755089 
L 539.910983 -70.072075 
L 532.534556 -66.563327 
L 525.158128 -71.372122 
L 517.7817 -67.982074 
L 510.405272 -73.0648 
L 503.028845 -75.009354 
L 495.652417 -70.109235 
L 488.275989 -84.093749 
L 480.899561 -73.285224 
L 473.523134 -70.357178 
L 466.146706 -72.903139 
L 458.770278 -71.060483 
L 451.393851 -75.518161 
L 444.017423 -75.572551 
L 436.640995 -73.832597 
L 429.264567 -71.725464 
L 421.88814 -84.260631 
L 414.511712 -76.517814 
L 407.135284 -72.030189 
z
" style="stroke: #2ca02c; stroke-opacity: 0.2"/>
    </defs>
    <g clip-path="url(#p3638e07246)">
     <use xlink:href="#m54dc43719b" x="0" y="360" style="fill: #2ca02c; fill-opacity: 0.2; stroke: #2ca02c; stroke-opacity: 0.2"/>
    </g>
   </g>
   <g id="PolyCollection_9">
    <defs>
     <path id="ma9f60a8537" d="M 407.135284 -72.372867 
L 407.135284 -72.372867 
L 414.511712 -70.304641 
L 421.88814 -78.280133 
L 429.264567 -72.156154 
L 436.640995 -70.162857 
L 444.017423 -73.527453 
L 451.393851 -69.403962 
L 458.770278 -69.219198 
L 466.146706 -62.486617 
L 473.523134 -72.200809 
L 480.899561 -70.528733 
L 488.275989 -70.337766 
L 495.652417 -72.240888 
L 503.028845 -73.223698 
L 510.405272 -71.68457 
L 517.7817 -71.670711 
L 525.158128 -76.105209 
L 532.534556 -63.314639 
L 539.910983 -72.260153 
L 547.287411 -70.97909 
L 554.663839 -73.168259 
L 562.040267 -68.468836 
L 569.416694 -70.151563 
L 576.793122 -70.252172 
L 584.16955 -67.801979 
L 591.545978 -66.503445 
L 598.922405 -70.139467 
L 606.298833 -66.471694 
L 613.675261 -74.028878 
L 621.051689 -70.570724 
L 628.428116 -69.782706 
L 635.804544 -73.064091 
L 643.180972 -68.071303 
L 650.557399 -70.825345 
L 657.933827 -68.23051 
L 665.310255 -70.55384 
L 672.686683 -76.273821 
L 680.06311 -73.783304 
L 687.439538 -76.358963 
L 694.815966 -74.971853 
L 694.815966 -74.971853 
L 694.815966 -74.971853 
L 687.439538 -76.358963 
L 680.06311 -73.783304 
L 672.686683 -76.273821 
L 665.310255 -70.55384 
L 657.933827 -68.23051 
L 650.557399 -70.825345 
L 643.180972 -68.071303 
L 635.804544 -73.064091 
L 628.428116 -69.782706 
L 621.051689 -70.570724 
L 613.675261 -74.028878 
L 606.298833 -66.471694 
L 598.922405 -70.139467 
L 591.545978 -66.503445 
L 584.16955 -67.801979 
L 576.793122 -70.252172 
L 569.416694 -70.151563 
L 562.040267 -68.468836 
L 554.663839 -73.168259 
L 547.287411 -70.97909 
L 539.910983 -72.260153 
L 532.534556 -63.314639 
L 525.158128 -76.105209 
L 517.7817 -71.670711 
L 510.405272 -71.68457 
L 503.028845 -73.223698 
L 495.652417 -72.240888 
L 488.275989 -70.337766 
L 480.899561 -70.528733 
L 473.523134 -72.200809 
L 466.146706 -62.486617 
L 458.770278 -69.219198 
L 451.393851 -69.403962 
L 444.017423 -73.527453 
L 436.640995 -70.162857 
L 429.264567 -72.156154 
L 421.88814 -78.280133 
L 414.511712 -70.304641 
L 407.135284 -72.372867 
z
" style="stroke: #d62728; stroke-opacity: 0.2"/>
    </defs>
    <g clip-path="url(#p3638e07246)">
     <use xlink:href="#ma9f60a8537" x="0" y="360" style="fill: #d62728; fill-opacity: 0.2; stroke: #d62728; stroke-opacity: 0.2"/>
    </g>
   </g>
   <g id="PolyCollection_10">
    <defs>
     <path id="mc0590773ac" d="M 407.135284 -63.398248 
L 407.135284 -62.763708 
L 414.511712 -62.536213 
L 421.88814 -67.005968 
L 429.264567 -64.502261 
L 436.640995 -61.080851 
L 444.017423 -65.881974 
L 451.393851 -57.52194 
L 458.770278 -61.851534 
L 466.146706 -56.48067 
L 473.523134 -58.180253 
L 480.899561 -60.65447 
L 488.275989 -64.480484 
L 495.652417 -60.905847 
L 503.028845 -61.850469 
L 510.405272 -61.658235 
L 517.7817 -60.577539 
L 525.158128 -61.328654 
L 532.534556 -56.379786 
L 539.910983 -60.026906 
L 547.287411 -61.379035 
L 554.663839 -62.103054 
L 562.040267 -59.461929 
L 569.416694 -62.183419 
L 576.793122 -62.621687 
L 584.16955 -59.541238 
L 591.545978 -58.90005 
L 598.922405 -62.659044 
L 606.298833 -58.320313 
L 613.675261 -62.726325 
L 621.051689 -64.881595 
L 628.428116 -64.53928 
L 635.804544 -62.04621 
L 643.180972 -56.022102 
L 650.557399 -57.853338 
L 657.933827 -60.042082 
L 665.310255 -57.392849 
L 672.686683 -67.313939 
L 680.06311 -63.91554 
L 687.439538 -64.070763 
L 694.815966 -58.964099 
L 694.815966 -59.669911 
L 694.815966 -59.669911 
L 687.439538 -64.798721 
L 680.06311 -64.705889 
L 672.686683 -68.108364 
L 665.310255 -58.234471 
L 657.933827 -60.732098 
L 650.557399 -58.679937 
L 643.180972 -56.644207 
L 635.804544 -62.947073 
L 628.428116 -65.246713 
L 621.051689 -65.557633 
L 613.675261 -63.538041 
L 606.298833 -59.058202 
L 598.922405 -63.539544 
L 591.545978 -59.758131 
L 584.16955 -60.434013 
L 576.793122 -63.332547 
L 569.416694 -62.963115 
L 562.040267 -60.212572 
L 554.663839 -62.789524 
L 547.287411 -61.989214 
L 539.910983 -60.956892 
L 532.534556 -57.157581 
L 525.158128 -62.080758 
L 517.7817 -61.220939 
L 510.405272 -62.501128 
L 503.028845 -62.75058 
L 495.652417 -61.522039 
L 488.275989 -65.061987 
L 480.899561 -61.56426 
L 473.523134 -58.982905 
L 466.146706 -57.227023 
L 458.770278 -62.765512 
L 451.393851 -58.194231 
L 444.017423 -66.763855 
L 436.640995 -61.813282 
L 429.264567 -65.396376 
L 421.88814 -67.805405 
L 414.511712 -63.278066 
L 407.135284 -63.398248 
z
" style="stroke: #9467bd; stroke-opacity: 0.2"/>
    </defs>
    <g clip-path="url(#p3638e07246)">
     <use xlink:href="#mc0590773ac" x="0" y="360" style="fill: #9467bd; fill-opacity: 0.2; stroke: #9467bd; stroke-opacity: 0.2"/>
    </g>
   </g>
   <g id="matplotlib.axis_3">
    <g id="xtick_9">
     <g id="line2d_29">
      <g>
       <use xlink:href="#m86ae3d93b8" x="421.88814" y="317.93875" style="stroke: #000000; stroke-width: 0.8"/>
      </g>
     </g>
     <g id="text_22">
      <!-- 5 -->
      <g transform="translate(418.70689 332.537188) scale(0.1 -0.1)">
       <use xlink:href="#DejaVuSans-35"/>
      </g>
     </g>
    </g>
    <g id="xtick_10">
     <g id="line2d_30">
      <g>
       <use xlink:href="#m86ae3d93b8" x="458.770278" y="317.93875" style="stroke: #000000; stroke-width: 0.8"/>
      </g>
     </g>
     <g id="text_23">
      <!-- 10 -->
      <g transform="translate(452.407778 332.537188) scale(0.1 -0.1)">
       <use xlink:href="#DejaVuSans-31"/>
       <use xlink:href="#DejaVuSans-30" x="63.623047"/>
      </g>
     </g>
    </g>
    <g id="xtick_11">
     <g id="line2d_31">
      <g>
       <use xlink:href="#m86ae3d93b8" x="495.652417" y="317.93875" style="stroke: #000000; stroke-width: 0.8"/>
      </g>
     </g>
     <g id="text_24">
      <!-- 15 -->
      <g transform="translate(489.289917 332.537188) scale(0.1 -0.1)">
       <use xlink:href="#DejaVuSans-31"/>
       <use xlink:href="#DejaVuSans-35" x="63.623047"/>
      </g>
     </g>
    </g>
    <g id="xtick_12">
     <g id="line2d_32">
      <g>
       <use xlink:href="#m86ae3d93b8" x="532.534556" y="317.93875" style="stroke: #000000; stroke-width: 0.8"/>
      </g>
     </g>
     <g id="text_25">
      <!-- 20 -->
      <g transform="translate(526.172056 332.537188) scale(0.1 -0.1)">
       <use xlink:href="#DejaVuSans-32"/>
       <use xlink:href="#DejaVuSans-30" x="63.623047"/>
      </g>
     </g>
    </g>
    <g id="xtick_13">
     <g id="line2d_33">
      <g>
       <use xlink:href="#m86ae3d93b8" x="569.416694" y="317.93875" style="stroke: #000000; stroke-width: 0.8"/>
      </g>
     </g>
     <g id="text_26">
      <!-- 25 -->
      <g transform="translate(563.054194 332.537188) scale(0.1 -0.1)">
       <use xlink:href="#DejaVuSans-32"/>
       <use xlink:href="#DejaVuSans-35" x="63.623047"/>
      </g>
     </g>
    </g>
    <g id="xtick_14">
     <g id="line2d_34">
      <g>
       <use xlink:href="#m86ae3d93b8" x="606.298833" y="317.93875" style="stroke: #000000; stroke-width: 0.8"/>
      </g>
     </g>
     <g id="text_27">
      <!-- 30 -->
      <g transform="translate(599.936333 332.537188) scale(0.1 -0.1)">
       <use xlink:href="#DejaVuSans-33"/>
       <use xlink:href="#DejaVuSans-30" x="63.623047"/>
      </g>
     </g>
    </g>
    <g id="xtick_15">
     <g id="line2d_35">
      <g>
       <use xlink:href="#m86ae3d93b8" x="643.180972" y="317.93875" style="stroke: #000000; stroke-width: 0.8"/>
      </g>
     </g>
     <g id="text_28">
      <!-- 35 -->
      <g transform="translate(636.818472 332.537188) scale(0.1 -0.1)">
       <use xlink:href="#DejaVuSans-33"/>
       <use xlink:href="#DejaVuSans-35" x="63.623047"/>
      </g>
     </g>
    </g>
    <g id="xtick_16">
     <g id="line2d_36">
      <g>
       <use xlink:href="#m86ae3d93b8" x="680.06311" y="317.93875" style="stroke: #000000; stroke-width: 0.8"/>
      </g>
     </g>
     <g id="text_29">
      <!-- 40 -->
      <g transform="translate(673.70061 332.537188) scale(0.1 -0.1)">
       <use xlink:href="#DejaVuSans-34"/>
       <use xlink:href="#DejaVuSans-30" x="63.623047"/>
      </g>
     </g>
    </g>
    <g id="text_30">
     <!-- num_features -->
     <g transform="translate(516.613906 346.215312) scale(0.1 -0.1)">
      <use xlink:href="#DejaVuSans-6e"/>
      <use xlink:href="#DejaVuSans-75" x="63.378906"/>
      <use xlink:href="#DejaVuSans-6d" x="126.757812"/>
      <use xlink:href="#DejaVuSans-5f" x="224.169922"/>
      <use xlink:href="#DejaVuSans-66" x="274.169922"/>
      <use xlink:href="#DejaVuSans-65" x="309.375"/>
      <use xlink:href="#DejaVuSans-61" x="370.898438"/>
      <use xlink:href="#DejaVuSans-74" x="432.177734"/>
      <use xlink:href="#DejaVuSans-75" x="471.386719"/>
      <use xlink:href="#DejaVuSans-72" x="534.765625"/>
      <use xlink:href="#DejaVuSans-65" x="573.628906"/>
      <use xlink:href="#DejaVuSans-73" x="635.152344"/>
     </g>
    </g>
   </g>
   <g id="matplotlib.axis_4">
    <g id="ytick_6">
     <g id="line2d_37">
      <g>
       <use xlink:href="#mf647859e70" x="392.75125" y="263.012628" style="stroke: #000000; stroke-width: 0.8"/>
      </g>
     </g>
    </g>
    <g id="ytick_7">
     <g id="line2d_38">
      <g>
       <use xlink:href="#mf647859e70" x="392.75125" y="203.449684" style="stroke: #000000; stroke-width: 0.8"/>
      </g>
     </g>
    </g>
    <g id="ytick_8">
     <g id="line2d_39">
      <g>
       <use xlink:href="#mf647859e70" x="392.75125" y="143.88674" style="stroke: #000000; stroke-width: 0.8"/>
      </g>
     </g>
    </g>
    <g id="ytick_9">
     <g id="line2d_40">
      <g>
       <use xlink:href="#mf647859e70" x="392.75125" y="84.323796" style="stroke: #000000; stroke-width: 0.8"/>
      </g>
     </g>
    </g>
    <g id="ytick_10">
     <g id="line2d_41">
      <g>
       <use xlink:href="#mf647859e70" x="392.75125" y="24.760852" style="stroke: #000000; stroke-width: 0.8"/>
      </g>
     </g>
    </g>
    <g id="text_31">
     <!-- statistical_parity_difference -->
     <g transform="translate(382.893437 233.280312) rotate(-90) scale(0.1 -0.1)">
      <defs>
       <path id="DejaVuSans-79" d="M 2059 -325 
Q 1816 -950 1584 -1140 
Q 1353 -1331 966 -1331 
L 506 -1331 
L 506 -850 
L 844 -850 
Q 1081 -850 1212 -737 
Q 1344 -625 1503 -206 
L 1606 56 
L 191 3500 
L 800 3500 
L 1894 763 
L 2988 3500 
L 3597 3500 
L 2059 -325 
z
" transform="scale(0.015625)"/>
      </defs>
      <use xlink:href="#DejaVuSans-73"/>
      <use xlink:href="#DejaVuSans-74" x="52.099609"/>
      <use xlink:href="#DejaVuSans-61" x="91.308594"/>
      <use xlink:href="#DejaVuSans-74" x="152.587891"/>
      <use xlink:href="#DejaVuSans-69" x="191.796875"/>
      <use xlink:href="#DejaVuSans-73" x="219.580078"/>
      <use xlink:href="#DejaVuSans-74" x="271.679688"/>
      <use xlink:href="#DejaVuSans-69" x="310.888672"/>
      <use xlink:href="#DejaVuSans-63" x="338.671875"/>
      <use xlink:href="#DejaVuSans-61" x="393.652344"/>
      <use xlink:href="#DejaVuSans-6c" x="454.931641"/>
      <use xlink:href="#DejaVuSans-5f" x="482.714844"/>
      <use xlink:href="#DejaVuSans-70" x="532.714844"/>
      <use xlink:href="#DejaVuSans-61" x="596.191406"/>
      <use xlink:href="#DejaVuSans-72" x="657.470703"/>
      <use xlink:href="#DejaVuSans-69" x="698.583984"/>
      <use xlink:href="#DejaVuSans-74" x="726.367188"/>
      <use xlink:href="#DejaVuSans-79" x="765.576172"/>
      <use xlink:href="#DejaVuSans-5f" x="824.755859"/>
      <use xlink:href="#DejaVuSans-64" x="874.755859"/>
      <use xlink:href="#DejaVuSans-69" x="938.232422"/>
      <use xlink:href="#DejaVuSans-66" x="966.015625"/>
      <use xlink:href="#DejaVuSans-66" x="1001.220703"/>
      <use xlink:href="#DejaVuSans-65" x="1036.425781"/>
      <use xlink:href="#DejaVuSans-72" x="1097.949219"/>
      <use xlink:href="#DejaVuSans-65" x="1136.8125"/>
      <use xlink:href="#DejaVuSans-6e" x="1198.335938"/>
      <use xlink:href="#DejaVuSans-63" x="1261.714844"/>
      <use xlink:href="#DejaVuSans-65" x="1316.695312"/>
     </g>
    </g>
   </g>
   <g id="line2d_42">
    <path d="M 407.135284 281.240597 
L 414.511712 277.275421 
L 421.88814 283.329428 
L 429.264567 282.435379 
L 436.640995 286.027246 
L 444.017423 281.870405 
L 451.393851 291.92624 
L 458.770278 281.124799 
L 466.146706 291.342473 
L 473.523134 286.499117 
L 480.899561 283.53541 
L 488.275989 291.246691 
L 495.652417 288.399108 
L 503.028845 284.352848 
L 510.405272 288.699971 
L 517.7817 284.044809 
L 525.158128 285.044059 
L 532.534556 283.918433 
L 539.910983 282.829572 
L 547.287411 286.456955 
L 554.663839 278.901249 
L 562.040267 283.290786 
L 569.416694 280.833761 
L 576.793122 286.435436 
L 584.16955 282.361314 
L 591.545978 282.989684 
L 598.922405 283.938938 
L 606.298833 289.485271 
L 613.675261 288.815577 
L 621.051689 279.073143 
L 628.428116 280.053192 
L 635.804544 280.864878 
L 643.180972 287.635685 
L 650.557399 290.400734 
L 657.933827 283.870654 
L 665.310255 287.340827 
L 672.686683 277.377352 
L 680.06311 290.53246 
L 687.439538 284.977897 
L 694.815966 279.21953 
" clip-path="url(#p3638e07246)" style="fill: none; stroke: #1f77b4; stroke-width: 1.5; stroke-linecap: square"/>
   </g>
   <g id="line2d_43">
    <path d="M 407.135284 289.112253 
L 414.511712 294.436883 
L 421.88814 283.519263 
L 429.264567 288.642072 
L 436.640995 290.262923 
L 444.017423 288.748194 
L 451.393851 293.84079 
L 458.770278 292.001229 
L 466.146706 299.084497 
L 473.523134 292.034604 
L 480.899561 292.98508 
L 488.275989 289.810094 
L 495.652417 291.108847 
L 503.028845 290.552623 
L 510.405272 291.733878 
L 517.7817 292.056857 
L 525.158128 288.126585 
L 532.534556 299.333889 
L 539.910983 291.584776 
L 547.287411 291.402063 
L 554.663839 291.992617 
L 562.040267 295.560848 
L 569.416694 291.890582 
L 576.793122 292.484822 
L 584.16955 293.853958 
L 591.545978 292.125514 
L 598.922405 288.963266 
L 606.298833 292.453791 
L 613.675261 288.499981 
L 621.051689 290.941592 
L 628.428116 291.73007 
L 635.804544 291.270111 
L 643.180972 293.127912 
L 650.557399 294.236321 
L 657.933827 292.788297 
L 665.310255 290.781516 
L 672.686683 284.372667 
L 680.06311 291.21922 
L 687.439538 287.509786 
L 694.815966 289.809817 
" clip-path="url(#p3638e07246)" style="fill: none; stroke-dasharray: 6,2.25; stroke-dashoffset: 0; stroke: #ff7f0e; stroke-width: 1.5"/>
   </g>
   <g id="line2d_44">
    <path d="M 407.135284 288.560802 
L 414.511712 284.084519 
L 421.88814 276.379585 
L 429.264567 288.905772 
L 436.640995 286.708518 
L 444.017423 285.007052 
L 451.393851 285.017618 
L 458.770278 289.582369 
L 466.146706 287.695283 
L 473.523134 290.132538 
L 480.899561 287.308525 
L 488.275989 276.418368 
L 495.652417 290.294294 
L 503.028845 285.526814 
L 510.405272 287.448679 
L 517.7817 292.618068 
L 525.158128 289.075252 
L 532.534556 294.005716 
L 539.910983 290.606156 
L 547.287411 287.861712 
L 554.663839 282.725005 
L 562.040267 284.916299 
L 569.416694 291.575011 
L 576.793122 280.569085 
L 584.16955 286.47253 
L 591.545978 292.002868 
L 598.922405 289.318975 
L 606.298833 292.915415 
L 613.675261 285.500807 
L 621.051689 282.203855 
L 628.428116 286.319374 
L 635.804544 287.209454 
L 643.180972 287.191625 
L 650.557399 298.242136 
L 657.933827 284.918069 
L 665.310255 290.076088 
L 672.686683 287.103146 
L 680.06311 284.789386 
L 687.439538 282.485462 
L 694.815966 291.795187 
" clip-path="url(#p3638e07246)" style="fill: none; stroke-dasharray: 1.5,1.5; stroke-dashoffset: 0; stroke: #2ca02c; stroke-width: 1.5"/>
   </g>
   <g id="line2d_45">
    <path d="M 407.135284 287.627133 
L 414.511712 289.695359 
L 421.88814 281.719867 
L 429.264567 287.843846 
L 436.640995 289.837143 
L 444.017423 286.472547 
L 451.393851 290.596038 
L 458.770278 290.780802 
L 466.146706 297.513383 
L 473.523134 287.799191 
L 480.899561 289.471267 
L 488.275989 289.662234 
L 495.652417 287.759112 
L 503.028845 286.776302 
L 510.405272 288.31543 
L 517.7817 288.329289 
L 525.158128 283.894791 
L 532.534556 296.685361 
L 539.910983 287.739847 
L 547.287411 289.02091 
L 554.663839 286.831741 
L 562.040267 291.531164 
L 569.416694 289.848437 
L 576.793122 289.747828 
L 584.16955 292.198021 
L 591.545978 293.496555 
L 598.922405 289.860533 
L 606.298833 293.528306 
L 613.675261 285.971122 
L 621.051689 289.429276 
L 628.428116 290.217294 
L 635.804544 286.935909 
L 643.180972 291.928697 
L 650.557399 289.174655 
L 657.933827 291.76949 
L 665.310255 289.44616 
L 672.686683 283.726179 
L 680.06311 286.216696 
L 687.439538 283.641037 
L 694.815966 285.028147 
" clip-path="url(#p3638e07246)" style="fill: none; stroke-dasharray: 4.5,1.875,2.25,1.875; stroke-dashoffset: 0; stroke: #d62728; stroke-width: 1.5"/>
   </g>
   <g id="line2d_46">
    <path d="M 407.135284 296.921051 
L 414.511712 297.095507 
L 421.88814 292.602286 
L 429.264567 295.043801 
L 436.640995 298.554711 
L 444.017423 293.679605 
L 451.393851 302.13463 
L 458.770278 297.713691 
L 466.146706 303.120034 
L 473.523134 301.433853 
L 480.899561 298.903404 
L 488.275989 295.231147 
L 495.652417 298.778646 
L 503.028845 297.706855 
L 510.405272 297.923778 
L 517.7817 299.098591 
L 525.158128 298.274774 
L 532.534556 303.237033 
L 539.910983 299.520976 
L 547.287411 298.327033 
L 554.663839 297.563966 
L 562.040267 300.175322 
L 569.416694 297.43428 
L 576.793122 296.999841 
L 584.16955 299.997382 
L 591.545978 300.665848 
L 598.922405 296.888317 
L 606.298833 301.324737 
L 613.675261 296.857564 
L 621.051689 294.77478 
L 628.428116 295.117023 
L 635.804544 297.524427 
L 643.180972 303.646548 
L 650.557399 301.716359 
L 657.933827 299.61554 
L 665.310255 302.184729 
L 672.686683 292.284981 
L 680.06311 295.686806 
L 687.439538 295.561448 
L 694.815966 300.697552 
" clip-path="url(#p3638e07246)" style="fill: none; stroke-dasharray: 7.5,1.5,1.5,1.5; stroke-dashoffset: 0; stroke: #9467bd; stroke-width: 1.5"/>
   </g>
   <g id="line2d_47"/>
   <g id="line2d_48"/>
   <g id="line2d_49"/>
   <g id="line2d_50"/>
   <g id="line2d_51"/>
   <g id="patch_9">
    <path d="M 392.75125 317.93875 
L 392.75125 10.8 
" style="fill: none; stroke: #000000; stroke-width: 0.8; stroke-linejoin: miter; stroke-linecap: square"/>
   </g>
   <g id="patch_10">
    <path d="M 709.2 317.93875 
L 709.2 10.8 
" style="fill: none; stroke: #000000; stroke-width: 0.8; stroke-linejoin: miter; stroke-linecap: square"/>
   </g>
   <g id="patch_11">
    <path d="M 392.75125 317.93875 
L 709.2 317.93875 
" style="fill: none; stroke: #000000; stroke-width: 0.8; stroke-linejoin: miter; stroke-linecap: square"/>
   </g>
   <g id="patch_12">
    <path d="M 392.75125 10.8 
L 709.2 10.8 
" style="fill: none; stroke: #000000; stroke-width: 0.8; stroke-linejoin: miter; stroke-linecap: square"/>
   </g>
   <g id="legend_2">
    <g id="patch_13">
     <path d="M 558.44375 106.86875 
L 702.2 106.86875 
Q 704.2 106.86875 704.2 104.86875 
L 704.2 17.8 
Q 704.2 15.8 702.2 15.8 
L 558.44375 15.8 
Q 556.44375 15.8 556.44375 17.8 
L 556.44375 104.86875 
Q 556.44375 106.86875 558.44375 106.86875 
z
" style="fill: #ffffff; opacity: 0.8; stroke: #cccccc; stroke-linejoin: miter"/>
    </g>
    <g id="text_32">
     <!-- model -->
     <g transform="translate(614.752344 27.398438) scale(0.1 -0.1)">
      <use xlink:href="#DejaVuSans-6d"/>
      <use xlink:href="#DejaVuSans-6f" x="97.412109"/>
      <use xlink:href="#DejaVuSans-64" x="158.59375"/>
      <use xlink:href="#DejaVuSans-65" x="222.070312"/>
      <use xlink:href="#DejaVuSans-6c" x="283.59375"/>
     </g>
    </g>
    <g id="line2d_52">
     <path d="M 560.44375 38.576563 
L 570.44375 38.576563 
L 580.44375 38.576563 
" style="fill: none; stroke: #1f77b4; stroke-width: 1.5; stroke-linecap: square"/>
    </g>
    <g id="text_33">
     <!-- None -->
     <g transform="translate(588.44375 42.076563) scale(0.1 -0.1)">
      <use xlink:href="#DejaVuSans-4e"/>
      <use xlink:href="#DejaVuSans-6f" x="74.804688"/>
      <use xlink:href="#DejaVuSans-6e" x="135.986328"/>
      <use xlink:href="#DejaVuSans-65" x="199.365234"/>
     </g>
    </g>
    <g id="line2d_53">
     <path d="M 560.44375 53.254688 
L 570.44375 53.254688 
L 580.44375 53.254688 
" style="fill: none; stroke-dasharray: 6,2.25; stroke-dashoffset: 0; stroke: #ff7f0e; stroke-width: 1.5"/>
    </g>
    <g id="text_34">
     <!-- logisticregression -->
     <g transform="translate(588.44375 56.754688) scale(0.1 -0.1)">
      <use xlink:href="#DejaVuSans-6c"/>
      <use xlink:href="#DejaVuSans-6f" x="27.783203"/>
      <use xlink:href="#DejaVuSans-67" x="88.964844"/>
      <use xlink:href="#DejaVuSans-69" x="152.441406"/>
      <use xlink:href="#DejaVuSans-73" x="180.224609"/>
      <use xlink:href="#DejaVuSans-74" x="232.324219"/>
      <use xlink:href="#DejaVuSans-69" x="271.533203"/>
      <use xlink:href="#DejaVuSans-63" x="299.316406"/>
      <use xlink:href="#DejaVuSans-72" x="354.296875"/>
      <use xlink:href="#DejaVuSans-65" x="393.160156"/>
      <use xlink:href="#DejaVuSans-67" x="454.683594"/>
      <use xlink:href="#DejaVuSans-72" x="518.160156"/>
      <use xlink:href="#DejaVuSans-65" x="557.023438"/>
      <use xlink:href="#DejaVuSans-73" x="618.546875"/>
      <use xlink:href="#DejaVuSans-73" x="670.646484"/>
      <use xlink:href="#DejaVuSans-69" x="722.746094"/>
      <use xlink:href="#DejaVuSans-6f" x="750.529297"/>
      <use xlink:href="#DejaVuSans-6e" x="811.710938"/>
     </g>
    </g>
    <g id="line2d_54">
     <path d="M 560.44375 67.932813 
L 570.44375 67.932813 
L 580.44375 67.932813 
" style="fill: none; stroke-dasharray: 1.5,1.5; stroke-dashoffset: 0; stroke: #2ca02c; stroke-width: 1.5"/>
    </g>
    <g id="text_35">
     <!-- decisiontreeclassifier -->
     <g transform="translate(588.44375 71.432813) scale(0.1 -0.1)">
      <use xlink:href="#DejaVuSans-64"/>
      <use xlink:href="#DejaVuSans-65" x="63.476562"/>
      <use xlink:href="#DejaVuSans-63" x="125"/>
      <use xlink:href="#DejaVuSans-69" x="179.980469"/>
      <use xlink:href="#DejaVuSans-73" x="207.763672"/>
      <use xlink:href="#DejaVuSans-69" x="259.863281"/>
      <use xlink:href="#DejaVuSans-6f" x="287.646484"/>
      <use xlink:href="#DejaVuSans-6e" x="348.828125"/>
      <use xlink:href="#DejaVuSans-74" x="412.207031"/>
      <use xlink:href="#DejaVuSans-72" x="451.416016"/>
      <use xlink:href="#DejaVuSans-65" x="490.279297"/>
      <use xlink:href="#DejaVuSans-65" x="551.802734"/>
      <use xlink:href="#DejaVuSans-63" x="613.326172"/>
      <use xlink:href="#DejaVuSans-6c" x="668.306641"/>
      <use xlink:href="#DejaVuSans-61" x="696.089844"/>
      <use xlink:href="#DejaVuSans-73" x="757.369141"/>
      <use xlink:href="#DejaVuSans-73" x="809.46875"/>
      <use xlink:href="#DejaVuSans-69" x="861.568359"/>
      <use xlink:href="#DejaVuSans-66" x="889.351562"/>
      <use xlink:href="#DejaVuSans-69" x="924.556641"/>
      <use xlink:href="#DejaVuSans-65" x="952.339844"/>
      <use xlink:href="#DejaVuSans-72" x="1013.863281"/>
     </g>
    </g>
    <g id="line2d_55">
     <path d="M 560.44375 82.610938 
L 570.44375 82.610938 
L 580.44375 82.610938 
" style="fill: none; stroke-dasharray: 4.5,1.875,2.25,1.875; stroke-dashoffset: 0; stroke: #d62728; stroke-width: 1.5"/>
    </g>
    <g id="text_36">
     <!-- adaboostclassifier -->
     <g transform="translate(588.44375 86.110938) scale(0.1 -0.1)">
      <use xlink:href="#DejaVuSans-61"/>
      <use xlink:href="#DejaVuSans-64" x="61.279297"/>
      <use xlink:href="#DejaVuSans-61" x="124.755859"/>
      <use xlink:href="#DejaVuSans-62" x="186.035156"/>
      <use xlink:href="#DejaVuSans-6f" x="249.511719"/>
      <use xlink:href="#DejaVuSans-6f" x="310.693359"/>
      <use xlink:href="#DejaVuSans-73" x="371.875"/>
      <use xlink:href="#DejaVuSans-74" x="423.974609"/>
      <use xlink:href="#DejaVuSans-63" x="463.183594"/>
      <use xlink:href="#DejaVuSans-6c" x="518.164062"/>
      <use xlink:href="#DejaVuSans-61" x="545.947266"/>
      <use xlink:href="#DejaVuSans-73" x="607.226562"/>
      <use xlink:href="#DejaVuSans-73" x="659.326172"/>
      <use xlink:href="#DejaVuSans-69" x="711.425781"/>
      <use xlink:href="#DejaVuSans-66" x="739.208984"/>
      <use xlink:href="#DejaVuSans-69" x="774.414062"/>
      <use xlink:href="#DejaVuSans-65" x="802.197266"/>
      <use xlink:href="#DejaVuSans-72" x="863.720703"/>
     </g>
    </g>
    <g id="line2d_56">
     <path d="M 560.44375 97.289062 
L 570.44375 97.289062 
L 580.44375 97.289062 
" style="fill: none; stroke-dasharray: 7.5,1.5,1.5,1.5; stroke-dashoffset: 0; stroke: #9467bd; stroke-width: 1.5"/>
    </g>
    <g id="text_37">
     <!-- randomforestclassifier -->
     <g transform="translate(588.44375 100.789062) scale(0.1 -0.1)">
      <use xlink:href="#DejaVuSans-72"/>
      <use xlink:href="#DejaVuSans-61" x="41.113281"/>
      <use xlink:href="#DejaVuSans-6e" x="102.392578"/>
      <use xlink:href="#DejaVuSans-64" x="165.771484"/>
      <use xlink:href="#DejaVuSans-6f" x="229.248047"/>
      <use xlink:href="#DejaVuSans-6d" x="290.429688"/>
      <use xlink:href="#DejaVuSans-66" x="387.841797"/>
      <use xlink:href="#DejaVuSans-6f" x="423.046875"/>
      <use xlink:href="#DejaVuSans-72" x="484.228516"/>
      <use xlink:href="#DejaVuSans-65" x="523.091797"/>
      <use xlink:href="#DejaVuSans-73" x="584.615234"/>
      <use xlink:href="#DejaVuSans-74" x="636.714844"/>
      <use xlink:href="#DejaVuSans-63" x="675.923828"/>
      <use xlink:href="#DejaVuSans-6c" x="730.904297"/>
      <use xlink:href="#DejaVuSans-61" x="758.6875"/>
      <use xlink:href="#DejaVuSans-73" x="819.966797"/>
      <use xlink:href="#DejaVuSans-73" x="872.066406"/>
      <use xlink:href="#DejaVuSans-69" x="924.166016"/>
      <use xlink:href="#DejaVuSans-66" x="951.949219"/>
      <use xlink:href="#DejaVuSans-69" x="987.154297"/>
      <use xlink:href="#DejaVuSans-65" x="1014.9375"/>
      <use xlink:href="#DejaVuSans-72" x="1076.460938"/>
     </g>
    </g>
   </g>
  </g>
 </g>
 <defs>
  <clipPath id="pf1f5611f4a">
   <rect x="47.82125" y="10.8" width="316.44875" height="307.13875"/>
  </clipPath>
  <clipPath id="p3638e07246">
   <rect x="392.75125" y="10.8" width="316.44875" height="307.13875"/>
  </clipPath>
 </defs>
</svg>
