<?xml version="1.0" encoding="utf-8" standalone="no"?>
<!DOCTYPE svg PUBLIC "-//W3C//DTD SVG 1.1//EN"
  "http://www.w3.org/Graphics/SVG/1.1/DTD/svg11.dtd">
<svg xmlns:xlink="http://www.w3.org/1999/xlink" width="720pt" height="360pt" viewBox="0 0 720 360" xmlns="http://www.w3.org/2000/svg" version="1.1">
 <metadata>
  <rdf:RDF xmlns:dc="http://purl.org/dc/elements/1.1/" xmlns:cc="http://creativecommons.org/ns#" xmlns:rdf="http://www.w3.org/1999/02/22-rdf-syntax-ns#">
   <cc:Work>
    <dc:type rdf:resource="http://purl.org/dc/dcmitype/StillImage"/>
    <dc:date>2022-11-03T13:21:09.070518</dc:date>
    <dc:format>image/svg+xml</dc:format>
    <dc:creator>
     <cc:Agent>
      <dc:title>Matplotlib v3.6.0, https://matplotlib.org/</dc:title>
     </cc:Agent>
    </dc:creator>
   </cc:Work>
  </rdf:RDF>
 </metadata>
 <defs>
  <style type="text/css">*{stroke-linejoin: round; stroke-linecap: butt}</style>
 </defs>
 <g id="figure_1">
  <g id="patch_1">
   <path d="M 0 360 
L 720 360 
L 720 0 
L 0 0 
z
" style="fill: #ffffff"/>
  </g>
  <g id="axes_1">
   <g id="patch_2">
    <path d="M 47.82125 318.04 
L 364.27 318.04 
L 364.27 10.8 
L 47.82125 10.8 
z
" style="fill: #ffffff"/>
   </g>
   <g id="PolyCollection_1">
    <defs>
     <path id="mcd76e043ed" d="M 62.205284 -159.547535 
L 62.205284 -159.547535 
L 78.187544 -159.547535 
L 94.169804 -159.547535 
L 110.152064 -159.547535 
L 126.134324 -159.547535 
L 142.116585 -159.547535 
L 158.098845 -159.547535 
L 174.081105 -159.547535 
L 190.063365 -159.547535 
L 206.045625 -159.547535 
L 222.027885 -159.547535 
L 238.010145 -159.547535 
L 253.992405 -159.547535 
L 269.974665 -159.547535 
L 285.956926 -159.547535 
L 301.939186 -159.547535 
L 317.921446 -159.547535 
L 333.903706 -159.547535 
L 349.885966 -159.547535 
L 349.885966 -159.547535 
L 349.885966 -159.547535 
L 333.903706 -159.547535 
L 317.921446 -159.547535 
L 301.939186 -159.547535 
L 285.956926 -159.547535 
L 269.974665 -159.547535 
L 253.992405 -159.547535 
L 238.010145 -159.547535 
L 222.027885 -159.547535 
L 206.045625 -159.547535 
L 190.063365 -159.547535 
L 174.081105 -159.547535 
L 158.098845 -159.547535 
L 142.116585 -159.547535 
L 126.134324 -159.547535 
L 110.152064 -159.547535 
L 94.169804 -159.547535 
L 78.187544 -159.547535 
L 62.205284 -159.547535 
z
" style="stroke: #1f77b4; stroke-opacity: 0.2"/>
    </defs>
    <g clip-path="url(#p84769cfef3)">
     <use xlink:href="#mcd76e043ed" x="0" y="360" style="fill: #1f77b4; fill-opacity: 0.2; stroke: #1f77b4; stroke-opacity: 0.2"/>
    </g>
   </g>
   <g id="PolyCollection_2">
    <defs>
     <path id="m00c50e9bcc" d="M 62.205284 -335.234545 
L 62.205284 -335.234545 
L 78.187544 -314.730569 
L 94.169804 -322.041074 
L 110.152064 -305.986566 
L 126.134324 -267.72772 
L 142.116585 -284.428133 
L 158.098845 -286.240065 
L 174.081105 -280.185095 
L 190.063365 -286.674353 
L 206.045625 -278.981257 
L 222.027885 -266.904495 
L 238.010145 -262.196321 
L 253.992405 -269.190044 
L 269.974665 -257.752748 
L 285.956926 -262.196321 
L 301.939186 -268.490672 
L 317.921446 -255.629044 
L 333.903706 -250.550497 
L 349.885966 -249.257933 
L 349.885966 -249.257933 
L 349.885966 -249.257933 
L 333.903706 -250.550497 
L 317.921446 -255.629044 
L 301.939186 -268.490672 
L 285.956926 -262.196321 
L 269.974665 -257.752748 
L 253.992405 -269.190044 
L 238.010145 -262.196321 
L 222.027885 -266.904495 
L 206.045625 -278.981257 
L 190.063365 -286.674353 
L 174.081105 -280.185095 
L 158.098845 -286.240065 
L 142.116585 -284.428133 
L 126.134324 -267.72772 
L 110.152064 -305.986566 
L 94.169804 -322.041074 
L 78.187544 -314.730569 
L 62.205284 -335.234545 
z
" style="stroke: #ff7f0e; stroke-opacity: 0.2"/>
    </defs>
    <g clip-path="url(#p84769cfef3)">
     <use xlink:href="#m00c50e9bcc" x="0" y="360" style="fill: #ff7f0e; fill-opacity: 0.2; stroke: #ff7f0e; stroke-opacity: 0.2"/>
    </g>
   </g>
   <g id="PolyCollection_3">
    <defs>
     <path id="mf491ce7cca" d="M 62.205284 -187.95359 
L 62.205284 -178.333526 
L 78.187544 -140.562419 
L 94.169804 -81.519132 
L 110.152064 -188.097919 
L 126.134324 -182.392516 
L 142.116585 -150.753588 
L 158.098845 -147.291525 
L 174.081105 -144.306854 
L 190.063365 -138.919392 
L 206.045625 -191.571152 
L 222.027885 -169.072672 
L 238.010145 -216.011467 
L 253.992405 -205.167719 
L 269.974665 -176.721172 
L 285.956926 -188.000088 
L 301.939186 -191.770098 
L 317.921446 -155.374959 
L 333.903706 -147.635878 
L 349.885966 -147.493323 
L 349.885966 -153.193434 
L 349.885966 -153.193434 
L 333.903706 -152.374492 
L 317.921446 -161.635412 
L 301.939186 -195.155809 
L 285.956926 -191.541108 
L 269.974665 -181.770148 
L 253.992405 -209.869008 
L 238.010145 -220.520494 
L 222.027885 -175.230645 
L 206.045625 -196.490206 
L 190.063365 -144.529107 
L 174.081105 -154.730463 
L 158.098845 -154.03378 
L 142.116585 -158.72035 
L 126.134324 -188.174847 
L 110.152064 -192.385882 
L 94.169804 -89.833182 
L 78.187544 -145.966229 
L 62.205284 -187.95359 
z
" style="stroke: #2ca02c; stroke-opacity: 0.2"/>
    </defs>
    <g clip-path="url(#p84769cfef3)">
     <use xlink:href="#mf491ce7cca" x="0" y="360" style="fill: #2ca02c; fill-opacity: 0.2; stroke: #2ca02c; stroke-opacity: 0.2"/>
    </g>
   </g>
   <g id="PolyCollection_4">
    <defs>
     <path id="m3c4111da2d" d="M 62.205284 -276.616576 
L 62.205284 -276.616576 
L 78.187544 -256.087098 
L 94.169804 -286.701046 
L 110.152064 -299.881105 
L 126.134324 -272.121699 
L 142.116585 -268.052131 
L 158.098845 -250.487761 
L 174.081105 -256.390938 
L 190.063365 -271.025897 
L 206.045625 -284.812274 
L 222.027885 -255.361682 
L 238.010145 -255.80376 
L 253.992405 -258.188379 
L 269.974665 -257.173556 
L 285.956926 -274.794028 
L 301.939186 -253.693908 
L 317.921446 -258.351274 
L 333.903706 -254.321686 
L 349.885966 -240.58844 
L 349.885966 -240.58844 
L 349.885966 -240.58844 
L 333.903706 -254.321686 
L 317.921446 -258.351274 
L 301.939186 -253.693908 
L 285.956926 -274.794028 
L 269.974665 -257.173556 
L 253.992405 -258.188379 
L 238.010145 -255.80376 
L 222.027885 -255.361682 
L 206.045625 -284.812274 
L 190.063365 -271.025897 
L 174.081105 -256.390938 
L 158.098845 -250.487761 
L 142.116585 -268.052131 
L 126.134324 -272.121699 
L 110.152064 -299.881105 
L 94.169804 -286.701046 
L 78.187544 -256.087098 
L 62.205284 -276.616576 
z
" style="stroke: #d62728; stroke-opacity: 0.2"/>
    </defs>
    <g clip-path="url(#p84769cfef3)">
     <use xlink:href="#m3c4111da2d" x="0" y="360" style="fill: #d62728; fill-opacity: 0.2; stroke: #d62728; stroke-opacity: 0.2"/>
    </g>
   </g>
   <g id="PolyCollection_5">
    <defs>
     <path id="mb5a26ed0e7" d="M 62.205284 -285.455503 
L 62.205284 -279.365399 
L 78.187544 -226.814747 
L 94.169804 -255.528337 
L 110.152064 -259.206235 
L 126.134324 -239.197759 
L 142.116585 -226.014914 
L 158.098845 -213.591198 
L 174.081105 -216.178411 
L 190.063365 -218.001776 
L 206.045625 -244.120784 
L 222.027885 -240.554928 
L 238.010145 -244.171032 
L 253.992405 -233.962778 
L 269.974665 -244.503264 
L 285.956926 -228.821767 
L 301.939186 -222.310379 
L 317.921446 -216.751625 
L 333.903706 -221.201995 
L 349.885966 -211.84838 
L 349.885966 -216.961885 
L 349.885966 -216.961885 
L 333.903706 -226.620539 
L 317.921446 -222.654014 
L 301.939186 -227.743619 
L 285.956926 -235.649912 
L 269.974665 -249.638312 
L 253.992405 -238.479214 
L 238.010145 -248.679278 
L 222.027885 -247.068933 
L 206.045625 -249.178598 
L 190.063365 -225.613433 
L 174.081105 -221.225961 
L 158.098845 -218.197145 
L 142.116585 -232.029324 
L 126.134324 -245.088277 
L 110.152064 -263.719423 
L 94.169804 -259.859995 
L 78.187544 -233.179447 
L 62.205284 -285.455503 
z
" style="stroke: #9467bd; stroke-opacity: 0.2"/>
    </defs>
    <g clip-path="url(#p84769cfef3)">
     <use xlink:href="#mb5a26ed0e7" x="0" y="360" style="fill: #9467bd; fill-opacity: 0.2; stroke: #9467bd; stroke-opacity: 0.2"/>
    </g>
   </g>
   <g id="matplotlib.axis_1">
    <g id="xtick_1">
     <g id="line2d_1">
      <defs>
       <path id="m1274fa8a1b" d="M 0 0 
L 0 3.5 
" style="stroke: #000000; stroke-width: 0.8"/>
      </defs>
      <g>
       <use xlink:href="#m1274fa8a1b" x="94.169804" y="318.04" style="stroke: #000000; stroke-width: 0.8"/>
      </g>
     </g>
     <g id="text_1">
      <!-- 0.2 -->
      <g transform="translate(86.218242 332.638438) scale(0.1 -0.1)">
       <defs>
        <path id="DejaVuSans-30" d="M 2034 4250 
Q 1547 4250 1301 3770 
Q 1056 3291 1056 2328 
Q 1056 1369 1301 889 
Q 1547 409 2034 409 
Q 2525 409 2770 889 
Q 3016 1369 3016 2328 
Q 3016 3291 2770 3770 
Q 2525 4250 2034 4250 
z
M 2034 4750 
Q 2819 4750 3233 4129 
Q 3647 3509 3647 2328 
Q 3647 1150 3233 529 
Q 2819 -91 2034 -91 
Q 1250 -91 836 529 
Q 422 1150 422 2328 
Q 422 3509 836 4129 
Q 1250 4750 2034 4750 
z
" transform="scale(0.015625)"/>
        <path id="DejaVuSans-2e" d="M 684 794 
L 1344 794 
L 1344 0 
L 684 0 
L 684 794 
z
" transform="scale(0.015625)"/>
        <path id="DejaVuSans-32" d="M 1228 531 
L 3431 531 
L 3431 0 
L 469 0 
L 469 531 
Q 828 903 1448 1529 
Q 2069 2156 2228 2338 
Q 2531 2678 2651 2914 
Q 2772 3150 2772 3378 
Q 2772 3750 2511 3984 
Q 2250 4219 1831 4219 
Q 1534 4219 1204 4116 
Q 875 4013 500 3803 
L 500 4441 
Q 881 4594 1212 4672 
Q 1544 4750 1819 4750 
Q 2544 4750 2975 4387 
Q 3406 4025 3406 3419 
Q 3406 3131 3298 2873 
Q 3191 2616 2906 2266 
Q 2828 2175 2409 1742 
Q 1991 1309 1228 531 
z
" transform="scale(0.015625)"/>
       </defs>
       <use xlink:href="#DejaVuSans-30"/>
       <use xlink:href="#DejaVuSans-2e" x="63.623047"/>
       <use xlink:href="#DejaVuSans-32" x="95.410156"/>
      </g>
     </g>
    </g>
    <g id="xtick_2">
     <g id="line2d_2">
      <g>
       <use xlink:href="#m1274fa8a1b" x="158.098845" y="318.04" style="stroke: #000000; stroke-width: 0.8"/>
      </g>
     </g>
     <g id="text_2">
      <!-- 0.4 -->
      <g transform="translate(150.147282 332.638438) scale(0.1 -0.1)">
       <defs>
        <path id="DejaVuSans-34" d="M 2419 4116 
L 825 1625 
L 2419 1625 
L 2419 4116 
z
M 2253 4666 
L 3047 4666 
L 3047 1625 
L 3713 1625 
L 3713 1100 
L 3047 1100 
L 3047 0 
L 2419 0 
L 2419 1100 
L 313 1100 
L 313 1709 
L 2253 4666 
z
" transform="scale(0.015625)"/>
       </defs>
       <use xlink:href="#DejaVuSans-30"/>
       <use xlink:href="#DejaVuSans-2e" x="63.623047"/>
       <use xlink:href="#DejaVuSans-34" x="95.410156"/>
      </g>
     </g>
    </g>
    <g id="xtick_3">
     <g id="line2d_3">
      <g>
       <use xlink:href="#m1274fa8a1b" x="222.027885" y="318.04" style="stroke: #000000; stroke-width: 0.8"/>
      </g>
     </g>
     <g id="text_3">
      <!-- 0.6 -->
      <g transform="translate(214.076323 332.638438) scale(0.1 -0.1)">
       <defs>
        <path id="DejaVuSans-36" d="M 2113 2584 
Q 1688 2584 1439 2293 
Q 1191 2003 1191 1497 
Q 1191 994 1439 701 
Q 1688 409 2113 409 
Q 2538 409 2786 701 
Q 3034 994 3034 1497 
Q 3034 2003 2786 2293 
Q 2538 2584 2113 2584 
z
M 3366 4563 
L 3366 3988 
Q 3128 4100 2886 4159 
Q 2644 4219 2406 4219 
Q 1781 4219 1451 3797 
Q 1122 3375 1075 2522 
Q 1259 2794 1537 2939 
Q 1816 3084 2150 3084 
Q 2853 3084 3261 2657 
Q 3669 2231 3669 1497 
Q 3669 778 3244 343 
Q 2819 -91 2113 -91 
Q 1303 -91 875 529 
Q 447 1150 447 2328 
Q 447 3434 972 4092 
Q 1497 4750 2381 4750 
Q 2619 4750 2861 4703 
Q 3103 4656 3366 4563 
z
" transform="scale(0.015625)"/>
       </defs>
       <use xlink:href="#DejaVuSans-30"/>
       <use xlink:href="#DejaVuSans-2e" x="63.623047"/>
       <use xlink:href="#DejaVuSans-36" x="95.410156"/>
      </g>
     </g>
    </g>
    <g id="xtick_4">
     <g id="line2d_4">
      <g>
       <use xlink:href="#m1274fa8a1b" x="285.956926" y="318.04" style="stroke: #000000; stroke-width: 0.8"/>
      </g>
     </g>
     <g id="text_4">
      <!-- 0.8 -->
      <g transform="translate(278.005363 332.638438) scale(0.1 -0.1)">
       <defs>
        <path id="DejaVuSans-38" d="M 2034 2216 
Q 1584 2216 1326 1975 
Q 1069 1734 1069 1313 
Q 1069 891 1326 650 
Q 1584 409 2034 409 
Q 2484 409 2743 651 
Q 3003 894 3003 1313 
Q 3003 1734 2745 1975 
Q 2488 2216 2034 2216 
z
M 1403 2484 
Q 997 2584 770 2862 
Q 544 3141 544 3541 
Q 544 4100 942 4425 
Q 1341 4750 2034 4750 
Q 2731 4750 3128 4425 
Q 3525 4100 3525 3541 
Q 3525 3141 3298 2862 
Q 3072 2584 2669 2484 
Q 3125 2378 3379 2068 
Q 3634 1759 3634 1313 
Q 3634 634 3220 271 
Q 2806 -91 2034 -91 
Q 1263 -91 848 271 
Q 434 634 434 1313 
Q 434 1759 690 2068 
Q 947 2378 1403 2484 
z
M 1172 3481 
Q 1172 3119 1398 2916 
Q 1625 2713 2034 2713 
Q 2441 2713 2670 2916 
Q 2900 3119 2900 3481 
Q 2900 3844 2670 4047 
Q 2441 4250 2034 4250 
Q 1625 4250 1398 4047 
Q 1172 3844 1172 3481 
z
" transform="scale(0.015625)"/>
       </defs>
       <use xlink:href="#DejaVuSans-30"/>
       <use xlink:href="#DejaVuSans-2e" x="63.623047"/>
       <use xlink:href="#DejaVuSans-38" x="95.410156"/>
      </g>
     </g>
    </g>
    <g id="xtick_5">
     <g id="line2d_5">
      <g>
       <use xlink:href="#m1274fa8a1b" x="349.885966" y="318.04" style="stroke: #000000; stroke-width: 0.8"/>
      </g>
     </g>
     <g id="text_5">
      <!-- 1.0 -->
      <g transform="translate(341.934403 332.638438) scale(0.1 -0.1)">
       <defs>
        <path id="DejaVuSans-31" d="M 794 531 
L 1825 531 
L 1825 4091 
L 703 3866 
L 703 4441 
L 1819 4666 
L 2450 4666 
L 2450 531 
L 3481 531 
L 3481 0 
L 794 0 
L 794 531 
z
" transform="scale(0.015625)"/>
       </defs>
       <use xlink:href="#DejaVuSans-31"/>
       <use xlink:href="#DejaVuSans-2e" x="63.623047"/>
       <use xlink:href="#DejaVuSans-30" x="95.410156"/>
      </g>
     </g>
    </g>
    <g id="text_6">
     <!-- frac -->
     <g transform="translate(196.416719 346.316563) scale(0.1 -0.1)">
      <defs>
       <path id="DejaVuSans-66" d="M 2375 4863 
L 2375 4384 
L 1825 4384 
Q 1516 4384 1395 4259 
Q 1275 4134 1275 3809 
L 1275 3500 
L 2222 3500 
L 2222 3053 
L 1275 3053 
L 1275 0 
L 697 0 
L 697 3053 
L 147 3053 
L 147 3500 
L 697 3500 
L 697 3744 
Q 697 4328 969 4595 
Q 1241 4863 1831 4863 
L 2375 4863 
z
" transform="scale(0.015625)"/>
       <path id="DejaVuSans-72" d="M 2631 2963 
Q 2534 3019 2420 3045 
Q 2306 3072 2169 3072 
Q 1681 3072 1420 2755 
Q 1159 2438 1159 1844 
L 1159 0 
L 581 0 
L 581 3500 
L 1159 3500 
L 1159 2956 
Q 1341 3275 1631 3429 
Q 1922 3584 2338 3584 
Q 2397 3584 2469 3576 
Q 2541 3569 2628 3553 
L 2631 2963 
z
" transform="scale(0.015625)"/>
       <path id="DejaVuSans-61" d="M 2194 1759 
Q 1497 1759 1228 1600 
Q 959 1441 959 1056 
Q 959 750 1161 570 
Q 1363 391 1709 391 
Q 2188 391 2477 730 
Q 2766 1069 2766 1631 
L 2766 1759 
L 2194 1759 
z
M 3341 1997 
L 3341 0 
L 2766 0 
L 2766 531 
Q 2569 213 2275 61 
Q 1981 -91 1556 -91 
Q 1019 -91 701 211 
Q 384 513 384 1019 
Q 384 1609 779 1909 
Q 1175 2209 1959 2209 
L 2766 2209 
L 2766 2266 
Q 2766 2663 2505 2880 
Q 2244 3097 1772 3097 
Q 1472 3097 1187 3025 
Q 903 2953 641 2809 
L 641 3341 
Q 956 3463 1253 3523 
Q 1550 3584 1831 3584 
Q 2591 3584 2966 3190 
Q 3341 2797 3341 1997 
z
" transform="scale(0.015625)"/>
       <path id="DejaVuSans-63" d="M 3122 3366 
L 3122 2828 
Q 2878 2963 2633 3030 
Q 2388 3097 2138 3097 
Q 1578 3097 1268 2742 
Q 959 2388 959 1747 
Q 959 1106 1268 751 
Q 1578 397 2138 397 
Q 2388 397 2633 464 
Q 2878 531 3122 666 
L 3122 134 
Q 2881 22 2623 -34 
Q 2366 -91 2075 -91 
Q 1284 -91 818 406 
Q 353 903 353 1747 
Q 353 2603 823 3093 
Q 1294 3584 2113 3584 
Q 2378 3584 2631 3529 
Q 2884 3475 3122 3366 
z
" transform="scale(0.015625)"/>
      </defs>
      <use xlink:href="#DejaVuSans-66"/>
      <use xlink:href="#DejaVuSans-72" x="35.205078"/>
      <use xlink:href="#DejaVuSans-61" x="76.318359"/>
      <use xlink:href="#DejaVuSans-63" x="137.597656"/>
     </g>
    </g>
   </g>
   <g id="matplotlib.axis_2">
    <g id="ytick_1">
     <g id="line2d_6">
      <defs>
       <path id="me185c50024" d="M 0 0 
L -3.5 0 
" style="stroke: #000000; stroke-width: 0.8"/>
      </defs>
      <g>
       <use xlink:href="#me185c50024" x="47.82125" y="260.623756" style="stroke: #000000; stroke-width: 0.8"/>
      </g>
     </g>
     <g id="text_7">
      <!-- 0.2 -->
      <g transform="translate(24.918125 264.422975) scale(0.1 -0.1)">
       <use xlink:href="#DejaVuSans-30"/>
       <use xlink:href="#DejaVuSans-2e" x="63.623047"/>
       <use xlink:href="#DejaVuSans-32" x="95.410156"/>
      </g>
     </g>
    </g>
    <g id="ytick_2">
     <g id="line2d_7">
      <g>
       <use xlink:href="#me185c50024" x="47.82125" y="201.659181" style="stroke: #000000; stroke-width: 0.8"/>
      </g>
     </g>
     <g id="text_8">
      <!-- 0.4 -->
      <g transform="translate(24.918125 205.4584) scale(0.1 -0.1)">
       <use xlink:href="#DejaVuSans-30"/>
       <use xlink:href="#DejaVuSans-2e" x="63.623047"/>
       <use xlink:href="#DejaVuSans-34" x="95.410156"/>
      </g>
     </g>
    </g>
    <g id="ytick_3">
     <g id="line2d_8">
      <g>
       <use xlink:href="#me185c50024" x="47.82125" y="142.694605" style="stroke: #000000; stroke-width: 0.8"/>
      </g>
     </g>
     <g id="text_9">
      <!-- 0.6 -->
      <g transform="translate(24.918125 146.493824) scale(0.1 -0.1)">
       <use xlink:href="#DejaVuSans-30"/>
       <use xlink:href="#DejaVuSans-2e" x="63.623047"/>
       <use xlink:href="#DejaVuSans-36" x="95.410156"/>
      </g>
     </g>
    </g>
    <g id="ytick_4">
     <g id="line2d_9">
      <g>
       <use xlink:href="#me185c50024" x="47.82125" y="83.73003" style="stroke: #000000; stroke-width: 0.8"/>
      </g>
     </g>
     <g id="text_10">
      <!-- 0.8 -->
      <g transform="translate(24.918125 87.529249) scale(0.1 -0.1)">
       <use xlink:href="#DejaVuSans-30"/>
       <use xlink:href="#DejaVuSans-2e" x="63.623047"/>
       <use xlink:href="#DejaVuSans-38" x="95.410156"/>
      </g>
     </g>
    </g>
    <g id="ytick_5">
     <g id="line2d_10">
      <g>
       <use xlink:href="#me185c50024" x="47.82125" y="24.765455" style="stroke: #000000; stroke-width: 0.8"/>
      </g>
     </g>
     <g id="text_11">
      <!-- 1.0 -->
      <g transform="translate(24.918125 28.564673) scale(0.1 -0.1)">
       <use xlink:href="#DejaVuSans-31"/>
       <use xlink:href="#DejaVuSans-2e" x="63.623047"/>
       <use xlink:href="#DejaVuSans-30" x="95.410156"/>
      </g>
     </g>
    </g>
    <g id="text_12">
     <!-- disparate_impact -->
     <g transform="translate(18.560313 207.689531) rotate(-90) scale(0.1 -0.1)">
      <defs>
       <path id="DejaVuSans-64" d="M 2906 2969 
L 2906 4863 
L 3481 4863 
L 3481 0 
L 2906 0 
L 2906 525 
Q 2725 213 2448 61 
Q 2172 -91 1784 -91 
Q 1150 -91 751 415 
Q 353 922 353 1747 
Q 353 2572 751 3078 
Q 1150 3584 1784 3584 
Q 2172 3584 2448 3432 
Q 2725 3281 2906 2969 
z
M 947 1747 
Q 947 1113 1208 752 
Q 1469 391 1925 391 
Q 2381 391 2643 752 
Q 2906 1113 2906 1747 
Q 2906 2381 2643 2742 
Q 2381 3103 1925 3103 
Q 1469 3103 1208 2742 
Q 947 2381 947 1747 
z
" transform="scale(0.015625)"/>
       <path id="DejaVuSans-69" d="M 603 3500 
L 1178 3500 
L 1178 0 
L 603 0 
L 603 3500 
z
M 603 4863 
L 1178 4863 
L 1178 4134 
L 603 4134 
L 603 4863 
z
" transform="scale(0.015625)"/>
       <path id="DejaVuSans-73" d="M 2834 3397 
L 2834 2853 
Q 2591 2978 2328 3040 
Q 2066 3103 1784 3103 
Q 1356 3103 1142 2972 
Q 928 2841 928 2578 
Q 928 2378 1081 2264 
Q 1234 2150 1697 2047 
L 1894 2003 
Q 2506 1872 2764 1633 
Q 3022 1394 3022 966 
Q 3022 478 2636 193 
Q 2250 -91 1575 -91 
Q 1294 -91 989 -36 
Q 684 19 347 128 
L 347 722 
Q 666 556 975 473 
Q 1284 391 1588 391 
Q 1994 391 2212 530 
Q 2431 669 2431 922 
Q 2431 1156 2273 1281 
Q 2116 1406 1581 1522 
L 1381 1569 
Q 847 1681 609 1914 
Q 372 2147 372 2553 
Q 372 3047 722 3315 
Q 1072 3584 1716 3584 
Q 2034 3584 2315 3537 
Q 2597 3491 2834 3397 
z
" transform="scale(0.015625)"/>
       <path id="DejaVuSans-70" d="M 1159 525 
L 1159 -1331 
L 581 -1331 
L 581 3500 
L 1159 3500 
L 1159 2969 
Q 1341 3281 1617 3432 
Q 1894 3584 2278 3584 
Q 2916 3584 3314 3078 
Q 3713 2572 3713 1747 
Q 3713 922 3314 415 
Q 2916 -91 2278 -91 
Q 1894 -91 1617 61 
Q 1341 213 1159 525 
z
M 3116 1747 
Q 3116 2381 2855 2742 
Q 2594 3103 2138 3103 
Q 1681 3103 1420 2742 
Q 1159 2381 1159 1747 
Q 1159 1113 1420 752 
Q 1681 391 2138 391 
Q 2594 391 2855 752 
Q 3116 1113 3116 1747 
z
" transform="scale(0.015625)"/>
       <path id="DejaVuSans-74" d="M 1172 4494 
L 1172 3500 
L 2356 3500 
L 2356 3053 
L 1172 3053 
L 1172 1153 
Q 1172 725 1289 603 
Q 1406 481 1766 481 
L 2356 481 
L 2356 0 
L 1766 0 
Q 1100 0 847 248 
Q 594 497 594 1153 
L 594 3053 
L 172 3053 
L 172 3500 
L 594 3500 
L 594 4494 
L 1172 4494 
z
" transform="scale(0.015625)"/>
       <path id="DejaVuSans-65" d="M 3597 1894 
L 3597 1613 
L 953 1613 
Q 991 1019 1311 708 
Q 1631 397 2203 397 
Q 2534 397 2845 478 
Q 3156 559 3463 722 
L 3463 178 
Q 3153 47 2828 -22 
Q 2503 -91 2169 -91 
Q 1331 -91 842 396 
Q 353 884 353 1716 
Q 353 2575 817 3079 
Q 1281 3584 2069 3584 
Q 2775 3584 3186 3129 
Q 3597 2675 3597 1894 
z
M 3022 2063 
Q 3016 2534 2758 2815 
Q 2500 3097 2075 3097 
Q 1594 3097 1305 2825 
Q 1016 2553 972 2059 
L 3022 2063 
z
" transform="scale(0.015625)"/>
       <path id="DejaVuSans-5f" d="M 3263 -1063 
L 3263 -1509 
L -63 -1509 
L -63 -1063 
L 3263 -1063 
z
" transform="scale(0.015625)"/>
       <path id="DejaVuSans-6d" d="M 3328 2828 
Q 3544 3216 3844 3400 
Q 4144 3584 4550 3584 
Q 5097 3584 5394 3201 
Q 5691 2819 5691 2113 
L 5691 0 
L 5113 0 
L 5113 2094 
Q 5113 2597 4934 2840 
Q 4756 3084 4391 3084 
Q 3944 3084 3684 2787 
Q 3425 2491 3425 1978 
L 3425 0 
L 2847 0 
L 2847 2094 
Q 2847 2600 2669 2842 
Q 2491 3084 2119 3084 
Q 1678 3084 1418 2786 
Q 1159 2488 1159 1978 
L 1159 0 
L 581 0 
L 581 3500 
L 1159 3500 
L 1159 2956 
Q 1356 3278 1631 3431 
Q 1906 3584 2284 3584 
Q 2666 3584 2933 3390 
Q 3200 3197 3328 2828 
z
" transform="scale(0.015625)"/>
      </defs>
      <use xlink:href="#DejaVuSans-64"/>
      <use xlink:href="#DejaVuSans-69" x="63.476562"/>
      <use xlink:href="#DejaVuSans-73" x="91.259766"/>
      <use xlink:href="#DejaVuSans-70" x="143.359375"/>
      <use xlink:href="#DejaVuSans-61" x="206.835938"/>
      <use xlink:href="#DejaVuSans-72" x="268.115234"/>
      <use xlink:href="#DejaVuSans-61" x="309.228516"/>
      <use xlink:href="#DejaVuSans-74" x="370.507812"/>
      <use xlink:href="#DejaVuSans-65" x="409.716797"/>
      <use xlink:href="#DejaVuSans-5f" x="471.240234"/>
      <use xlink:href="#DejaVuSans-69" x="521.240234"/>
      <use xlink:href="#DejaVuSans-6d" x="549.023438"/>
      <use xlink:href="#DejaVuSans-70" x="646.435547"/>
      <use xlink:href="#DejaVuSans-61" x="709.912109"/>
      <use xlink:href="#DejaVuSans-63" x="771.191406"/>
      <use xlink:href="#DejaVuSans-74" x="826.171875"/>
     </g>
    </g>
   </g>
   <g id="line2d_11">
    <path d="M 62.205284 200.452465 
L 78.187544 200.452465 
L 94.169804 200.452465 
L 110.152064 200.452465 
L 126.134324 200.452465 
L 142.116585 200.452465 
L 158.098845 200.452465 
L 174.081105 200.452465 
L 190.063365 200.452465 
L 206.045625 200.452465 
L 222.027885 200.452465 
L 238.010145 200.452465 
L 253.992405 200.452465 
L 269.974665 200.452465 
L 285.956926 200.452465 
L 301.939186 200.452465 
L 317.921446 200.452465 
L 333.903706 200.452465 
L 349.885966 200.452465 
" clip-path="url(#p84769cfef3)" style="fill: none; stroke: #1f77b4; stroke-width: 1.5; stroke-linecap: square"/>
   </g>
   <g id="line2d_12">
    <path d="M 62.205284 24.765455 
L 78.187544 45.269431 
L 94.169804 37.958926 
L 110.152064 54.013434 
L 126.134324 92.27228 
L 142.116585 75.571867 
L 158.098845 73.759935 
L 174.081105 79.814905 
L 190.063365 73.325647 
L 206.045625 81.018743 
L 222.027885 93.095505 
L 238.010145 97.803679 
L 253.992405 90.809956 
L 269.974665 102.247252 
L 285.956926 97.803679 
L 301.939186 91.509328 
L 317.921446 104.370956 
L 333.903706 109.449503 
L 349.885966 110.742067 
" clip-path="url(#p84769cfef3)" style="fill: none; stroke-dasharray: 6,2.25; stroke-dashoffset: 0; stroke: #ff7f0e; stroke-width: 1.5"/>
   </g>
   <g id="line2d_13">
    <path d="M 62.205284 176.675237 
L 78.187544 216.883569 
L 94.169804 274.280825 
L 110.152064 169.796785 
L 126.134324 174.737572 
L 142.116585 205.307938 
L 158.098845 209.266051 
L 174.081105 210.533335 
L 190.063365 218.290663 
L 206.045625 165.955088 
L 222.027885 187.621716 
L 238.010145 141.725779 
L 253.992405 152.484405 
L 269.974665 180.916111 
L 285.956926 170.161701 
L 301.939186 166.593535 
L 317.921446 201.411623 
L 333.903706 210.064312 
L 349.885966 209.616907 
" clip-path="url(#p84769cfef3)" style="fill: none; stroke-dasharray: 1.5,1.5; stroke-dashoffset: 0; stroke: #2ca02c; stroke-width: 1.5"/>
   </g>
   <g id="line2d_14">
    <path d="M 62.205284 83.383424 
L 78.187544 103.912902 
L 94.169804 73.298954 
L 110.152064 60.118895 
L 126.134324 87.878301 
L 142.116585 91.947869 
L 158.098845 109.512239 
L 174.081105 103.609062 
L 190.063365 88.974103 
L 206.045625 75.187726 
L 222.027885 104.638318 
L 238.010145 104.19624 
L 253.992405 101.811621 
L 269.974665 102.826444 
L 285.956926 85.205972 
L 301.939186 106.306092 
L 317.921446 101.648726 
L 333.903706 105.678314 
L 349.885966 119.41156 
" clip-path="url(#p84769cfef3)" style="fill: none; stroke-dasharray: 4.5,1.875,2.25,1.875; stroke-dashoffset: 0; stroke: #d62728; stroke-width: 1.5"/>
   </g>
   <g id="line2d_15">
    <path d="M 62.205284 77.603615 
L 78.187544 130.053161 
L 94.169804 102.239645 
L 110.152064 98.574292 
L 126.134324 117.823793 
L 142.116585 130.981482 
L 158.098845 144.046613 
L 174.081105 141.282809 
L 190.063365 138.126954 
L 206.045625 113.61363 
L 222.027885 116.14672 
L 238.010145 113.56528 
L 253.992405 123.869316 
L 269.974665 112.95149 
L 285.956926 127.735591 
L 301.939186 134.792865 
L 317.921446 140.259476 
L 333.903706 136.249612 
L 349.885966 145.586706 
" clip-path="url(#p84769cfef3)" style="fill: none; stroke-dasharray: 7.5,1.5,1.5,1.5; stroke-dashoffset: 0; stroke: #9467bd; stroke-width: 1.5"/>
   </g>
   <g id="line2d_16"/>
   <g id="line2d_17"/>
   <g id="line2d_18"/>
   <g id="line2d_19"/>
   <g id="line2d_20"/>
   <g id="patch_3">
    <path d="M 47.82125 318.04 
L 47.82125 10.8 
" style="fill: none; stroke: #000000; stroke-width: 0.8; stroke-linejoin: miter; stroke-linecap: square"/>
   </g>
   <g id="patch_4">
    <path d="M 364.27 318.04 
L 364.27 10.8 
" style="fill: none; stroke: #000000; stroke-width: 0.8; stroke-linejoin: miter; stroke-linecap: square"/>
   </g>
   <g id="patch_5">
    <path d="M 47.82125 318.04 
L 364.27 318.04 
" style="fill: none; stroke: #000000; stroke-width: 0.8; stroke-linejoin: miter; stroke-linecap: square"/>
   </g>
   <g id="patch_6">
    <path d="M 47.82125 10.8 
L 364.27 10.8 
" style="fill: none; stroke: #000000; stroke-width: 0.8; stroke-linejoin: miter; stroke-linecap: square"/>
   </g>
   <g id="legend_1">
    <g id="patch_7">
     <path d="M 213.51375 313.04 
L 357.27 313.04 
Q 359.27 313.04 359.27 311.04 
L 359.27 223.97125 
Q 359.27 221.97125 357.27 221.97125 
L 213.51375 221.97125 
Q 211.51375 221.97125 211.51375 223.97125 
L 211.51375 311.04 
Q 211.51375 313.04 213.51375 313.04 
z
" style="fill: #ffffff; opacity: 0.8; stroke: #cccccc; stroke-linejoin: miter"/>
    </g>
    <g id="text_13">
     <!-- model -->
     <g transform="translate(269.822344 233.569688) scale(0.1 -0.1)">
      <defs>
       <path id="DejaVuSans-6f" d="M 1959 3097 
Q 1497 3097 1228 2736 
Q 959 2375 959 1747 
Q 959 1119 1226 758 
Q 1494 397 1959 397 
Q 2419 397 2687 759 
Q 2956 1122 2956 1747 
Q 2956 2369 2687 2733 
Q 2419 3097 1959 3097 
z
M 1959 3584 
Q 2709 3584 3137 3096 
Q 3566 2609 3566 1747 
Q 3566 888 3137 398 
Q 2709 -91 1959 -91 
Q 1206 -91 779 398 
Q 353 888 353 1747 
Q 353 2609 779 3096 
Q 1206 3584 1959 3584 
z
" transform="scale(0.015625)"/>
       <path id="DejaVuSans-6c" d="M 603 4863 
L 1178 4863 
L 1178 0 
L 603 0 
L 603 4863 
z
" transform="scale(0.015625)"/>
      </defs>
      <use xlink:href="#DejaVuSans-6d"/>
      <use xlink:href="#DejaVuSans-6f" x="97.412109"/>
      <use xlink:href="#DejaVuSans-64" x="158.59375"/>
      <use xlink:href="#DejaVuSans-65" x="222.070312"/>
      <use xlink:href="#DejaVuSans-6c" x="283.59375"/>
     </g>
    </g>
    <g id="line2d_21">
     <path d="M 215.51375 244.747813 
L 225.51375 244.747813 
L 235.51375 244.747813 
" style="fill: none; stroke: #1f77b4; stroke-width: 1.5; stroke-linecap: square"/>
    </g>
    <g id="text_14">
     <!-- None -->
     <g transform="translate(243.51375 248.247813) scale(0.1 -0.1)">
      <defs>
       <path id="DejaVuSans-4e" d="M 628 4666 
L 1478 4666 
L 3547 763 
L 3547 4666 
L 4159 4666 
L 4159 0 
L 3309 0 
L 1241 3903 
L 1241 0 
L 628 0 
L 628 4666 
z
" transform="scale(0.015625)"/>
       <path id="DejaVuSans-6e" d="M 3513 2113 
L 3513 0 
L 2938 0 
L 2938 2094 
Q 2938 2591 2744 2837 
Q 2550 3084 2163 3084 
Q 1697 3084 1428 2787 
Q 1159 2491 1159 1978 
L 1159 0 
L 581 0 
L 581 3500 
L 1159 3500 
L 1159 2956 
Q 1366 3272 1645 3428 
Q 1925 3584 2291 3584 
Q 2894 3584 3203 3211 
Q 3513 2838 3513 2113 
z
" transform="scale(0.015625)"/>
      </defs>
      <use xlink:href="#DejaVuSans-4e"/>
      <use xlink:href="#DejaVuSans-6f" x="74.804688"/>
      <use xlink:href="#DejaVuSans-6e" x="135.986328"/>
      <use xlink:href="#DejaVuSans-65" x="199.365234"/>
     </g>
    </g>
    <g id="line2d_22">
     <path d="M 215.51375 259.425938 
L 225.51375 259.425938 
L 235.51375 259.425938 
" style="fill: none; stroke-dasharray: 6,2.25; stroke-dashoffset: 0; stroke: #ff7f0e; stroke-width: 1.5"/>
    </g>
    <g id="text_15">
     <!-- logisticregression -->
     <g transform="translate(243.51375 262.925938) scale(0.1 -0.1)">
      <defs>
       <path id="DejaVuSans-67" d="M 2906 1791 
Q 2906 2416 2648 2759 
Q 2391 3103 1925 3103 
Q 1463 3103 1205 2759 
Q 947 2416 947 1791 
Q 947 1169 1205 825 
Q 1463 481 1925 481 
Q 2391 481 2648 825 
Q 2906 1169 2906 1791 
z
M 3481 434 
Q 3481 -459 3084 -895 
Q 2688 -1331 1869 -1331 
Q 1566 -1331 1297 -1286 
Q 1028 -1241 775 -1147 
L 775 -588 
Q 1028 -725 1275 -790 
Q 1522 -856 1778 -856 
Q 2344 -856 2625 -561 
Q 2906 -266 2906 331 
L 2906 616 
Q 2728 306 2450 153 
Q 2172 0 1784 0 
Q 1141 0 747 490 
Q 353 981 353 1791 
Q 353 2603 747 3093 
Q 1141 3584 1784 3584 
Q 2172 3584 2450 3431 
Q 2728 3278 2906 2969 
L 2906 3500 
L 3481 3500 
L 3481 434 
z
" transform="scale(0.015625)"/>
      </defs>
      <use xlink:href="#DejaVuSans-6c"/>
      <use xlink:href="#DejaVuSans-6f" x="27.783203"/>
      <use xlink:href="#DejaVuSans-67" x="88.964844"/>
      <use xlink:href="#DejaVuSans-69" x="152.441406"/>
      <use xlink:href="#DejaVuSans-73" x="180.224609"/>
      <use xlink:href="#DejaVuSans-74" x="232.324219"/>
      <use xlink:href="#DejaVuSans-69" x="271.533203"/>
      <use xlink:href="#DejaVuSans-63" x="299.316406"/>
      <use xlink:href="#DejaVuSans-72" x="354.296875"/>
      <use xlink:href="#DejaVuSans-65" x="393.160156"/>
      <use xlink:href="#DejaVuSans-67" x="454.683594"/>
      <use xlink:href="#DejaVuSans-72" x="518.160156"/>
      <use xlink:href="#DejaVuSans-65" x="557.023438"/>
      <use xlink:href="#DejaVuSans-73" x="618.546875"/>
      <use xlink:href="#DejaVuSans-73" x="670.646484"/>
      <use xlink:href="#DejaVuSans-69" x="722.746094"/>
      <use xlink:href="#DejaVuSans-6f" x="750.529297"/>
      <use xlink:href="#DejaVuSans-6e" x="811.710938"/>
     </g>
    </g>
    <g id="line2d_23">
     <path d="M 215.51375 274.104062 
L 225.51375 274.104062 
L 235.51375 274.104062 
" style="fill: none; stroke-dasharray: 1.5,1.5; stroke-dashoffset: 0; stroke: #2ca02c; stroke-width: 1.5"/>
    </g>
    <g id="text_16">
     <!-- decisiontreeclassifier -->
     <g transform="translate(243.51375 277.604062) scale(0.1 -0.1)">
      <use xlink:href="#DejaVuSans-64"/>
      <use xlink:href="#DejaVuSans-65" x="63.476562"/>
      <use xlink:href="#DejaVuSans-63" x="125"/>
      <use xlink:href="#DejaVuSans-69" x="179.980469"/>
      <use xlink:href="#DejaVuSans-73" x="207.763672"/>
      <use xlink:href="#DejaVuSans-69" x="259.863281"/>
      <use xlink:href="#DejaVuSans-6f" x="287.646484"/>
      <use xlink:href="#DejaVuSans-6e" x="348.828125"/>
      <use xlink:href="#DejaVuSans-74" x="412.207031"/>
      <use xlink:href="#DejaVuSans-72" x="451.416016"/>
      <use xlink:href="#DejaVuSans-65" x="490.279297"/>
      <use xlink:href="#DejaVuSans-65" x="551.802734"/>
      <use xlink:href="#DejaVuSans-63" x="613.326172"/>
      <use xlink:href="#DejaVuSans-6c" x="668.306641"/>
      <use xlink:href="#DejaVuSans-61" x="696.089844"/>
      <use xlink:href="#DejaVuSans-73" x="757.369141"/>
      <use xlink:href="#DejaVuSans-73" x="809.46875"/>
      <use xlink:href="#DejaVuSans-69" x="861.568359"/>
      <use xlink:href="#DejaVuSans-66" x="889.351562"/>
      <use xlink:href="#DejaVuSans-69" x="924.556641"/>
      <use xlink:href="#DejaVuSans-65" x="952.339844"/>
      <use xlink:href="#DejaVuSans-72" x="1013.863281"/>
     </g>
    </g>
    <g id="line2d_24">
     <path d="M 215.51375 288.782188 
L 225.51375 288.782188 
L 235.51375 288.782188 
" style="fill: none; stroke-dasharray: 4.5,1.875,2.25,1.875; stroke-dashoffset: 0; stroke: #d62728; stroke-width: 1.5"/>
    </g>
    <g id="text_17">
     <!-- adaboostclassifier -->
     <g transform="translate(243.51375 292.282188) scale(0.1 -0.1)">
      <defs>
       <path id="DejaVuSans-62" d="M 3116 1747 
Q 3116 2381 2855 2742 
Q 2594 3103 2138 3103 
Q 1681 3103 1420 2742 
Q 1159 2381 1159 1747 
Q 1159 1113 1420 752 
Q 1681 391 2138 391 
Q 2594 391 2855 752 
Q 3116 1113 3116 1747 
z
M 1159 2969 
Q 1341 3281 1617 3432 
Q 1894 3584 2278 3584 
Q 2916 3584 3314 3078 
Q 3713 2572 3713 1747 
Q 3713 922 3314 415 
Q 2916 -91 2278 -91 
Q 1894 -91 1617 61 
Q 1341 213 1159 525 
L 1159 0 
L 581 0 
L 581 4863 
L 1159 4863 
L 1159 2969 
z
" transform="scale(0.015625)"/>
      </defs>
      <use xlink:href="#DejaVuSans-61"/>
      <use xlink:href="#DejaVuSans-64" x="61.279297"/>
      <use xlink:href="#DejaVuSans-61" x="124.755859"/>
      <use xlink:href="#DejaVuSans-62" x="186.035156"/>
      <use xlink:href="#DejaVuSans-6f" x="249.511719"/>
      <use xlink:href="#DejaVuSans-6f" x="310.693359"/>
      <use xlink:href="#DejaVuSans-73" x="371.875"/>
      <use xlink:href="#DejaVuSans-74" x="423.974609"/>
      <use xlink:href="#DejaVuSans-63" x="463.183594"/>
      <use xlink:href="#DejaVuSans-6c" x="518.164062"/>
      <use xlink:href="#DejaVuSans-61" x="545.947266"/>
      <use xlink:href="#DejaVuSans-73" x="607.226562"/>
      <use xlink:href="#DejaVuSans-73" x="659.326172"/>
      <use xlink:href="#DejaVuSans-69" x="711.425781"/>
      <use xlink:href="#DejaVuSans-66" x="739.208984"/>
      <use xlink:href="#DejaVuSans-69" x="774.414062"/>
      <use xlink:href="#DejaVuSans-65" x="802.197266"/>
      <use xlink:href="#DejaVuSans-72" x="863.720703"/>
     </g>
    </g>
    <g id="line2d_25">
     <path d="M 215.51375 303.460312 
L 225.51375 303.460312 
L 235.51375 303.460312 
" style="fill: none; stroke-dasharray: 7.5,1.5,1.5,1.5; stroke-dashoffset: 0; stroke: #9467bd; stroke-width: 1.5"/>
    </g>
    <g id="text_18">
     <!-- randomforestclassifier -->
     <g transform="translate(243.51375 306.960312) scale(0.1 -0.1)">
      <use xlink:href="#DejaVuSans-72"/>
      <use xlink:href="#DejaVuSans-61" x="41.113281"/>
      <use xlink:href="#DejaVuSans-6e" x="102.392578"/>
      <use xlink:href="#DejaVuSans-64" x="165.771484"/>
      <use xlink:href="#DejaVuSans-6f" x="229.248047"/>
      <use xlink:href="#DejaVuSans-6d" x="290.429688"/>
      <use xlink:href="#DejaVuSans-66" x="387.841797"/>
      <use xlink:href="#DejaVuSans-6f" x="423.046875"/>
      <use xlink:href="#DejaVuSans-72" x="484.228516"/>
      <use xlink:href="#DejaVuSans-65" x="523.091797"/>
      <use xlink:href="#DejaVuSans-73" x="584.615234"/>
      <use xlink:href="#DejaVuSans-74" x="636.714844"/>
      <use xlink:href="#DejaVuSans-63" x="675.923828"/>
      <use xlink:href="#DejaVuSans-6c" x="730.904297"/>
      <use xlink:href="#DejaVuSans-61" x="758.6875"/>
      <use xlink:href="#DejaVuSans-73" x="819.966797"/>
      <use xlink:href="#DejaVuSans-73" x="872.066406"/>
      <use xlink:href="#DejaVuSans-69" x="924.166016"/>
      <use xlink:href="#DejaVuSans-66" x="951.949219"/>
      <use xlink:href="#DejaVuSans-69" x="987.154297"/>
      <use xlink:href="#DejaVuSans-65" x="1014.9375"/>
      <use xlink:href="#DejaVuSans-72" x="1076.460938"/>
     </g>
    </g>
   </g>
  </g>
  <g id="axes_2">
   <g id="patch_8">
    <path d="M 392.75125 318.04 
L 709.2 318.04 
L 709.2 10.8 
L 392.75125 10.8 
z
" style="fill: #ffffff"/>
   </g>
   <g id="PolyCollection_6">
    <defs>
     <path id="m9131110b06" d="M 407.135284 -77.613473 
L 407.135284 -77.613473 
L 423.117544 -77.613473 
L 439.099804 -77.613473 
L 455.082064 -77.613473 
L 471.064324 -77.613473 
L 487.046585 -77.613473 
L 503.028845 -77.613473 
L 519.011105 -77.613473 
L 534.993365 -77.613473 
L 550.975625 -77.613473 
L 566.957885 -77.613473 
L 582.940145 -77.613473 
L 598.922405 -77.613473 
L 614.904665 -77.613473 
L 630.886926 -77.613473 
L 646.869186 -77.613473 
L 662.851446 -77.613473 
L 678.833706 -77.613473 
L 694.815966 -77.613473 
L 694.815966 -77.613473 
L 694.815966 -77.613473 
L 678.833706 -77.613473 
L 662.851446 -77.613473 
L 646.869186 -77.613473 
L 630.886926 -77.613473 
L 614.904665 -77.613473 
L 598.922405 -77.613473 
L 582.940145 -77.613473 
L 566.957885 -77.613473 
L 550.975625 -77.613473 
L 534.993365 -77.613473 
L 519.011105 -77.613473 
L 503.028845 -77.613473 
L 487.046585 -77.613473 
L 471.064324 -77.613473 
L 455.082064 -77.613473 
L 439.099804 -77.613473 
L 423.117544 -77.613473 
L 407.135284 -77.613473 
z
" style="stroke: #1f77b4; stroke-opacity: 0.2"/>
    </defs>
    <g clip-path="url(#pf90e795107)">
     <use xlink:href="#m9131110b06" x="0" y="360" style="fill: #1f77b4; fill-opacity: 0.2; stroke: #1f77b4; stroke-opacity: 0.2"/>
    </g>
   </g>
   <g id="PolyCollection_7">
    <defs>
     <path id="m6eaa1d4186" d="M 407.135284 -153.664482 
L 407.135284 -153.664482 
L 423.117544 -143.461996 
L 439.099804 -146.851747 
L 455.082064 -142.711883 
L 471.064324 -125.255141 
L 487.046585 -131.730799 
L 503.028845 -129.836527 
L 519.011105 -126.38031 
L 534.993365 -130.344515 
L 550.975625 -127.733362 
L 566.957885 -123.968555 
L 582.940145 -122.036302 
L 598.922405 -124.410077 
L 614.904665 -119.562828 
L 630.886926 -122.036302 
L 646.869186 -124.172699 
L 662.851446 -118.850695 
L 678.833706 -117.459663 
L 694.815966 -116.714298 
L 694.815966 -116.714298 
L 694.815966 -116.714298 
L 678.833706 -117.459663 
L 662.851446 -118.850695 
L 646.869186 -124.172699 
L 630.886926 -122.036302 
L 614.904665 -119.562828 
L 598.922405 -124.410077 
L 582.940145 -122.036302 
L 566.957885 -123.968555 
L 550.975625 -127.733362 
L 534.993365 -130.344515 
L 519.011105 -126.38031 
L 503.028845 -129.836527 
L 487.046585 -131.730799 
L 471.064324 -125.255141 
L 455.082064 -142.711883 
L 439.099804 -146.851747 
L 423.117544 -143.461996 
L 407.135284 -153.664482 
z
" style="stroke: #ff7f0e; stroke-opacity: 0.2"/>
    </defs>
    <g clip-path="url(#pf90e795107)">
     <use xlink:href="#m6eaa1d4186" x="0" y="360" style="fill: #ff7f0e; fill-opacity: 0.2; stroke: #ff7f0e; stroke-opacity: 0.2"/>
    </g>
   </g>
   <g id="PolyCollection_8">
    <defs>
     <path id="mb27ae5545c" d="M 407.135284 -91.397886 
L 407.135284 -87.729404 
L 423.117544 -74.47092 
L 439.099804 -55.925455 
L 455.082064 -91.831524 
L 471.064324 -90.175052 
L 487.046585 -77.926894 
L 503.028845 -76.264264 
L 519.011105 -76.296733 
L 534.993365 -74.703559 
L 550.975625 -93.873368 
L 566.957885 -84.478433 
L 582.940145 -102.695263 
L 598.922405 -96.102836 
L 614.904665 -85.947828 
L 630.886926 -90.45878 
L 646.869186 -92.603357 
L 662.851446 -79.631524 
L 678.833706 -75.795705 
L 694.815966 -76.435772 
L 694.815966 -78.316915 
L 694.815966 -78.316915 
L 678.833706 -77.401409 
L 662.851446 -81.839818 
L 646.869186 -93.869005 
L 630.886926 -91.814246 
L 614.904665 -87.667372 
L 598.922405 -97.813875 
L 582.940145 -104.645626 
L 566.957885 -86.569147 
L 550.975625 -95.585861 
L 534.993365 -76.41427 
L 519.011105 -79.767928 
L 503.028845 -78.406124 
L 487.046585 -80.860173 
L 471.064324 -92.350766 
L 455.082064 -93.364895 
L 439.099804 -58.251004 
L 423.117544 -76.255581 
L 407.135284 -91.397886 
z
" style="stroke: #2ca02c; stroke-opacity: 0.2"/>
    </defs>
    <g clip-path="url(#pf90e795107)">
     <use xlink:href="#mb27ae5545c" x="0" y="360" style="fill: #2ca02c; fill-opacity: 0.2; stroke: #2ca02c; stroke-opacity: 0.2"/>
    </g>
   </g>
   <g id="PolyCollection_9">
    <defs>
     <path id="m85d9737767" d="M 407.135284 -125.193423 
L 407.135284 -125.193423 
L 423.117544 -116.448435 
L 439.099804 -135.049337 
L 455.082064 -138.239691 
L 471.064324 -124.039768 
L 487.046585 -122.344892 
L 503.028845 -114.008194 
L 519.011105 -115.907214 
L 534.993365 -121.974583 
L 550.975625 -126.484756 
L 566.957885 -114.620628 
L 582.940145 -115.399226 
L 598.922405 -115.840748 
L 614.904665 -114.554162 
L 630.886926 -120.792443 
L 646.869186 -112.826054 
L 662.851446 -115.570138 
L 678.833706 -114.924471 
L 694.815966 -109.331857 
L 694.815966 -109.331857 
L 694.815966 -109.331857 
L 678.833706 -114.924471 
L 662.851446 -115.570138 
L 646.869186 -112.826054 
L 630.886926 -120.792443 
L 614.904665 -114.554162 
L 598.922405 -115.840748 
L 582.940145 -115.399226 
L 566.957885 -114.620628 
L 550.975625 -126.484756 
L 534.993365 -121.974583 
L 519.011105 -115.907214 
L 503.028845 -114.008194 
L 487.046585 -122.344892 
L 471.064324 -124.039768 
L 455.082064 -138.239691 
L 439.099804 -135.049337 
L 423.117544 -116.448435 
L 407.135284 -125.193423 
z
" style="stroke: #d62728; stroke-opacity: 0.2"/>
    </defs>
    <g clip-path="url(#pf90e795107)">
     <use xlink:href="#m85d9737767" x="0" y="360" style="fill: #d62728; fill-opacity: 0.2; stroke: #d62728; stroke-opacity: 0.2"/>
    </g>
   </g>
   <g id="PolyCollection_10">
    <defs>
     <path id="m0bdb19a092" d="M 407.135284 -130.843406 
L 407.135284 -127.914472 
L 423.117544 -104.408991 
L 439.099804 -116.30686 
L 455.082064 -119.922751 
L 471.064324 -111.548187 
L 487.046585 -104.341215 
L 503.028845 -97.937603 
L 519.011105 -98.260182 
L 534.993365 -99.720999 
L 550.975625 -110.720615 
L 566.957885 -108.732607 
L 582.940145 -109.619919 
L 598.922405 -103.857988 
L 614.904665 -107.589484 
L 630.886926 -100.858766 
L 646.869186 -98.601932 
L 662.851446 -97.153374 
L 678.833706 -98.42168 
L 694.815966 -95.207306 
L 694.815966 -97.170603 
L 694.815966 -97.170603 
L 678.833706 -100.54868 
L 662.851446 -99.465308 
L 646.869186 -100.76786 
L 630.886926 -103.526645 
L 614.904665 -109.513695 
L 598.922405 -105.484442 
L 582.940145 -111.532816 
L 566.957885 -111.473434 
L 550.975625 -112.839599 
L 534.993365 -102.488484 
L 519.011105 -100.278554 
L 503.028845 -99.769564 
L 487.046585 -106.83188 
L 471.064324 -114.049267 
L 455.082064 -121.954402 
L 439.099804 -118.296006 
L 423.117544 -107.182707 
L 407.135284 -130.843406 
z
" style="stroke: #9467bd; stroke-opacity: 0.2"/>
    </defs>
    <g clip-path="url(#pf90e795107)">
     <use xlink:href="#m0bdb19a092" x="0" y="360" style="fill: #9467bd; fill-opacity: 0.2; stroke: #9467bd; stroke-opacity: 0.2"/>
    </g>
   </g>
   <g id="matplotlib.axis_3">
    <g id="xtick_6">
     <g id="line2d_26">
      <g>
       <use xlink:href="#m1274fa8a1b" x="439.099804" y="318.04" style="stroke: #000000; stroke-width: 0.8"/>
      </g>
     </g>
     <g id="text_19">
      <!-- 0.2 -->
      <g transform="translate(431.148242 332.638438) scale(0.1 -0.1)">
       <use xlink:href="#DejaVuSans-30"/>
       <use xlink:href="#DejaVuSans-2e" x="63.623047"/>
       <use xlink:href="#DejaVuSans-32" x="95.410156"/>
      </g>
     </g>
    </g>
    <g id="xtick_7">
     <g id="line2d_27">
      <g>
       <use xlink:href="#m1274fa8a1b" x="503.028845" y="318.04" style="stroke: #000000; stroke-width: 0.8"/>
      </g>
     </g>
     <g id="text_20">
      <!-- 0.4 -->
      <g transform="translate(495.077282 332.638438) scale(0.1 -0.1)">
       <use xlink:href="#DejaVuSans-30"/>
       <use xlink:href="#DejaVuSans-2e" x="63.623047"/>
       <use xlink:href="#DejaVuSans-34" x="95.410156"/>
      </g>
     </g>
    </g>
    <g id="xtick_8">
     <g id="line2d_28">
      <g>
       <use xlink:href="#m1274fa8a1b" x="566.957885" y="318.04" style="stroke: #000000; stroke-width: 0.8"/>
      </g>
     </g>
     <g id="text_21">
      <!-- 0.6 -->
      <g transform="translate(559.006323 332.638438) scale(0.1 -0.1)">
       <use xlink:href="#DejaVuSans-30"/>
       <use xlink:href="#DejaVuSans-2e" x="63.623047"/>
       <use xlink:href="#DejaVuSans-36" x="95.410156"/>
      </g>
     </g>
    </g>
    <g id="xtick_9">
     <g id="line2d_29">
      <g>
       <use xlink:href="#m1274fa8a1b" x="630.886926" y="318.04" style="stroke: #000000; stroke-width: 0.8"/>
      </g>
     </g>
     <g id="text_22">
      <!-- 0.8 -->
      <g transform="translate(622.935363 332.638438) scale(0.1 -0.1)">
       <use xlink:href="#DejaVuSans-30"/>
       <use xlink:href="#DejaVuSans-2e" x="63.623047"/>
       <use xlink:href="#DejaVuSans-38" x="95.410156"/>
      </g>
     </g>
    </g>
    <g id="xtick_10">
     <g id="line2d_30">
      <g>
       <use xlink:href="#m1274fa8a1b" x="694.815966" y="318.04" style="stroke: #000000; stroke-width: 0.8"/>
      </g>
     </g>
     <g id="text_23">
      <!-- 1.0 -->
      <g transform="translate(686.864403 332.638438) scale(0.1 -0.1)">
       <use xlink:href="#DejaVuSans-31"/>
       <use xlink:href="#DejaVuSans-2e" x="63.623047"/>
       <use xlink:href="#DejaVuSans-30" x="95.410156"/>
      </g>
     </g>
    </g>
    <g id="text_24">
     <!-- frac -->
     <g transform="translate(541.346719 346.316563) scale(0.1 -0.1)">
      <use xlink:href="#DejaVuSans-66"/>
      <use xlink:href="#DejaVuSans-72" x="35.205078"/>
      <use xlink:href="#DejaVuSans-61" x="76.318359"/>
      <use xlink:href="#DejaVuSans-63" x="137.597656"/>
     </g>
    </g>
   </g>
   <g id="matplotlib.axis_4">
    <g id="ytick_6">
     <g id="line2d_31">
      <g>
       <use xlink:href="#me185c50024" x="392.75125" y="260.623756" style="stroke: #000000; stroke-width: 0.8"/>
      </g>
     </g>
    </g>
    <g id="ytick_7">
     <g id="line2d_32">
      <g>
       <use xlink:href="#me185c50024" x="392.75125" y="201.659181" style="stroke: #000000; stroke-width: 0.8"/>
      </g>
     </g>
    </g>
    <g id="ytick_8">
     <g id="line2d_33">
      <g>
       <use xlink:href="#me185c50024" x="392.75125" y="142.694605" style="stroke: #000000; stroke-width: 0.8"/>
      </g>
     </g>
    </g>
    <g id="ytick_9">
     <g id="line2d_34">
      <g>
       <use xlink:href="#me185c50024" x="392.75125" y="83.73003" style="stroke: #000000; stroke-width: 0.8"/>
      </g>
     </g>
    </g>
    <g id="ytick_10">
     <g id="line2d_35">
      <g>
       <use xlink:href="#me185c50024" x="392.75125" y="24.765455" style="stroke: #000000; stroke-width: 0.8"/>
      </g>
     </g>
    </g>
    <g id="text_25">
     <!-- statistical_parity_difference -->
     <g transform="translate(382.893437 233.330938) rotate(-90) scale(0.1 -0.1)">
      <defs>
       <path id="DejaVuSans-79" d="M 2059 -325 
Q 1816 -950 1584 -1140 
Q 1353 -1331 966 -1331 
L 506 -1331 
L 506 -850 
L 844 -850 
Q 1081 -850 1212 -737 
Q 1344 -625 1503 -206 
L 1606 56 
L 191 3500 
L 800 3500 
L 1894 763 
L 2988 3500 
L 3597 3500 
L 2059 -325 
z
" transform="scale(0.015625)"/>
      </defs>
      <use xlink:href="#DejaVuSans-73"/>
      <use xlink:href="#DejaVuSans-74" x="52.099609"/>
      <use xlink:href="#DejaVuSans-61" x="91.308594"/>
      <use xlink:href="#DejaVuSans-74" x="152.587891"/>
      <use xlink:href="#DejaVuSans-69" x="191.796875"/>
      <use xlink:href="#DejaVuSans-73" x="219.580078"/>
      <use xlink:href="#DejaVuSans-74" x="271.679688"/>
      <use xlink:href="#DejaVuSans-69" x="310.888672"/>
      <use xlink:href="#DejaVuSans-63" x="338.671875"/>
      <use xlink:href="#DejaVuSans-61" x="393.652344"/>
      <use xlink:href="#DejaVuSans-6c" x="454.931641"/>
      <use xlink:href="#DejaVuSans-5f" x="482.714844"/>
      <use xlink:href="#DejaVuSans-70" x="532.714844"/>
      <use xlink:href="#DejaVuSans-61" x="596.191406"/>
      <use xlink:href="#DejaVuSans-72" x="657.470703"/>
      <use xlink:href="#DejaVuSans-69" x="698.583984"/>
      <use xlink:href="#DejaVuSans-74" x="726.367188"/>
      <use xlink:href="#DejaVuSans-79" x="765.576172"/>
      <use xlink:href="#DejaVuSans-5f" x="824.755859"/>
      <use xlink:href="#DejaVuSans-64" x="874.755859"/>
      <use xlink:href="#DejaVuSans-69" x="938.232422"/>
      <use xlink:href="#DejaVuSans-66" x="966.015625"/>
      <use xlink:href="#DejaVuSans-66" x="1001.220703"/>
      <use xlink:href="#DejaVuSans-65" x="1036.425781"/>
      <use xlink:href="#DejaVuSans-72" x="1097.949219"/>
      <use xlink:href="#DejaVuSans-65" x="1136.8125"/>
      <use xlink:href="#DejaVuSans-6e" x="1198.335938"/>
      <use xlink:href="#DejaVuSans-63" x="1261.714844"/>
      <use xlink:href="#DejaVuSans-65" x="1316.695312"/>
     </g>
    </g>
   </g>
   <g id="line2d_36">
    <path d="M 407.135284 282.386527 
L 423.117544 282.386527 
L 439.099804 282.386527 
L 455.082064 282.386527 
L 471.064324 282.386527 
L 487.046585 282.386527 
L 503.028845 282.386527 
L 519.011105 282.386527 
L 534.993365 282.386527 
L 550.975625 282.386527 
L 566.957885 282.386527 
L 582.940145 282.386527 
L 598.922405 282.386527 
L 614.904665 282.386527 
L 630.886926 282.386527 
L 646.869186 282.386527 
L 662.851446 282.386527 
L 678.833706 282.386527 
L 694.815966 282.386527 
" clip-path="url(#pf90e795107)" style="fill: none; stroke: #1f77b4; stroke-width: 1.5; stroke-linecap: square"/>
   </g>
   <g id="line2d_37">
    <path d="M 407.135284 206.335518 
L 423.117544 216.538004 
L 439.099804 213.148253 
L 455.082064 217.288117 
L 471.064324 234.744859 
L 487.046585 228.269201 
L 503.028845 230.163473 
L 519.011105 233.61969 
L 534.993365 229.655485 
L 550.975625 232.266638 
L 566.957885 236.031445 
L 582.940145 237.963698 
L 598.922405 235.589923 
L 614.904665 240.437172 
L 630.886926 237.963698 
L 646.869186 235.827301 
L 662.851446 241.149305 
L 678.833706 242.540337 
L 694.815966 243.285702 
" clip-path="url(#pf90e795107)" style="fill: none; stroke-dasharray: 6,2.25; stroke-dashoffset: 0; stroke: #ff7f0e; stroke-width: 1.5"/>
   </g>
   <g id="line2d_38">
    <path d="M 407.135284 270.458877 
L 423.117544 284.626042 
L 439.099804 302.878379 
L 455.082064 267.404018 
L 471.064324 268.751468 
L 487.046585 280.518081 
L 503.028845 282.613745 
L 519.011105 281.998557 
L 534.993365 284.486654 
L 550.975625 265.27778 
L 566.957885 274.459827 
L 582.940145 256.371186 
L 598.922405 263.032948 
L 614.904665 273.144661 
L 630.886926 268.844045 
L 646.869186 266.747906 
L 662.851446 279.286187 
L 678.833706 283.347716 
L 694.815966 282.631691 
" clip-path="url(#pf90e795107)" style="fill: none; stroke-dasharray: 1.5,1.5; stroke-dashoffset: 0; stroke: #2ca02c; stroke-width: 1.5"/>
   </g>
   <g id="line2d_39">
    <path d="M 407.135284 234.806577 
L 423.117544 243.551565 
L 439.099804 224.950663 
L 455.082064 221.760309 
L 471.064324 235.960232 
L 487.046585 237.655108 
L 503.028845 245.991806 
L 519.011105 244.092786 
L 534.993365 238.025417 
L 550.975625 233.515244 
L 566.957885 245.379372 
L 582.940145 244.600774 
L 598.922405 244.159252 
L 614.904665 245.445838 
L 630.886926 239.207557 
L 646.869186 247.173946 
L 662.851446 244.429862 
L 678.833706 245.075529 
L 694.815966 250.668143 
" clip-path="url(#pf90e795107)" style="fill: none; stroke-dasharray: 4.5,1.875,2.25,1.875; stroke-dashoffset: 0; stroke: #d62728; stroke-width: 1.5"/>
   </g>
   <g id="line2d_40">
    <path d="M 407.135284 230.658643 
L 423.117544 254.194339 
L 439.099804 242.73888 
L 455.082064 239.099882 
L 471.064324 247.256364 
L 487.046585 254.477862 
L 503.028845 261.204572 
L 519.011105 260.742445 
L 534.993365 258.887672 
L 550.975625 248.200082 
L 566.957885 249.959239 
L 582.940145 249.420867 
L 598.922405 255.328054 
L 614.904665 251.472948 
L 630.886926 257.806465 
L 646.869186 260.322287 
L 662.851446 261.702305 
L 678.833706 260.480285 
L 694.815966 263.767584 
" clip-path="url(#pf90e795107)" style="fill: none; stroke-dasharray: 7.5,1.5,1.5,1.5; stroke-dashoffset: 0; stroke: #9467bd; stroke-width: 1.5"/>
   </g>
   <g id="line2d_41"/>
   <g id="line2d_42"/>
   <g id="line2d_43"/>
   <g id="line2d_44"/>
   <g id="line2d_45"/>
   <g id="patch_9">
    <path d="M 392.75125 318.04 
L 392.75125 10.8 
" style="fill: none; stroke: #000000; stroke-width: 0.8; stroke-linejoin: miter; stroke-linecap: square"/>
   </g>
   <g id="patch_10">
    <path d="M 709.2 318.04 
L 709.2 10.8 
" style="fill: none; stroke: #000000; stroke-width: 0.8; stroke-linejoin: miter; stroke-linecap: square"/>
   </g>
   <g id="patch_11">
    <path d="M 392.75125 318.04 
L 709.2 318.04 
" style="fill: none; stroke: #000000; stroke-width: 0.8; stroke-linejoin: miter; stroke-linecap: square"/>
   </g>
   <g id="patch_12">
    <path d="M 392.75125 10.8 
L 709.2 10.8 
" style="fill: none; stroke: #000000; stroke-width: 0.8; stroke-linejoin: miter; stroke-linecap: square"/>
   </g>
   <g id="legend_2">
    <g id="patch_13">
     <path d="M 558.44375 106.86875 
L 702.2 106.86875 
Q 704.2 106.86875 704.2 104.86875 
L 704.2 17.8 
Q 704.2 15.8 702.2 15.8 
L 558.44375 15.8 
Q 556.44375 15.8 556.44375 17.8 
L 556.44375 104.86875 
Q 556.44375 106.86875 558.44375 106.86875 
z
" style="fill: #ffffff; opacity: 0.8; stroke: #cccccc; stroke-linejoin: miter"/>
    </g>
    <g id="text_26">
     <!-- model -->
     <g transform="translate(614.752344 27.398438) scale(0.1 -0.1)">
      <use xlink:href="#DejaVuSans-6d"/>
      <use xlink:href="#DejaVuSans-6f" x="97.412109"/>
      <use xlink:href="#DejaVuSans-64" x="158.59375"/>
      <use xlink:href="#DejaVuSans-65" x="222.070312"/>
      <use xlink:href="#DejaVuSans-6c" x="283.59375"/>
     </g>
    </g>
    <g id="line2d_46">
     <path d="M 560.44375 38.576563 
L 570.44375 38.576563 
L 580.44375 38.576563 
" style="fill: none; stroke: #1f77b4; stroke-width: 1.5; stroke-linecap: square"/>
    </g>
    <g id="text_27">
     <!-- None -->
     <g transform="translate(588.44375 42.076563) scale(0.1 -0.1)">
      <use xlink:href="#DejaVuSans-4e"/>
      <use xlink:href="#DejaVuSans-6f" x="74.804688"/>
      <use xlink:href="#DejaVuSans-6e" x="135.986328"/>
      <use xlink:href="#DejaVuSans-65" x="199.365234"/>
     </g>
    </g>
    <g id="line2d_47">
     <path d="M 560.44375 53.254688 
L 570.44375 53.254688 
L 580.44375 53.254688 
" style="fill: none; stroke-dasharray: 6,2.25; stroke-dashoffset: 0; stroke: #ff7f0e; stroke-width: 1.5"/>
    </g>
    <g id="text_28">
     <!-- logisticregression -->
     <g transform="translate(588.44375 56.754688) scale(0.1 -0.1)">
      <use xlink:href="#DejaVuSans-6c"/>
      <use xlink:href="#DejaVuSans-6f" x="27.783203"/>
      <use xlink:href="#DejaVuSans-67" x="88.964844"/>
      <use xlink:href="#DejaVuSans-69" x="152.441406"/>
      <use xlink:href="#DejaVuSans-73" x="180.224609"/>
      <use xlink:href="#DejaVuSans-74" x="232.324219"/>
      <use xlink:href="#DejaVuSans-69" x="271.533203"/>
      <use xlink:href="#DejaVuSans-63" x="299.316406"/>
      <use xlink:href="#DejaVuSans-72" x="354.296875"/>
      <use xlink:href="#DejaVuSans-65" x="393.160156"/>
      <use xlink:href="#DejaVuSans-67" x="454.683594"/>
      <use xlink:href="#DejaVuSans-72" x="518.160156"/>
      <use xlink:href="#DejaVuSans-65" x="557.023438"/>
      <use xlink:href="#DejaVuSans-73" x="618.546875"/>
      <use xlink:href="#DejaVuSans-73" x="670.646484"/>
      <use xlink:href="#DejaVuSans-69" x="722.746094"/>
      <use xlink:href="#DejaVuSans-6f" x="750.529297"/>
      <use xlink:href="#DejaVuSans-6e" x="811.710938"/>
     </g>
    </g>
    <g id="line2d_48">
     <path d="M 560.44375 67.932813 
L 570.44375 67.932813 
L 580.44375 67.932813 
" style="fill: none; stroke-dasharray: 1.5,1.5; stroke-dashoffset: 0; stroke: #2ca02c; stroke-width: 1.5"/>
    </g>
    <g id="text_29">
     <!-- decisiontreeclassifier -->
     <g transform="translate(588.44375 71.432813) scale(0.1 -0.1)">
      <use xlink:href="#DejaVuSans-64"/>
      <use xlink:href="#DejaVuSans-65" x="63.476562"/>
      <use xlink:href="#DejaVuSans-63" x="125"/>
      <use xlink:href="#DejaVuSans-69" x="179.980469"/>
      <use xlink:href="#DejaVuSans-73" x="207.763672"/>
      <use xlink:href="#DejaVuSans-69" x="259.863281"/>
      <use xlink:href="#DejaVuSans-6f" x="287.646484"/>
      <use xlink:href="#DejaVuSans-6e" x="348.828125"/>
      <use xlink:href="#DejaVuSans-74" x="412.207031"/>
      <use xlink:href="#DejaVuSans-72" x="451.416016"/>
      <use xlink:href="#DejaVuSans-65" x="490.279297"/>
      <use xlink:href="#DejaVuSans-65" x="551.802734"/>
      <use xlink:href="#DejaVuSans-63" x="613.326172"/>
      <use xlink:href="#DejaVuSans-6c" x="668.306641"/>
      <use xlink:href="#DejaVuSans-61" x="696.089844"/>
      <use xlink:href="#DejaVuSans-73" x="757.369141"/>
      <use xlink:href="#DejaVuSans-73" x="809.46875"/>
      <use xlink:href="#DejaVuSans-69" x="861.568359"/>
      <use xlink:href="#DejaVuSans-66" x="889.351562"/>
      <use xlink:href="#DejaVuSans-69" x="924.556641"/>
      <use xlink:href="#DejaVuSans-65" x="952.339844"/>
      <use xlink:href="#DejaVuSans-72" x="1013.863281"/>
     </g>
    </g>
    <g id="line2d_49">
     <path d="M 560.44375 82.610938 
L 570.44375 82.610938 
L 580.44375 82.610938 
" style="fill: none; stroke-dasharray: 4.5,1.875,2.25,1.875; stroke-dashoffset: 0; stroke: #d62728; stroke-width: 1.5"/>
    </g>
    <g id="text_30">
     <!-- adaboostclassifier -->
     <g transform="translate(588.44375 86.110938) scale(0.1 -0.1)">
      <use xlink:href="#DejaVuSans-61"/>
      <use xlink:href="#DejaVuSans-64" x="61.279297"/>
      <use xlink:href="#DejaVuSans-61" x="124.755859"/>
      <use xlink:href="#DejaVuSans-62" x="186.035156"/>
      <use xlink:href="#DejaVuSans-6f" x="249.511719"/>
      <use xlink:href="#DejaVuSans-6f" x="310.693359"/>
      <use xlink:href="#DejaVuSans-73" x="371.875"/>
      <use xlink:href="#DejaVuSans-74" x="423.974609"/>
      <use xlink:href="#DejaVuSans-63" x="463.183594"/>
      <use xlink:href="#DejaVuSans-6c" x="518.164062"/>
      <use xlink:href="#DejaVuSans-61" x="545.947266"/>
      <use xlink:href="#DejaVuSans-73" x="607.226562"/>
      <use xlink:href="#DejaVuSans-73" x="659.326172"/>
      <use xlink:href="#DejaVuSans-69" x="711.425781"/>
      <use xlink:href="#DejaVuSans-66" x="739.208984"/>
      <use xlink:href="#DejaVuSans-69" x="774.414062"/>
      <use xlink:href="#DejaVuSans-65" x="802.197266"/>
      <use xlink:href="#DejaVuSans-72" x="863.720703"/>
     </g>
    </g>
    <g id="line2d_50">
     <path d="M 560.44375 97.289062 
L 570.44375 97.289062 
L 580.44375 97.289062 
" style="fill: none; stroke-dasharray: 7.5,1.5,1.5,1.5; stroke-dashoffset: 0; stroke: #9467bd; stroke-width: 1.5"/>
    </g>
    <g id="text_31">
     <!-- randomforestclassifier -->
     <g transform="translate(588.44375 100.789062) scale(0.1 -0.1)">
      <use xlink:href="#DejaVuSans-72"/>
      <use xlink:href="#DejaVuSans-61" x="41.113281"/>
      <use xlink:href="#DejaVuSans-6e" x="102.392578"/>
      <use xlink:href="#DejaVuSans-64" x="165.771484"/>
      <use xlink:href="#DejaVuSans-6f" x="229.248047"/>
      <use xlink:href="#DejaVuSans-6d" x="290.429688"/>
      <use xlink:href="#DejaVuSans-66" x="387.841797"/>
      <use xlink:href="#DejaVuSans-6f" x="423.046875"/>
      <use xlink:href="#DejaVuSans-72" x="484.228516"/>
      <use xlink:href="#DejaVuSans-65" x="523.091797"/>
      <use xlink:href="#DejaVuSans-73" x="584.615234"/>
      <use xlink:href="#DejaVuSans-74" x="636.714844"/>
      <use xlink:href="#DejaVuSans-63" x="675.923828"/>
      <use xlink:href="#DejaVuSans-6c" x="730.904297"/>
      <use xlink:href="#DejaVuSans-61" x="758.6875"/>
      <use xlink:href="#DejaVuSans-73" x="819.966797"/>
      <use xlink:href="#DejaVuSans-73" x="872.066406"/>
      <use xlink:href="#DejaVuSans-69" x="924.166016"/>
      <use xlink:href="#DejaVuSans-66" x="951.949219"/>
      <use xlink:href="#DejaVuSans-69" x="987.154297"/>
      <use xlink:href="#DejaVuSans-65" x="1014.9375"/>
      <use xlink:href="#DejaVuSans-72" x="1076.460938"/>
     </g>
    </g>
   </g>
  </g>
 </g>
 <defs>
  <clipPath id="p84769cfef3">
   <rect x="47.82125" y="10.8" width="316.44875" height="307.24"/>
  </clipPath>
  <clipPath id="pf90e795107">
   <rect x="392.75125" y="10.8" width="316.44875" height="307.24"/>
  </clipPath>
 </defs>
</svg>
