<?xml version="1.0" encoding="utf-8" standalone="no"?>
<!DOCTYPE svg PUBLIC "-//W3C//DTD SVG 1.1//EN"
  "http://www.w3.org/Graphics/SVG/1.1/DTD/svg11.dtd">
<svg xmlns:xlink="http://www.w3.org/1999/xlink" width="720pt" height="360pt" viewBox="0 0 720 360" xmlns="http://www.w3.org/2000/svg" version="1.1">
 <metadata>
  <rdf:RDF xmlns:dc="http://purl.org/dc/elements/1.1/" xmlns:cc="http://creativecommons.org/ns#" xmlns:rdf="http://www.w3.org/1999/02/22-rdf-syntax-ns#">
   <cc:Work>
    <dc:type rdf:resource="http://purl.org/dc/dcmitype/StillImage"/>
    <dc:date>2022-11-03T13:21:08.910901</dc:date>
    <dc:format>image/svg+xml</dc:format>
    <dc:creator>
     <cc:Agent>
      <dc:title>Matplotlib v3.6.0, https://matplotlib.org/</dc:title>
     </cc:Agent>
    </dc:creator>
   </cc:Work>
  </rdf:RDF>
 </metadata>
 <defs>
  <style type="text/css">*{stroke-linejoin: round; stroke-linecap: butt}</style>
 </defs>
 <g id="figure_1">
  <g id="patch_1">
   <path d="M 0 360 
L 720 360 
L 720 0 
L 0 0 
z
" style="fill: #ffffff"/>
  </g>
  <g id="axes_1">
   <g id="patch_2">
    <path d="M 47.82125 318.04 
L 364.27 318.04 
L 364.27 10.8 
L 47.82125 10.8 
z
" style="fill: #ffffff"/>
   </g>
   <g id="PolyCollection_1">
    <defs>
     <path id="m5b95c973c8" d="M 62.205284 -121.910864 
L 62.205284 -121.910864 
L 78.187544 -121.910864 
L 94.169804 -121.910864 
L 110.152064 -121.910864 
L 126.134324 -121.910864 
L 142.116585 -121.910864 
L 158.098845 -121.910864 
L 174.081105 -121.910864 
L 190.063365 -121.910864 
L 206.045625 -121.910864 
L 222.027885 -121.910864 
L 238.010145 -121.910864 
L 253.992405 -121.910864 
L 269.974665 -121.910864 
L 285.956926 -121.910864 
L 301.939186 -121.910864 
L 317.921446 -121.910864 
L 333.903706 -121.910864 
L 349.885966 -121.910864 
L 349.885966 -121.910864 
L 349.885966 -121.910864 
L 333.903706 -121.910864 
L 317.921446 -121.910864 
L 301.939186 -121.910864 
L 285.956926 -121.910864 
L 269.974665 -121.910864 
L 253.992405 -121.910864 
L 238.010145 -121.910864 
L 222.027885 -121.910864 
L 206.045625 -121.910864 
L 190.063365 -121.910864 
L 174.081105 -121.910864 
L 158.098845 -121.910864 
L 142.116585 -121.910864 
L 126.134324 -121.910864 
L 110.152064 -121.910864 
L 94.169804 -121.910864 
L 78.187544 -121.910864 
L 62.205284 -121.910864 
z
" style="stroke: #1f77b4; stroke-opacity: 0.2"/>
    </defs>
    <g clip-path="url(#pf518c27a3e)">
     <use xlink:href="#m5b95c973c8" x="0" y="360" style="fill: #1f77b4; fill-opacity: 0.2; stroke: #1f77b4; stroke-opacity: 0.2"/>
    </g>
   </g>
   <g id="PolyCollection_2">
    <defs>
     <path id="m96a65c53a1" d="M 62.205284 -236.314181 
L 62.205284 -236.314181 
L 78.187544 -130.127546 
L 94.169804 -335.234545 
L 110.152064 -278.332045 
L 126.134324 -254.509702 
L 142.116585 -214.876619 
L 158.098845 -239.056726 
L 174.081105 -224.222305 
L 190.063365 -227.261552 
L 206.045625 -221.016512 
L 222.027885 -200.114747 
L 238.010145 -200.114747 
L 253.992405 -247.540975 
L 269.974665 -253.033667 
L 285.956926 -276.033802 
L 301.939186 -268.198275 
L 317.921446 -278.585946 
L 333.903706 -298.771079 
L 349.885966 -296.334942 
L 349.885966 -296.334942 
L 349.885966 -296.334942 
L 333.903706 -298.771079 
L 317.921446 -278.585946 
L 301.939186 -268.198275 
L 285.956926 -276.033802 
L 269.974665 -253.033667 
L 253.992405 -247.540975 
L 238.010145 -200.114747 
L 222.027885 -200.114747 
L 206.045625 -221.016512 
L 190.063365 -227.261552 
L 174.081105 -224.222305 
L 158.098845 -239.056726 
L 142.116585 -214.876619 
L 126.134324 -254.509702 
L 110.152064 -278.332045 
L 94.169804 -335.234545 
L 78.187544 -130.127546 
L 62.205284 -236.314181 
z
" style="stroke: #ff7f0e; stroke-opacity: 0.2"/>
    </defs>
    <g clip-path="url(#pf518c27a3e)">
     <use xlink:href="#m96a65c53a1" x="0" y="360" style="fill: #ff7f0e; fill-opacity: 0.2; stroke: #ff7f0e; stroke-opacity: 0.2"/>
    </g>
   </g>
   <g id="PolyCollection_3">
    <defs>
     <path id="m708c65894b" d="M 62.205284 -116.956635 
L 62.205284 -101.211136 
L 78.187544 -223.867886 
L 94.169804 -286.804714 
L 110.152064 -182.093808 
L 126.134324 -168.184645 
L 142.116585 -67.171844 
L 158.098845 -133.560886 
L 174.081105 -171.733114 
L 190.063365 -122.595813 
L 206.045625 -121.31501 
L 222.027885 -126.361807 
L 238.010145 -144.719213 
L 253.992405 -137.936074 
L 269.974665 -97.84642 
L 285.956926 -126.283098 
L 301.939186 -74.601954 
L 317.921446 -95.105849 
L 333.903706 -129.462977 
L 349.885966 -161.035666 
L 349.885966 -179.844747 
L 349.885966 -179.844747 
L 333.903706 -147.625265 
L 317.921446 -110.126404 
L 301.939186 -85.640839 
L 285.956926 -137.211822 
L 269.974665 -109.328313 
L 253.992405 -158.575793 
L 238.010145 -167.116342 
L 222.027885 -145.489593 
L 206.045625 -139.888595 
L 190.063365 -138.358422 
L 174.081105 -190.465897 
L 158.098845 -147.435229 
L 142.116585 -75.888299 
L 126.134324 -188.179576 
L 110.152064 -197.913288 
L 94.169804 -309.254305 
L 78.187544 -251.908951 
L 62.205284 -116.956635 
z
" style="stroke: #2ca02c; stroke-opacity: 0.2"/>
    </defs>
    <g clip-path="url(#pf518c27a3e)">
     <use xlink:href="#m708c65894b" x="0" y="360" style="fill: #2ca02c; fill-opacity: 0.2; stroke: #2ca02c; stroke-opacity: 0.2"/>
    </g>
   </g>
   <g id="PolyCollection_4">
    <defs>
     <path id="ma1d4785d84" d="M 62.205284 -137.986052 
L 62.205284 -137.986052 
L 78.187544 -100.601312 
L 94.169804 -145.469609 
L 110.152064 -173.705084 
L 126.134324 -201.856561 
L 142.116585 -163.735093 
L 158.098845 -177.53568 
L 174.081105 -166.038536 
L 190.063365 -190.671179 
L 206.045625 -224.222305 
L 222.027885 -180.879994 
L 238.010145 -161.630909 
L 253.992405 -296.334942 
L 269.974665 -241.918278 
L 285.956926 -275.78921 
L 301.939186 -296.334942 
L 317.921446 -247.540975 
L 333.903706 -283.603719 
L 349.885966 -270.840488 
L 349.885966 -270.840488 
L 349.885966 -270.840488 
L 333.903706 -283.603719 
L 317.921446 -247.540975 
L 301.939186 -296.334942 
L 285.956926 -275.78921 
L 269.974665 -241.918278 
L 253.992405 -296.334942 
L 238.010145 -161.630909 
L 222.027885 -180.879994 
L 206.045625 -224.222305 
L 190.063365 -190.671179 
L 174.081105 -166.038536 
L 158.098845 -177.53568 
L 142.116585 -163.735093 
L 126.134324 -201.856561 
L 110.152064 -173.705084 
L 94.169804 -145.469609 
L 78.187544 -100.601312 
L 62.205284 -137.986052 
z
" style="stroke: #d62728; stroke-opacity: 0.2"/>
    </defs>
    <g clip-path="url(#pf518c27a3e)">
     <use xlink:href="#ma1d4785d84" x="0" y="360" style="fill: #d62728; fill-opacity: 0.2; stroke: #d62728; stroke-opacity: 0.2"/>
    </g>
   </g>
   <g id="PolyCollection_5">
    <defs>
     <path id="m8f5f69fe4c" d="M 62.205284 -127.97064 
L 62.205284 -110.770052 
L 78.187544 -73.219379 
L 94.169804 -187.764444 
L 110.152064 -154.035267 
L 126.134324 -134.274505 
L 142.116585 -163.16509 
L 158.098845 -162.689152 
L 174.081105 -176.117484 
L 190.063365 -150.913074 
L 206.045625 -155.632563 
L 222.027885 -137.799887 
L 238.010145 -117.407307 
L 253.992405 -114.889223 
L 269.974665 -125.981739 
L 285.956926 -133.717984 
L 301.939186 -140.456446 
L 317.921446 -138.044764 
L 333.903706 -140.377234 
L 349.885966 -161.595296 
L 349.885966 -176.668666 
L 349.885966 -176.668666 
L 333.903706 -158.722123 
L 317.921446 -157.20451 
L 301.939186 -158.956142 
L 285.956926 -150.004576 
L 269.974665 -142.509141 
L 253.992405 -127.965428 
L 238.010145 -136.681989 
L 222.027885 -154.086644 
L 206.045625 -172.580034 
L 190.063365 -168.177774 
L 174.081105 -191.120064 
L 158.098845 -175.486387 
L 142.116585 -178.561242 
L 126.134324 -150.760106 
L 110.152064 -170.539314 
L 94.169804 -203.00065 
L 78.187544 -85.452293 
L 62.205284 -127.97064 
z
" style="stroke: #9467bd; stroke-opacity: 0.2"/>
    </defs>
    <g clip-path="url(#pf518c27a3e)">
     <use xlink:href="#m8f5f69fe4c" x="0" y="360" style="fill: #9467bd; fill-opacity: 0.2; stroke: #9467bd; stroke-opacity: 0.2"/>
    </g>
   </g>
   <g id="matplotlib.axis_1">
    <g id="xtick_1">
     <g id="line2d_1">
      <defs>
       <path id="mc2c3ffbb07" d="M 0 0 
L 0 3.5 
" style="stroke: #000000; stroke-width: 0.8"/>
      </defs>
      <g>
       <use xlink:href="#mc2c3ffbb07" x="94.169804" y="318.04" style="stroke: #000000; stroke-width: 0.8"/>
      </g>
     </g>
     <g id="text_1">
      <!-- 0.2 -->
      <g transform="translate(86.218242 332.638438) scale(0.1 -0.1)">
       <defs>
        <path id="DejaVuSans-30" d="M 2034 4250 
Q 1547 4250 1301 3770 
Q 1056 3291 1056 2328 
Q 1056 1369 1301 889 
Q 1547 409 2034 409 
Q 2525 409 2770 889 
Q 3016 1369 3016 2328 
Q 3016 3291 2770 3770 
Q 2525 4250 2034 4250 
z
M 2034 4750 
Q 2819 4750 3233 4129 
Q 3647 3509 3647 2328 
Q 3647 1150 3233 529 
Q 2819 -91 2034 -91 
Q 1250 -91 836 529 
Q 422 1150 422 2328 
Q 422 3509 836 4129 
Q 1250 4750 2034 4750 
z
" transform="scale(0.015625)"/>
        <path id="DejaVuSans-2e" d="M 684 794 
L 1344 794 
L 1344 0 
L 684 0 
L 684 794 
z
" transform="scale(0.015625)"/>
        <path id="DejaVuSans-32" d="M 1228 531 
L 3431 531 
L 3431 0 
L 469 0 
L 469 531 
Q 828 903 1448 1529 
Q 2069 2156 2228 2338 
Q 2531 2678 2651 2914 
Q 2772 3150 2772 3378 
Q 2772 3750 2511 3984 
Q 2250 4219 1831 4219 
Q 1534 4219 1204 4116 
Q 875 4013 500 3803 
L 500 4441 
Q 881 4594 1212 4672 
Q 1544 4750 1819 4750 
Q 2544 4750 2975 4387 
Q 3406 4025 3406 3419 
Q 3406 3131 3298 2873 
Q 3191 2616 2906 2266 
Q 2828 2175 2409 1742 
Q 1991 1309 1228 531 
z
" transform="scale(0.015625)"/>
       </defs>
       <use xlink:href="#DejaVuSans-30"/>
       <use xlink:href="#DejaVuSans-2e" x="63.623047"/>
       <use xlink:href="#DejaVuSans-32" x="95.410156"/>
      </g>
     </g>
    </g>
    <g id="xtick_2">
     <g id="line2d_2">
      <g>
       <use xlink:href="#mc2c3ffbb07" x="158.098845" y="318.04" style="stroke: #000000; stroke-width: 0.8"/>
      </g>
     </g>
     <g id="text_2">
      <!-- 0.4 -->
      <g transform="translate(150.147282 332.638438) scale(0.1 -0.1)">
       <defs>
        <path id="DejaVuSans-34" d="M 2419 4116 
L 825 1625 
L 2419 1625 
L 2419 4116 
z
M 2253 4666 
L 3047 4666 
L 3047 1625 
L 3713 1625 
L 3713 1100 
L 3047 1100 
L 3047 0 
L 2419 0 
L 2419 1100 
L 313 1100 
L 313 1709 
L 2253 4666 
z
" transform="scale(0.015625)"/>
       </defs>
       <use xlink:href="#DejaVuSans-30"/>
       <use xlink:href="#DejaVuSans-2e" x="63.623047"/>
       <use xlink:href="#DejaVuSans-34" x="95.410156"/>
      </g>
     </g>
    </g>
    <g id="xtick_3">
     <g id="line2d_3">
      <g>
       <use xlink:href="#mc2c3ffbb07" x="222.027885" y="318.04" style="stroke: #000000; stroke-width: 0.8"/>
      </g>
     </g>
     <g id="text_3">
      <!-- 0.6 -->
      <g transform="translate(214.076323 332.638438) scale(0.1 -0.1)">
       <defs>
        <path id="DejaVuSans-36" d="M 2113 2584 
Q 1688 2584 1439 2293 
Q 1191 2003 1191 1497 
Q 1191 994 1439 701 
Q 1688 409 2113 409 
Q 2538 409 2786 701 
Q 3034 994 3034 1497 
Q 3034 2003 2786 2293 
Q 2538 2584 2113 2584 
z
M 3366 4563 
L 3366 3988 
Q 3128 4100 2886 4159 
Q 2644 4219 2406 4219 
Q 1781 4219 1451 3797 
Q 1122 3375 1075 2522 
Q 1259 2794 1537 2939 
Q 1816 3084 2150 3084 
Q 2853 3084 3261 2657 
Q 3669 2231 3669 1497 
Q 3669 778 3244 343 
Q 2819 -91 2113 -91 
Q 1303 -91 875 529 
Q 447 1150 447 2328 
Q 447 3434 972 4092 
Q 1497 4750 2381 4750 
Q 2619 4750 2861 4703 
Q 3103 4656 3366 4563 
z
" transform="scale(0.015625)"/>
       </defs>
       <use xlink:href="#DejaVuSans-30"/>
       <use xlink:href="#DejaVuSans-2e" x="63.623047"/>
       <use xlink:href="#DejaVuSans-36" x="95.410156"/>
      </g>
     </g>
    </g>
    <g id="xtick_4">
     <g id="line2d_4">
      <g>
       <use xlink:href="#mc2c3ffbb07" x="285.956926" y="318.04" style="stroke: #000000; stroke-width: 0.8"/>
      </g>
     </g>
     <g id="text_4">
      <!-- 0.8 -->
      <g transform="translate(278.005363 332.638438) scale(0.1 -0.1)">
       <defs>
        <path id="DejaVuSans-38" d="M 2034 2216 
Q 1584 2216 1326 1975 
Q 1069 1734 1069 1313 
Q 1069 891 1326 650 
Q 1584 409 2034 409 
Q 2484 409 2743 651 
Q 3003 894 3003 1313 
Q 3003 1734 2745 1975 
Q 2488 2216 2034 2216 
z
M 1403 2484 
Q 997 2584 770 2862 
Q 544 3141 544 3541 
Q 544 4100 942 4425 
Q 1341 4750 2034 4750 
Q 2731 4750 3128 4425 
Q 3525 4100 3525 3541 
Q 3525 3141 3298 2862 
Q 3072 2584 2669 2484 
Q 3125 2378 3379 2068 
Q 3634 1759 3634 1313 
Q 3634 634 3220 271 
Q 2806 -91 2034 -91 
Q 1263 -91 848 271 
Q 434 634 434 1313 
Q 434 1759 690 2068 
Q 947 2378 1403 2484 
z
M 1172 3481 
Q 1172 3119 1398 2916 
Q 1625 2713 2034 2713 
Q 2441 2713 2670 2916 
Q 2900 3119 2900 3481 
Q 2900 3844 2670 4047 
Q 2441 4250 2034 4250 
Q 1625 4250 1398 4047 
Q 1172 3844 1172 3481 
z
" transform="scale(0.015625)"/>
       </defs>
       <use xlink:href="#DejaVuSans-30"/>
       <use xlink:href="#DejaVuSans-2e" x="63.623047"/>
       <use xlink:href="#DejaVuSans-38" x="95.410156"/>
      </g>
     </g>
    </g>
    <g id="xtick_5">
     <g id="line2d_5">
      <g>
       <use xlink:href="#mc2c3ffbb07" x="349.885966" y="318.04" style="stroke: #000000; stroke-width: 0.8"/>
      </g>
     </g>
     <g id="text_5">
      <!-- 1.0 -->
      <g transform="translate(341.934403 332.638438) scale(0.1 -0.1)">
       <defs>
        <path id="DejaVuSans-31" d="M 794 531 
L 1825 531 
L 1825 4091 
L 703 3866 
L 703 4441 
L 1819 4666 
L 2450 4666 
L 2450 531 
L 3481 531 
L 3481 0 
L 794 0 
L 794 531 
z
" transform="scale(0.015625)"/>
       </defs>
       <use xlink:href="#DejaVuSans-31"/>
       <use xlink:href="#DejaVuSans-2e" x="63.623047"/>
       <use xlink:href="#DejaVuSans-30" x="95.410156"/>
      </g>
     </g>
    </g>
    <g id="text_6">
     <!-- frac -->
     <g transform="translate(196.416719 346.316563) scale(0.1 -0.1)">
      <defs>
       <path id="DejaVuSans-66" d="M 2375 4863 
L 2375 4384 
L 1825 4384 
Q 1516 4384 1395 4259 
Q 1275 4134 1275 3809 
L 1275 3500 
L 2222 3500 
L 2222 3053 
L 1275 3053 
L 1275 0 
L 697 0 
L 697 3053 
L 147 3053 
L 147 3500 
L 697 3500 
L 697 3744 
Q 697 4328 969 4595 
Q 1241 4863 1831 4863 
L 2375 4863 
z
" transform="scale(0.015625)"/>
       <path id="DejaVuSans-72" d="M 2631 2963 
Q 2534 3019 2420 3045 
Q 2306 3072 2169 3072 
Q 1681 3072 1420 2755 
Q 1159 2438 1159 1844 
L 1159 0 
L 581 0 
L 581 3500 
L 1159 3500 
L 1159 2956 
Q 1341 3275 1631 3429 
Q 1922 3584 2338 3584 
Q 2397 3584 2469 3576 
Q 2541 3569 2628 3553 
L 2631 2963 
z
" transform="scale(0.015625)"/>
       <path id="DejaVuSans-61" d="M 2194 1759 
Q 1497 1759 1228 1600 
Q 959 1441 959 1056 
Q 959 750 1161 570 
Q 1363 391 1709 391 
Q 2188 391 2477 730 
Q 2766 1069 2766 1631 
L 2766 1759 
L 2194 1759 
z
M 3341 1997 
L 3341 0 
L 2766 0 
L 2766 531 
Q 2569 213 2275 61 
Q 1981 -91 1556 -91 
Q 1019 -91 701 211 
Q 384 513 384 1019 
Q 384 1609 779 1909 
Q 1175 2209 1959 2209 
L 2766 2209 
L 2766 2266 
Q 2766 2663 2505 2880 
Q 2244 3097 1772 3097 
Q 1472 3097 1187 3025 
Q 903 2953 641 2809 
L 641 3341 
Q 956 3463 1253 3523 
Q 1550 3584 1831 3584 
Q 2591 3584 2966 3190 
Q 3341 2797 3341 1997 
z
" transform="scale(0.015625)"/>
       <path id="DejaVuSans-63" d="M 3122 3366 
L 3122 2828 
Q 2878 2963 2633 3030 
Q 2388 3097 2138 3097 
Q 1578 3097 1268 2742 
Q 959 2388 959 1747 
Q 959 1106 1268 751 
Q 1578 397 2138 397 
Q 2388 397 2633 464 
Q 2878 531 3122 666 
L 3122 134 
Q 2881 22 2623 -34 
Q 2366 -91 2075 -91 
Q 1284 -91 818 406 
Q 353 903 353 1747 
Q 353 2603 823 3093 
Q 1294 3584 2113 3584 
Q 2378 3584 2631 3529 
Q 2884 3475 3122 3366 
z
" transform="scale(0.015625)"/>
      </defs>
      <use xlink:href="#DejaVuSans-66"/>
      <use xlink:href="#DejaVuSans-72" x="35.205078"/>
      <use xlink:href="#DejaVuSans-61" x="76.318359"/>
      <use xlink:href="#DejaVuSans-63" x="137.597656"/>
     </g>
    </g>
   </g>
   <g id="matplotlib.axis_2">
    <g id="ytick_1">
     <g id="line2d_6">
      <defs>
       <path id="mcf429ccb1a" d="M 0 0 
L -3.5 0 
" style="stroke: #000000; stroke-width: 0.8"/>
      </defs>
      <g>
       <use xlink:href="#mcf429ccb1a" x="47.82125" y="310.178898" style="stroke: #000000; stroke-width: 0.8"/>
      </g>
     </g>
     <g id="text_7">
      <!-- 0.0 -->
      <g transform="translate(24.918125 313.978117) scale(0.1 -0.1)">
       <use xlink:href="#DejaVuSans-30"/>
       <use xlink:href="#DejaVuSans-2e" x="63.623047"/>
       <use xlink:href="#DejaVuSans-30" x="95.410156"/>
      </g>
     </g>
    </g>
    <g id="ytick_2">
     <g id="line2d_7">
      <g>
       <use xlink:href="#mcf429ccb1a" x="47.82125" y="241.991982" style="stroke: #000000; stroke-width: 0.8"/>
      </g>
     </g>
     <g id="text_8">
      <!-- 0.2 -->
      <g transform="translate(24.918125 245.791201) scale(0.1 -0.1)">
       <use xlink:href="#DejaVuSans-30"/>
       <use xlink:href="#DejaVuSans-2e" x="63.623047"/>
       <use xlink:href="#DejaVuSans-32" x="95.410156"/>
      </g>
     </g>
    </g>
    <g id="ytick_3">
     <g id="line2d_8">
      <g>
       <use xlink:href="#mcf429ccb1a" x="47.82125" y="173.805067" style="stroke: #000000; stroke-width: 0.8"/>
      </g>
     </g>
     <g id="text_9">
      <!-- 0.4 -->
      <g transform="translate(24.918125 177.604286) scale(0.1 -0.1)">
       <use xlink:href="#DejaVuSans-30"/>
       <use xlink:href="#DejaVuSans-2e" x="63.623047"/>
       <use xlink:href="#DejaVuSans-34" x="95.410156"/>
      </g>
     </g>
    </g>
    <g id="ytick_4">
     <g id="line2d_9">
      <g>
       <use xlink:href="#mcf429ccb1a" x="47.82125" y="105.618151" style="stroke: #000000; stroke-width: 0.8"/>
      </g>
     </g>
     <g id="text_10">
      <!-- 0.6 -->
      <g transform="translate(24.918125 109.41737) scale(0.1 -0.1)">
       <use xlink:href="#DejaVuSans-30"/>
       <use xlink:href="#DejaVuSans-2e" x="63.623047"/>
       <use xlink:href="#DejaVuSans-36" x="95.410156"/>
      </g>
     </g>
    </g>
    <g id="ytick_5">
     <g id="line2d_10">
      <g>
       <use xlink:href="#mcf429ccb1a" x="47.82125" y="37.431236" style="stroke: #000000; stroke-width: 0.8"/>
      </g>
     </g>
     <g id="text_11">
      <!-- 0.8 -->
      <g transform="translate(24.918125 41.230455) scale(0.1 -0.1)">
       <use xlink:href="#DejaVuSans-30"/>
       <use xlink:href="#DejaVuSans-2e" x="63.623047"/>
       <use xlink:href="#DejaVuSans-38" x="95.410156"/>
      </g>
     </g>
    </g>
    <g id="text_12">
     <!-- disparate_impact -->
     <g transform="translate(18.560313 207.689531) rotate(-90) scale(0.1 -0.1)">
      <defs>
       <path id="DejaVuSans-64" d="M 2906 2969 
L 2906 4863 
L 3481 4863 
L 3481 0 
L 2906 0 
L 2906 525 
Q 2725 213 2448 61 
Q 2172 -91 1784 -91 
Q 1150 -91 751 415 
Q 353 922 353 1747 
Q 353 2572 751 3078 
Q 1150 3584 1784 3584 
Q 2172 3584 2448 3432 
Q 2725 3281 2906 2969 
z
M 947 1747 
Q 947 1113 1208 752 
Q 1469 391 1925 391 
Q 2381 391 2643 752 
Q 2906 1113 2906 1747 
Q 2906 2381 2643 2742 
Q 2381 3103 1925 3103 
Q 1469 3103 1208 2742 
Q 947 2381 947 1747 
z
" transform="scale(0.015625)"/>
       <path id="DejaVuSans-69" d="M 603 3500 
L 1178 3500 
L 1178 0 
L 603 0 
L 603 3500 
z
M 603 4863 
L 1178 4863 
L 1178 4134 
L 603 4134 
L 603 4863 
z
" transform="scale(0.015625)"/>
       <path id="DejaVuSans-73" d="M 2834 3397 
L 2834 2853 
Q 2591 2978 2328 3040 
Q 2066 3103 1784 3103 
Q 1356 3103 1142 2972 
Q 928 2841 928 2578 
Q 928 2378 1081 2264 
Q 1234 2150 1697 2047 
L 1894 2003 
Q 2506 1872 2764 1633 
Q 3022 1394 3022 966 
Q 3022 478 2636 193 
Q 2250 -91 1575 -91 
Q 1294 -91 989 -36 
Q 684 19 347 128 
L 347 722 
Q 666 556 975 473 
Q 1284 391 1588 391 
Q 1994 391 2212 530 
Q 2431 669 2431 922 
Q 2431 1156 2273 1281 
Q 2116 1406 1581 1522 
L 1381 1569 
Q 847 1681 609 1914 
Q 372 2147 372 2553 
Q 372 3047 722 3315 
Q 1072 3584 1716 3584 
Q 2034 3584 2315 3537 
Q 2597 3491 2834 3397 
z
" transform="scale(0.015625)"/>
       <path id="DejaVuSans-70" d="M 1159 525 
L 1159 -1331 
L 581 -1331 
L 581 3500 
L 1159 3500 
L 1159 2969 
Q 1341 3281 1617 3432 
Q 1894 3584 2278 3584 
Q 2916 3584 3314 3078 
Q 3713 2572 3713 1747 
Q 3713 922 3314 415 
Q 2916 -91 2278 -91 
Q 1894 -91 1617 61 
Q 1341 213 1159 525 
z
M 3116 1747 
Q 3116 2381 2855 2742 
Q 2594 3103 2138 3103 
Q 1681 3103 1420 2742 
Q 1159 2381 1159 1747 
Q 1159 1113 1420 752 
Q 1681 391 2138 391 
Q 2594 391 2855 752 
Q 3116 1113 3116 1747 
z
" transform="scale(0.015625)"/>
       <path id="DejaVuSans-74" d="M 1172 4494 
L 1172 3500 
L 2356 3500 
L 2356 3053 
L 1172 3053 
L 1172 1153 
Q 1172 725 1289 603 
Q 1406 481 1766 481 
L 2356 481 
L 2356 0 
L 1766 0 
Q 1100 0 847 248 
Q 594 497 594 1153 
L 594 3053 
L 172 3053 
L 172 3500 
L 594 3500 
L 594 4494 
L 1172 4494 
z
" transform="scale(0.015625)"/>
       <path id="DejaVuSans-65" d="M 3597 1894 
L 3597 1613 
L 953 1613 
Q 991 1019 1311 708 
Q 1631 397 2203 397 
Q 2534 397 2845 478 
Q 3156 559 3463 722 
L 3463 178 
Q 3153 47 2828 -22 
Q 2503 -91 2169 -91 
Q 1331 -91 842 396 
Q 353 884 353 1716 
Q 353 2575 817 3079 
Q 1281 3584 2069 3584 
Q 2775 3584 3186 3129 
Q 3597 2675 3597 1894 
z
M 3022 2063 
Q 3016 2534 2758 2815 
Q 2500 3097 2075 3097 
Q 1594 3097 1305 2825 
Q 1016 2553 972 2059 
L 3022 2063 
z
" transform="scale(0.015625)"/>
       <path id="DejaVuSans-5f" d="M 3263 -1063 
L 3263 -1509 
L -63 -1509 
L -63 -1063 
L 3263 -1063 
z
" transform="scale(0.015625)"/>
       <path id="DejaVuSans-6d" d="M 3328 2828 
Q 3544 3216 3844 3400 
Q 4144 3584 4550 3584 
Q 5097 3584 5394 3201 
Q 5691 2819 5691 2113 
L 5691 0 
L 5113 0 
L 5113 2094 
Q 5113 2597 4934 2840 
Q 4756 3084 4391 3084 
Q 3944 3084 3684 2787 
Q 3425 2491 3425 1978 
L 3425 0 
L 2847 0 
L 2847 2094 
Q 2847 2600 2669 2842 
Q 2491 3084 2119 3084 
Q 1678 3084 1418 2786 
Q 1159 2488 1159 1978 
L 1159 0 
L 581 0 
L 581 3500 
L 1159 3500 
L 1159 2956 
Q 1356 3278 1631 3431 
Q 1906 3584 2284 3584 
Q 2666 3584 2933 3390 
Q 3200 3197 3328 2828 
z
" transform="scale(0.015625)"/>
      </defs>
      <use xlink:href="#DejaVuSans-64"/>
      <use xlink:href="#DejaVuSans-69" x="63.476562"/>
      <use xlink:href="#DejaVuSans-73" x="91.259766"/>
      <use xlink:href="#DejaVuSans-70" x="143.359375"/>
      <use xlink:href="#DejaVuSans-61" x="206.835938"/>
      <use xlink:href="#DejaVuSans-72" x="268.115234"/>
      <use xlink:href="#DejaVuSans-61" x="309.228516"/>
      <use xlink:href="#DejaVuSans-74" x="370.507812"/>
      <use xlink:href="#DejaVuSans-65" x="409.716797"/>
      <use xlink:href="#DejaVuSans-5f" x="471.240234"/>
      <use xlink:href="#DejaVuSans-69" x="521.240234"/>
      <use xlink:href="#DejaVuSans-6d" x="549.023438"/>
      <use xlink:href="#DejaVuSans-70" x="646.435547"/>
      <use xlink:href="#DejaVuSans-61" x="709.912109"/>
      <use xlink:href="#DejaVuSans-63" x="771.191406"/>
      <use xlink:href="#DejaVuSans-74" x="826.171875"/>
     </g>
    </g>
   </g>
   <g id="line2d_11">
    <path d="M 62.205284 238.089136 
L 78.187544 238.089136 
L 94.169804 238.089136 
L 110.152064 238.089136 
L 126.134324 238.089136 
L 142.116585 238.089136 
L 158.098845 238.089136 
L 174.081105 238.089136 
L 190.063365 238.089136 
L 206.045625 238.089136 
L 222.027885 238.089136 
L 238.010145 238.089136 
L 253.992405 238.089136 
L 269.974665 238.089136 
L 285.956926 238.089136 
L 301.939186 238.089136 
L 317.921446 238.089136 
L 333.903706 238.089136 
L 349.885966 238.089136 
" clip-path="url(#pf518c27a3e)" style="fill: none; stroke: #1f77b4; stroke-width: 1.5; stroke-linecap: square"/>
   </g>
   <g id="line2d_12">
    <path d="M 62.205284 123.685819 
L 78.187544 229.872454 
L 94.169804 24.765455 
L 110.152064 81.667955 
L 126.134324 105.490298 
L 142.116585 145.123381 
L 158.098845 120.943274 
L 174.081105 135.777695 
L 190.063365 132.738448 
L 206.045625 138.983488 
L 222.027885 159.885253 
L 238.010145 159.885253 
L 253.992405 112.459025 
L 269.974665 106.966333 
L 285.956926 83.966198 
L 301.939186 91.801725 
L 317.921446 81.414054 
L 333.903706 61.228921 
L 349.885966 63.665058 
" clip-path="url(#pf518c27a3e)" style="fill: none; stroke-dasharray: 6,2.25; stroke-dashoffset: 0; stroke: #ff7f0e; stroke-width: 1.5"/>
   </g>
   <g id="line2d_13">
    <path d="M 62.205284 250.944049 
L 78.187544 121.809653 
L 94.169804 62.254445 
L 110.152064 170.245424 
L 126.134324 182.356973 
L 142.116585 288.430564 
L 158.098845 219.425549 
L 174.081105 178.783527 
L 190.063365 229.662915 
L 206.045625 229.5865 
L 222.027885 223.867718 
L 238.010145 204.170602 
L 253.992405 212.120303 
L 269.974665 256.660095 
L 285.956926 228.152771 
L 301.939186 280.008909 
L 317.921446 257.671265 
L 333.903706 221.105912 
L 349.885966 189.844781 
" clip-path="url(#pf518c27a3e)" style="fill: none; stroke-dasharray: 1.5,1.5; stroke-dashoffset: 0; stroke: #2ca02c; stroke-width: 1.5"/>
   </g>
   <g id="line2d_14">
    <path d="M 62.205284 222.013948 
L 78.187544 259.398688 
L 94.169804 214.530391 
L 110.152064 186.294916 
L 126.134324 158.143439 
L 142.116585 196.264907 
L 158.098845 182.46432 
L 174.081105 193.961464 
L 190.063365 169.328821 
L 206.045625 135.777695 
L 222.027885 179.120006 
L 238.010145 198.369091 
L 253.992405 63.665058 
L 269.974665 118.081722 
L 285.956926 84.21079 
L 301.939186 63.665058 
L 317.921446 112.459025 
L 333.903706 76.396281 
L 349.885966 89.159512 
" clip-path="url(#pf518c27a3e)" style="fill: none; stroke-dasharray: 4.5,1.875,2.25,1.875; stroke-dashoffset: 0; stroke: #d62728; stroke-width: 1.5"/>
   </g>
   <g id="line2d_15">
    <path d="M 62.205284 240.506963 
L 78.187544 280.846678 
L 94.169804 164.660114 
L 110.152064 197.618883 
L 126.134324 217.87795 
L 142.116585 189.035001 
L 158.098845 190.556426 
L 174.081105 176.284975 
L 190.063365 200.530446 
L 206.045625 195.671306 
L 222.027885 213.993564 
L 238.010145 232.98943 
L 253.992405 238.314402 
L 269.974665 225.884374 
L 285.956926 217.831194 
L 301.939186 210.554035 
L 317.921446 212.007293 
L 333.903706 210.357557 
L 349.885966 190.972798 
" clip-path="url(#pf518c27a3e)" style="fill: none; stroke-dasharray: 7.5,1.5,1.5,1.5; stroke-dashoffset: 0; stroke: #9467bd; stroke-width: 1.5"/>
   </g>
   <g id="line2d_16"/>
   <g id="line2d_17"/>
   <g id="line2d_18"/>
   <g id="line2d_19"/>
   <g id="line2d_20"/>
   <g id="patch_3">
    <path d="M 47.82125 318.04 
L 47.82125 10.8 
" style="fill: none; stroke: #000000; stroke-width: 0.8; stroke-linejoin: miter; stroke-linecap: square"/>
   </g>
   <g id="patch_4">
    <path d="M 364.27 318.04 
L 364.27 10.8 
" style="fill: none; stroke: #000000; stroke-width: 0.8; stroke-linejoin: miter; stroke-linecap: square"/>
   </g>
   <g id="patch_5">
    <path d="M 47.82125 318.04 
L 364.27 318.04 
" style="fill: none; stroke: #000000; stroke-width: 0.8; stroke-linejoin: miter; stroke-linecap: square"/>
   </g>
   <g id="patch_6">
    <path d="M 47.82125 10.8 
L 364.27 10.8 
" style="fill: none; stroke: #000000; stroke-width: 0.8; stroke-linejoin: miter; stroke-linecap: square"/>
   </g>
   <g id="legend_1">
    <g id="patch_7">
     <path d="M 134.1675 106.86875 
L 277.92375 106.86875 
Q 279.92375 106.86875 279.92375 104.86875 
L 279.92375 17.8 
Q 279.92375 15.8 277.92375 15.8 
L 134.1675 15.8 
Q 132.1675 15.8 132.1675 17.8 
L 132.1675 104.86875 
Q 132.1675 106.86875 134.1675 106.86875 
z
" style="fill: #ffffff; opacity: 0.8; stroke: #cccccc; stroke-linejoin: miter"/>
    </g>
    <g id="text_13">
     <!-- model -->
     <g transform="translate(190.476094 27.398438) scale(0.1 -0.1)">
      <defs>
       <path id="DejaVuSans-6f" d="M 1959 3097 
Q 1497 3097 1228 2736 
Q 959 2375 959 1747 
Q 959 1119 1226 758 
Q 1494 397 1959 397 
Q 2419 397 2687 759 
Q 2956 1122 2956 1747 
Q 2956 2369 2687 2733 
Q 2419 3097 1959 3097 
z
M 1959 3584 
Q 2709 3584 3137 3096 
Q 3566 2609 3566 1747 
Q 3566 888 3137 398 
Q 2709 -91 1959 -91 
Q 1206 -91 779 398 
Q 353 888 353 1747 
Q 353 2609 779 3096 
Q 1206 3584 1959 3584 
z
" transform="scale(0.015625)"/>
       <path id="DejaVuSans-6c" d="M 603 4863 
L 1178 4863 
L 1178 0 
L 603 0 
L 603 4863 
z
" transform="scale(0.015625)"/>
      </defs>
      <use xlink:href="#DejaVuSans-6d"/>
      <use xlink:href="#DejaVuSans-6f" x="97.412109"/>
      <use xlink:href="#DejaVuSans-64" x="158.59375"/>
      <use xlink:href="#DejaVuSans-65" x="222.070312"/>
      <use xlink:href="#DejaVuSans-6c" x="283.59375"/>
     </g>
    </g>
    <g id="line2d_21">
     <path d="M 136.1675 38.576563 
L 146.1675 38.576563 
L 156.1675 38.576563 
" style="fill: none; stroke: #1f77b4; stroke-width: 1.5; stroke-linecap: square"/>
    </g>
    <g id="text_14">
     <!-- None -->
     <g transform="translate(164.1675 42.076563) scale(0.1 -0.1)">
      <defs>
       <path id="DejaVuSans-4e" d="M 628 4666 
L 1478 4666 
L 3547 763 
L 3547 4666 
L 4159 4666 
L 4159 0 
L 3309 0 
L 1241 3903 
L 1241 0 
L 628 0 
L 628 4666 
z
" transform="scale(0.015625)"/>
       <path id="DejaVuSans-6e" d="M 3513 2113 
L 3513 0 
L 2938 0 
L 2938 2094 
Q 2938 2591 2744 2837 
Q 2550 3084 2163 3084 
Q 1697 3084 1428 2787 
Q 1159 2491 1159 1978 
L 1159 0 
L 581 0 
L 581 3500 
L 1159 3500 
L 1159 2956 
Q 1366 3272 1645 3428 
Q 1925 3584 2291 3584 
Q 2894 3584 3203 3211 
Q 3513 2838 3513 2113 
z
" transform="scale(0.015625)"/>
      </defs>
      <use xlink:href="#DejaVuSans-4e"/>
      <use xlink:href="#DejaVuSans-6f" x="74.804688"/>
      <use xlink:href="#DejaVuSans-6e" x="135.986328"/>
      <use xlink:href="#DejaVuSans-65" x="199.365234"/>
     </g>
    </g>
    <g id="line2d_22">
     <path d="M 136.1675 53.254688 
L 146.1675 53.254688 
L 156.1675 53.254688 
" style="fill: none; stroke-dasharray: 6,2.25; stroke-dashoffset: 0; stroke: #ff7f0e; stroke-width: 1.5"/>
    </g>
    <g id="text_15">
     <!-- logisticregression -->
     <g transform="translate(164.1675 56.754688) scale(0.1 -0.1)">
      <defs>
       <path id="DejaVuSans-67" d="M 2906 1791 
Q 2906 2416 2648 2759 
Q 2391 3103 1925 3103 
Q 1463 3103 1205 2759 
Q 947 2416 947 1791 
Q 947 1169 1205 825 
Q 1463 481 1925 481 
Q 2391 481 2648 825 
Q 2906 1169 2906 1791 
z
M 3481 434 
Q 3481 -459 3084 -895 
Q 2688 -1331 1869 -1331 
Q 1566 -1331 1297 -1286 
Q 1028 -1241 775 -1147 
L 775 -588 
Q 1028 -725 1275 -790 
Q 1522 -856 1778 -856 
Q 2344 -856 2625 -561 
Q 2906 -266 2906 331 
L 2906 616 
Q 2728 306 2450 153 
Q 2172 0 1784 0 
Q 1141 0 747 490 
Q 353 981 353 1791 
Q 353 2603 747 3093 
Q 1141 3584 1784 3584 
Q 2172 3584 2450 3431 
Q 2728 3278 2906 2969 
L 2906 3500 
L 3481 3500 
L 3481 434 
z
" transform="scale(0.015625)"/>
      </defs>
      <use xlink:href="#DejaVuSans-6c"/>
      <use xlink:href="#DejaVuSans-6f" x="27.783203"/>
      <use xlink:href="#DejaVuSans-67" x="88.964844"/>
      <use xlink:href="#DejaVuSans-69" x="152.441406"/>
      <use xlink:href="#DejaVuSans-73" x="180.224609"/>
      <use xlink:href="#DejaVuSans-74" x="232.324219"/>
      <use xlink:href="#DejaVuSans-69" x="271.533203"/>
      <use xlink:href="#DejaVuSans-63" x="299.316406"/>
      <use xlink:href="#DejaVuSans-72" x="354.296875"/>
      <use xlink:href="#DejaVuSans-65" x="393.160156"/>
      <use xlink:href="#DejaVuSans-67" x="454.683594"/>
      <use xlink:href="#DejaVuSans-72" x="518.160156"/>
      <use xlink:href="#DejaVuSans-65" x="557.023438"/>
      <use xlink:href="#DejaVuSans-73" x="618.546875"/>
      <use xlink:href="#DejaVuSans-73" x="670.646484"/>
      <use xlink:href="#DejaVuSans-69" x="722.746094"/>
      <use xlink:href="#DejaVuSans-6f" x="750.529297"/>
      <use xlink:href="#DejaVuSans-6e" x="811.710938"/>
     </g>
    </g>
    <g id="line2d_23">
     <path d="M 136.1675 67.932813 
L 146.1675 67.932813 
L 156.1675 67.932813 
" style="fill: none; stroke-dasharray: 1.5,1.5; stroke-dashoffset: 0; stroke: #2ca02c; stroke-width: 1.5"/>
    </g>
    <g id="text_16">
     <!-- decisiontreeclassifier -->
     <g transform="translate(164.1675 71.432813) scale(0.1 -0.1)">
      <use xlink:href="#DejaVuSans-64"/>
      <use xlink:href="#DejaVuSans-65" x="63.476562"/>
      <use xlink:href="#DejaVuSans-63" x="125"/>
      <use xlink:href="#DejaVuSans-69" x="179.980469"/>
      <use xlink:href="#DejaVuSans-73" x="207.763672"/>
      <use xlink:href="#DejaVuSans-69" x="259.863281"/>
      <use xlink:href="#DejaVuSans-6f" x="287.646484"/>
      <use xlink:href="#DejaVuSans-6e" x="348.828125"/>
      <use xlink:href="#DejaVuSans-74" x="412.207031"/>
      <use xlink:href="#DejaVuSans-72" x="451.416016"/>
      <use xlink:href="#DejaVuSans-65" x="490.279297"/>
      <use xlink:href="#DejaVuSans-65" x="551.802734"/>
      <use xlink:href="#DejaVuSans-63" x="613.326172"/>
      <use xlink:href="#DejaVuSans-6c" x="668.306641"/>
      <use xlink:href="#DejaVuSans-61" x="696.089844"/>
      <use xlink:href="#DejaVuSans-73" x="757.369141"/>
      <use xlink:href="#DejaVuSans-73" x="809.46875"/>
      <use xlink:href="#DejaVuSans-69" x="861.568359"/>
      <use xlink:href="#DejaVuSans-66" x="889.351562"/>
      <use xlink:href="#DejaVuSans-69" x="924.556641"/>
      <use xlink:href="#DejaVuSans-65" x="952.339844"/>
      <use xlink:href="#DejaVuSans-72" x="1013.863281"/>
     </g>
    </g>
    <g id="line2d_24">
     <path d="M 136.1675 82.610938 
L 146.1675 82.610938 
L 156.1675 82.610938 
" style="fill: none; stroke-dasharray: 4.5,1.875,2.25,1.875; stroke-dashoffset: 0; stroke: #d62728; stroke-width: 1.5"/>
    </g>
    <g id="text_17">
     <!-- adaboostclassifier -->
     <g transform="translate(164.1675 86.110938) scale(0.1 -0.1)">
      <defs>
       <path id="DejaVuSans-62" d="M 3116 1747 
Q 3116 2381 2855 2742 
Q 2594 3103 2138 3103 
Q 1681 3103 1420 2742 
Q 1159 2381 1159 1747 
Q 1159 1113 1420 752 
Q 1681 391 2138 391 
Q 2594 391 2855 752 
Q 3116 1113 3116 1747 
z
M 1159 2969 
Q 1341 3281 1617 3432 
Q 1894 3584 2278 3584 
Q 2916 3584 3314 3078 
Q 3713 2572 3713 1747 
Q 3713 922 3314 415 
Q 2916 -91 2278 -91 
Q 1894 -91 1617 61 
Q 1341 213 1159 525 
L 1159 0 
L 581 0 
L 581 4863 
L 1159 4863 
L 1159 2969 
z
" transform="scale(0.015625)"/>
      </defs>
      <use xlink:href="#DejaVuSans-61"/>
      <use xlink:href="#DejaVuSans-64" x="61.279297"/>
      <use xlink:href="#DejaVuSans-61" x="124.755859"/>
      <use xlink:href="#DejaVuSans-62" x="186.035156"/>
      <use xlink:href="#DejaVuSans-6f" x="249.511719"/>
      <use xlink:href="#DejaVuSans-6f" x="310.693359"/>
      <use xlink:href="#DejaVuSans-73" x="371.875"/>
      <use xlink:href="#DejaVuSans-74" x="423.974609"/>
      <use xlink:href="#DejaVuSans-63" x="463.183594"/>
      <use xlink:href="#DejaVuSans-6c" x="518.164062"/>
      <use xlink:href="#DejaVuSans-61" x="545.947266"/>
      <use xlink:href="#DejaVuSans-73" x="607.226562"/>
      <use xlink:href="#DejaVuSans-73" x="659.326172"/>
      <use xlink:href="#DejaVuSans-69" x="711.425781"/>
      <use xlink:href="#DejaVuSans-66" x="739.208984"/>
      <use xlink:href="#DejaVuSans-69" x="774.414062"/>
      <use xlink:href="#DejaVuSans-65" x="802.197266"/>
      <use xlink:href="#DejaVuSans-72" x="863.720703"/>
     </g>
    </g>
    <g id="line2d_25">
     <path d="M 136.1675 97.289062 
L 146.1675 97.289062 
L 156.1675 97.289062 
" style="fill: none; stroke-dasharray: 7.5,1.5,1.5,1.5; stroke-dashoffset: 0; stroke: #9467bd; stroke-width: 1.5"/>
    </g>
    <g id="text_18">
     <!-- randomforestclassifier -->
     <g transform="translate(164.1675 100.789062) scale(0.1 -0.1)">
      <use xlink:href="#DejaVuSans-72"/>
      <use xlink:href="#DejaVuSans-61" x="41.113281"/>
      <use xlink:href="#DejaVuSans-6e" x="102.392578"/>
      <use xlink:href="#DejaVuSans-64" x="165.771484"/>
      <use xlink:href="#DejaVuSans-6f" x="229.248047"/>
      <use xlink:href="#DejaVuSans-6d" x="290.429688"/>
      <use xlink:href="#DejaVuSans-66" x="387.841797"/>
      <use xlink:href="#DejaVuSans-6f" x="423.046875"/>
      <use xlink:href="#DejaVuSans-72" x="484.228516"/>
      <use xlink:href="#DejaVuSans-65" x="523.091797"/>
      <use xlink:href="#DejaVuSans-73" x="584.615234"/>
      <use xlink:href="#DejaVuSans-74" x="636.714844"/>
      <use xlink:href="#DejaVuSans-63" x="675.923828"/>
      <use xlink:href="#DejaVuSans-6c" x="730.904297"/>
      <use xlink:href="#DejaVuSans-61" x="758.6875"/>
      <use xlink:href="#DejaVuSans-73" x="819.966797"/>
      <use xlink:href="#DejaVuSans-73" x="872.066406"/>
      <use xlink:href="#DejaVuSans-69" x="924.166016"/>
      <use xlink:href="#DejaVuSans-66" x="951.949219"/>
      <use xlink:href="#DejaVuSans-69" x="987.154297"/>
      <use xlink:href="#DejaVuSans-65" x="1014.9375"/>
      <use xlink:href="#DejaVuSans-72" x="1076.460938"/>
     </g>
    </g>
   </g>
  </g>
  <g id="axes_2">
   <g id="patch_8">
    <path d="M 392.75125 318.04 
L 709.2 318.04 
L 709.2 10.8 
L 392.75125 10.8 
z
" style="fill: #ffffff"/>
   </g>
   <g id="PolyCollection_6">
    <defs>
     <path id="m0382ddaa78" d="M 407.135284 -75.391195 
L 407.135284 -75.391195 
L 423.117544 -75.391195 
L 439.099804 -75.391195 
L 455.082064 -75.391195 
L 471.064324 -75.391195 
L 487.046585 -75.391195 
L 503.028845 -75.391195 
L 519.011105 -75.391195 
L 534.993365 -75.391195 
L 550.975625 -75.391195 
L 566.957885 -75.391195 
L 582.940145 -75.391195 
L 598.922405 -75.391195 
L 614.904665 -75.391195 
L 630.886926 -75.391195 
L 646.869186 -75.391195 
L 662.851446 -75.391195 
L 678.833706 -75.391195 
L 694.815966 -75.391195 
L 694.815966 -75.391195 
L 694.815966 -75.391195 
L 678.833706 -75.391195 
L 662.851446 -75.391195 
L 646.869186 -75.391195 
L 630.886926 -75.391195 
L 614.904665 -75.391195 
L 598.922405 -75.391195 
L 582.940145 -75.391195 
L 566.957885 -75.391195 
L 550.975625 -75.391195 
L 534.993365 -75.391195 
L 519.011105 -75.391195 
L 503.028845 -75.391195 
L 487.046585 -75.391195 
L 471.064324 -75.391195 
L 455.082064 -75.391195 
L 439.099804 -75.391195 
L 423.117544 -75.391195 
L 407.135284 -75.391195 
z
" style="stroke: #1f77b4; stroke-opacity: 0.2"/>
    </defs>
    <g clip-path="url(#p5d49562b15)">
     <use xlink:href="#m0382ddaa78" x="0" y="360" style="fill: #1f77b4; fill-opacity: 0.2; stroke: #1f77b4; stroke-opacity: 0.2"/>
    </g>
   </g>
   <g id="PolyCollection_7">
    <defs>
     <path id="m2b63fb5401" d="M 407.135284 -111.9199 
L 407.135284 -111.9199 
L 423.117544 -79.855815 
L 439.099804 -156.566095 
L 455.082064 -137.489993 
L 471.064324 -131.80775 
L 487.046585 -113.543398 
L 503.028845 -126.531382 
L 519.011105 -118.413892 
L 534.993365 -120.03739 
L 550.975625 -119.631516 
L 566.957885 -111.108151 
L 582.940145 -111.108151 
L 598.922405 -131.401876 
L 614.904665 -134.648872 
L 630.886926 -144.795734 
L 646.869186 -139.92524 
L 662.851446 -146.419232 
L 678.833706 -154.942597 
L 694.815966 -153.319099 
L 694.815966 -153.319099 
L 694.815966 -153.319099 
L 678.833706 -154.942597 
L 662.851446 -146.419232 
L 646.869186 -139.92524 
L 630.886926 -144.795734 
L 614.904665 -134.648872 
L 598.922405 -131.401876 
L 582.940145 -111.108151 
L 566.957885 -111.108151 
L 550.975625 -119.631516 
L 534.993365 -120.03739 
L 519.011105 -118.413892 
L 503.028845 -126.531382 
L 487.046585 -113.543398 
L 471.064324 -131.80775 
L 455.082064 -137.489993 
L 439.099804 -156.566095 
L 423.117544 -79.855815 
L 407.135284 -111.9199 
z
" style="stroke: #ff7f0e; stroke-opacity: 0.2"/>
    </defs>
    <g clip-path="url(#p5d49562b15)">
     <use xlink:href="#m2b63fb5401" x="0" y="360" style="fill: #ff7f0e; fill-opacity: 0.2; stroke: #ff7f0e; stroke-opacity: 0.2"/>
    </g>
   </g>
   <g id="PolyCollection_8">
    <defs>
     <path id="mf4b1c1b834" d="M 407.135284 -73.199676 
L 407.135284 -67.866282 
L 423.117544 -108.973251 
L 439.099804 -136.367953 
L 455.082064 -98.022554 
L 471.064324 -93.628354 
L 487.046585 -55.925455 
L 503.028845 -78.930421 
L 519.011105 -94.953534 
L 534.993365 -75.772717 
L 550.975625 -74.660013 
L 566.957885 -77.331073 
L 582.940145 -81.568199 
L 598.922405 -82.354175 
L 614.904665 -67.248947 
L 630.886926 -77.469273 
L 646.869186 -58.34264 
L 662.851446 -66.559366 
L 678.833706 -78.678576 
L 694.815966 -89.790405 
L 694.815966 -96.586165 
L 694.815966 -96.586165 
L 678.833706 -85.716846 
L 662.851446 -71.616968 
L 646.869186 -62.078918 
L 630.886926 -81.552573 
L 614.904665 -71.373241 
L 598.922405 -90.076344 
L 582.940145 -89.629679 
L 566.957885 -84.133935 
L 550.975625 -81.869764 
L 534.993365 -81.406661 
L 519.011105 -102.367238 
L 503.028845 -83.996749 
L 487.046585 -58.913097 
L 471.064324 -101.083051 
L 455.082064 -104.135836 
L 439.099804 -145.121043 
L 423.117544 -118.617438 
L 407.135284 -73.199676 
z
" style="stroke: #2ca02c; stroke-opacity: 0.2"/>
    </defs>
    <g clip-path="url(#p5d49562b15)">
     <use xlink:href="#mf4b1c1b834" x="0" y="360" style="fill: #2ca02c; fill-opacity: 0.2; stroke: #2ca02c; stroke-opacity: 0.2"/>
    </g>
   </g>
   <g id="PolyCollection_9">
    <defs>
     <path id="m714837d48a" d="M 407.135284 -80.667564 
L 407.135284 -80.667564 
L 423.117544 -69.303078 
L 439.099804 -85.132183 
L 455.082064 -94.061422 
L 471.064324 -107.049406 
L 487.046585 -93.249673 
L 503.028845 -99.743665 
L 519.011105 -96.090795 
L 534.993365 -106.237657 
L 550.975625 -118.413892 
L 566.957885 -101.367163 
L 582.940145 -95.68492 
L 598.922405 -153.319099 
L 614.904665 -128.15488 
L 630.886926 -140.331115 
L 646.869186 -153.319099 
L 662.851446 -131.401876 
L 678.833706 -149.666228 
L 694.815966 -141.548738 
L 694.815966 -141.548738 
L 694.815966 -141.548738 
L 678.833706 -149.666228 
L 662.851446 -131.401876 
L 646.869186 -153.319099 
L 630.886926 -140.331115 
L 614.904665 -128.15488 
L 598.922405 -153.319099 
L 582.940145 -95.68492 
L 566.957885 -101.367163 
L 550.975625 -118.413892 
L 534.993365 -106.237657 
L 519.011105 -96.090795 
L 503.028845 -99.743665 
L 487.046585 -93.249673 
L 471.064324 -107.049406 
L 455.082064 -94.061422 
L 439.099804 -85.132183 
L 423.117544 -69.303078 
L 407.135284 -80.667564 
z
" style="stroke: #d62728; stroke-opacity: 0.2"/>
    </defs>
    <g clip-path="url(#p5d49562b15)">
     <use xlink:href="#m714837d48a" x="0" y="360" style="fill: #d62728; fill-opacity: 0.2; stroke: #d62728; stroke-opacity: 0.2"/>
    </g>
   </g>
   <g id="PolyCollection_10">
    <defs>
     <path id="m5d56df8ca4" d="M 407.135284 -83.160851 
L 407.135284 -75.528584 
L 423.117544 -60.267906 
L 439.099804 -109.594036 
L 455.082064 -94.263548 
L 471.064324 -85.813241 
L 487.046585 -97.900792 
L 503.028845 -98.784381 
L 519.011105 -104.076781 
L 534.993365 -93.630992 
L 550.975625 -96.001299 
L 566.957885 -87.882795 
L 582.940145 -78.532664 
L 598.922405 -77.289267 
L 614.904665 -82.104157 
L 630.886926 -85.432125 
L 646.869186 -88.191665 
L 662.851446 -87.850325 
L 678.833706 -89.101636 
L 694.815966 -98.379115 
L 694.815966 -104.534202 
L 694.815966 -104.534202 
L 678.833706 -96.822992 
L 662.851446 -95.83205 
L 646.869186 -96.399868 
L 630.886926 -92.916856 
L 614.904665 -89.054149 
L 598.922405 -83.338421 
L 582.940145 -86.528392 
L 566.957885 -94.970581 
L 550.975625 -103.753705 
L 534.993365 -101.287003 
L 519.011105 -110.393812 
L 503.028845 -104.868237 
L 487.046585 -104.614565 
L 471.064324 -93.306902 
L 455.082064 -100.409705 
L 439.099804 -116.539361 
L 423.117544 -65.70703 
L 407.135284 -83.160851 
z
" style="stroke: #9467bd; stroke-opacity: 0.2"/>
    </defs>
    <g clip-path="url(#p5d49562b15)">
     <use xlink:href="#m5d56df8ca4" x="0" y="360" style="fill: #9467bd; fill-opacity: 0.2; stroke: #9467bd; stroke-opacity: 0.2"/>
    </g>
   </g>
   <g id="matplotlib.axis_3">
    <g id="xtick_6">
     <g id="line2d_26">
      <g>
       <use xlink:href="#mc2c3ffbb07" x="439.099804" y="318.04" style="stroke: #000000; stroke-width: 0.8"/>
      </g>
     </g>
     <g id="text_19">
      <!-- 0.2 -->
      <g transform="translate(431.148242 332.638438) scale(0.1 -0.1)">
       <use xlink:href="#DejaVuSans-30"/>
       <use xlink:href="#DejaVuSans-2e" x="63.623047"/>
       <use xlink:href="#DejaVuSans-32" x="95.410156"/>
      </g>
     </g>
    </g>
    <g id="xtick_7">
     <g id="line2d_27">
      <g>
       <use xlink:href="#mc2c3ffbb07" x="503.028845" y="318.04" style="stroke: #000000; stroke-width: 0.8"/>
      </g>
     </g>
     <g id="text_20">
      <!-- 0.4 -->
      <g transform="translate(495.077282 332.638438) scale(0.1 -0.1)">
       <use xlink:href="#DejaVuSans-30"/>
       <use xlink:href="#DejaVuSans-2e" x="63.623047"/>
       <use xlink:href="#DejaVuSans-34" x="95.410156"/>
      </g>
     </g>
    </g>
    <g id="xtick_8">
     <g id="line2d_28">
      <g>
       <use xlink:href="#mc2c3ffbb07" x="566.957885" y="318.04" style="stroke: #000000; stroke-width: 0.8"/>
      </g>
     </g>
     <g id="text_21">
      <!-- 0.6 -->
      <g transform="translate(559.006323 332.638438) scale(0.1 -0.1)">
       <use xlink:href="#DejaVuSans-30"/>
       <use xlink:href="#DejaVuSans-2e" x="63.623047"/>
       <use xlink:href="#DejaVuSans-36" x="95.410156"/>
      </g>
     </g>
    </g>
    <g id="xtick_9">
     <g id="line2d_29">
      <g>
       <use xlink:href="#mc2c3ffbb07" x="630.886926" y="318.04" style="stroke: #000000; stroke-width: 0.8"/>
      </g>
     </g>
     <g id="text_22">
      <!-- 0.8 -->
      <g transform="translate(622.935363 332.638438) scale(0.1 -0.1)">
       <use xlink:href="#DejaVuSans-30"/>
       <use xlink:href="#DejaVuSans-2e" x="63.623047"/>
       <use xlink:href="#DejaVuSans-38" x="95.410156"/>
      </g>
     </g>
    </g>
    <g id="xtick_10">
     <g id="line2d_30">
      <g>
       <use xlink:href="#mc2c3ffbb07" x="694.815966" y="318.04" style="stroke: #000000; stroke-width: 0.8"/>
      </g>
     </g>
     <g id="text_23">
      <!-- 1.0 -->
      <g transform="translate(686.864403 332.638438) scale(0.1 -0.1)">
       <use xlink:href="#DejaVuSans-31"/>
       <use xlink:href="#DejaVuSans-2e" x="63.623047"/>
       <use xlink:href="#DejaVuSans-30" x="95.410156"/>
      </g>
     </g>
    </g>
    <g id="text_24">
     <!-- frac -->
     <g transform="translate(541.346719 346.316563) scale(0.1 -0.1)">
      <use xlink:href="#DejaVuSans-66"/>
      <use xlink:href="#DejaVuSans-72" x="35.205078"/>
      <use xlink:href="#DejaVuSans-61" x="76.318359"/>
      <use xlink:href="#DejaVuSans-63" x="137.597656"/>
     </g>
    </g>
   </g>
   <g id="matplotlib.axis_4">
    <g id="ytick_6">
     <g id="line2d_31">
      <g>
       <use xlink:href="#mcf429ccb1a" x="392.75125" y="310.178898" style="stroke: #000000; stroke-width: 0.8"/>
      </g>
     </g>
    </g>
    <g id="ytick_7">
     <g id="line2d_32">
      <g>
       <use xlink:href="#mcf429ccb1a" x="392.75125" y="241.991982" style="stroke: #000000; stroke-width: 0.8"/>
      </g>
     </g>
    </g>
    <g id="ytick_8">
     <g id="line2d_33">
      <g>
       <use xlink:href="#mcf429ccb1a" x="392.75125" y="173.805067" style="stroke: #000000; stroke-width: 0.8"/>
      </g>
     </g>
    </g>
    <g id="ytick_9">
     <g id="line2d_34">
      <g>
       <use xlink:href="#mcf429ccb1a" x="392.75125" y="105.618151" style="stroke: #000000; stroke-width: 0.8"/>
      </g>
     </g>
    </g>
    <g id="ytick_10">
     <g id="line2d_35">
      <g>
       <use xlink:href="#mcf429ccb1a" x="392.75125" y="37.431236" style="stroke: #000000; stroke-width: 0.8"/>
      </g>
     </g>
    </g>
    <g id="text_25">
     <!-- statistical_parity_difference -->
     <g transform="translate(382.893437 233.330938) rotate(-90) scale(0.1 -0.1)">
      <defs>
       <path id="DejaVuSans-79" d="M 2059 -325 
Q 1816 -950 1584 -1140 
Q 1353 -1331 966 -1331 
L 506 -1331 
L 506 -850 
L 844 -850 
Q 1081 -850 1212 -737 
Q 1344 -625 1503 -206 
L 1606 56 
L 191 3500 
L 800 3500 
L 1894 763 
L 2988 3500 
L 3597 3500 
L 2059 -325 
z
" transform="scale(0.015625)"/>
      </defs>
      <use xlink:href="#DejaVuSans-73"/>
      <use xlink:href="#DejaVuSans-74" x="52.099609"/>
      <use xlink:href="#DejaVuSans-61" x="91.308594"/>
      <use xlink:href="#DejaVuSans-74" x="152.587891"/>
      <use xlink:href="#DejaVuSans-69" x="191.796875"/>
      <use xlink:href="#DejaVuSans-73" x="219.580078"/>
      <use xlink:href="#DejaVuSans-74" x="271.679688"/>
      <use xlink:href="#DejaVuSans-69" x="310.888672"/>
      <use xlink:href="#DejaVuSans-63" x="338.671875"/>
      <use xlink:href="#DejaVuSans-61" x="393.652344"/>
      <use xlink:href="#DejaVuSans-6c" x="454.931641"/>
      <use xlink:href="#DejaVuSans-5f" x="482.714844"/>
      <use xlink:href="#DejaVuSans-70" x="532.714844"/>
      <use xlink:href="#DejaVuSans-61" x="596.191406"/>
      <use xlink:href="#DejaVuSans-72" x="657.470703"/>
      <use xlink:href="#DejaVuSans-69" x="698.583984"/>
      <use xlink:href="#DejaVuSans-74" x="726.367188"/>
      <use xlink:href="#DejaVuSans-79" x="765.576172"/>
      <use xlink:href="#DejaVuSans-5f" x="824.755859"/>
      <use xlink:href="#DejaVuSans-64" x="874.755859"/>
      <use xlink:href="#DejaVuSans-69" x="938.232422"/>
      <use xlink:href="#DejaVuSans-66" x="966.015625"/>
      <use xlink:href="#DejaVuSans-66" x="1001.220703"/>
      <use xlink:href="#DejaVuSans-65" x="1036.425781"/>
      <use xlink:href="#DejaVuSans-72" x="1097.949219"/>
      <use xlink:href="#DejaVuSans-65" x="1136.8125"/>
      <use xlink:href="#DejaVuSans-6e" x="1198.335938"/>
      <use xlink:href="#DejaVuSans-63" x="1261.714844"/>
      <use xlink:href="#DejaVuSans-65" x="1316.695312"/>
     </g>
    </g>
   </g>
   <g id="line2d_36">
    <path d="M 407.135284 284.608805 
L 423.117544 284.608805 
L 439.099804 284.608805 
L 455.082064 284.608805 
L 471.064324 284.608805 
L 487.046585 284.608805 
L 503.028845 284.608805 
L 519.011105 284.608805 
L 534.993365 284.608805 
L 550.975625 284.608805 
L 566.957885 284.608805 
L 582.940145 284.608805 
L 598.922405 284.608805 
L 614.904665 284.608805 
L 630.886926 284.608805 
L 646.869186 284.608805 
L 662.851446 284.608805 
L 678.833706 284.608805 
L 694.815966 284.608805 
" clip-path="url(#p5d49562b15)" style="fill: none; stroke: #1f77b4; stroke-width: 1.5; stroke-linecap: square"/>
   </g>
   <g id="line2d_37">
    <path d="M 407.135284 248.0801 
L 423.117544 280.144185 
L 439.099804 203.433905 
L 455.082064 222.510007 
L 471.064324 228.19225 
L 487.046585 246.456602 
L 503.028845 233.468618 
L 519.011105 241.586108 
L 534.993365 239.96261 
L 550.975625 240.368484 
L 566.957885 248.891849 
L 582.940145 248.891849 
L 598.922405 228.598124 
L 614.904665 225.351128 
L 630.886926 215.204266 
L 646.869186 220.07476 
L 662.851446 213.580768 
L 678.833706 205.057403 
L 694.815966 206.680901 
" clip-path="url(#p5d49562b15)" style="fill: none; stroke-dasharray: 6,2.25; stroke-dashoffset: 0; stroke: #ff7f0e; stroke-width: 1.5"/>
   </g>
   <g id="line2d_38">
    <path d="M 407.135284 289.406241 
L 423.117544 246.131902 
L 439.099804 219.027603 
L 455.082064 258.973771 
L 471.064324 262.634759 
L 487.046585 302.621515 
L 503.028845 278.553157 
L 519.011105 261.254786 
L 534.993365 281.418631 
L 550.975625 281.678391 
L 566.957885 279.056441 
L 582.940145 274.413237 
L 598.922405 273.999245 
L 614.904665 290.67257 
L 630.886926 280.574412 
L 646.869186 299.739806 
L 662.851446 290.891742 
L 678.833706 277.733291 
L 694.815966 266.863972 
" clip-path="url(#p5d49562b15)" style="fill: none; stroke-dasharray: 1.5,1.5; stroke-dashoffset: 0; stroke: #2ca02c; stroke-width: 1.5"/>
   </g>
   <g id="line2d_39">
    <path d="M 407.135284 279.332436 
L 423.117544 290.696922 
L 439.099804 274.867817 
L 455.082064 265.938578 
L 471.064324 252.950594 
L 487.046585 266.750327 
L 503.028845 260.256335 
L 519.011105 263.909205 
L 534.993365 253.762343 
L 550.975625 241.586108 
L 566.957885 258.632837 
L 582.940145 264.31508 
L 598.922405 206.680901 
L 614.904665 231.84512 
L 630.886926 219.668885 
L 646.869186 206.680901 
L 662.851446 228.598124 
L 678.833706 210.333772 
L 694.815966 218.451262 
" clip-path="url(#p5d49562b15)" style="fill: none; stroke-dasharray: 4.5,1.875,2.25,1.875; stroke-dashoffset: 0; stroke: #d62728; stroke-width: 1.5"/>
   </g>
   <g id="line2d_40">
    <path d="M 407.135284 280.436415 
L 423.117544 297.052917 
L 439.099804 247.032944 
L 455.082064 262.764639 
L 471.064324 270.42755 
L 487.046585 258.673424 
L 503.028845 258.194492 
L 519.011105 252.845066 
L 534.993365 262.675347 
L 550.975625 260.33751 
L 566.957885 268.568644 
L 582.940145 277.359886 
L 598.922405 279.624666 
L 614.904665 274.315827 
L 630.886926 270.809072 
L 646.869186 267.627016 
L 662.851446 268.06536 
L 678.833706 267.204906 
L 694.815966 258.559779 
" clip-path="url(#p5d49562b15)" style="fill: none; stroke-dasharray: 7.5,1.5,1.5,1.5; stroke-dashoffset: 0; stroke: #9467bd; stroke-width: 1.5"/>
   </g>
   <g id="line2d_41"/>
   <g id="line2d_42"/>
   <g id="line2d_43"/>
   <g id="line2d_44"/>
   <g id="line2d_45"/>
   <g id="patch_9">
    <path d="M 392.75125 318.04 
L 392.75125 10.8 
" style="fill: none; stroke: #000000; stroke-width: 0.8; stroke-linejoin: miter; stroke-linecap: square"/>
   </g>
   <g id="patch_10">
    <path d="M 709.2 318.04 
L 709.2 10.8 
" style="fill: none; stroke: #000000; stroke-width: 0.8; stroke-linejoin: miter; stroke-linecap: square"/>
   </g>
   <g id="patch_11">
    <path d="M 392.75125 318.04 
L 709.2 318.04 
" style="fill: none; stroke: #000000; stroke-width: 0.8; stroke-linejoin: miter; stroke-linecap: square"/>
   </g>
   <g id="patch_12">
    <path d="M 392.75125 10.8 
L 709.2 10.8 
" style="fill: none; stroke: #000000; stroke-width: 0.8; stroke-linejoin: miter; stroke-linecap: square"/>
   </g>
   <g id="legend_2">
    <g id="patch_13">
     <path d="M 558.44375 106.86875 
L 702.2 106.86875 
Q 704.2 106.86875 704.2 104.86875 
L 704.2 17.8 
Q 704.2 15.8 702.2 15.8 
L 558.44375 15.8 
Q 556.44375 15.8 556.44375 17.8 
L 556.44375 104.86875 
Q 556.44375 106.86875 558.44375 106.86875 
z
" style="fill: #ffffff; opacity: 0.8; stroke: #cccccc; stroke-linejoin: miter"/>
    </g>
    <g id="text_26">
     <!-- model -->
     <g transform="translate(614.752344 27.398438) scale(0.1 -0.1)">
      <use xlink:href="#DejaVuSans-6d"/>
      <use xlink:href="#DejaVuSans-6f" x="97.412109"/>
      <use xlink:href="#DejaVuSans-64" x="158.59375"/>
      <use xlink:href="#DejaVuSans-65" x="222.070312"/>
      <use xlink:href="#DejaVuSans-6c" x="283.59375"/>
     </g>
    </g>
    <g id="line2d_46">
     <path d="M 560.44375 38.576563 
L 570.44375 38.576563 
L 580.44375 38.576563 
" style="fill: none; stroke: #1f77b4; stroke-width: 1.5; stroke-linecap: square"/>
    </g>
    <g id="text_27">
     <!-- None -->
     <g transform="translate(588.44375 42.076563) scale(0.1 -0.1)">
      <use xlink:href="#DejaVuSans-4e"/>
      <use xlink:href="#DejaVuSans-6f" x="74.804688"/>
      <use xlink:href="#DejaVuSans-6e" x="135.986328"/>
      <use xlink:href="#DejaVuSans-65" x="199.365234"/>
     </g>
    </g>
    <g id="line2d_47">
     <path d="M 560.44375 53.254688 
L 570.44375 53.254688 
L 580.44375 53.254688 
" style="fill: none; stroke-dasharray: 6,2.25; stroke-dashoffset: 0; stroke: #ff7f0e; stroke-width: 1.5"/>
    </g>
    <g id="text_28">
     <!-- logisticregression -->
     <g transform="translate(588.44375 56.754688) scale(0.1 -0.1)">
      <use xlink:href="#DejaVuSans-6c"/>
      <use xlink:href="#DejaVuSans-6f" x="27.783203"/>
      <use xlink:href="#DejaVuSans-67" x="88.964844"/>
      <use xlink:href="#DejaVuSans-69" x="152.441406"/>
      <use xlink:href="#DejaVuSans-73" x="180.224609"/>
      <use xlink:href="#DejaVuSans-74" x="232.324219"/>
      <use xlink:href="#DejaVuSans-69" x="271.533203"/>
      <use xlink:href="#DejaVuSans-63" x="299.316406"/>
      <use xlink:href="#DejaVuSans-72" x="354.296875"/>
      <use xlink:href="#DejaVuSans-65" x="393.160156"/>
      <use xlink:href="#DejaVuSans-67" x="454.683594"/>
      <use xlink:href="#DejaVuSans-72" x="518.160156"/>
      <use xlink:href="#DejaVuSans-65" x="557.023438"/>
      <use xlink:href="#DejaVuSans-73" x="618.546875"/>
      <use xlink:href="#DejaVuSans-73" x="670.646484"/>
      <use xlink:href="#DejaVuSans-69" x="722.746094"/>
      <use xlink:href="#DejaVuSans-6f" x="750.529297"/>
      <use xlink:href="#DejaVuSans-6e" x="811.710938"/>
     </g>
    </g>
    <g id="line2d_48">
     <path d="M 560.44375 67.932813 
L 570.44375 67.932813 
L 580.44375 67.932813 
" style="fill: none; stroke-dasharray: 1.5,1.5; stroke-dashoffset: 0; stroke: #2ca02c; stroke-width: 1.5"/>
    </g>
    <g id="text_29">
     <!-- decisiontreeclassifier -->
     <g transform="translate(588.44375 71.432813) scale(0.1 -0.1)">
      <use xlink:href="#DejaVuSans-64"/>
      <use xlink:href="#DejaVuSans-65" x="63.476562"/>
      <use xlink:href="#DejaVuSans-63" x="125"/>
      <use xlink:href="#DejaVuSans-69" x="179.980469"/>
      <use xlink:href="#DejaVuSans-73" x="207.763672"/>
      <use xlink:href="#DejaVuSans-69" x="259.863281"/>
      <use xlink:href="#DejaVuSans-6f" x="287.646484"/>
      <use xlink:href="#DejaVuSans-6e" x="348.828125"/>
      <use xlink:href="#DejaVuSans-74" x="412.207031"/>
      <use xlink:href="#DejaVuSans-72" x="451.416016"/>
      <use xlink:href="#DejaVuSans-65" x="490.279297"/>
      <use xlink:href="#DejaVuSans-65" x="551.802734"/>
      <use xlink:href="#DejaVuSans-63" x="613.326172"/>
      <use xlink:href="#DejaVuSans-6c" x="668.306641"/>
      <use xlink:href="#DejaVuSans-61" x="696.089844"/>
      <use xlink:href="#DejaVuSans-73" x="757.369141"/>
      <use xlink:href="#DejaVuSans-73" x="809.46875"/>
      <use xlink:href="#DejaVuSans-69" x="861.568359"/>
      <use xlink:href="#DejaVuSans-66" x="889.351562"/>
      <use xlink:href="#DejaVuSans-69" x="924.556641"/>
      <use xlink:href="#DejaVuSans-65" x="952.339844"/>
      <use xlink:href="#DejaVuSans-72" x="1013.863281"/>
     </g>
    </g>
    <g id="line2d_49">
     <path d="M 560.44375 82.610938 
L 570.44375 82.610938 
L 580.44375 82.610938 
" style="fill: none; stroke-dasharray: 4.5,1.875,2.25,1.875; stroke-dashoffset: 0; stroke: #d62728; stroke-width: 1.5"/>
    </g>
    <g id="text_30">
     <!-- adaboostclassifier -->
     <g transform="translate(588.44375 86.110938) scale(0.1 -0.1)">
      <use xlink:href="#DejaVuSans-61"/>
      <use xlink:href="#DejaVuSans-64" x="61.279297"/>
      <use xlink:href="#DejaVuSans-61" x="124.755859"/>
      <use xlink:href="#DejaVuSans-62" x="186.035156"/>
      <use xlink:href="#DejaVuSans-6f" x="249.511719"/>
      <use xlink:href="#DejaVuSans-6f" x="310.693359"/>
      <use xlink:href="#DejaVuSans-73" x="371.875"/>
      <use xlink:href="#DejaVuSans-74" x="423.974609"/>
      <use xlink:href="#DejaVuSans-63" x="463.183594"/>
      <use xlink:href="#DejaVuSans-6c" x="518.164062"/>
      <use xlink:href="#DejaVuSans-61" x="545.947266"/>
      <use xlink:href="#DejaVuSans-73" x="607.226562"/>
      <use xlink:href="#DejaVuSans-73" x="659.326172"/>
      <use xlink:href="#DejaVuSans-69" x="711.425781"/>
      <use xlink:href="#DejaVuSans-66" x="739.208984"/>
      <use xlink:href="#DejaVuSans-69" x="774.414062"/>
      <use xlink:href="#DejaVuSans-65" x="802.197266"/>
      <use xlink:href="#DejaVuSans-72" x="863.720703"/>
     </g>
    </g>
    <g id="line2d_50">
     <path d="M 560.44375 97.289062 
L 570.44375 97.289062 
L 580.44375 97.289062 
" style="fill: none; stroke-dasharray: 7.5,1.5,1.5,1.5; stroke-dashoffset: 0; stroke: #9467bd; stroke-width: 1.5"/>
    </g>
    <g id="text_31">
     <!-- randomforestclassifier -->
     <g transform="translate(588.44375 100.789062) scale(0.1 -0.1)">
      <use xlink:href="#DejaVuSans-72"/>
      <use xlink:href="#DejaVuSans-61" x="41.113281"/>
      <use xlink:href="#DejaVuSans-6e" x="102.392578"/>
      <use xlink:href="#DejaVuSans-64" x="165.771484"/>
      <use xlink:href="#DejaVuSans-6f" x="229.248047"/>
      <use xlink:href="#DejaVuSans-6d" x="290.429688"/>
      <use xlink:href="#DejaVuSans-66" x="387.841797"/>
      <use xlink:href="#DejaVuSans-6f" x="423.046875"/>
      <use xlink:href="#DejaVuSans-72" x="484.228516"/>
      <use xlink:href="#DejaVuSans-65" x="523.091797"/>
      <use xlink:href="#DejaVuSans-73" x="584.615234"/>
      <use xlink:href="#DejaVuSans-74" x="636.714844"/>
      <use xlink:href="#DejaVuSans-63" x="675.923828"/>
      <use xlink:href="#DejaVuSans-6c" x="730.904297"/>
      <use xlink:href="#DejaVuSans-61" x="758.6875"/>
      <use xlink:href="#DejaVuSans-73" x="819.966797"/>
      <use xlink:href="#DejaVuSans-73" x="872.066406"/>
      <use xlink:href="#DejaVuSans-69" x="924.166016"/>
      <use xlink:href="#DejaVuSans-66" x="951.949219"/>
      <use xlink:href="#DejaVuSans-69" x="987.154297"/>
      <use xlink:href="#DejaVuSans-65" x="1014.9375"/>
      <use xlink:href="#DejaVuSans-72" x="1076.460938"/>
     </g>
    </g>
   </g>
  </g>
 </g>
 <defs>
  <clipPath id="pf518c27a3e">
   <rect x="47.82125" y="10.8" width="316.44875" height="307.24"/>
  </clipPath>
  <clipPath id="p5d49562b15">
   <rect x="392.75125" y="10.8" width="316.44875" height="307.24"/>
  </clipPath>
 </defs>
</svg>
