<?xml version="1.0" encoding="utf-8" standalone="no"?>
<!DOCTYPE svg PUBLIC "-//W3C//DTD SVG 1.1//EN"
  "http://www.w3.org/Graphics/SVG/1.1/DTD/svg11.dtd">
<svg xmlns:xlink="http://www.w3.org/1999/xlink" width="720pt" height="360pt" viewBox="0 0 720 360" xmlns="http://www.w3.org/2000/svg" version="1.1">
 <metadata>
  <rdf:RDF xmlns:dc="http://purl.org/dc/elements/1.1/" xmlns:cc="http://creativecommons.org/ns#" xmlns:rdf="http://www.w3.org/1999/02/22-rdf-syntax-ns#">
   <cc:Work>
    <dc:type rdf:resource="http://purl.org/dc/dcmitype/StillImage"/>
    <dc:date>2022-10-20T15:17:56.311341</dc:date>
    <dc:format>image/svg+xml</dc:format>
    <dc:creator>
     <cc:Agent>
      <dc:title>Matplotlib v3.6.0, https://matplotlib.org/</dc:title>
     </cc:Agent>
    </dc:creator>
   </cc:Work>
  </rdf:RDF>
 </metadata>
 <defs>
  <style type="text/css">*{stroke-linejoin: round; stroke-linecap: butt}</style>
 </defs>
 <g id="figure_1">
  <g id="patch_1">
   <path d="M 0 360 
L 720 360 
L 720 0 
L 0 0 
z
" style="fill: #ffffff"/>
  </g>
  <g id="axes_1">
   <g id="patch_2">
    <path d="M 48.17 317.68 
L 364.315 317.68 
L 364.315 26.16 
L 48.17 26.16 
z
" style="fill: #ffffff"/>
   </g>
   <g id="PolyCollection_1">
    <defs>
     <path id="m18c260c040" d="M 62.540227 -281.671418 
L 62.540227 -281.671418 
L 69.909575 -286.215576 
L 77.278922 -280.689513 
L 84.648269 -281.421907 
L 92.017617 -273.009367 
L 99.386964 -280.705678 
L 106.756311 -263.891771 
L 114.125659 -280.573965 
L 121.495006 -268.255199 
L 128.864353 -272.791202 
L 136.2337 -282.570246 
L 143.603048 -266.293269 
L 150.972395 -273.181739 
L 158.341742 -277.226846 
L 165.71109 -269.837715 
L 173.080437 -279.088485 
L 180.449784 -279.452664 
L 187.819132 -281.976901 
L 195.188479 -280.115253 
L 202.557826 -271.369827 
L 209.927174 -284.565996 
L 217.296521 -280.194995 
L 224.665868 -286.709582 
L 232.035216 -273.37845 
L 239.404563 -278.710532 
L 246.77391 -280.352165 
L 254.143258 -282.838845 
L 261.512605 -271.709877 
L 268.881952 -269.373296 
L 276.2513 -283.78951 
L 283.620647 -286.252634 
L 290.989994 -279.918153 
L 298.359341 -273.015438 
L 305.728689 -267.148768 
L 313.098036 -278.746289 
L 320.467383 -272.019691 
L 327.836731 -286.611377 
L 335.206078 -268.439155 
L 342.575425 -276.911633 
L 349.944773 -283.508603 
L 349.944773 -283.508603 
L 349.944773 -283.508603 
L 342.575425 -276.911633 
L 335.206078 -268.439155 
L 327.836731 -286.611377 
L 320.467383 -272.019691 
L 313.098036 -278.746289 
L 305.728689 -267.148768 
L 298.359341 -273.015438 
L 290.989994 -279.918153 
L 283.620647 -286.252634 
L 276.2513 -283.78951 
L 268.881952 -269.373296 
L 261.512605 -271.709877 
L 254.143258 -282.838845 
L 246.77391 -280.352165 
L 239.404563 -278.710532 
L 232.035216 -273.37845 
L 224.665868 -286.709582 
L 217.296521 -280.194995 
L 209.927174 -284.565996 
L 202.557826 -271.369827 
L 195.188479 -280.115253 
L 187.819132 -281.976901 
L 180.449784 -279.452664 
L 173.080437 -279.088485 
L 165.71109 -269.837715 
L 158.341742 -277.226846 
L 150.972395 -273.181739 
L 143.603048 -266.293269 
L 136.2337 -282.570246 
L 128.864353 -272.791202 
L 121.495006 -268.255199 
L 114.125659 -280.573965 
L 106.756311 -263.891771 
L 99.386964 -280.705678 
L 92.017617 -273.009367 
L 84.648269 -281.421907 
L 77.278922 -280.689513 
L 69.909575 -286.215576 
L 62.540227 -281.671418 
z
" style="stroke: #1f77b4; stroke-opacity: 0.2"/>
    </defs>
    <g clip-path="url(#pc84a32402c)">
     <use xlink:href="#m18c260c040" x="0" y="360" style="fill: #1f77b4; fill-opacity: 0.2; stroke: #1f77b4; stroke-opacity: 0.2"/>
    </g>
   </g>
   <g id="PolyCollection_2">
    <defs>
     <path id="m2d11920f15" d="M 62.540227 -311.121914 
L 62.540227 -311.121914 
L 69.909575 -307.36804 
L 77.278922 -312.789036 
L 84.648269 -311.802 
L 92.017617 -304.305094 
L 99.386964 -310.674269 
L 106.756311 -305.114473 
L 114.125659 -303.289142 
L 121.495006 -292.91146 
L 128.864353 -307.097602 
L 136.2337 -305.334892 
L 143.603048 -305.35448 
L 150.972395 -312.750819 
L 158.341742 -308.121918 
L 165.71109 -307.029991 
L 173.080437 -302.279868 
L 180.449784 -310.683135 
L 187.819132 -293.002644 
L 195.188479 -305.34507 
L 202.557826 -306.445193 
L 209.927174 -302.410485 
L 217.296521 -299.436356 
L 224.665868 -304.577574 
L 232.035216 -307.196178 
L 239.404563 -301.759369 
L 246.77391 -315.86282 
L 254.143258 -309.193027 
L 261.512605 -307.571596 
L 268.881952 -304.345609 
L 276.2513 -310.592858 
L 283.620647 -308.606113 
L 290.989994 -304.838492 
L 298.359341 -303.879533 
L 305.728689 -299.428111 
L 313.098036 -305.032365 
L 320.467383 -307.54779 
L 327.836731 -315.52989 
L 335.206078 -305.858033 
L 342.575425 -318.44652 
L 349.944773 -312.744172 
L 349.944773 -312.744172 
L 349.944773 -312.744172 
L 342.575425 -318.44652 
L 335.206078 -305.858033 
L 327.836731 -315.52989 
L 320.467383 -307.54779 
L 313.098036 -305.032365 
L 305.728689 -299.428111 
L 298.359341 -303.879533 
L 290.989994 -304.838492 
L 283.620647 -308.606113 
L 276.2513 -310.592858 
L 268.881952 -304.345609 
L 261.512605 -307.571596 
L 254.143258 -309.193027 
L 246.77391 -315.86282 
L 239.404563 -301.759369 
L 232.035216 -307.196178 
L 224.665868 -304.577574 
L 217.296521 -299.436356 
L 209.927174 -302.410485 
L 202.557826 -306.445193 
L 195.188479 -305.34507 
L 187.819132 -293.002644 
L 180.449784 -310.683135 
L 173.080437 -302.279868 
L 165.71109 -307.029991 
L 158.341742 -308.121918 
L 150.972395 -312.750819 
L 143.603048 -305.35448 
L 136.2337 -305.334892 
L 128.864353 -307.097602 
L 121.495006 -292.91146 
L 114.125659 -303.289142 
L 106.756311 -305.114473 
L 99.386964 -310.674269 
L 92.017617 -304.305094 
L 84.648269 -311.802 
L 77.278922 -312.789036 
L 69.909575 -307.36804 
L 62.540227 -311.121914 
z
" style="stroke: #ff7f0e; stroke-opacity: 0.2"/>
    </defs>
    <g clip-path="url(#pc84a32402c)">
     <use xlink:href="#m2d11920f15" x="0" y="360" style="fill: #ff7f0e; fill-opacity: 0.2; stroke: #ff7f0e; stroke-opacity: 0.2"/>
    </g>
   </g>
   <g id="PolyCollection_3">
    <defs>
     <path id="m64a13e8f68" d="M 62.540227 -272.507356 
L 62.540227 -270.755476 
L 69.909575 -277.992298 
L 77.278922 -284.112543 
L 84.648269 -264.99819 
L 92.017617 -265.651191 
L 99.386964 -277.782841 
L 106.756311 -271.335805 
L 114.125659 -263.642627 
L 121.495006 -269.170704 
L 128.864353 -266.541319 
L 136.2337 -273.826663 
L 143.603048 -281.646237 
L 150.972395 -268.701866 
L 158.341742 -275.328588 
L 165.71109 -270.199118 
L 173.080437 -263.063396 
L 180.449784 -267.42695 
L 187.819132 -262.510831 
L 195.188479 -266.312482 
L 202.557826 -264.611675 
L 209.927174 -274.112027 
L 217.296521 -270.559463 
L 224.665868 -264.102216 
L 232.035216 -274.588328 
L 239.404563 -271.890297 
L 246.77391 -268.734413 
L 254.143258 -268.476285 
L 261.512605 -261.669733 
L 268.881952 -271.476985 
L 276.2513 -275.064289 
L 283.620647 -276.567288 
L 290.989994 -270.649666 
L 298.359341 -270.547222 
L 305.728689 -252.008172 
L 313.098036 -276.051072 
L 320.467383 -266.974241 
L 327.836731 -271.852575 
L 335.206078 -273.055706 
L 342.575425 -281.465299 
L 349.944773 -267.16128 
L 349.944773 -268.733035 
L 349.944773 -268.733035 
L 342.575425 -282.878158 
L 335.206078 -275.079217 
L 327.836731 -273.456437 
L 320.467383 -269.34588 
L 313.098036 -277.936204 
L 305.728689 -254.246814 
L 298.359341 -272.731208 
L 290.989994 -272.106453 
L 283.620647 -278.103736 
L 276.2513 -276.721952 
L 268.881952 -273.102839 
L 261.512605 -263.683937 
L 254.143258 -269.933759 
L 246.77391 -270.294779 
L 239.404563 -273.45796 
L 232.035216 -275.906027 
L 224.665868 -265.910048 
L 217.296521 -272.034069 
L 209.927174 -275.689662 
L 202.557826 -266.345669 
L 195.188479 -268.482344 
L 187.819132 -264.434753 
L 180.449784 -268.892528 
L 173.080437 -264.966531 
L 165.71109 -271.851984 
L 158.341742 -276.812457 
L 150.972395 -270.179602 
L 143.603048 -283.021299 
L 136.2337 -275.618827 
L 128.864353 -268.197091 
L 121.495006 -271.20286 
L 114.125659 -265.41582 
L 106.756311 -272.849882 
L 99.386964 -279.793092 
L 92.017617 -267.194485 
L 84.648269 -266.746008 
L 77.278922 -285.366665 
L 69.909575 -279.884454 
L 62.540227 -272.507356 
z
" style="stroke: #2ca02c; stroke-opacity: 0.2"/>
    </defs>
    <g clip-path="url(#pc84a32402c)">
     <use xlink:href="#m64a13e8f68" x="0" y="360" style="fill: #2ca02c; fill-opacity: 0.2; stroke: #2ca02c; stroke-opacity: 0.2"/>
    </g>
   </g>
   <g id="PolyCollection_4">
    <defs>
     <path id="m996acf7cee" d="M 62.540227 -312.510571 
L 62.540227 -312.510571 
L 69.909575 -315.604878 
L 77.278922 -314.377665 
L 84.648269 -312.524371 
L 92.017617 -308.376866 
L 99.386964 -313.039904 
L 106.756311 -308.579024 
L 114.125659 -304.956214 
L 121.495006 -295.930513 
L 128.864353 -312.426407 
L 136.2337 -312.850187 
L 143.603048 -306.724616 
L 150.972395 -317.64246 
L 158.341742 -312.965429 
L 165.71109 -313.20891 
L 173.080437 -312.019504 
L 180.449784 -316.415078 
L 187.819132 -300.861316 
L 195.188479 -313.202644 
L 202.557826 -309.050081 
L 209.927174 -310.217209 
L 217.296521 -304.018091 
L 224.665868 -309.710235 
L 232.035216 -312.369759 
L 239.404563 -305.2215 
L 246.77391 -313.734361 
L 254.143258 -308.381261 
L 261.512605 -309.073173 
L 268.881952 -308.618751 
L 276.2513 -309.431492 
L 283.620647 -309.418287 
L 290.989994 -311.452554 
L 298.359341 -305.889306 
L 305.728689 -305.599828 
L 313.098036 -305.947615 
L 320.467383 -305.95644 
L 327.836731 -316.134187 
L 335.206078 -310.59376 
L 342.575425 -320.589091 
L 349.944773 -319.125561 
L 349.944773 -319.125561 
L 349.944773 -319.125561 
L 342.575425 -320.589091 
L 335.206078 -310.59376 
L 327.836731 -316.134187 
L 320.467383 -305.95644 
L 313.098036 -305.947615 
L 305.728689 -305.599828 
L 298.359341 -305.889306 
L 290.989994 -311.452554 
L 283.620647 -309.418287 
L 276.2513 -309.431492 
L 268.881952 -308.618751 
L 261.512605 -309.073173 
L 254.143258 -308.381261 
L 246.77391 -313.734361 
L 239.404563 -305.2215 
L 232.035216 -312.369759 
L 224.665868 -309.710235 
L 217.296521 -304.018091 
L 209.927174 -310.217209 
L 202.557826 -309.050081 
L 195.188479 -313.202644 
L 187.819132 -300.861316 
L 180.449784 -316.415078 
L 173.080437 -312.019504 
L 165.71109 -313.20891 
L 158.341742 -312.965429 
L 150.972395 -317.64246 
L 143.603048 -306.724616 
L 136.2337 -312.850187 
L 128.864353 -312.426407 
L 121.495006 -295.930513 
L 114.125659 -304.956214 
L 106.756311 -308.579024 
L 99.386964 -313.039904 
L 92.017617 -308.376866 
L 84.648269 -312.524371 
L 77.278922 -314.377665 
L 69.909575 -315.604878 
L 62.540227 -312.510571 
z
" style="stroke: #d62728; stroke-opacity: 0.2"/>
    </defs>
    <g clip-path="url(#pc84a32402c)">
     <use xlink:href="#m996acf7cee" x="0" y="360" style="fill: #d62728; fill-opacity: 0.2; stroke: #d62728; stroke-opacity: 0.2"/>
    </g>
   </g>
   <g id="PolyCollection_5">
    <defs>
     <path id="mf75f5e27ec" d="M 62.540227 -294.761365 
L 62.540227 -293.341947 
L 69.909575 -295.860472 
L 77.278922 -295.922385 
L 84.648269 -296.402933 
L 92.017617 -282.197598 
L 99.386964 -297.315979 
L 106.756311 -282.927591 
L 114.125659 -289.366684 
L 121.495006 -279.319497 
L 128.864353 -284.160901 
L 136.2337 -291.43687 
L 143.603048 -290.406791 
L 150.972395 -296.385163 
L 158.341742 -293.488634 
L 165.71109 -290.711429 
L 173.080437 -286.176861 
L 180.449784 -290.325732 
L 187.819132 -277.201416 
L 195.188479 -287.832076 
L 202.557826 -288.185884 
L 209.927174 -286.690306 
L 217.296521 -283.520599 
L 224.665868 -292.271006 
L 232.035216 -293.062744 
L 239.404563 -283.12678 
L 246.77391 -291.52164 
L 254.143258 -292.830567 
L 261.512605 -285.199942 
L 268.881952 -286.393342 
L 276.2513 -298.423456 
L 283.620647 -297.95446 
L 290.989994 -291.675124 
L 298.359341 -275.023815 
L 305.728689 -282.046382 
L 313.098036 -288.949467 
L 320.467383 -283.815603 
L 327.836731 -301.321542 
L 335.206078 -295.917145 
L 342.575425 -302.61321 
L 349.944773 -290.025829 
L 349.944773 -291.85614 
L 349.944773 -291.85614 
L 342.575425 -303.960883 
L 335.206078 -297.278986 
L 327.836731 -302.772285 
L 320.467383 -286.088438 
L 313.098036 -290.8986 
L 305.728689 -284.388085 
L 298.359341 -276.890881 
L 290.989994 -293.570726 
L 283.620647 -299.598246 
L 276.2513 -299.833384 
L 268.881952 -288.142276 
L 261.512605 -286.916035 
L 254.143258 -294.902946 
L 246.77391 -294.203865 
L 239.404563 -285.26924 
L 232.035216 -294.654243 
L 224.665868 -294.090703 
L 217.296521 -285.277097 
L 209.927174 -288.381416 
L 202.557826 -289.896833 
L 195.188479 -289.819319 
L 187.819132 -279.503741 
L 180.449784 -291.977213 
L 173.080437 -287.693534 
L 165.71109 -292.643025 
L 158.341742 -295.562721 
L 150.972395 -298.192977 
L 143.603048 -291.751418 
L 136.2337 -293.404962 
L 128.864353 -286.27991 
L 121.495006 -281.575632 
L 114.125659 -291.589733 
L 106.756311 -284.889053 
L 99.386964 -299.080426 
L 92.017617 -284.06767 
L 84.648269 -298.296064 
L 77.278922 -297.378076 
L 69.909575 -297.580699 
L 62.540227 -294.761365 
z
" style="stroke: #9467bd; stroke-opacity: 0.2"/>
    </defs>
    <g clip-path="url(#pc84a32402c)">
     <use xlink:href="#mf75f5e27ec" x="0" y="360" style="fill: #9467bd; fill-opacity: 0.2; stroke: #9467bd; stroke-opacity: 0.2"/>
    </g>
   </g>
   <g id="matplotlib.axis_1">
    <g id="xtick_1">
     <g id="line2d_1">
      <defs>
       <path id="m843fde4f1f" d="M 0 0 
L 0 3.5 
" style="stroke: #000000; stroke-width: 0.8"/>
      </defs>
      <g>
       <use xlink:href="#m843fde4f1f" x="77.278922" y="317.68" style="stroke: #000000; stroke-width: 0.8"/>
      </g>
     </g>
     <g id="text_1">
      <!-- 5 -->
      <g transform="translate(74.097672 332.278437) scale(0.1 -0.1)">
       <defs>
        <path id="DejaVuSans-35" d="M 691 4666 
L 3169 4666 
L 3169 4134 
L 1269 4134 
L 1269 2991 
Q 1406 3038 1543 3061 
Q 1681 3084 1819 3084 
Q 2600 3084 3056 2656 
Q 3513 2228 3513 1497 
Q 3513 744 3044 326 
Q 2575 -91 1722 -91 
Q 1428 -91 1123 -41 
Q 819 9 494 109 
L 494 744 
Q 775 591 1075 516 
Q 1375 441 1709 441 
Q 2250 441 2565 725 
Q 2881 1009 2881 1497 
Q 2881 1984 2565 2268 
Q 2250 2553 1709 2553 
Q 1456 2553 1204 2497 
Q 953 2441 691 2322 
L 691 4666 
z
" transform="scale(0.015625)"/>
       </defs>
       <use xlink:href="#DejaVuSans-35"/>
      </g>
     </g>
    </g>
    <g id="xtick_2">
     <g id="line2d_2">
      <g>
       <use xlink:href="#m843fde4f1f" x="114.125659" y="317.68" style="stroke: #000000; stroke-width: 0.8"/>
      </g>
     </g>
     <g id="text_2">
      <!-- 10 -->
      <g transform="translate(107.763159 332.278437) scale(0.1 -0.1)">
       <defs>
        <path id="DejaVuSans-31" d="M 794 531 
L 1825 531 
L 1825 4091 
L 703 3866 
L 703 4441 
L 1819 4666 
L 2450 4666 
L 2450 531 
L 3481 531 
L 3481 0 
L 794 0 
L 794 531 
z
" transform="scale(0.015625)"/>
        <path id="DejaVuSans-30" d="M 2034 4250 
Q 1547 4250 1301 3770 
Q 1056 3291 1056 2328 
Q 1056 1369 1301 889 
Q 1547 409 2034 409 
Q 2525 409 2770 889 
Q 3016 1369 3016 2328 
Q 3016 3291 2770 3770 
Q 2525 4250 2034 4250 
z
M 2034 4750 
Q 2819 4750 3233 4129 
Q 3647 3509 3647 2328 
Q 3647 1150 3233 529 
Q 2819 -91 2034 -91 
Q 1250 -91 836 529 
Q 422 1150 422 2328 
Q 422 3509 836 4129 
Q 1250 4750 2034 4750 
z
" transform="scale(0.015625)"/>
       </defs>
       <use xlink:href="#DejaVuSans-31"/>
       <use xlink:href="#DejaVuSans-30" x="63.623047"/>
      </g>
     </g>
    </g>
    <g id="xtick_3">
     <g id="line2d_3">
      <g>
       <use xlink:href="#m843fde4f1f" x="150.972395" y="317.68" style="stroke: #000000; stroke-width: 0.8"/>
      </g>
     </g>
     <g id="text_3">
      <!-- 15 -->
      <g transform="translate(144.609895 332.278437) scale(0.1 -0.1)">
       <use xlink:href="#DejaVuSans-31"/>
       <use xlink:href="#DejaVuSans-35" x="63.623047"/>
      </g>
     </g>
    </g>
    <g id="xtick_4">
     <g id="line2d_4">
      <g>
       <use xlink:href="#m843fde4f1f" x="187.819132" y="317.68" style="stroke: #000000; stroke-width: 0.8"/>
      </g>
     </g>
     <g id="text_4">
      <!-- 20 -->
      <g transform="translate(181.456632 332.278437) scale(0.1 -0.1)">
       <defs>
        <path id="DejaVuSans-32" d="M 1228 531 
L 3431 531 
L 3431 0 
L 469 0 
L 469 531 
Q 828 903 1448 1529 
Q 2069 2156 2228 2338 
Q 2531 2678 2651 2914 
Q 2772 3150 2772 3378 
Q 2772 3750 2511 3984 
Q 2250 4219 1831 4219 
Q 1534 4219 1204 4116 
Q 875 4013 500 3803 
L 500 4441 
Q 881 4594 1212 4672 
Q 1544 4750 1819 4750 
Q 2544 4750 2975 4387 
Q 3406 4025 3406 3419 
Q 3406 3131 3298 2873 
Q 3191 2616 2906 2266 
Q 2828 2175 2409 1742 
Q 1991 1309 1228 531 
z
" transform="scale(0.015625)"/>
       </defs>
       <use xlink:href="#DejaVuSans-32"/>
       <use xlink:href="#DejaVuSans-30" x="63.623047"/>
      </g>
     </g>
    </g>
    <g id="xtick_5">
     <g id="line2d_5">
      <g>
       <use xlink:href="#m843fde4f1f" x="224.665868" y="317.68" style="stroke: #000000; stroke-width: 0.8"/>
      </g>
     </g>
     <g id="text_5">
      <!-- 25 -->
      <g transform="translate(218.303368 332.278437) scale(0.1 -0.1)">
       <use xlink:href="#DejaVuSans-32"/>
       <use xlink:href="#DejaVuSans-35" x="63.623047"/>
      </g>
     </g>
    </g>
    <g id="xtick_6">
     <g id="line2d_6">
      <g>
       <use xlink:href="#m843fde4f1f" x="261.512605" y="317.68" style="stroke: #000000; stroke-width: 0.8"/>
      </g>
     </g>
     <g id="text_6">
      <!-- 30 -->
      <g transform="translate(255.150105 332.278437) scale(0.1 -0.1)">
       <defs>
        <path id="DejaVuSans-33" d="M 2597 2516 
Q 3050 2419 3304 2112 
Q 3559 1806 3559 1356 
Q 3559 666 3084 287 
Q 2609 -91 1734 -91 
Q 1441 -91 1130 -33 
Q 819 25 488 141 
L 488 750 
Q 750 597 1062 519 
Q 1375 441 1716 441 
Q 2309 441 2620 675 
Q 2931 909 2931 1356 
Q 2931 1769 2642 2001 
Q 2353 2234 1838 2234 
L 1294 2234 
L 1294 2753 
L 1863 2753 
Q 2328 2753 2575 2939 
Q 2822 3125 2822 3475 
Q 2822 3834 2567 4026 
Q 2313 4219 1838 4219 
Q 1578 4219 1281 4162 
Q 984 4106 628 3988 
L 628 4550 
Q 988 4650 1302 4700 
Q 1616 4750 1894 4750 
Q 2613 4750 3031 4423 
Q 3450 4097 3450 3541 
Q 3450 3153 3228 2886 
Q 3006 2619 2597 2516 
z
" transform="scale(0.015625)"/>
       </defs>
       <use xlink:href="#DejaVuSans-33"/>
       <use xlink:href="#DejaVuSans-30" x="63.623047"/>
      </g>
     </g>
    </g>
    <g id="xtick_7">
     <g id="line2d_7">
      <g>
       <use xlink:href="#m843fde4f1f" x="298.359341" y="317.68" style="stroke: #000000; stroke-width: 0.8"/>
      </g>
     </g>
     <g id="text_7">
      <!-- 35 -->
      <g transform="translate(291.996841 332.278437) scale(0.1 -0.1)">
       <use xlink:href="#DejaVuSans-33"/>
       <use xlink:href="#DejaVuSans-35" x="63.623047"/>
      </g>
     </g>
    </g>
    <g id="xtick_8">
     <g id="line2d_8">
      <g>
       <use xlink:href="#m843fde4f1f" x="335.206078" y="317.68" style="stroke: #000000; stroke-width: 0.8"/>
      </g>
     </g>
     <g id="text_8">
      <!-- 40 -->
      <g transform="translate(328.843578 332.278437) scale(0.1 -0.1)">
       <defs>
        <path id="DejaVuSans-34" d="M 2419 4116 
L 825 1625 
L 2419 1625 
L 2419 4116 
z
M 2253 4666 
L 3047 4666 
L 3047 1625 
L 3713 1625 
L 3713 1100 
L 3047 1100 
L 3047 0 
L 2419 0 
L 2419 1100 
L 313 1100 
L 313 1709 
L 2253 4666 
z
" transform="scale(0.015625)"/>
       </defs>
       <use xlink:href="#DejaVuSans-34"/>
       <use xlink:href="#DejaVuSans-30" x="63.623047"/>
      </g>
     </g>
    </g>
    <g id="text_9">
     <!-- num_features -->
     <g transform="translate(171.880781 345.956563) scale(0.1 -0.1)">
      <defs>
       <path id="DejaVuSans-6e" d="M 3513 2113 
L 3513 0 
L 2938 0 
L 2938 2094 
Q 2938 2591 2744 2837 
Q 2550 3084 2163 3084 
Q 1697 3084 1428 2787 
Q 1159 2491 1159 1978 
L 1159 0 
L 581 0 
L 581 3500 
L 1159 3500 
L 1159 2956 
Q 1366 3272 1645 3428 
Q 1925 3584 2291 3584 
Q 2894 3584 3203 3211 
Q 3513 2838 3513 2113 
z
" transform="scale(0.015625)"/>
       <path id="DejaVuSans-75" d="M 544 1381 
L 544 3500 
L 1119 3500 
L 1119 1403 
Q 1119 906 1312 657 
Q 1506 409 1894 409 
Q 2359 409 2629 706 
Q 2900 1003 2900 1516 
L 2900 3500 
L 3475 3500 
L 3475 0 
L 2900 0 
L 2900 538 
Q 2691 219 2414 64 
Q 2138 -91 1772 -91 
Q 1169 -91 856 284 
Q 544 659 544 1381 
z
M 1991 3584 
L 1991 3584 
z
" transform="scale(0.015625)"/>
       <path id="DejaVuSans-6d" d="M 3328 2828 
Q 3544 3216 3844 3400 
Q 4144 3584 4550 3584 
Q 5097 3584 5394 3201 
Q 5691 2819 5691 2113 
L 5691 0 
L 5113 0 
L 5113 2094 
Q 5113 2597 4934 2840 
Q 4756 3084 4391 3084 
Q 3944 3084 3684 2787 
Q 3425 2491 3425 1978 
L 3425 0 
L 2847 0 
L 2847 2094 
Q 2847 2600 2669 2842 
Q 2491 3084 2119 3084 
Q 1678 3084 1418 2786 
Q 1159 2488 1159 1978 
L 1159 0 
L 581 0 
L 581 3500 
L 1159 3500 
L 1159 2956 
Q 1356 3278 1631 3431 
Q 1906 3584 2284 3584 
Q 2666 3584 2933 3390 
Q 3200 3197 3328 2828 
z
" transform="scale(0.015625)"/>
       <path id="DejaVuSans-5f" d="M 3263 -1063 
L 3263 -1509 
L -63 -1509 
L -63 -1063 
L 3263 -1063 
z
" transform="scale(0.015625)"/>
       <path id="DejaVuSans-66" d="M 2375 4863 
L 2375 4384 
L 1825 4384 
Q 1516 4384 1395 4259 
Q 1275 4134 1275 3809 
L 1275 3500 
L 2222 3500 
L 2222 3053 
L 1275 3053 
L 1275 0 
L 697 0 
L 697 3053 
L 147 3053 
L 147 3500 
L 697 3500 
L 697 3744 
Q 697 4328 969 4595 
Q 1241 4863 1831 4863 
L 2375 4863 
z
" transform="scale(0.015625)"/>
       <path id="DejaVuSans-65" d="M 3597 1894 
L 3597 1613 
L 953 1613 
Q 991 1019 1311 708 
Q 1631 397 2203 397 
Q 2534 397 2845 478 
Q 3156 559 3463 722 
L 3463 178 
Q 3153 47 2828 -22 
Q 2503 -91 2169 -91 
Q 1331 -91 842 396 
Q 353 884 353 1716 
Q 353 2575 817 3079 
Q 1281 3584 2069 3584 
Q 2775 3584 3186 3129 
Q 3597 2675 3597 1894 
z
M 3022 2063 
Q 3016 2534 2758 2815 
Q 2500 3097 2075 3097 
Q 1594 3097 1305 2825 
Q 1016 2553 972 2059 
L 3022 2063 
z
" transform="scale(0.015625)"/>
       <path id="DejaVuSans-61" d="M 2194 1759 
Q 1497 1759 1228 1600 
Q 959 1441 959 1056 
Q 959 750 1161 570 
Q 1363 391 1709 391 
Q 2188 391 2477 730 
Q 2766 1069 2766 1631 
L 2766 1759 
L 2194 1759 
z
M 3341 1997 
L 3341 0 
L 2766 0 
L 2766 531 
Q 2569 213 2275 61 
Q 1981 -91 1556 -91 
Q 1019 -91 701 211 
Q 384 513 384 1019 
Q 384 1609 779 1909 
Q 1175 2209 1959 2209 
L 2766 2209 
L 2766 2266 
Q 2766 2663 2505 2880 
Q 2244 3097 1772 3097 
Q 1472 3097 1187 3025 
Q 903 2953 641 2809 
L 641 3341 
Q 956 3463 1253 3523 
Q 1550 3584 1831 3584 
Q 2591 3584 2966 3190 
Q 3341 2797 3341 1997 
z
" transform="scale(0.015625)"/>
       <path id="DejaVuSans-74" d="M 1172 4494 
L 1172 3500 
L 2356 3500 
L 2356 3053 
L 1172 3053 
L 1172 1153 
Q 1172 725 1289 603 
Q 1406 481 1766 481 
L 2356 481 
L 2356 0 
L 1766 0 
Q 1100 0 847 248 
Q 594 497 594 1153 
L 594 3053 
L 172 3053 
L 172 3500 
L 594 3500 
L 594 4494 
L 1172 4494 
z
" transform="scale(0.015625)"/>
       <path id="DejaVuSans-72" d="M 2631 2963 
Q 2534 3019 2420 3045 
Q 2306 3072 2169 3072 
Q 1681 3072 1420 2755 
Q 1159 2438 1159 1844 
L 1159 0 
L 581 0 
L 581 3500 
L 1159 3500 
L 1159 2956 
Q 1341 3275 1631 3429 
Q 1922 3584 2338 3584 
Q 2397 3584 2469 3576 
Q 2541 3569 2628 3553 
L 2631 2963 
z
" transform="scale(0.015625)"/>
       <path id="DejaVuSans-73" d="M 2834 3397 
L 2834 2853 
Q 2591 2978 2328 3040 
Q 2066 3103 1784 3103 
Q 1356 3103 1142 2972 
Q 928 2841 928 2578 
Q 928 2378 1081 2264 
Q 1234 2150 1697 2047 
L 1894 2003 
Q 2506 1872 2764 1633 
Q 3022 1394 3022 966 
Q 3022 478 2636 193 
Q 2250 -91 1575 -91 
Q 1294 -91 989 -36 
Q 684 19 347 128 
L 347 722 
Q 666 556 975 473 
Q 1284 391 1588 391 
Q 1994 391 2212 530 
Q 2431 669 2431 922 
Q 2431 1156 2273 1281 
Q 2116 1406 1581 1522 
L 1381 1569 
Q 847 1681 609 1914 
Q 372 2147 372 2553 
Q 372 3047 722 3315 
Q 1072 3584 1716 3584 
Q 2034 3584 2315 3537 
Q 2597 3491 2834 3397 
z
" transform="scale(0.015625)"/>
      </defs>
      <use xlink:href="#DejaVuSans-6e"/>
      <use xlink:href="#DejaVuSans-75" x="63.378906"/>
      <use xlink:href="#DejaVuSans-6d" x="126.757812"/>
      <use xlink:href="#DejaVuSans-5f" x="224.169922"/>
      <use xlink:href="#DejaVuSans-66" x="274.169922"/>
      <use xlink:href="#DejaVuSans-65" x="309.375"/>
      <use xlink:href="#DejaVuSans-61" x="370.898438"/>
      <use xlink:href="#DejaVuSans-74" x="432.177734"/>
      <use xlink:href="#DejaVuSans-75" x="471.386719"/>
      <use xlink:href="#DejaVuSans-72" x="534.765625"/>
      <use xlink:href="#DejaVuSans-65" x="573.628906"/>
      <use xlink:href="#DejaVuSans-73" x="635.152344"/>
     </g>
    </g>
   </g>
   <g id="matplotlib.axis_2">
    <g id="ytick_1">
     <g id="line2d_9">
      <defs>
       <path id="m35906759ec" d="M 0 0 
L -3.5 0 
" style="stroke: #000000; stroke-width: 0.8"/>
      </defs>
      <g>
       <use xlink:href="#m35906759ec" x="48.17" y="260.040355" style="stroke: #000000; stroke-width: 0.8"/>
      </g>
     </g>
     <g id="text_10">
      <!-- 0.2 -->
      <g transform="translate(25.266875 263.839573) scale(0.1 -0.1)">
       <defs>
        <path id="DejaVuSans-2e" d="M 684 794 
L 1344 794 
L 1344 0 
L 684 0 
L 684 794 
z
" transform="scale(0.015625)"/>
       </defs>
       <use xlink:href="#DejaVuSans-30"/>
       <use xlink:href="#DejaVuSans-2e" x="63.623047"/>
       <use xlink:href="#DejaVuSans-32" x="95.410156"/>
      </g>
     </g>
    </g>
    <g id="ytick_2">
     <g id="line2d_10">
      <g>
       <use xlink:href="#m35906759ec" x="48.17" y="195.450837" style="stroke: #000000; stroke-width: 0.8"/>
      </g>
     </g>
     <g id="text_11">
      <!-- 0.4 -->
      <g transform="translate(25.266875 199.250055) scale(0.1 -0.1)">
       <use xlink:href="#DejaVuSans-30"/>
       <use xlink:href="#DejaVuSans-2e" x="63.623047"/>
       <use xlink:href="#DejaVuSans-34" x="95.410156"/>
      </g>
     </g>
    </g>
    <g id="ytick_3">
     <g id="line2d_11">
      <g>
       <use xlink:href="#m35906759ec" x="48.17" y="130.861318" style="stroke: #000000; stroke-width: 0.8"/>
      </g>
     </g>
     <g id="text_12">
      <!-- 0.6 -->
      <g transform="translate(25.266875 134.660537) scale(0.1 -0.1)">
       <defs>
        <path id="DejaVuSans-36" d="M 2113 2584 
Q 1688 2584 1439 2293 
Q 1191 2003 1191 1497 
Q 1191 994 1439 701 
Q 1688 409 2113 409 
Q 2538 409 2786 701 
Q 3034 994 3034 1497 
Q 3034 2003 2786 2293 
Q 2538 2584 2113 2584 
z
M 3366 4563 
L 3366 3988 
Q 3128 4100 2886 4159 
Q 2644 4219 2406 4219 
Q 1781 4219 1451 3797 
Q 1122 3375 1075 2522 
Q 1259 2794 1537 2939 
Q 1816 3084 2150 3084 
Q 2853 3084 3261 2657 
Q 3669 2231 3669 1497 
Q 3669 778 3244 343 
Q 2819 -91 2113 -91 
Q 1303 -91 875 529 
Q 447 1150 447 2328 
Q 447 3434 972 4092 
Q 1497 4750 2381 4750 
Q 2619 4750 2861 4703 
Q 3103 4656 3366 4563 
z
" transform="scale(0.015625)"/>
       </defs>
       <use xlink:href="#DejaVuSans-30"/>
       <use xlink:href="#DejaVuSans-2e" x="63.623047"/>
       <use xlink:href="#DejaVuSans-36" x="95.410156"/>
      </g>
     </g>
    </g>
    <g id="ytick_4">
     <g id="line2d_12">
      <g>
       <use xlink:href="#m35906759ec" x="48.17" y="66.2718" style="stroke: #000000; stroke-width: 0.8"/>
      </g>
     </g>
     <g id="text_13">
      <!-- 0.8 -->
      <g transform="translate(25.266875 70.071019) scale(0.1 -0.1)">
       <defs>
        <path id="DejaVuSans-38" d="M 2034 2216 
Q 1584 2216 1326 1975 
Q 1069 1734 1069 1313 
Q 1069 891 1326 650 
Q 1584 409 2034 409 
Q 2484 409 2743 651 
Q 3003 894 3003 1313 
Q 3003 1734 2745 1975 
Q 2488 2216 2034 2216 
z
M 1403 2484 
Q 997 2584 770 2862 
Q 544 3141 544 3541 
Q 544 4100 942 4425 
Q 1341 4750 2034 4750 
Q 2731 4750 3128 4425 
Q 3525 4100 3525 3541 
Q 3525 3141 3298 2862 
Q 3072 2584 2669 2484 
Q 3125 2378 3379 2068 
Q 3634 1759 3634 1313 
Q 3634 634 3220 271 
Q 2806 -91 2034 -91 
Q 1263 -91 848 271 
Q 434 634 434 1313 
Q 434 1759 690 2068 
Q 947 2378 1403 2484 
z
M 1172 3481 
Q 1172 3119 1398 2916 
Q 1625 2713 2034 2713 
Q 2441 2713 2670 2916 
Q 2900 3119 2900 3481 
Q 2900 3844 2670 4047 
Q 2441 4250 2034 4250 
Q 1625 4250 1398 4047 
Q 1172 3844 1172 3481 
z
" transform="scale(0.015625)"/>
       </defs>
       <use xlink:href="#DejaVuSans-30"/>
       <use xlink:href="#DejaVuSans-2e" x="63.623047"/>
       <use xlink:href="#DejaVuSans-38" x="95.410156"/>
      </g>
     </g>
    </g>
    <g id="text_14">
     <!-- disparate_impact -->
     <g transform="translate(18.909062 215.189531) rotate(-90) scale(0.1 -0.1)">
      <defs>
       <path id="DejaVuSans-64" d="M 2906 2969 
L 2906 4863 
L 3481 4863 
L 3481 0 
L 2906 0 
L 2906 525 
Q 2725 213 2448 61 
Q 2172 -91 1784 -91 
Q 1150 -91 751 415 
Q 353 922 353 1747 
Q 353 2572 751 3078 
Q 1150 3584 1784 3584 
Q 2172 3584 2448 3432 
Q 2725 3281 2906 2969 
z
M 947 1747 
Q 947 1113 1208 752 
Q 1469 391 1925 391 
Q 2381 391 2643 752 
Q 2906 1113 2906 1747 
Q 2906 2381 2643 2742 
Q 2381 3103 1925 3103 
Q 1469 3103 1208 2742 
Q 947 2381 947 1747 
z
" transform="scale(0.015625)"/>
       <path id="DejaVuSans-69" d="M 603 3500 
L 1178 3500 
L 1178 0 
L 603 0 
L 603 3500 
z
M 603 4863 
L 1178 4863 
L 1178 4134 
L 603 4134 
L 603 4863 
z
" transform="scale(0.015625)"/>
       <path id="DejaVuSans-70" d="M 1159 525 
L 1159 -1331 
L 581 -1331 
L 581 3500 
L 1159 3500 
L 1159 2969 
Q 1341 3281 1617 3432 
Q 1894 3584 2278 3584 
Q 2916 3584 3314 3078 
Q 3713 2572 3713 1747 
Q 3713 922 3314 415 
Q 2916 -91 2278 -91 
Q 1894 -91 1617 61 
Q 1341 213 1159 525 
z
M 3116 1747 
Q 3116 2381 2855 2742 
Q 2594 3103 2138 3103 
Q 1681 3103 1420 2742 
Q 1159 2381 1159 1747 
Q 1159 1113 1420 752 
Q 1681 391 2138 391 
Q 2594 391 2855 752 
Q 3116 1113 3116 1747 
z
" transform="scale(0.015625)"/>
       <path id="DejaVuSans-63" d="M 3122 3366 
L 3122 2828 
Q 2878 2963 2633 3030 
Q 2388 3097 2138 3097 
Q 1578 3097 1268 2742 
Q 959 2388 959 1747 
Q 959 1106 1268 751 
Q 1578 397 2138 397 
Q 2388 397 2633 464 
Q 2878 531 3122 666 
L 3122 134 
Q 2881 22 2623 -34 
Q 2366 -91 2075 -91 
Q 1284 -91 818 406 
Q 353 903 353 1747 
Q 353 2603 823 3093 
Q 1294 3584 2113 3584 
Q 2378 3584 2631 3529 
Q 2884 3475 3122 3366 
z
" transform="scale(0.015625)"/>
      </defs>
      <use xlink:href="#DejaVuSans-64"/>
      <use xlink:href="#DejaVuSans-69" x="63.476562"/>
      <use xlink:href="#DejaVuSans-73" x="91.259766"/>
      <use xlink:href="#DejaVuSans-70" x="143.359375"/>
      <use xlink:href="#DejaVuSans-61" x="206.835938"/>
      <use xlink:href="#DejaVuSans-72" x="268.115234"/>
      <use xlink:href="#DejaVuSans-61" x="309.228516"/>
      <use xlink:href="#DejaVuSans-74" x="370.507812"/>
      <use xlink:href="#DejaVuSans-65" x="409.716797"/>
      <use xlink:href="#DejaVuSans-5f" x="471.240234"/>
      <use xlink:href="#DejaVuSans-69" x="521.240234"/>
      <use xlink:href="#DejaVuSans-6d" x="549.023438"/>
      <use xlink:href="#DejaVuSans-70" x="646.435547"/>
      <use xlink:href="#DejaVuSans-61" x="709.912109"/>
      <use xlink:href="#DejaVuSans-63" x="771.191406"/>
      <use xlink:href="#DejaVuSans-74" x="826.171875"/>
     </g>
    </g>
   </g>
   <g id="line2d_13">
    <path d="M 62.540227 78.328582 
L 69.909575 73.784424 
L 77.278922 79.310487 
L 84.648269 78.578093 
L 92.017617 86.990633 
L 99.386964 79.294322 
L 106.756311 96.108229 
L 114.125659 79.426035 
L 121.495006 91.744801 
L 128.864353 87.208798 
L 136.2337 77.429754 
L 143.603048 93.706731 
L 150.972395 86.818261 
L 158.341742 82.773154 
L 165.71109 90.162285 
L 173.080437 80.911515 
L 180.449784 80.547336 
L 187.819132 78.023099 
L 195.188479 79.884747 
L 202.557826 88.630173 
L 209.927174 75.434004 
L 217.296521 79.805005 
L 224.665868 73.290418 
L 232.035216 86.62155 
L 239.404563 81.289468 
L 246.77391 79.647835 
L 254.143258 77.161155 
L 261.512605 88.290123 
L 268.881952 90.626704 
L 276.2513 76.21049 
L 283.620647 73.747366 
L 290.989994 80.081847 
L 298.359341 86.984562 
L 305.728689 92.851232 
L 313.098036 81.253711 
L 320.467383 87.980309 
L 327.836731 73.388623 
L 335.206078 91.560845 
L 342.575425 83.088367 
L 349.944773 76.491397 
" clip-path="url(#pc84a32402c)" style="fill: none; stroke: #1f77b4; stroke-width: 1.5; stroke-linecap: square"/>
   </g>
   <g id="line2d_14">
    <path d="M 62.540227 48.878086 
L 69.909575 52.63196 
L 77.278922 47.210964 
L 84.648269 48.198 
L 92.017617 55.694906 
L 99.386964 49.325731 
L 106.756311 54.885527 
L 114.125659 56.710858 
L 121.495006 67.08854 
L 128.864353 52.902398 
L 136.2337 54.665108 
L 143.603048 54.64552 
L 150.972395 47.249181 
L 158.341742 51.878082 
L 165.71109 52.970009 
L 173.080437 57.720132 
L 180.449784 49.316865 
L 187.819132 66.997356 
L 195.188479 54.65493 
L 202.557826 53.554807 
L 209.927174 57.589515 
L 217.296521 60.563644 
L 224.665868 55.422426 
L 232.035216 52.803822 
L 239.404563 58.240631 
L 246.77391 44.13718 
L 254.143258 50.806973 
L 261.512605 52.428404 
L 268.881952 55.654391 
L 276.2513 49.407142 
L 283.620647 51.393887 
L 290.989994 55.161508 
L 298.359341 56.120467 
L 305.728689 60.571889 
L 313.098036 54.967635 
L 320.467383 52.45221 
L 327.836731 44.47011 
L 335.206078 54.141967 
L 342.575425 41.55348 
L 349.944773 47.255828 
" clip-path="url(#pc84a32402c)" style="fill: none; stroke-dasharray: 6,2.25; stroke-dashoffset: 0; stroke: #ff7f0e; stroke-width: 1.5"/>
   </g>
   <g id="line2d_15">
    <path d="M 62.540227 88.319707 
L 69.909575 81.056689 
L 77.278922 75.243731 
L 84.648269 94.126952 
L 92.017617 93.584976 
L 99.386964 81.22339 
L 106.756311 87.922667 
L 114.125659 95.453227 
L 121.495006 89.815694 
L 128.864353 92.624469 
L 136.2337 85.276308 
L 143.603048 77.674402 
L 150.972395 90.592767 
L 158.341742 83.914759 
L 165.71109 88.950168 
L 173.080437 95.966976 
L 180.449784 91.822654 
L 187.819132 96.496835 
L 195.188479 92.627356 
L 202.557826 94.461551 
L 209.927174 85.06267 
L 217.296521 88.696162 
L 224.665868 94.985138 
L 232.035216 84.751178 
L 239.404563 87.286466 
L 246.77391 90.443869 
L 254.143258 90.833308 
L 261.512605 97.308175 
L 268.881952 87.703124 
L 276.2513 84.131994 
L 283.620647 82.660066 
L 290.989994 88.579921 
L 298.359341 88.430143 
L 305.728689 106.919013 
L 313.098036 82.981318 
L 320.467383 91.834491 
L 327.836731 87.309918 
L 335.206078 85.889167 
L 342.575425 77.811469 
L 349.944773 92.04386 
" clip-path="url(#pc84a32402c)" style="fill: none; stroke-dasharray: 1.5,1.5; stroke-dashoffset: 0; stroke: #2ca02c; stroke-width: 1.5"/>
   </g>
   <g id="line2d_16">
    <path d="M 62.540227 47.489429 
L 69.909575 44.395122 
L 77.278922 45.622335 
L 84.648269 47.475629 
L 92.017617 51.623134 
L 99.386964 46.960096 
L 106.756311 51.420976 
L 114.125659 55.043786 
L 121.495006 64.069487 
L 128.864353 47.573593 
L 136.2337 47.149813 
L 143.603048 53.275384 
L 150.972395 42.35754 
L 158.341742 47.034571 
L 165.71109 46.79109 
L 173.080437 47.980496 
L 180.449784 43.584922 
L 187.819132 59.138684 
L 195.188479 46.797356 
L 202.557826 50.949919 
L 209.927174 49.782791 
L 217.296521 55.981909 
L 224.665868 50.289765 
L 232.035216 47.630241 
L 239.404563 54.7785 
L 246.77391 46.265639 
L 254.143258 51.618739 
L 261.512605 50.926827 
L 268.881952 51.381249 
L 276.2513 50.568508 
L 283.620647 50.581713 
L 290.989994 48.547446 
L 298.359341 54.110694 
L 305.728689 54.400172 
L 313.098036 54.052385 
L 320.467383 54.04356 
L 327.836731 43.865813 
L 335.206078 49.40624 
L 342.575425 39.410909 
L 349.944773 40.874439 
" clip-path="url(#pc84a32402c)" style="fill: none; stroke-dasharray: 4.5,1.875,2.25,1.875; stroke-dashoffset: 0; stroke: #d62728; stroke-width: 1.5"/>
   </g>
   <g id="line2d_17">
    <path d="M 62.540227 65.950546 
L 69.909575 63.244168 
L 77.278922 63.365872 
L 84.648269 62.612453 
L 92.017617 76.89133 
L 99.386964 61.78483 
L 106.756311 76.096293 
L 114.125659 69.537509 
L 121.495006 79.499078 
L 128.864353 74.785487 
L 136.2337 67.592837 
L 143.603048 68.926043 
L 150.972395 62.686784 
L 158.341742 65.477976 
L 165.71109 68.338558 
L 173.080437 73.064096 
L 180.449784 68.840317 
L 187.819132 81.6063 
L 195.188479 71.188419 
L 202.557826 70.966892 
L 209.927174 72.447084 
L 217.296521 75.611888 
L 224.665868 66.845628 
L 232.035216 66.113941 
L 239.404563 75.81011 
L 246.77391 67.171732 
L 254.143258 66.090595 
L 261.512605 73.943393 
L 268.881952 72.747993 
L 276.2513 60.90443 
L 283.620647 61.300799 
L 290.989994 67.397121 
L 298.359341 84.049443 
L 305.728689 76.75203 
L 313.098036 70.02804 
L 320.467383 75.052569 
L 327.836731 57.956606 
L 335.206078 63.404067 
L 342.575425 56.687034 
L 349.944773 69.046411 
" clip-path="url(#pc84a32402c)" style="fill: none; stroke-dasharray: 7.5,1.5,1.5,1.5; stroke-dashoffset: 0; stroke: #9467bd; stroke-width: 1.5"/>
   </g>
   <g id="line2d_18"/>
   <g id="line2d_19"/>
   <g id="line2d_20"/>
   <g id="line2d_21"/>
   <g id="line2d_22"/>
   <g id="patch_3">
    <path d="M 48.17 317.68 
L 48.17 26.16 
" style="fill: none; stroke: #000000; stroke-width: 0.8; stroke-linejoin: miter; stroke-linecap: square"/>
   </g>
   <g id="patch_4">
    <path d="M 364.315 317.68 
L 364.315 26.16 
" style="fill: none; stroke: #000000; stroke-width: 0.8; stroke-linejoin: miter; stroke-linecap: square"/>
   </g>
   <g id="patch_5">
    <path d="M 48.17 317.68 
L 364.315 317.68 
" style="fill: none; stroke: #000000; stroke-width: 0.8; stroke-linejoin: miter; stroke-linecap: square"/>
   </g>
   <g id="patch_6">
    <path d="M 48.17 26.16 
L 364.315 26.16 
" style="fill: none; stroke: #000000; stroke-width: 0.8; stroke-linejoin: miter; stroke-linecap: square"/>
   </g>
   <g id="text_15">
    <!-- protected: race -->
    <g transform="translate(160.171875 20.16) scale(0.12 -0.12)">
     <defs>
      <path id="DejaVuSans-6f" d="M 1959 3097 
Q 1497 3097 1228 2736 
Q 959 2375 959 1747 
Q 959 1119 1226 758 
Q 1494 397 1959 397 
Q 2419 397 2687 759 
Q 2956 1122 2956 1747 
Q 2956 2369 2687 2733 
Q 2419 3097 1959 3097 
z
M 1959 3584 
Q 2709 3584 3137 3096 
Q 3566 2609 3566 1747 
Q 3566 888 3137 398 
Q 2709 -91 1959 -91 
Q 1206 -91 779 398 
Q 353 888 353 1747 
Q 353 2609 779 3096 
Q 1206 3584 1959 3584 
z
" transform="scale(0.015625)"/>
      <path id="DejaVuSans-3a" d="M 750 794 
L 1409 794 
L 1409 0 
L 750 0 
L 750 794 
z
M 750 3309 
L 1409 3309 
L 1409 2516 
L 750 2516 
L 750 3309 
z
" transform="scale(0.015625)"/>
      <path id="DejaVuSans-20" transform="scale(0.015625)"/>
     </defs>
     <use xlink:href="#DejaVuSans-70"/>
     <use xlink:href="#DejaVuSans-72" x="63.476562"/>
     <use xlink:href="#DejaVuSans-6f" x="102.339844"/>
     <use xlink:href="#DejaVuSans-74" x="163.521484"/>
     <use xlink:href="#DejaVuSans-65" x="202.730469"/>
     <use xlink:href="#DejaVuSans-63" x="264.253906"/>
     <use xlink:href="#DejaVuSans-74" x="319.234375"/>
     <use xlink:href="#DejaVuSans-65" x="358.443359"/>
     <use xlink:href="#DejaVuSans-64" x="419.966797"/>
     <use xlink:href="#DejaVuSans-3a" x="483.443359"/>
     <use xlink:href="#DejaVuSans-20" x="517.134766"/>
     <use xlink:href="#DejaVuSans-72" x="548.921875"/>
     <use xlink:href="#DejaVuSans-61" x="590.035156"/>
     <use xlink:href="#DejaVuSans-63" x="651.314453"/>
     <use xlink:href="#DejaVuSans-65" x="706.294922"/>
    </g>
   </g>
   <g id="legend_1">
    <g id="patch_7">
     <path d="M 55.17 312.68 
L 198.92625 312.68 
Q 200.92625 312.68 200.92625 310.68 
L 200.92625 223.61125 
Q 200.92625 221.61125 198.92625 221.61125 
L 55.17 221.61125 
Q 53.17 221.61125 53.17 223.61125 
L 53.17 310.68 
Q 53.17 312.68 55.17 312.68 
z
" style="fill: #ffffff; opacity: 0.8; stroke: #cccccc; stroke-linejoin: miter"/>
    </g>
    <g id="text_16">
     <!-- model -->
     <g transform="translate(111.478594 233.209688) scale(0.1 -0.1)">
      <defs>
       <path id="DejaVuSans-6c" d="M 603 4863 
L 1178 4863 
L 1178 0 
L 603 0 
L 603 4863 
z
" transform="scale(0.015625)"/>
      </defs>
      <use xlink:href="#DejaVuSans-6d"/>
      <use xlink:href="#DejaVuSans-6f" x="97.412109"/>
      <use xlink:href="#DejaVuSans-64" x="158.59375"/>
      <use xlink:href="#DejaVuSans-65" x="222.070312"/>
      <use xlink:href="#DejaVuSans-6c" x="283.59375"/>
     </g>
    </g>
    <g id="line2d_23">
     <path d="M 57.17 244.387813 
L 67.17 244.387813 
L 77.17 244.387813 
" style="fill: none; stroke: #1f77b4; stroke-width: 1.5; stroke-linecap: square"/>
    </g>
    <g id="text_17">
     <!-- None -->
     <g transform="translate(85.17 247.887813) scale(0.1 -0.1)">
      <defs>
       <path id="DejaVuSans-4e" d="M 628 4666 
L 1478 4666 
L 3547 763 
L 3547 4666 
L 4159 4666 
L 4159 0 
L 3309 0 
L 1241 3903 
L 1241 0 
L 628 0 
L 628 4666 
z
" transform="scale(0.015625)"/>
      </defs>
      <use xlink:href="#DejaVuSans-4e"/>
      <use xlink:href="#DejaVuSans-6f" x="74.804688"/>
      <use xlink:href="#DejaVuSans-6e" x="135.986328"/>
      <use xlink:href="#DejaVuSans-65" x="199.365234"/>
     </g>
    </g>
    <g id="line2d_24">
     <path d="M 57.17 259.065938 
L 67.17 259.065938 
L 77.17 259.065938 
" style="fill: none; stroke-dasharray: 6,2.25; stroke-dashoffset: 0; stroke: #ff7f0e; stroke-width: 1.5"/>
    </g>
    <g id="text_18">
     <!-- logisticregression -->
     <g transform="translate(85.17 262.565938) scale(0.1 -0.1)">
      <defs>
       <path id="DejaVuSans-67" d="M 2906 1791 
Q 2906 2416 2648 2759 
Q 2391 3103 1925 3103 
Q 1463 3103 1205 2759 
Q 947 2416 947 1791 
Q 947 1169 1205 825 
Q 1463 481 1925 481 
Q 2391 481 2648 825 
Q 2906 1169 2906 1791 
z
M 3481 434 
Q 3481 -459 3084 -895 
Q 2688 -1331 1869 -1331 
Q 1566 -1331 1297 -1286 
Q 1028 -1241 775 -1147 
L 775 -588 
Q 1028 -725 1275 -790 
Q 1522 -856 1778 -856 
Q 2344 -856 2625 -561 
Q 2906 -266 2906 331 
L 2906 616 
Q 2728 306 2450 153 
Q 2172 0 1784 0 
Q 1141 0 747 490 
Q 353 981 353 1791 
Q 353 2603 747 3093 
Q 1141 3584 1784 3584 
Q 2172 3584 2450 3431 
Q 2728 3278 2906 2969 
L 2906 3500 
L 3481 3500 
L 3481 434 
z
" transform="scale(0.015625)"/>
      </defs>
      <use xlink:href="#DejaVuSans-6c"/>
      <use xlink:href="#DejaVuSans-6f" x="27.783203"/>
      <use xlink:href="#DejaVuSans-67" x="88.964844"/>
      <use xlink:href="#DejaVuSans-69" x="152.441406"/>
      <use xlink:href="#DejaVuSans-73" x="180.224609"/>
      <use xlink:href="#DejaVuSans-74" x="232.324219"/>
      <use xlink:href="#DejaVuSans-69" x="271.533203"/>
      <use xlink:href="#DejaVuSans-63" x="299.316406"/>
      <use xlink:href="#DejaVuSans-72" x="354.296875"/>
      <use xlink:href="#DejaVuSans-65" x="393.160156"/>
      <use xlink:href="#DejaVuSans-67" x="454.683594"/>
      <use xlink:href="#DejaVuSans-72" x="518.160156"/>
      <use xlink:href="#DejaVuSans-65" x="557.023438"/>
      <use xlink:href="#DejaVuSans-73" x="618.546875"/>
      <use xlink:href="#DejaVuSans-73" x="670.646484"/>
      <use xlink:href="#DejaVuSans-69" x="722.746094"/>
      <use xlink:href="#DejaVuSans-6f" x="750.529297"/>
      <use xlink:href="#DejaVuSans-6e" x="811.710938"/>
     </g>
    </g>
    <g id="line2d_25">
     <path d="M 57.17 273.744063 
L 67.17 273.744063 
L 77.17 273.744063 
" style="fill: none; stroke-dasharray: 1.5,1.5; stroke-dashoffset: 0; stroke: #2ca02c; stroke-width: 1.5"/>
    </g>
    <g id="text_19">
     <!-- decisiontreeclassifier -->
     <g transform="translate(85.17 277.244063) scale(0.1 -0.1)">
      <use xlink:href="#DejaVuSans-64"/>
      <use xlink:href="#DejaVuSans-65" x="63.476562"/>
      <use xlink:href="#DejaVuSans-63" x="125"/>
      <use xlink:href="#DejaVuSans-69" x="179.980469"/>
      <use xlink:href="#DejaVuSans-73" x="207.763672"/>
      <use xlink:href="#DejaVuSans-69" x="259.863281"/>
      <use xlink:href="#DejaVuSans-6f" x="287.646484"/>
      <use xlink:href="#DejaVuSans-6e" x="348.828125"/>
      <use xlink:href="#DejaVuSans-74" x="412.207031"/>
      <use xlink:href="#DejaVuSans-72" x="451.416016"/>
      <use xlink:href="#DejaVuSans-65" x="490.279297"/>
      <use xlink:href="#DejaVuSans-65" x="551.802734"/>
      <use xlink:href="#DejaVuSans-63" x="613.326172"/>
      <use xlink:href="#DejaVuSans-6c" x="668.306641"/>
      <use xlink:href="#DejaVuSans-61" x="696.089844"/>
      <use xlink:href="#DejaVuSans-73" x="757.369141"/>
      <use xlink:href="#DejaVuSans-73" x="809.46875"/>
      <use xlink:href="#DejaVuSans-69" x="861.568359"/>
      <use xlink:href="#DejaVuSans-66" x="889.351562"/>
      <use xlink:href="#DejaVuSans-69" x="924.556641"/>
      <use xlink:href="#DejaVuSans-65" x="952.339844"/>
      <use xlink:href="#DejaVuSans-72" x="1013.863281"/>
     </g>
    </g>
    <g id="line2d_26">
     <path d="M 57.17 288.422188 
L 67.17 288.422188 
L 77.17 288.422188 
" style="fill: none; stroke-dasharray: 4.5,1.875,2.25,1.875; stroke-dashoffset: 0; stroke: #d62728; stroke-width: 1.5"/>
    </g>
    <g id="text_20">
     <!-- adaboostclassifier -->
     <g transform="translate(85.17 291.922188) scale(0.1 -0.1)">
      <defs>
       <path id="DejaVuSans-62" d="M 3116 1747 
Q 3116 2381 2855 2742 
Q 2594 3103 2138 3103 
Q 1681 3103 1420 2742 
Q 1159 2381 1159 1747 
Q 1159 1113 1420 752 
Q 1681 391 2138 391 
Q 2594 391 2855 752 
Q 3116 1113 3116 1747 
z
M 1159 2969 
Q 1341 3281 1617 3432 
Q 1894 3584 2278 3584 
Q 2916 3584 3314 3078 
Q 3713 2572 3713 1747 
Q 3713 922 3314 415 
Q 2916 -91 2278 -91 
Q 1894 -91 1617 61 
Q 1341 213 1159 525 
L 1159 0 
L 581 0 
L 581 4863 
L 1159 4863 
L 1159 2969 
z
" transform="scale(0.015625)"/>
      </defs>
      <use xlink:href="#DejaVuSans-61"/>
      <use xlink:href="#DejaVuSans-64" x="61.279297"/>
      <use xlink:href="#DejaVuSans-61" x="124.755859"/>
      <use xlink:href="#DejaVuSans-62" x="186.035156"/>
      <use xlink:href="#DejaVuSans-6f" x="249.511719"/>
      <use xlink:href="#DejaVuSans-6f" x="310.693359"/>
      <use xlink:href="#DejaVuSans-73" x="371.875"/>
      <use xlink:href="#DejaVuSans-74" x="423.974609"/>
      <use xlink:href="#DejaVuSans-63" x="463.183594"/>
      <use xlink:href="#DejaVuSans-6c" x="518.164062"/>
      <use xlink:href="#DejaVuSans-61" x="545.947266"/>
      <use xlink:href="#DejaVuSans-73" x="607.226562"/>
      <use xlink:href="#DejaVuSans-73" x="659.326172"/>
      <use xlink:href="#DejaVuSans-69" x="711.425781"/>
      <use xlink:href="#DejaVuSans-66" x="739.208984"/>
      <use xlink:href="#DejaVuSans-69" x="774.414062"/>
      <use xlink:href="#DejaVuSans-65" x="802.197266"/>
      <use xlink:href="#DejaVuSans-72" x="863.720703"/>
     </g>
    </g>
    <g id="line2d_27">
     <path d="M 57.17 303.100313 
L 67.17 303.100313 
L 77.17 303.100313 
" style="fill: none; stroke-dasharray: 7.5,1.5,1.5,1.5; stroke-dashoffset: 0; stroke: #9467bd; stroke-width: 1.5"/>
    </g>
    <g id="text_21">
     <!-- randomforestclassifier -->
     <g transform="translate(85.17 306.600313) scale(0.1 -0.1)">
      <use xlink:href="#DejaVuSans-72"/>
      <use xlink:href="#DejaVuSans-61" x="41.113281"/>
      <use xlink:href="#DejaVuSans-6e" x="102.392578"/>
      <use xlink:href="#DejaVuSans-64" x="165.771484"/>
      <use xlink:href="#DejaVuSans-6f" x="229.248047"/>
      <use xlink:href="#DejaVuSans-6d" x="290.429688"/>
      <use xlink:href="#DejaVuSans-66" x="387.841797"/>
      <use xlink:href="#DejaVuSans-6f" x="423.046875"/>
      <use xlink:href="#DejaVuSans-72" x="484.228516"/>
      <use xlink:href="#DejaVuSans-65" x="523.091797"/>
      <use xlink:href="#DejaVuSans-73" x="584.615234"/>
      <use xlink:href="#DejaVuSans-74" x="636.714844"/>
      <use xlink:href="#DejaVuSans-63" x="675.923828"/>
      <use xlink:href="#DejaVuSans-6c" x="730.904297"/>
      <use xlink:href="#DejaVuSans-61" x="758.6875"/>
      <use xlink:href="#DejaVuSans-73" x="819.966797"/>
      <use xlink:href="#DejaVuSans-73" x="872.066406"/>
      <use xlink:href="#DejaVuSans-69" x="924.166016"/>
      <use xlink:href="#DejaVuSans-66" x="951.949219"/>
      <use xlink:href="#DejaVuSans-69" x="987.154297"/>
      <use xlink:href="#DejaVuSans-65" x="1014.9375"/>
      <use xlink:href="#DejaVuSans-72" x="1076.460938"/>
     </g>
    </g>
   </g>
  </g>
  <g id="axes_2">
   <g id="patch_8">
    <path d="M 393.055 317.68 
L 709.2 317.68 
L 709.2 26.16 
L 393.055 26.16 
z
" style="fill: #ffffff"/>
   </g>
   <g id="PolyCollection_6">
    <defs>
     <path id="mcfe37e61dd" d="M 407.425227 -80.193401 
L 407.425227 -80.193401 
L 414.794575 -84.493202 
L 422.163922 -77.928292 
L 429.533269 -78.89779 
L 436.902617 -75.002802 
L 444.271964 -79.510442 
L 451.641311 -68.605986 
L 459.010659 -80.318971 
L 466.380006 -69.239018 
L 473.749353 -74.491109 
L 481.1187 -77.704926 
L 488.488048 -69.342883 
L 495.857395 -72.430776 
L 503.226742 -76.818504 
L 510.59609 -72.104523 
L 517.965437 -77.152539 
L 525.334784 -76.068962 
L 532.704132 -77.28958 
L 540.073479 -78.470331 
L 547.442826 -74.53683 
L 554.812174 -82.730169 
L 562.181521 -77.970194 
L 569.550868 -80.634571 
L 576.920216 -74.560164 
L 584.289563 -78.978106 
L 591.65891 -78.296706 
L 599.028258 -77.267345 
L 606.397605 -71.252951 
L 613.766952 -71.979161 
L 621.1363 -82.543768 
L 628.505647 -81.481012 
L 635.874994 -80.600828 
L 643.244341 -73.258626 
L 650.613689 -70.260231 
L 657.983036 -77.341391 
L 665.352383 -73.578367 
L 672.721731 -84.382669 
L 680.091078 -70.117389 
L 687.460425 -76.140706 
L 694.829773 -82.385028 
L 694.829773 -82.385028 
L 694.829773 -82.385028 
L 687.460425 -76.140706 
L 680.091078 -70.117389 
L 672.721731 -84.382669 
L 665.352383 -73.578367 
L 657.983036 -77.341391 
L 650.613689 -70.260231 
L 643.244341 -73.258626 
L 635.874994 -80.600828 
L 628.505647 -81.481012 
L 621.1363 -82.543768 
L 613.766952 -71.979161 
L 606.397605 -71.252951 
L 599.028258 -77.267345 
L 591.65891 -78.296706 
L 584.289563 -78.978106 
L 576.920216 -74.560164 
L 569.550868 -80.634571 
L 562.181521 -77.970194 
L 554.812174 -82.730169 
L 547.442826 -74.53683 
L 540.073479 -78.470331 
L 532.704132 -77.28958 
L 525.334784 -76.068962 
L 517.965437 -77.152539 
L 510.59609 -72.104523 
L 503.226742 -76.818504 
L 495.857395 -72.430776 
L 488.488048 -69.342883 
L 481.1187 -77.704926 
L 473.749353 -74.491109 
L 466.380006 -69.239018 
L 459.010659 -80.318971 
L 451.641311 -68.605986 
L 444.271964 -79.510442 
L 436.902617 -75.002802 
L 429.533269 -78.89779 
L 422.163922 -77.928292 
L 414.794575 -84.493202 
L 407.425227 -80.193401 
z
" style="stroke: #1f77b4; stroke-opacity: 0.2"/>
    </defs>
    <g clip-path="url(#pbfade9affb)">
     <use xlink:href="#mcfe37e61dd" x="0" y="360" style="fill: #1f77b4; fill-opacity: 0.2; stroke: #1f77b4; stroke-opacity: 0.2"/>
    </g>
   </g>
   <g id="PolyCollection_7">
    <defs>
     <path id="m7e683c548d" d="M 407.425227 -71.657448 
L 407.425227 -71.657448 
L 414.794575 -65.883467 
L 422.163922 -77.722436 
L 429.533269 -72.167308 
L 436.902617 -70.409672 
L 444.271964 -72.052231 
L 451.641311 -66.529866 
L 459.010659 -68.524669 
L 466.380006 -60.843637 
L 473.749353 -68.488477 
L 481.1187 -67.457789 
L 488.488048 -70.900716 
L 495.857395 -69.49236 
L 503.226742 -70.095524 
L 510.59609 -68.814582 
L 517.965437 -68.464347 
L 525.334784 -72.726297 
L 532.704132 -60.573199 
L 540.073479 -68.976267 
L 547.442826 -69.174399 
L 554.812174 -68.534007 
L 562.181521 -64.66465 
L 569.550868 -68.644653 
L 576.920216 -68.000265 
L 584.289563 -66.515586 
L 591.65891 -68.389896 
L 599.028258 -71.819009 
L 606.397605 -68.033914 
L 613.766952 -72.32139 
L 621.1363 -69.67373 
L 628.505647 -68.818711 
L 635.874994 -69.317486 
L 643.244341 -67.302904 
L 650.613689 -66.100955 
L 657.983036 -67.67118 
L 665.352383 -69.847314 
L 672.721731 -76.797012 
L 680.091078 -69.372672 
L 687.460425 -73.39515 
L 694.829773 -70.901017 
L 694.829773 -70.901017 
L 694.829773 -70.901017 
L 687.460425 -73.39515 
L 680.091078 -69.372672 
L 672.721731 -76.797012 
L 665.352383 -69.847314 
L 657.983036 -67.67118 
L 650.613689 -66.100955 
L 643.244341 -67.302904 
L 635.874994 -69.317486 
L 628.505647 -68.818711 
L 621.1363 -69.67373 
L 613.766952 -72.32139 
L 606.397605 -68.033914 
L 599.028258 -71.819009 
L 591.65891 -68.389896 
L 584.289563 -66.515586 
L 576.920216 -68.000265 
L 569.550868 -68.644653 
L 562.181521 -64.66465 
L 554.812174 -68.534007 
L 547.442826 -69.174399 
L 540.073479 -68.976267 
L 532.704132 -60.573199 
L 525.334784 -72.726297 
L 517.965437 -68.464347 
L 510.59609 -68.814582 
L 503.226742 -70.095524 
L 495.857395 -69.49236 
L 488.488048 -70.900716 
L 481.1187 -67.457789 
L 473.749353 -68.488477 
L 466.380006 -60.843637 
L 459.010659 -68.524669 
L 451.641311 -66.529866 
L 444.271964 -72.052231 
L 436.902617 -70.409672 
L 429.533269 -72.167308 
L 422.163922 -77.722436 
L 414.794575 -65.883467 
L 407.425227 -71.657448 
z
" style="stroke: #ff7f0e; stroke-opacity: 0.2"/>
    </defs>
    <g clip-path="url(#pbfade9affb)">
     <use xlink:href="#m7e683c548d" x="0" y="360" style="fill: #ff7f0e; fill-opacity: 0.2; stroke: #ff7f0e; stroke-opacity: 0.2"/>
    </g>
   </g>
   <g id="PolyCollection_8">
    <defs>
     <path id="m0a852f3d6d" d="M 407.425227 -72.943775 
L 407.425227 -71.625117 
L 414.794575 -76.446651 
L 422.163922 -84.790033 
L 429.533269 -71.148472 
L 436.902617 -73.660898 
L 444.271964 -75.486192 
L 451.641311 -75.522785 
L 459.010659 -70.426262 
L 466.380006 -72.507418 
L 473.749353 -69.992556 
L 481.1187 -72.923974 
L 488.488048 -84.904478 
L 495.857395 -69.920651 
L 503.226742 -74.953825 
L 510.59609 -72.85566 
L 517.965437 -67.263126 
L 525.334784 -71.208008 
L 532.704132 -65.708994 
L 540.073479 -69.33243 
L 547.442826 -72.292097 
L 554.812174 -77.968022 
L 562.181521 -75.637482 
L 569.550868 -68.368028 
L 576.920216 -80.387741 
L 584.289563 -73.895131 
L 591.65891 -68.063552 
L 599.028258 -70.912721 
L 606.397605 -66.82964 
L 613.766952 -74.849499 
L 621.1363 -78.492536 
L 628.505647 -74.19461 
L 635.874994 -73.182934 
L 643.244341 -73.002011 
L 650.613689 -61.084713 
L 657.983036 -75.556712 
L 665.352383 -69.890561 
L 672.721731 -73.287723 
L 680.091078 -75.627926 
L 687.460425 -78.280708 
L 694.829773 -68.285103 
L 694.829773 -69.259608 
L 694.829773 -69.259608 
L 687.460425 -79.41985 
L 680.091078 -77.018156 
L 672.721731 -74.397235 
L 665.352383 -71.30624 
L 657.983036 -76.84932 
L 650.613689 -62.434956 
L 643.244341 -74.432224 
L 635.874994 -74.284628 
L 628.505647 -75.185591 
L 621.1363 -79.742212 
L 613.766952 -76.254595 
L 606.397605 -68.274017 
L 599.028258 -71.987208 
L 591.65891 -68.954184 
L 584.289563 -75.101062 
L 576.920216 -81.441214 
L 569.550868 -69.572486 
L 562.181521 -76.760089 
L 554.812174 -79.166391 
L 547.442826 -73.742203 
L 540.073479 -70.729099 
L 532.704132 -66.97977 
L 525.334784 -72.192199 
L 517.965437 -68.543429 
L 510.59609 -74.069022 
L 503.226742 -76.116763 
L 495.857395 -70.859845 
L 488.488048 -85.968962 
L 481.1187 -74.306568 
L 473.749353 -71.12781 
L 466.380006 -73.881948 
L 459.010659 -71.838537 
L 451.641311 -76.642152 
L 444.271964 -76.755669 
L 436.902617 -74.856918 
L 429.533269 -72.544312 
L 422.163922 -86.13017 
L 414.794575 -77.784458 
L 407.425227 -72.943775 
z
" style="stroke: #2ca02c; stroke-opacity: 0.2"/>
    </defs>
    <g clip-path="url(#pbfade9affb)">
     <use xlink:href="#m0a852f3d6d" x="0" y="360" style="fill: #2ca02c; fill-opacity: 0.2; stroke: #2ca02c; stroke-opacity: 0.2"/>
    </g>
   </g>
   <g id="PolyCollection_9">
    <defs>
     <path id="m644e6c525a" d="M 407.425227 -73.2679 
L 407.425227 -73.2679 
L 414.794575 -71.025134 
L 422.163922 -79.673685 
L 429.533269 -73.032897 
L 436.902617 -70.871384 
L 444.271964 -74.519922 
L 451.641311 -70.048445 
L 459.010659 -69.848089 
L 466.380006 -62.547339 
L 473.749353 -73.081321 
L 481.1187 -71.268137 
L 488.488048 -71.061054 
L 495.857395 -73.124783 
L 503.226742 -74.190532 
L 510.59609 -72.521516 
L 517.965437 -72.506487 
L 525.334784 -77.315217 
L 532.704132 -63.445239 
L 540.073479 -73.145673 
L 547.442826 -71.7565 
L 554.812174 -74.130415 
L 562.181521 -69.034403 
L 569.550868 -70.859137 
L 576.920216 -70.968236 
L 584.289563 -68.31127 
L 591.65891 -66.90315 
L 599.028258 -70.84602 
L 606.397605 -66.86872 
L 613.766952 -75.063663 
L 621.1363 -71.313671 
L 628.505647 -70.459152 
L 635.874994 -74.017456 
L 643.244341 -68.603322 
L 650.613689 -71.58978 
L 657.983036 -68.775965 
L 665.352383 -71.295362 
L 672.721731 -77.498059 
L 680.091078 -74.797364 
L 687.460425 -77.590386 
L 694.829773 -76.086216 
L 694.829773 -76.086216 
L 694.829773 -76.086216 
L 687.460425 -77.590386 
L 680.091078 -74.797364 
L 672.721731 -77.498059 
L 665.352383 -71.295362 
L 657.983036 -68.775965 
L 650.613689 -71.58978 
L 643.244341 -68.603322 
L 635.874994 -74.017456 
L 628.505647 -70.459152 
L 621.1363 -71.313671 
L 613.766952 -75.063663 
L 606.397605 -66.86872 
L 599.028258 -70.84602 
L 591.65891 -66.90315 
L 584.289563 -68.31127 
L 576.920216 -70.968236 
L 569.550868 -70.859137 
L 562.181521 -69.034403 
L 554.812174 -74.130415 
L 547.442826 -71.7565 
L 540.073479 -73.145673 
L 532.704132 -63.445239 
L 525.334784 -77.315217 
L 517.965437 -72.506487 
L 510.59609 -72.521516 
L 503.226742 -74.190532 
L 495.857395 -73.124783 
L 488.488048 -71.061054 
L 481.1187 -71.268137 
L 473.749353 -73.081321 
L 466.380006 -62.547339 
L 459.010659 -69.848089 
L 451.641311 -70.048445 
L 444.271964 -74.519922 
L 436.902617 -70.871384 
L 429.533269 -73.032897 
L 422.163922 -79.673685 
L 414.794575 -71.025134 
L 407.425227 -73.2679 
z
" style="stroke: #d62728; stroke-opacity: 0.2"/>
    </defs>
    <g clip-path="url(#pbfade9affb)">
     <use xlink:href="#m644e6c525a" x="0" y="360" style="fill: #d62728; fill-opacity: 0.2; stroke: #d62728; stroke-opacity: 0.2"/>
    </g>
   </g>
   <g id="PolyCollection_10">
    <defs>
     <path id="mda47fc4de2" d="M 407.425227 -63.558535 
L 407.425227 -62.830873 
L 414.794575 -62.594313 
L 422.163922 -67.472169 
L 429.533269 -64.74298 
L 436.902617 -61.023957 
L 444.271964 -66.25817 
L 451.641311 -57.175608 
L 459.010659 -61.839793 
L 466.380006 -56.060535 
L 473.749353 -57.843982 
L 481.1187 -60.555412 
L 488.488048 -64.706479 
L 495.857395 -60.792937 
L 503.226742 -61.85327 
L 510.59609 -61.635759 
L 517.965437 -60.483151 
L 525.334784 -61.303849 
L 532.704132 -55.926702 
L 540.073479 -59.848326 
L 547.442826 -61.320678 
L 554.812174 -62.120549 
L 562.181521 -59.277604 
L 569.550868 -62.202421 
L 576.920216 -62.691603 
L 584.289563 -59.383441 
L 591.65891 -58.691932 
L 599.028258 -62.756527 
L 606.397605 -58.004576 
L 613.766952 -62.803487 
L 621.1363 -65.16296 
L 628.505647 -64.7325 
L 635.874994 -62.041683 
L 643.244341 -55.570909 
L 650.613689 -57.487633 
L 657.983036 -59.918117 
L 665.352383 -57.019559 
L 672.721731 -67.782993 
L 680.091078 -64.089168 
L 687.460425 -64.268443 
L 694.829773 -58.720045 
L 694.829773 -59.468719 
L 694.829773 -59.468719 
L 687.460425 -65.081267 
L 680.091078 -64.91575 
L 672.721731 -68.632753 
L 665.352383 -57.920973 
L 657.983036 -60.629424 
L 650.613689 -58.430794 
L 643.244341 -56.233074 
L 635.874994 -63.007162 
L 628.505647 -65.520466 
L 621.1363 -65.876675 
L 613.766952 -63.710817 
L 606.397605 -58.81771 
L 599.028258 -63.686556 
L 591.65891 -59.586361 
L 584.289563 -60.351767 
L 576.920216 -63.481468 
L 569.550868 -63.048436 
L 562.181521 -60.097528 
L 554.812174 -62.872797 
L 547.442826 -62.005525 
L 540.073479 -60.85578 
L 532.704132 -56.730573 
L 525.334784 -62.137201 
L 517.965437 -61.207498 
L 510.59609 -62.534032 
L 503.226742 -62.797413 
L 495.857395 -61.526741 
L 488.488048 -65.332967 
L 481.1187 -61.557618 
L 473.749353 -58.715347 
L 466.380006 -56.857357 
L 459.010659 -62.889435 
L 451.641311 -57.889324 
L 444.271964 -67.156353 
L 436.902617 -61.802944 
L 429.533269 -65.719493 
L 422.163922 -68.300948 
L 414.794575 -63.421573 
L 407.425227 -63.558535 
z
" style="stroke: #9467bd; stroke-opacity: 0.2"/>
    </defs>
    <g clip-path="url(#pbfade9affb)">
     <use xlink:href="#mda47fc4de2" x="0" y="360" style="fill: #9467bd; fill-opacity: 0.2; stroke: #9467bd; stroke-opacity: 0.2"/>
    </g>
   </g>
   <g id="matplotlib.axis_3">
    <g id="xtick_9">
     <g id="line2d_28">
      <g>
       <use xlink:href="#m843fde4f1f" x="422.163922" y="317.68" style="stroke: #000000; stroke-width: 0.8"/>
      </g>
     </g>
     <g id="text_22">
      <!-- 5 -->
      <g transform="translate(418.982672 332.278437) scale(0.1 -0.1)">
       <use xlink:href="#DejaVuSans-35"/>
      </g>
     </g>
    </g>
    <g id="xtick_10">
     <g id="line2d_29">
      <g>
       <use xlink:href="#m843fde4f1f" x="459.010659" y="317.68" style="stroke: #000000; stroke-width: 0.8"/>
      </g>
     </g>
     <g id="text_23">
      <!-- 10 -->
      <g transform="translate(452.648159 332.278437) scale(0.1 -0.1)">
       <use xlink:href="#DejaVuSans-31"/>
       <use xlink:href="#DejaVuSans-30" x="63.623047"/>
      </g>
     </g>
    </g>
    <g id="xtick_11">
     <g id="line2d_30">
      <g>
       <use xlink:href="#m843fde4f1f" x="495.857395" y="317.68" style="stroke: #000000; stroke-width: 0.8"/>
      </g>
     </g>
     <g id="text_24">
      <!-- 15 -->
      <g transform="translate(489.494895 332.278437) scale(0.1 -0.1)">
       <use xlink:href="#DejaVuSans-31"/>
       <use xlink:href="#DejaVuSans-35" x="63.623047"/>
      </g>
     </g>
    </g>
    <g id="xtick_12">
     <g id="line2d_31">
      <g>
       <use xlink:href="#m843fde4f1f" x="532.704132" y="317.68" style="stroke: #000000; stroke-width: 0.8"/>
      </g>
     </g>
     <g id="text_25">
      <!-- 20 -->
      <g transform="translate(526.341632 332.278437) scale(0.1 -0.1)">
       <use xlink:href="#DejaVuSans-32"/>
       <use xlink:href="#DejaVuSans-30" x="63.623047"/>
      </g>
     </g>
    </g>
    <g id="xtick_13">
     <g id="line2d_32">
      <g>
       <use xlink:href="#m843fde4f1f" x="569.550868" y="317.68" style="stroke: #000000; stroke-width: 0.8"/>
      </g>
     </g>
     <g id="text_26">
      <!-- 25 -->
      <g transform="translate(563.188368 332.278437) scale(0.1 -0.1)">
       <use xlink:href="#DejaVuSans-32"/>
       <use xlink:href="#DejaVuSans-35" x="63.623047"/>
      </g>
     </g>
    </g>
    <g id="xtick_14">
     <g id="line2d_33">
      <g>
       <use xlink:href="#m843fde4f1f" x="606.397605" y="317.68" style="stroke: #000000; stroke-width: 0.8"/>
      </g>
     </g>
     <g id="text_27">
      <!-- 30 -->
      <g transform="translate(600.035105 332.278437) scale(0.1 -0.1)">
       <use xlink:href="#DejaVuSans-33"/>
       <use xlink:href="#DejaVuSans-30" x="63.623047"/>
      </g>
     </g>
    </g>
    <g id="xtick_15">
     <g id="line2d_34">
      <g>
       <use xlink:href="#m843fde4f1f" x="643.244341" y="317.68" style="stroke: #000000; stroke-width: 0.8"/>
      </g>
     </g>
     <g id="text_28">
      <!-- 35 -->
      <g transform="translate(636.881841 332.278437) scale(0.1 -0.1)">
       <use xlink:href="#DejaVuSans-33"/>
       <use xlink:href="#DejaVuSans-35" x="63.623047"/>
      </g>
     </g>
    </g>
    <g id="xtick_16">
     <g id="line2d_35">
      <g>
       <use xlink:href="#m843fde4f1f" x="680.091078" y="317.68" style="stroke: #000000; stroke-width: 0.8"/>
      </g>
     </g>
     <g id="text_29">
      <!-- 40 -->
      <g transform="translate(673.728578 332.278437) scale(0.1 -0.1)">
       <use xlink:href="#DejaVuSans-34"/>
       <use xlink:href="#DejaVuSans-30" x="63.623047"/>
      </g>
     </g>
    </g>
    <g id="text_30">
     <!-- num_features -->
     <g transform="translate(516.765781 345.956563) scale(0.1 -0.1)">
      <use xlink:href="#DejaVuSans-6e"/>
      <use xlink:href="#DejaVuSans-75" x="63.378906"/>
      <use xlink:href="#DejaVuSans-6d" x="126.757812"/>
      <use xlink:href="#DejaVuSans-5f" x="224.169922"/>
      <use xlink:href="#DejaVuSans-66" x="274.169922"/>
      <use xlink:href="#DejaVuSans-65" x="309.375"/>
      <use xlink:href="#DejaVuSans-61" x="370.898438"/>
      <use xlink:href="#DejaVuSans-74" x="432.177734"/>
      <use xlink:href="#DejaVuSans-75" x="471.386719"/>
      <use xlink:href="#DejaVuSans-72" x="534.765625"/>
      <use xlink:href="#DejaVuSans-65" x="573.628906"/>
      <use xlink:href="#DejaVuSans-73" x="635.152344"/>
     </g>
    </g>
   </g>
   <g id="matplotlib.axis_4">
    <g id="ytick_5">
     <g id="line2d_36">
      <g>
       <use xlink:href="#m35906759ec" x="393.055" y="260.040355" style="stroke: #000000; stroke-width: 0.8"/>
      </g>
     </g>
    </g>
    <g id="ytick_6">
     <g id="line2d_37">
      <g>
       <use xlink:href="#m35906759ec" x="393.055" y="195.450837" style="stroke: #000000; stroke-width: 0.8"/>
      </g>
     </g>
    </g>
    <g id="ytick_7">
     <g id="line2d_38">
      <g>
       <use xlink:href="#m35906759ec" x="393.055" y="130.861318" style="stroke: #000000; stroke-width: 0.8"/>
      </g>
     </g>
    </g>
    <g id="ytick_8">
     <g id="line2d_39">
      <g>
       <use xlink:href="#m35906759ec" x="393.055" y="66.2718" style="stroke: #000000; stroke-width: 0.8"/>
      </g>
     </g>
    </g>
    <g id="text_31">
     <!-- statistical_parity_difference -->
     <g transform="translate(383.197187 240.830938) rotate(-90) scale(0.1 -0.1)">
      <defs>
       <path id="DejaVuSans-79" d="M 2059 -325 
Q 1816 -950 1584 -1140 
Q 1353 -1331 966 -1331 
L 506 -1331 
L 506 -850 
L 844 -850 
Q 1081 -850 1212 -737 
Q 1344 -625 1503 -206 
L 1606 56 
L 191 3500 
L 800 3500 
L 1894 763 
L 2988 3500 
L 3597 3500 
L 2059 -325 
z
" transform="scale(0.015625)"/>
      </defs>
      <use xlink:href="#DejaVuSans-73"/>
      <use xlink:href="#DejaVuSans-74" x="52.099609"/>
      <use xlink:href="#DejaVuSans-61" x="91.308594"/>
      <use xlink:href="#DejaVuSans-74" x="152.587891"/>
      <use xlink:href="#DejaVuSans-69" x="191.796875"/>
      <use xlink:href="#DejaVuSans-73" x="219.580078"/>
      <use xlink:href="#DejaVuSans-74" x="271.679688"/>
      <use xlink:href="#DejaVuSans-69" x="310.888672"/>
      <use xlink:href="#DejaVuSans-63" x="338.671875"/>
      <use xlink:href="#DejaVuSans-61" x="393.652344"/>
      <use xlink:href="#DejaVuSans-6c" x="454.931641"/>
      <use xlink:href="#DejaVuSans-5f" x="482.714844"/>
      <use xlink:href="#DejaVuSans-70" x="532.714844"/>
      <use xlink:href="#DejaVuSans-61" x="596.191406"/>
      <use xlink:href="#DejaVuSans-72" x="657.470703"/>
      <use xlink:href="#DejaVuSans-69" x="698.583984"/>
      <use xlink:href="#DejaVuSans-74" x="726.367188"/>
      <use xlink:href="#DejaVuSans-79" x="765.576172"/>
      <use xlink:href="#DejaVuSans-5f" x="824.755859"/>
      <use xlink:href="#DejaVuSans-64" x="874.755859"/>
      <use xlink:href="#DejaVuSans-69" x="938.232422"/>
      <use xlink:href="#DejaVuSans-66" x="966.015625"/>
      <use xlink:href="#DejaVuSans-66" x="1001.220703"/>
      <use xlink:href="#DejaVuSans-65" x="1036.425781"/>
      <use xlink:href="#DejaVuSans-72" x="1097.949219"/>
      <use xlink:href="#DejaVuSans-65" x="1136.8125"/>
      <use xlink:href="#DejaVuSans-6e" x="1198.335938"/>
      <use xlink:href="#DejaVuSans-63" x="1261.714844"/>
      <use xlink:href="#DejaVuSans-65" x="1316.695312"/>
     </g>
    </g>
   </g>
   <g id="line2d_40">
    <path d="M 407.425227 279.806599 
L 414.794575 275.506798 
L 422.163922 282.071708 
L 429.533269 281.10221 
L 436.902617 284.997198 
L 444.271964 280.489558 
L 451.641311 291.394014 
L 459.010659 279.681029 
L 466.380006 290.760982 
L 473.749353 285.508891 
L 481.1187 282.295074 
L 488.488048 290.657117 
L 495.857395 287.569224 
L 503.226742 283.181496 
L 510.59609 287.895477 
L 517.965437 282.847461 
L 525.334784 283.931038 
L 532.704132 282.71042 
L 540.073479 281.529669 
L 547.442826 285.46317 
L 554.812174 277.269831 
L 562.181521 282.029806 
L 569.550868 279.365429 
L 576.920216 285.439836 
L 584.289563 281.021894 
L 591.65891 281.703294 
L 599.028258 282.732655 
L 606.397605 288.747049 
L 613.766952 288.020839 
L 621.1363 277.456232 
L 628.505647 278.518988 
L 635.874994 279.399172 
L 643.244341 286.741374 
L 650.613689 289.739769 
L 657.983036 282.658609 
L 665.352383 286.421633 
L 672.721731 275.617331 
L 680.091078 289.882611 
L 687.460425 283.859294 
L 694.829773 277.614972 
" clip-path="url(#pbfade9affb)" style="fill: none; stroke: #1f77b4; stroke-width: 1.5; stroke-linecap: square"/>
   </g>
   <g id="line2d_41">
    <path d="M 407.425227 288.342552 
L 414.794575 294.116533 
L 422.163922 282.277564 
L 429.533269 287.832692 
L 436.902617 289.590328 
L 444.271964 287.947769 
L 451.641311 293.470134 
L 459.010659 291.475331 
L 466.380006 299.156363 
L 473.749353 291.511523 
L 481.1187 292.542211 
L 488.488048 289.099284 
L 495.857395 290.50764 
L 503.226742 289.904476 
L 510.59609 291.185418 
L 517.965437 291.535653 
L 525.334784 287.273703 
L 532.704132 299.426801 
L 540.073479 291.023733 
L 547.442826 290.825601 
L 554.812174 291.465993 
L 562.181521 295.33535 
L 569.550868 291.355347 
L 576.920216 291.999735 
L 584.289563 293.484414 
L 591.65891 291.610104 
L 599.028258 288.180991 
L 606.397605 291.966086 
L 613.766952 287.67861 
L 621.1363 290.32627 
L 628.505647 291.181289 
L 635.874994 290.682514 
L 643.244341 292.697096 
L 650.613689 293.899045 
L 657.983036 292.32882 
L 665.352383 290.152686 
L 672.721731 283.202988 
L 680.091078 290.627328 
L 687.460425 286.60485 
L 694.829773 289.098983 
" clip-path="url(#pbfade9affb)" style="fill: none; stroke-dasharray: 6,2.25; stroke-dashoffset: 0; stroke: #ff7f0e; stroke-width: 1.5"/>
   </g>
   <g id="line2d_42">
    <path d="M 407.425227 287.744564 
L 414.794575 282.890523 
L 422.163922 274.535361 
L 429.533269 288.118646 
L 436.902617 285.735963 
L 444.271964 283.890908 
L 451.641311 283.902366 
L 459.010659 288.852341 
L 466.380006 286.806002 
L 473.749353 289.448939 
L 481.1187 286.386606 
L 488.488048 274.577418 
L 495.857395 289.624347 
L 503.226742 284.454535 
L 510.59609 286.538587 
L 517.965437 292.144226 
L 525.334784 288.302428 
L 532.704132 293.648979 
L 540.073479 289.962526 
L 547.442826 286.986477 
L 554.812174 281.416278 
L 562.181521 283.792497 
L 569.550868 291.013144 
L 576.920216 279.078418 
L 584.289563 285.48006 
L 591.65891 291.477109 
L 599.028258 288.566719 
L 606.397605 292.466666 
L 613.766952 284.426332 
L 621.1363 280.851147 
L 628.505647 285.313979 
L 635.874994 286.279173 
L 643.244341 286.25984 
L 650.613689 298.242914 
L 657.983036 283.794417 
L 665.352383 289.387726 
L 672.721731 286.163894 
L 680.091078 283.654874 
L 687.460425 281.15652 
L 694.829773 291.251902 
" clip-path="url(#pbfade9affb)" style="fill: none; stroke-dasharray: 1.5,1.5; stroke-dashoffset: 0; stroke: #2ca02c; stroke-width: 1.5"/>
   </g>
   <g id="line2d_43">
    <path d="M 407.425227 286.7321 
L 414.794575 288.974866 
L 422.163922 280.326315 
L 429.533269 286.967103 
L 436.902617 289.128616 
L 444.271964 285.480078 
L 451.641311 289.951555 
L 459.010659 290.151911 
L 466.380006 297.452661 
L 473.749353 286.918679 
L 481.1187 288.731863 
L 488.488048 288.938946 
L 495.857395 286.875217 
L 503.226742 285.809468 
L 510.59609 287.478484 
L 517.965437 287.493513 
L 525.334784 282.684783 
L 532.704132 296.554761 
L 540.073479 286.854327 
L 547.442826 288.2435 
L 554.812174 285.869585 
L 562.181521 290.965597 
L 569.550868 289.140863 
L 576.920216 289.031764 
L 584.289563 291.68873 
L 591.65891 293.09685 
L 599.028258 289.15398 
L 606.397605 293.13128 
L 613.766952 284.936337 
L 621.1363 288.686329 
L 628.505647 289.540848 
L 635.874994 285.982544 
L 643.244341 291.396678 
L 650.613689 288.41022 
L 657.983036 291.224035 
L 665.352383 288.704638 
L 672.721731 282.501941 
L 680.091078 285.202636 
L 687.460425 282.409614 
L 694.829773 283.913784 
" clip-path="url(#pbfade9affb)" style="fill: none; stroke-dasharray: 4.5,1.875,2.25,1.875; stroke-dashoffset: 0; stroke: #d62728; stroke-width: 1.5"/>
   </g>
   <g id="line2d_44">
    <path d="M 407.425227 296.810342 
L 414.794575 296.999521 
L 422.163922 292.127111 
L 429.533269 294.774668 
L 436.902617 298.581868 
L 444.271964 293.295347 
L 451.641311 302.4639 
L 459.010659 297.669873 
L 466.380006 303.532463 
L 473.749353 301.703984 
L 481.1187 298.959988 
L 488.488048 294.977825 
L 495.857395 298.824701 
L 503.226742 297.662461 
L 510.59609 297.89769 
L 517.965437 299.171646 
L 525.334784 298.278306 
L 532.704132 303.659336 
L 540.073479 299.629677 
L 547.442826 298.334975 
L 554.812174 297.507513 
L 562.181521 300.339243 
L 569.550868 297.366883 
L 576.920216 296.895781 
L 584.289563 300.146287 
L 591.65891 300.871166 
L 599.028258 296.774845 
L 606.397605 301.585659 
L 613.766952 296.741497 
L 621.1363 294.482944 
L 628.505647 294.85407 
L 635.874994 297.464637 
L 643.244341 304.10341 
L 650.613689 302.01033 
L 657.983036 299.732221 
L 665.352383 302.518226 
L 672.721731 291.78303 
L 680.091078 295.471938 
L 687.460425 295.336 
L 694.829773 300.905545 
" clip-path="url(#pbfade9affb)" style="fill: none; stroke-dasharray: 7.5,1.5,1.5,1.5; stroke-dashoffset: 0; stroke: #9467bd; stroke-width: 1.5"/>
   </g>
   <g id="line2d_45"/>
   <g id="line2d_46"/>
   <g id="line2d_47"/>
   <g id="line2d_48"/>
   <g id="line2d_49"/>
   <g id="patch_9">
    <path d="M 393.055 317.68 
L 393.055 26.16 
" style="fill: none; stroke: #000000; stroke-width: 0.8; stroke-linejoin: miter; stroke-linecap: square"/>
   </g>
   <g id="patch_10">
    <path d="M 709.2 317.68 
L 709.2 26.16 
" style="fill: none; stroke: #000000; stroke-width: 0.8; stroke-linejoin: miter; stroke-linecap: square"/>
   </g>
   <g id="patch_11">
    <path d="M 393.055 317.68 
L 709.2 317.68 
" style="fill: none; stroke: #000000; stroke-width: 0.8; stroke-linejoin: miter; stroke-linecap: square"/>
   </g>
   <g id="patch_12">
    <path d="M 393.055 26.16 
L 709.2 26.16 
" style="fill: none; stroke: #000000; stroke-width: 0.8; stroke-linejoin: miter; stroke-linecap: square"/>
   </g>
   <g id="text_32">
    <!-- protected: race -->
    <g transform="translate(505.056875 20.16) scale(0.12 -0.12)">
     <use xlink:href="#DejaVuSans-70"/>
     <use xlink:href="#DejaVuSans-72" x="63.476562"/>
     <use xlink:href="#DejaVuSans-6f" x="102.339844"/>
     <use xlink:href="#DejaVuSans-74" x="163.521484"/>
     <use xlink:href="#DejaVuSans-65" x="202.730469"/>
     <use xlink:href="#DejaVuSans-63" x="264.253906"/>
     <use xlink:href="#DejaVuSans-74" x="319.234375"/>
     <use xlink:href="#DejaVuSans-65" x="358.443359"/>
     <use xlink:href="#DejaVuSans-64" x="419.966797"/>
     <use xlink:href="#DejaVuSans-3a" x="483.443359"/>
     <use xlink:href="#DejaVuSans-20" x="517.134766"/>
     <use xlink:href="#DejaVuSans-72" x="548.921875"/>
     <use xlink:href="#DejaVuSans-61" x="590.035156"/>
     <use xlink:href="#DejaVuSans-63" x="651.314453"/>
     <use xlink:href="#DejaVuSans-65" x="706.294922"/>
    </g>
   </g>
   <g id="legend_2">
    <g id="patch_13">
     <path d="M 558.44375 122.22875 
L 702.2 122.22875 
Q 704.2 122.22875 704.2 120.22875 
L 704.2 33.16 
Q 704.2 31.16 702.2 31.16 
L 558.44375 31.16 
Q 556.44375 31.16 556.44375 33.16 
L 556.44375 120.22875 
Q 556.44375 122.22875 558.44375 122.22875 
z
" style="fill: #ffffff; opacity: 0.8; stroke: #cccccc; stroke-linejoin: miter"/>
    </g>
    <g id="text_33">
     <!-- model -->
     <g transform="translate(614.752344 42.758437) scale(0.1 -0.1)">
      <use xlink:href="#DejaVuSans-6d"/>
      <use xlink:href="#DejaVuSans-6f" x="97.412109"/>
      <use xlink:href="#DejaVuSans-64" x="158.59375"/>
      <use xlink:href="#DejaVuSans-65" x="222.070312"/>
      <use xlink:href="#DejaVuSans-6c" x="283.59375"/>
     </g>
    </g>
    <g id="line2d_50">
     <path d="M 560.44375 53.936562 
L 570.44375 53.936562 
L 580.44375 53.936562 
" style="fill: none; stroke: #1f77b4; stroke-width: 1.5; stroke-linecap: square"/>
    </g>
    <g id="text_34">
     <!-- None -->
     <g transform="translate(588.44375 57.436562) scale(0.1 -0.1)">
      <use xlink:href="#DejaVuSans-4e"/>
      <use xlink:href="#DejaVuSans-6f" x="74.804688"/>
      <use xlink:href="#DejaVuSans-6e" x="135.986328"/>
      <use xlink:href="#DejaVuSans-65" x="199.365234"/>
     </g>
    </g>
    <g id="line2d_51">
     <path d="M 560.44375 68.614688 
L 570.44375 68.614688 
L 580.44375 68.614688 
" style="fill: none; stroke-dasharray: 6,2.25; stroke-dashoffset: 0; stroke: #ff7f0e; stroke-width: 1.5"/>
    </g>
    <g id="text_35">
     <!-- logisticregression -->
     <g transform="translate(588.44375 72.114688) scale(0.1 -0.1)">
      <use xlink:href="#DejaVuSans-6c"/>
      <use xlink:href="#DejaVuSans-6f" x="27.783203"/>
      <use xlink:href="#DejaVuSans-67" x="88.964844"/>
      <use xlink:href="#DejaVuSans-69" x="152.441406"/>
      <use xlink:href="#DejaVuSans-73" x="180.224609"/>
      <use xlink:href="#DejaVuSans-74" x="232.324219"/>
      <use xlink:href="#DejaVuSans-69" x="271.533203"/>
      <use xlink:href="#DejaVuSans-63" x="299.316406"/>
      <use xlink:href="#DejaVuSans-72" x="354.296875"/>
      <use xlink:href="#DejaVuSans-65" x="393.160156"/>
      <use xlink:href="#DejaVuSans-67" x="454.683594"/>
      <use xlink:href="#DejaVuSans-72" x="518.160156"/>
      <use xlink:href="#DejaVuSans-65" x="557.023438"/>
      <use xlink:href="#DejaVuSans-73" x="618.546875"/>
      <use xlink:href="#DejaVuSans-73" x="670.646484"/>
      <use xlink:href="#DejaVuSans-69" x="722.746094"/>
      <use xlink:href="#DejaVuSans-6f" x="750.529297"/>
      <use xlink:href="#DejaVuSans-6e" x="811.710938"/>
     </g>
    </g>
    <g id="line2d_52">
     <path d="M 560.44375 83.292812 
L 570.44375 83.292812 
L 580.44375 83.292812 
" style="fill: none; stroke-dasharray: 1.5,1.5; stroke-dashoffset: 0; stroke: #2ca02c; stroke-width: 1.5"/>
    </g>
    <g id="text_36">
     <!-- decisiontreeclassifier -->
     <g transform="translate(588.44375 86.792812) scale(0.1 -0.1)">
      <use xlink:href="#DejaVuSans-64"/>
      <use xlink:href="#DejaVuSans-65" x="63.476562"/>
      <use xlink:href="#DejaVuSans-63" x="125"/>
      <use xlink:href="#DejaVuSans-69" x="179.980469"/>
      <use xlink:href="#DejaVuSans-73" x="207.763672"/>
      <use xlink:href="#DejaVuSans-69" x="259.863281"/>
      <use xlink:href="#DejaVuSans-6f" x="287.646484"/>
      <use xlink:href="#DejaVuSans-6e" x="348.828125"/>
      <use xlink:href="#DejaVuSans-74" x="412.207031"/>
      <use xlink:href="#DejaVuSans-72" x="451.416016"/>
      <use xlink:href="#DejaVuSans-65" x="490.279297"/>
      <use xlink:href="#DejaVuSans-65" x="551.802734"/>
      <use xlink:href="#DejaVuSans-63" x="613.326172"/>
      <use xlink:href="#DejaVuSans-6c" x="668.306641"/>
      <use xlink:href="#DejaVuSans-61" x="696.089844"/>
      <use xlink:href="#DejaVuSans-73" x="757.369141"/>
      <use xlink:href="#DejaVuSans-73" x="809.46875"/>
      <use xlink:href="#DejaVuSans-69" x="861.568359"/>
      <use xlink:href="#DejaVuSans-66" x="889.351562"/>
      <use xlink:href="#DejaVuSans-69" x="924.556641"/>
      <use xlink:href="#DejaVuSans-65" x="952.339844"/>
      <use xlink:href="#DejaVuSans-72" x="1013.863281"/>
     </g>
    </g>
    <g id="line2d_53">
     <path d="M 560.44375 97.970937 
L 570.44375 97.970937 
L 580.44375 97.970937 
" style="fill: none; stroke-dasharray: 4.5,1.875,2.25,1.875; stroke-dashoffset: 0; stroke: #d62728; stroke-width: 1.5"/>
    </g>
    <g id="text_37">
     <!-- adaboostclassifier -->
     <g transform="translate(588.44375 101.470937) scale(0.1 -0.1)">
      <use xlink:href="#DejaVuSans-61"/>
      <use xlink:href="#DejaVuSans-64" x="61.279297"/>
      <use xlink:href="#DejaVuSans-61" x="124.755859"/>
      <use xlink:href="#DejaVuSans-62" x="186.035156"/>
      <use xlink:href="#DejaVuSans-6f" x="249.511719"/>
      <use xlink:href="#DejaVuSans-6f" x="310.693359"/>
      <use xlink:href="#DejaVuSans-73" x="371.875"/>
      <use xlink:href="#DejaVuSans-74" x="423.974609"/>
      <use xlink:href="#DejaVuSans-63" x="463.183594"/>
      <use xlink:href="#DejaVuSans-6c" x="518.164062"/>
      <use xlink:href="#DejaVuSans-61" x="545.947266"/>
      <use xlink:href="#DejaVuSans-73" x="607.226562"/>
      <use xlink:href="#DejaVuSans-73" x="659.326172"/>
      <use xlink:href="#DejaVuSans-69" x="711.425781"/>
      <use xlink:href="#DejaVuSans-66" x="739.208984"/>
      <use xlink:href="#DejaVuSans-69" x="774.414062"/>
      <use xlink:href="#DejaVuSans-65" x="802.197266"/>
      <use xlink:href="#DejaVuSans-72" x="863.720703"/>
     </g>
    </g>
    <g id="line2d_54">
     <path d="M 560.44375 112.649062 
L 570.44375 112.649062 
L 580.44375 112.649062 
" style="fill: none; stroke-dasharray: 7.5,1.5,1.5,1.5; stroke-dashoffset: 0; stroke: #9467bd; stroke-width: 1.5"/>
    </g>
    <g id="text_38">
     <!-- randomforestclassifier -->
     <g transform="translate(588.44375 116.149062) scale(0.1 -0.1)">
      <use xlink:href="#DejaVuSans-72"/>
      <use xlink:href="#DejaVuSans-61" x="41.113281"/>
      <use xlink:href="#DejaVuSans-6e" x="102.392578"/>
      <use xlink:href="#DejaVuSans-64" x="165.771484"/>
      <use xlink:href="#DejaVuSans-6f" x="229.248047"/>
      <use xlink:href="#DejaVuSans-6d" x="290.429688"/>
      <use xlink:href="#DejaVuSans-66" x="387.841797"/>
      <use xlink:href="#DejaVuSans-6f" x="423.046875"/>
      <use xlink:href="#DejaVuSans-72" x="484.228516"/>
      <use xlink:href="#DejaVuSans-65" x="523.091797"/>
      <use xlink:href="#DejaVuSans-73" x="584.615234"/>
      <use xlink:href="#DejaVuSans-74" x="636.714844"/>
      <use xlink:href="#DejaVuSans-63" x="675.923828"/>
      <use xlink:href="#DejaVuSans-6c" x="730.904297"/>
      <use xlink:href="#DejaVuSans-61" x="758.6875"/>
      <use xlink:href="#DejaVuSans-73" x="819.966797"/>
      <use xlink:href="#DejaVuSans-73" x="872.066406"/>
      <use xlink:href="#DejaVuSans-69" x="924.166016"/>
      <use xlink:href="#DejaVuSans-66" x="951.949219"/>
      <use xlink:href="#DejaVuSans-69" x="987.154297"/>
      <use xlink:href="#DejaVuSans-65" x="1014.9375"/>
      <use xlink:href="#DejaVuSans-72" x="1076.460938"/>
     </g>
    </g>
   </g>
  </g>
 </g>
 <defs>
  <clipPath id="pc84a32402c">
   <rect x="48.17" y="26.16" width="316.145" height="291.52"/>
  </clipPath>
  <clipPath id="pbfade9affb">
   <rect x="393.055" y="26.16" width="316.145" height="291.52"/>
  </clipPath>
 </defs>
</svg>
